<svg viewBox="0 0 1200 1200" xmlns="http://www.w3.org/2000/svg" xmlns:xlink="http://www.w3.org/1999/xlink"><radialGradient id="a" cx="602.96" cy="600.84" gradientTransform="matrix(1 0 0 1.12 0 -57.93)" gradientUnits="userSpaceOnUse" r="853.33"><stop offset="0" stop-color="#00adb7"/><stop offset=".37" stop-color="#0683a0"/><stop offset=".58" stop-color="#0686a1"/><stop offset="1" stop-color="#0f4c81"/></radialGradient><linearGradient id="b" gradientUnits="userSpaceOnUse" x1="323.36" x2="876.64" y1="600" y2="600"><stop offset="0" stop-color="#00adb7"/><stop offset="0" stop-color="#01a9b5"/><stop offset=".53" stop-color="#0683a0"/><stop offset=".84" stop-color="#0c5c8a"/><stop offset="1" stop-color="#0f4c81"/></linearGradient><linearGradient id="c" x1="322.86" x2="877.14" xlink:href="#a" y1="600" y2="600"/><path d="m-466.27-11.84h2138.46v1249.64h-2138.46z" fill="url(#a)" stroke="#000" stroke-miterlimit="10"/><path d="m215.82 928.33h268.08v169.22h-268.08z" fill="none" stroke="#ededed" stroke-miterlimit="10"/><path d="m215.82 928.33h268.08v24.27h-268.08z" fill="none" stroke="#ededed" stroke-miterlimit="10"/><path d="m233.07 966.73h233.58v53.97h-233.58z" fill="none" stroke="#ededed" stroke-miterlimit="10"/><path d="m233.07 1027.33h71.87v59.99h-71.87z" fill="none" stroke="#ededed" stroke-miterlimit="10"/><path d="m313.92 1027.33h71.87v59.99h-71.87z" fill="none" stroke="#ededed" stroke-miterlimit="10"/><path d="m394.78 1027.33h71.87v59.99h-71.87z" fill="none" stroke="#ededed" stroke-miterlimit="10"/><path d="m1044.44 962.96h-187.56" fill="none" stroke="#fff" stroke-miterlimit="10"/><path d="m850.19 909.02v-116.28h285.13v63.08" fill="none" stroke="#fff" stroke-miterlimit="10"/><path d="m1044.44 855.82h128.79v157.13h-128.79z" fill="none" stroke="#fff" stroke-miterlimit="10"/><path d="m850.19 792.74h285.12v16.5h-285.12z" fill="none" stroke="#fff" stroke-miterlimit="10"/><path d="m1044.44 855.82h128.79v16.5h-128.79z" fill="none" stroke="#fff" stroke-miterlimit="10"/><path d="m860.35 817.04h132.41v87.16h-132.41z" fill="none" stroke="#fff" stroke-miterlimit="10"/><path d="m992.75 817.04-132.4 87.16" fill="none" stroke="#fff" stroke-miterlimit="10"/><path d="m1052.67 877.85h112.33v87.16h-112.33z" fill="none" stroke="#fff" stroke-miterlimit="10"/><path d="m801.24 909.02h55.64v95.2h-55.64z" fill="none" stroke="#fff" stroke-miterlimit="10"/><path d="m801.24 909.02h55.64v8.97h-55.64z" fill="none" stroke="#fff" stroke-miterlimit="10"/><path d="m805.37 922.86h47.39v33.77h-47.39z" fill="none" stroke="#fff" stroke-miterlimit="10"/><path d="m860.35 817.04 132.4 87.16" fill="none" stroke="#fff" stroke-miterlimit="10"/><path d="m1052.67 877.85 112.32 87.16" fill="none" stroke="#fff" stroke-miterlimit="10"/><path d="m1164.99 877.85-112.32 87.16" fill="none" stroke="#fff" stroke-miterlimit="10"/><path d="m805.37 922.86 47.39 33.76" fill="none" stroke="#fff" stroke-miterlimit="10"/><path d="m852.76 922.86-47.39 33.76" fill="none" stroke="#fff" stroke-miterlimit="10"/><path d="m553.06 780.06-68.24-39.4v78.8z"/><path d="m640.67 780.06-68.24-39.4v78.8z"/><path d="m728.28 780.06-68.24-39.4v78.8z"/><path d="m-495.95 870.85c25.2-15.35 61.2-10.44 132.18 0 155.48 22.87 269.21 77.95 311.77 99.76 108 55.39 92.88 68.46 167.07 102.25 126.41 57.57 225.24 44.64 339.18 49.88 106 4.87 257.72 27 443.92 107.24h-1417.06c-5.42-19.19 22.94-359.13 22.94-359.13z" fill="#fff" opacity=".2"/><path d="m1766.84-14.94-21.57 1097.29c-56.42-39.4-170.66-132.2-218.38-288.47-9.44-30.92-43.3-141.84-13.48-272.31 25.15-110 76-148.29 62-237.25-13-82.48-69.86-133-78.18-140.2-75.32-65-151.81-59.88-222.34-55.21-93.85 6.22-121 15.22-230.6 52.52-76.51 26-153.89 44.79-362.69 10.48-225.06-37-553-76.51-569.92-153.37-5.42-24.6 93.82-46.7 98.13-62h1557z" fill="#fff" opacity=".2"/><path d="m-645.31-8.7c365.76 7.19 1458.76-7.19 1824.52 0-428.35 16.7-652.81 184.36-813.44 214.35-149.1 27.84-259.58 47.07-410.66 30.43-112.19-12.36-212.2-67.38-301.11-53.36-82.48 13-133 69.86-140.2 78.18-65 75.32-58.59 172.12-53.92 242.65 6.22 93.85 29.13 96.66 51.23 210.29 15.34 78.89 39.31 210.44-13.48 345.1-16.42 41.89-52.55 134-129.41 151-24.6 5.42-46.7 1.66-62-2.65v-1215.99z" fill="#fff" opacity=".2"/><path d="m1738.39 689.74q-4.89 281.91 0 548.06h-1972.73a1081.82 1081.82 0 0 1 214.76-114.28c54.88-21.66 176-64.22 358.45-75.34 226.15-13.77 237 39.61 506.84 48 155 4.78 304.29 7.91 474.88-59.36 109-43 195.91-66.22 251.14-150.69 75-114.65 54-267.06 50.22-292.23-9-59.62-21.7-60.43-27.39-121-10.56-112.57 24.51-200.9 38.81-232.9a471.32 471.32 0 0 1 127.85-169q-16.89 298.91-22.83 618.74z" fill="#fff" opacity=".2"/><path d="m1332.44 1217.45h-2167.37a1230.7 1230.7 0 0 1 236-114.27c60.29-21.66 193.3-64.23 393.8-75.34 248.48-13.77 260.37 39.61 556.85 47.94 202.91 5.71 369.7-28.07 521.73-59.36 60.88-12.52 80.92-18.35 110-24.52 144.87-30.77 366.52-39.46 694.86 67.48v167.25" fill="#fff" opacity=".3"/><path d="m1520.26-30h-2167.37a1231 1231 0 0 0 236 114.27c60.29 21.67 193.31 64.23 393.81 75.34 248.43 13.78 260.3-39.61 556.8-47.94 202.91-5.67 369.7 28.08 521.73 59.33 60.88 12.53 80.93 18.35 110 24.52 144.87 30.78 366.52 39.46 694.86-67.48v-167.22" fill="#fff" opacity=".3"/><path d="m942.25 334.62h190.63a21.06 21.06 0 0 1 21 21v84.26a21.06 21.06 0 0 1 -21 21h-16.88l-7.46 12.92-7.46-12.92h-158.83a21.06 21.06 0 0 1 -21-21v-84.26a21.06 21.06 0 0 1 21-21z" fill="none" stroke="#fff" stroke-miterlimit="10"/><path d="m1090.18 419.94 38.7 26.43h-115.39l-68.69-46.91h38.7" fill="none" stroke="#fff" stroke-miterlimit="10"/><path d="m1089.97 393.37 38.91 26.57h-115.39l-68.69-46.91h38.7" fill="none" stroke="#fff" stroke-miterlimit="10"/><path d="m1128.88 393.51h-115.39l-68.69-46.91h115.39z" fill="none" stroke="#fff" stroke-miterlimit="10"/><path d="m976.38 352.61h34.78c15.8-.05 36.17-.58 49.54 7.85 4.22 2.66 3.28 5.92-4.28 6.87l.31.21c10.35.6 23.81 1.75 30.73 7.51 9.34 7.79-21.21 9.19-27 9.36h-37.47zm52.19 13c13.34 0 16.78-1.63 13.07-4.17-4.08-2.79-12-3.9-24.6-3.9h-12.49l11.81 8.07zm22.84 13.95c14.33 0 19.74-2.12 15-4.85-7.86-4.57-19-4.56-28.62-4.42h-14.62l13.57 9.27z" fill="#fff"/><g stroke-miterlimit="10"><path d="m171.41 662.51h-188.41a21.33 21.33 0 0 0 -21.27 21.27 21.33 21.33 0 0 0 21.27 21.22h17.76l7.42 12.85 7.42-12.85h155.81a21.27 21.27 0 0 0 0-42.53z" fill="none" stroke="#fff"/><path d="m-16.06 683.78h186.56" fill="none" stroke="#fff"/><path d="m163.94 728.15h116.22a21.27 21.27 0 1 1 0 42.53h-17.73l-7.43 12.85-7.41-12.85h-83.65a21.27 21.27 0 1 1 0-42.53z" fill="none" stroke="#fff"/><path d="m279.25 749.42h-114.31" fill="none" stroke="#fff"/><path d="m194.48 334h-106.94v-133.02h213.89v30.17" fill="none" stroke="#fff"/><path d="m287.54 200.98h13.88v30.17h-13.88z" fill="none" stroke="#fff"/><path d="m273.66 200.98h13.88v30.17h-13.88z" fill="none" stroke="#fff"/><path d="m259.78 200.98h13.88v30.17h-13.88z" fill="none" stroke="#fff"/><path d="m245.9 200.98h13.88v30.17h-13.88z" fill="none" stroke="#fff"/><path d="m232.02 200.98h13.88v30.17h-13.88z" fill="none" stroke="#fff"/><path d="m162.43 260.45-9.57-9.57-3.2 3.19 12.77 12.78 12.77-12.78-3.2-3.19z" fill="none" stroke="#fff"/><path d="m162.43 272.28-9.57-9.57-3.2 3.2 12.77 12.77 12.77-12.77-3.2-3.2z" fill="none" stroke="#fff"/><path d="m162.43 284.12-9.57-9.57-3.2 3.2 12.77 12.76 12.77-12.76-3.2-3.2z" fill="none" stroke="#fff"/><path d="m194.48 231.15h213.89v133.02h-213.89z" fill="none" stroke="#fff"/><path d="m194.48 243.66h39.35v1.96h-39.35z" fill="none" stroke="#ededed"/><path d="m273.18 243.66h39.35v1.96h-39.35z" fill="none" stroke="#ededed"/><path d="m312.53 243.66h39.35v1.96h-39.35z" fill="none" stroke="#ededed"/><path d="m351.88 243.66h39.35v1.96h-39.35z" fill="none" stroke="#ededed"/><path d="m273.18 245.62v-11.29h-39.35v11.29h-39.35v101.38h213.89v-101.38z" fill="none" stroke="#fff"/><path d="m304.11 325.69a28.86 28.86 0 0 1 -27.59-37.23 28.84 28.84 0 1 0 53.12 21.8 28.84 28.84 0 0 1 -25.53 15.43z" fill="none" stroke="#fff"/><path d="m310.85 308.44a21.22 21.22 0 0 1 -20.3-27.4 21.22 21.22 0 1 0 39.09 16 21.22 21.22 0 0 1 -18.79 11.4z" fill="none" stroke="#fff"/><path d="m316.85 293.29a14.46 14.46 0 0 1 -13.85-18.65 14.45 14.45 0 1 0 26.62 10.92 14.44 14.44 0 0 1 -12.77 7.73z" fill="none" stroke="#fff"/><path d="m122.98 792.74 66.32 125.25" fill="none" opacity=".7" stroke="#fff"/><path d="m87.54 625.64 74.08-234.44" fill="none" opacity=".7" stroke="#fff"/><path d="m1081.21 503.22-59.27 244.84" fill="none" opacity=".7" stroke="#fff"/><path d="m992.75 297.66-173.22-111.66" fill="none" opacity=".7" stroke="#fff"/><path d="m612.21 165.44-173.1 55.16" fill="none" opacity=".7" stroke="#fff"/><path d="m521.89 1022.36 263.38-36.52" fill="none" opacity=".7" stroke="#fff"/><circle cx="608.38" cy="1052.82" fill="none" opacity=".7" r="4.64" stroke="#fff"/><circle cx="29.39" cy="914.47" fill="none" opacity=".7" r="4.64" stroke="#fff"/><path d="m364.29 250.46h8.7v8.7h-8.7z" fill="none" opacity=".7" stroke="#fff" transform="matrix(.70710678 .70710678 -.70710678 .70710678 288.15 -186.03)"/><path d="m1159.36 586.23h8.7v8.7h-8.7z" fill="none" opacity=".7" stroke="#fff" transform="matrix(.70710678 .70710678 -.70710678 .70710678 758.45 -649.89)"/></g><circle cx="1194.74" cy="272.26" fill="#fff" opacity=".7" r="2.22"/><circle cx="898.76" cy="935.35" fill="#fff" opacity=".7" r="2.22"/><circle cx="113.01" cy="274.49" fill="#fff" opacity=".7" r="2.22"/><path d="m742.61 196.35h6.53" fill="none" stroke="#fff" stroke-miterlimit="10"/><path d="m745.88 193.02v6.66" fill="none" stroke="#fff" stroke-miterlimit="10"/><circle cx="600" cy="600" fill="url(#b)" r="276.64" stroke="url(#c)" stroke-miterlimit="10"/><path d="m542.93 775-68.25-39.4v78.8z" fill="#ededed"/><path d="m630.53 775-68.24-39.4v78.8z" fill="#ededed"/><path d="m718.14 775-68.24-39.4v78.8z" fill="#ededed"/><path d="m309.92 653.38h11.22v5.93h-50v-5.93h11.76a34.4 34.4 0 0 0 -4.15-6l6.25-2.16a26.6 26.6 0 0 1 5.13 7.17l-3 1h15.37a53.79 53.79 0 0 0 4.54-8.31l7.12 2.1q-1.81 2.82-4.24 6.2zm-13.92 9.71v27.19q0 3.78-1.83 5a5.57 5.57 0 0 0 -.6.32c-1.37.68-3.92 1-7.66 1a19.59 19.59 0 0 0 -2.1-5.56 47.26 47.26 0 0 0 5 0 .89.89 0 0 0 .86-.91v-4.91h-9.22v11.16h-6.26v-33.29zm-6.37 5.56h-9.22v3.35h9.22zm-9.22 11.86h9.22v-3.61h-9.22zm26.38-16.83v22.5h-6v-22.5zm5 25.79v-27.35h6.48v27.46c0 2.62-.6 4.39-1.78 5.29a5.8 5.8 0 0 1 -1.08.64q-2.6 1.18-9.07 1.08a20.62 20.62 0 0 0 -2.37-6.2c3 .11 5.23.12 6.64.05.71-.14 1.11-.44 1.14-.97z" fill="#fff"/><path d="m340 681.22 4.64-1 .65 5.77q-4.32 1.14-12.84 3.24l-5.83 1.46-1.4-6.42q2.16-.33 11.71-2.32l-2-.54a133 133 0 0 0 2.64-18.72l6 1.24q-1.78 10.55-3.57 17.29zm3.83-25.52v5.88h-17.46v-5.88h6v-9.7h5.88v9.71zm-10.09 23.68-5.12.92a88.19 88.19 0 0 0 -1.62-16.3l4.91-1a79.07 79.07 0 0 1 1.85 16.38zm43.26-8.68h-13l-1.45 3.66h13.59v16.78c0 2.2-.41 3.65-1.24 4.37a4.45 4.45 0 0 1 -.54.38q-1.66 1-5.61 1a19.21 19.21 0 0 0 -1.46-4.91v4.21h-5v-16.32h-3v16.29h-5v-16.29h-2.81v16.78h-5.82v-22.29h10.19c.07-.32.16-.82.27-1.51.22-.93.36-1.65.43-2.15h-12.05v-5.83h32.5zm-1.73-22.82v14.12h-28.83v-14.12h6v8.41h5v-10.9h6.25v10.9h5.4v-8.41zm-5 43.21v-11.22h-3v11.76h2.43a.66.66 0 0 0 .59-.54z" fill="#fff"/><path d="m386.2 660.12 6.26 1.62q-2.43 13.28-5.72 19l-6.31-2.37a51.93 51.93 0 0 0 5.66-17.64c.04-.23.07-.43.11-.61zm19 29.51h8.42a2.67 2.67 0 0 0 2.7-1.62q.7-1.72 1-7.76a16.64 16.64 0 0 0 6.26 2.69.4.4 0 0 0 .16.06q-.69 8.31-3 10.89c-1.4 1.55-3.6 2.32-6.58 2.32h-9.66c-4 0-6.58-.82-7.87-2.48a9.73 9.73 0 0 1 -1.62-5.5 77.06 77.06 0 0 1 -10.2 5.93 29.11 29.11 0 0 0 -4.31-5.18 76.7 76.7 0 0 0 14.5-8.73v-22.61h7v16.67a86.49 86.49 0 0 0 19.15-25.84l6.64 2.59a101.38 101.38 0 0 1 -25.79 32v3.4c0 1.58.27 2.53.81 2.86a6.44 6.44 0 0 0 2.43.31zm7.88-35.06-4.32 5.34q-6.14-5.07-13.16-9.93l4.26-4.8q6.36 4.05 13.26 9.39zm5.45 12.08 5.93-2.81a68.76 68.76 0 0 1 7.83 14.95c.18.54.34 1 .48 1.51l-6.26 3.18a68.44 68.44 0 0 0 -6.95-15.16c-.33-.61-.67-1.17-.99-1.67z" fill="#fff"/><path d="m463.46 665.09c-.29.5-.58 1-.87 1.45s-.61 1-1 1.46h23.52v22.76a8.59 8.59 0 0 1 -.43 3.08 3.41 3.41 0 0 1 -1.67 1.73 7.26 7.26 0 0 1 -2.91.75c-1.12.07-2.4.11-3.83.11a18 18 0 0 0 -.73-2.56 23.46 23.46 0 0 0 -1-2.4h2.13 1.48c.51 0 .76-.27.76-.81v-2.37h-6.21v7.17h-5.88v-7.17h-6v8.25h-6.36v-20.72l-1.55 1.18-1.54 1.13a11.23 11.23 0 0 0 -.65-1.1c-.29-.45-.59-.91-.91-1.38l-1-1.4a12.5 12.5 0 0 0 -.92-1.19v23.52h-6.31v-27.3c-.51.79-1 1.53-1.54 2.21s-1 1.34-1.54 2c-.14-.4-.34-.91-.59-1.54s-.52-1.28-.81-1.94-.6-1.32-.92-2-.61-1.19-.86-1.62a40 40 0 0 0 3.18-4.39 57.84 57.84 0 0 0 2.92-5.18c.91-1.83 1.76-3.74 2.53-5.72s1.45-4 2-6l6 1.73c-.58 1.84-1.2 3.64-1.86 5.42s-1.42 3.56-2.24 5.32v15a30.68 30.68 0 0 0 4.56-3.31 29.1 29.1 0 0 0 3.91-4.18h-6.21v-6.08h9.55v-3.45h-7.87v-6h7.87v-4.26h6.21v4.26h6.74v-4.26h6.39v4.26h6.75v6h-6.75v3.45h8v6.05zm3.39 10.84v-2.7h-6v2.7zm0 7.71v-3h-6v3zm-.91-24.6h6.74v-3.45h-6.74zm13 14.19h-6.21v2.7h6.21zm0 10.41v-3h-6.21v3z" fill="#fff"/><path d="m509.8 668.7.81 6-5.88 1.62v13.21q0 3.88-1.68 5.24a4.39 4.39 0 0 1 -.81.54q-2.31 1.19-8.36 1.18a25.19 25.19 0 0 0 -1.89-6h5.13q1-.21 1.08-1.08v-11.32l-5.4 1.35-1.67-6.26c1.3-.25 3.65-.79 7.07-1.62v-9.77h-6.37v-6.09h6.37v-10.47h6.53v10.47h5.39v6.09h-5.39v8.15zm27.2-3.24 4.15 1.78a40.56 40.56 0 0 1 -10.25 18.35 39.05 39.05 0 0 0 12.79 5.61 22.17 22.17 0 0 0 -4.1 5.45.56.56 0 0 1 -.11.21 40 40 0 0 1 -13.75-7 53.52 53.52 0 0 1 -14.57 6.8 21 21 0 0 0 -3.4-5.88l-.11-.11a43.28 43.28 0 0 0 13.22-5.39 46.56 46.56 0 0 1 -7.87-13.13l1.68-.48h-2.86v-5.88h10.84v-6.64h-11.84v-6.1h11.87v-7.87h6.53v7.87h12.41v6.1h-12.41v6.64h6.63zm-4.15 6.21h-13.4a32.14 32.14 0 0 0 6.53 9.76 31.82 31.82 0 0 0 6.91-9.76z" fill="#fff"/><path d="m562.4 651 5.5-2.1q5.24 7.77 6.69 12.84l-6 2.42a22.07 22.07 0 0 0 -1-2.91q-6.86.43-20.45 1.24l-.54-6.26c.83 0 2.27 0 4.32-.1a81.68 81.68 0 0 0 4-11.06l6.85 1.35q-2.43 6-4.1 9.44l7.34-.33-.46-.86c-.16-.29-.36-.63-.6-1l-.46-.8c-.07-.15-.26-.49-.59-1zm8.25 14v25.09c0 2.59-.63 4.31-1.89 5.18l-.48.27q-2.38 1.08-7.72 1.08a22.56 22.56 0 0 0 -2.1-5.83 35.46 35.46 0 0 0 4.85 0q.81-.21.87-.81v-3.67h-8.26v10.41h-6.09v-31.72zm-6.47 5.45h-8.26v2.86h8.26zm-8.26 10.95h8.26v-3.2h-8.26zm34.75-11.4h-7.61q-5.29 0-6.85-2.16c-.79-1.15-1.19-3.1-1.19-5.83v-16.62h6.53v7.88a77.84 77.84 0 0 0 9.92-4.58l4.21 4.74a101.61 101.61 0 0 1 -14.13 5.24v3.23c0 1.15.23 1.84.7 2.05a6.51 6.51 0 0 0 1.73.16h6a1.7 1.7 0 0 0 1.83-1.24 20.62 20.62 0 0 0 .54-4.42 14.82 14.82 0 0 0 5.56 2.37l.21.06c-.39 4.13-1.34 6.78-2.86 7.93a7.58 7.58 0 0 1 -4.59 1.19zm-6.67 20.66h6.31a1.89 1.89 0 0 0 1.94-1.35 28.05 28.05 0 0 0 .6-5.23 17.33 17.33 0 0 0 5.72 2.42q-.6 6.64-2.75 8.53a7.39 7.39 0 0 1 -4.92 1.4h-7.82c-3.52 0-5.81-.72-6.85-2.16q-1.25-1.78-1.24-5.82v-17.32h6.47v7.44a58.9 58.9 0 0 0 10.36-5.18l4.37 4.81a84 84 0 0 1 -14.73 5.88v4.37c0 1.15.26 1.81.76 2a5.05 5.05 0 0 0 1.78.21z" fill="#fff"/><path d="m602.26 666.92h50.82v7.08h-50.82z" fill="#fff"/><path d="m672.77 672.75 1.89 5.93q-7.33 5-14.73 9.39l-3.12-6.48q5.66-2.8 15.96-8.84zm0-18.78v6.26h-14.51v-6.23zm19.58 7.34v5.61a24.24 24.24 0 0 0 3.65 12.57 28 28 0 0 0 13.11 11.27 51.05 51.05 0 0 0 -4.16 6 29.36 29.36 0 0 1 -13.05-12 24 24 0 0 1 -3-7.12 27.12 27.12 0 0 1 -6.26 10.57 33.8 33.8 0 0 1 -11.87 8.58 23.56 23.56 0 0 0 -3.78-5.29l-.21-.22q11.64-4.68 16.34-14.78a23 23 0 0 0 2.28-9.5v-5.66h-4.4a46.27 46.27 0 0 1 -5.71 10.09 29.52 29.52 0 0 0 -6-3.51.5.5 0 0 1 -.16-.11q6.38-6.84 9.39-20.77c.11-.57.22-1.11.32-1.62l6.85 1.24a81 81 0 0 1 -2.21 8.1h19l1.3-.33 4.85 2.81a72.7 72.7 0 0 1 -6.36 15.16 40.82 40.82 0 0 0 -5.56-2.7 55.22 55.22 0 0 0 3.45-8.36z" fill="#fff"/><path d="m758.12 665h4.21v11.33h-6.53v-6.59h-35.5v6.59h-6.2v-11.33h4.21l-1-17.32 3.62.7a73 73 0 0 0 7.5-2.91l3 3.56a42.31 42.31 0 0 1 -7.77 2.75l.05 1.24h7.29v4.1h-7.07l.07 1.88h7.12v2.7c.93-.47 2.21-1.19 3.83-2.16l-3-1.78 3.07-2.48a33.37 33.37 0 0 1 3.18 1.78 13.67 13.67 0 0 0 2-2.27l4.27 1.24a18 18 0 0 1 -2.81 3.24 28 28 0 0 1 3 2.37l-3.35 2.75a21.43 21.43 0 0 0 -2.8-2.42 35.35 35.35 0 0 1 -4.64 3 23.61 23.61 0 0 0 -2.75-2.37v.4h-6.91l.11 1.94h27.57l.16-1.94h-6.55v-4h7l.1-1.89h-6.9v-4.11h7.17l.11-1.89h-7.5v-4.11h13.92q-.52 11-1.28 18zm-9.39 6.8 3.62 3.34a81.5 81.5 0 0 1 -9.55 6.37h19.37v5.18h-20.88v4c0 2.34-.52 3.88-1.57 4.64a7 7 0 0 1 -1.29.64q-2.26.87-8.74.87h-.69a21.49 21.49 0 0 0 -2.1-5.51c1.79.08 4.08.11 6.85.11.75-.11 1.15-.43 1.18-1v-3.77h-20.83v-5.18h20.82v-2.49h3.29a25.09 25.09 0 0 0 3.46-2.27h-17.81v-4.63h23.47zm-4.58-19.8-3.18 2.8c-.62-.57-1.5-1.33-2.65-2.26a48.23 48.23 0 0 1 -4.42 2.75 25.93 25.93 0 0 0 -3.45-3 28.06 28.06 0 0 0 4.31-2.21c-.86-.51-1.85-1.06-3-1.67l3.08-2.54a33.37 33.37 0 0 1 3.18 1.78 19.2 19.2 0 0 0 1.94-2.1l4.27 1.24a20.94 20.94 0 0 1 -2.81 3.07c1.4 1.02 2.3 1.72 2.73 2.14z" fill="#fff"/><path d="m785.64 656 3.93.65q-.92 14.94-4.64 24.38a42.18 42.18 0 0 1 6 5.78l-3.93 5.3a49 49 0 0 0 -4.91-5.23 30.9 30.9 0 0 1 -10.09 10.12 19.25 19.25 0 0 0 -3.94-5.18 22.94 22.94 0 0 0 9-9.06 37 37 0 0 0 -3-2.27l-.48 1.73-5.34-2.81q1.45-5.28 3.94-17.15h-4.32v-6.05h5.45q1.46-8.08 1.89-10.89l6.2.54q-.43 2.53-1.94 10.35h5zm-2.59 6.21h-4.81q-.54 2.7-2.64 12.08.75.48 4.1 2.81a64.55 64.55 0 0 0 3.35-14.87zm36.14 4.85v6.21h-12.14v16.18q0 4.21-1.83 5.56a5.28 5.28 0 0 1 -.92.54c-1.87.82-4.94 1.22-9.22 1.18a25.2 25.2 0 0 0 -2.38-6.47q5.13.21 6.64.11c.72-.18 1.11-.51 1.18-1v-16.08h-11.65v-6.21h11.65v-6.42h2.05a48.46 48.46 0 0 0 5.29-6.58h-17.15v-6.08h21.58l1.34-.37 4.32 3.23a80.46 80.46 0 0 1 -10.9 13.14v3.13z" fill="#fff"/><path d="m868.61 665h4.21v11.33h-6.53v-6.59h-35.5v6.59h-6.2v-11.33h4.2l-1-17.32 3.61.7a73 73 0 0 0 7.5-2.91l3 3.56a41.79 41.79 0 0 1 -7.77 2.75l.06 1.24h7.28v4.1h-7.07l.11 1.89h7.12v2.7c.94-.47 2.22-1.19 3.83-2.16l-3-1.78 3.08-2.48a33.37 33.37 0 0 1 3.18 1.78 14.13 14.13 0 0 0 2-2.27l4.28 1.2a18 18 0 0 1 -2.8 3.24 27 27 0 0 1 3 2.37l-3.34 2.75a21.57 21.57 0 0 0 -2.86-2.36 35.24 35.24 0 0 1 -4.63 3 23.66 23.66 0 0 0 -2.76-2.37v.37h-6.9l.11 1.94h27.58l.17-1.94h-6.57v-4h7l.11-1.89h-6.9v-4.11h7.17l.11-1.89h-7.5v-4.11h13.92q-.55 11-1.3 18zm-9.39 6.8 3.62 3.34a82.36 82.36 0 0 1 -9.55 6.37h19.36v5.18h-20.87v4c0 2.34-.53 3.88-1.57 4.64a7.75 7.75 0 0 1 -1.29.64c-1.51.58-4.43.87-8.74.87h-.71a20.77 20.77 0 0 0 -2.1-5.51c1.8.08 4.08.11 6.85.11.76-.11 1.15-.43 1.19-1v-3.77h-20.82v-5.18h20.82v-2.49h3.29a24.45 24.45 0 0 0 3.45-2.27h-17.8v-4.63h23.47zm-4.58-19.8-3.19 2.8c-.61-.57-1.49-1.33-2.64-2.26a49.65 49.65 0 0 1 -4.42 2.75 25.4 25.4 0 0 0 -3.46-3 27.68 27.68 0 0 0 4.32-2.21c-.86-.51-1.86-1.06-3-1.67l3.08-2.54a34.65 34.65 0 0 1 3.18 1.78 21.41 21.41 0 0 0 1.94-2.1l4.26 1.24a20.33 20.33 0 0 1 -2.8 3.07c1.39 1.02 2.29 1.72 2.73 2.14z" fill="#fff"/><path d="m890.35 665.14-3.83 5.34a32.54 32.54 0 0 0 -8.58-5.34l3.56-4.8q6.32 2.48 8.85 4.8zm-5.56 31.07-5.93-3.39a152.23 152.23 0 0 0 7.12-17.7l5.34 3.4q-2.53 8.21-6.53 17.69zm36.8-32.74h-8.47v2.64h15v25.09q0 3.18-1.41 4.2a2.84 2.84 0 0 1 -.7.44c-1.18.57-3.54.86-7.06.86a16.91 16.91 0 0 0 -1.46-4.8 37.54 37.54 0 0 0 4.1 0c.47-.07.72-.31.75-.7v-3.67a12.91 12.91 0 0 0 -1.83 1.89 13 13 0 0 1 -2.43-4.8 11.42 11.42 0 0 1 -3.4 5 10.3 10.3 0 0 0 -1.61-1.94v8.79h-5.67v-8.67a10 10 0 0 0 -1.57 1.67 15 15 0 0 1 -2.32-4.59 12 12 0 0 1 -3.34 5.24 11.81 11.81 0 0 0 -1.73-2v8.63h-5.61v-30.64h14.57v-2.64h-7.83v-8.64h-7.49v-3.5l-3.51 4.75a30.15 30.15 0 0 0 -7.82-5.24c-.26-.1-.49-.21-.71-.32l3.67-4.86a38.9 38.9 0 0 1 8.37 4.81v-1.35h7.49v-3.89h6.15v3.89h9.45v-3.89h6.42v3.89h7.55v5.71h-7.55zm-21.8 9.92h5.5q.23 8 2.11 11.6v-13.43h-9v15.27q2.37-2.8 2.81-8.1h1.13l-.11-1.29h-2.48zm5.93-18.56v3.17h9.45v-3.13zm16.67 16.73h-9.27v14.56a12.41 12.41 0 0 0 2.75-7.39h1.18l-.1-1.29h-2.54v-4.05h5.45q.27 8.54 2.53 12.14z" fill="#fff"/><path d="m284 605.59c-.78 6.31-2.51 9.74-6.91 11.87-4.2 2-9.95 2.35-17.51 2.35a45.8 45.8 0 0 0 -3.19-12.49c4.56.25 9.58.19 11.14.13s2.05-.5 2.23-2l1.35-11h-21.82c-2.08 8.76-6.49 18.78-12.32 25.72a46.93 46.93 0 0 0 -10-8.28c8.57-11.12 11.7-25.16 13.18-38.84q1.73-14.16 3.46-28.32h47.84zm66.5-82.59c-.65 5.3-1 7.94-1.62 13.24h-112.16c.64-5.3 1-7.94 1.62-13.24h26.39a70.2 70.2 0 0 0 -7.63-13.6l14.6-4.83c3.88 4.7 8 11.38 9.56 16.08l-7.11 2.35h34.45a161.51 161.51 0 0 0 12.45-18.67l15.42 4.7c-3.57 4.82-7.51 9.64-11.13 14zm-78.08 60.7c.4-3.22.59-4.82 1-8h-20.34c-.32 2.6-.76 5.19-1.35 8zm-17-27.46-1.05 8.54h20.33c.42-3.42.62-5.12 1-8.54zm53.82 40.2h-13.47l6.23-50.44h13.51zm17.76-53.93h14.5l-7.5 61.49c-.89 7.3-2.69 10.89-7.94 13.24-5 2.22-18.87 4.14-20.62 2.47-.93-.88-1.88-10-3.64-13.85 6.29.25 12.8.18 14.86.12s2.66-.49 2.87-2.22z" fill="#01000a"/><path d="m394.5 585.8c0 5.44 0 8.17-.06 13.61-13.86 3.23-27.73 6.4-41.58 9.64-.48-5.83-.72-8.75-1.19-14.59 6.33-1.11 20.22-1.69 23.36-4.58 5.67-5.2 8.23-30.51 11.09-46l12.16 1.86q-5.5 21.1-12.07 41.93zm7-46h-41.65l1.65-13.48h18a105.13 105.13 0 0 0 -4.62-16.94l12.65-3.38a92.87 92.87 0 0 1 5.69 17.31l-9.54 3h19.46zm-40.78 47.62a339 339 0 0 0 1.28-41.07l11-1.86a325.18 325.18 0 0 1 -.67 40.94zm80.89-26-4.16 7.67h30.12l-4.74 38.71c-.66 5.44-1.87 8.51-5.38 10.51-3.31 1.9-7.32 2.1-12.65 2.1a45.58 45.58 0 0 0 -1.92-10.63c-.45 3.71-.68 5.56-1.13 9.27h-11q2.3-18.86 4.61-37.72h-6.69q-2.31 18.92-4.63 37.84h-11.2q2.32-18.91 4.63-37.84h-6.47l-4.74 38.71h-13.11l6.24-50.95h23.05c.93-2.48 1.74-5.07 2.43-7.67h-27.14c.63-5.2.95-7.79 1.58-13h73.13c-.64 5.2-.95 7.79-1.59 13zm27.65-19.3h-64.84q1.93-15.76 3.86-31.54h13.51c-.92 7.57-1.39 11.36-2.31 18.93h11.28c1.2-9.8 1.79-14.7 3-24.49h14.13c-1.2 9.79-1.8 14.69-3 24.49h11.9c.92-7.57 1.38-11.36 2.31-18.93h14q-1.93 15.8-3.85 31.56zm-16.08 39.21h-6.82c-1.35 11-2 16.55-3.37 27.58 2.34.12 4.69.12 5.44.12 1.11 0 1.4-.37 1.53-1.36 1.28-10.51 1.92-15.78 3.21-26.32z" fill="#01000a"/><path d="m539.77 604h45.86l-1.63 13.09h-105.45l1.6-13.11h44.25c.73-6 1.1-9 1.83-15h-32.1c.62-5.1.94-7.65 1.56-12.74h32.1c.69-5.64 1-8.46 1.73-14.1h-26l1.3-10.64a179.39 179.39 0 0 1 -16.88 9.28 51.45 51.45 0 0 0 -7.62-11.78 160.67 160.67 0 0 0 44.06-26.84h-16.48c.66-5.44 1-8.16 1.66-13.61h42.44c9.73 17.73 28.24 31.67 46.81 38.84a87 87 0 0 0 -11.57 13.48 104.06 104.06 0 0 1 -14.59-8.87c-.5 4.05-.74 6.08-1.24 10.14h-26.52c-.69 5.64-1 8.46-1.73 14.1h32.48c-.63 5.09-.94 7.64-1.56 12.74h-32.48c-.73 6.02-1.1 9.02-1.83 15.02zm29-54.79a192.81 192.81 0 0 1 -26.44-27.08 201.27 201.27 0 0 1 -33.8 27.08z" fill="#01000a"/><path d="m641 581.72a40.18 40.18 0 0 0 -.38-6.06c-11.27 1.66-24 2.25-34.85 6.31a107.06 107.06 0 0 0 -3.09-13.24c3.43-.74 6.6-3.33 11.13-7.91 1.82-1.73 5.34-5.2 9.53-10-10 1.11-13.12 1.86-15.08 2.72a99.5 99.5 0 0 0 -2.9-12.54c2.68-.62 5.22-3 8.38-6.68 7.71-9 13.7-19.79 19.47-30.42l12.34 5.44a315.74 315.74 0 0 1 -21.35 29.68l9.25-.62c3.85-5.19 7.74-10.63 11-16.08l11.32 7.8a353.69 353.69 0 0 1 -31.07 36.11l14.34-1.73c-.47-3.22-1.21-6.31-1.85-9.15l11.2-3.47a155.54 155.54 0 0 1 4.65 25.85zm-23.69 6.19c-2.34 10.31-4.69 20.64-9.16 30.3a60 60 0 0 0 -11-4.09c4.16-8.62 6.73-18.83 8.41-28.19zm14.94-2.6a222.3 222.3 0 0 1 .25 26.69l-12.21 2.48a219.87 219.87 0 0 0 .45-27zm14.22-3.71a133 133 0 0 1 3.56 19.54l-11.89 4c0-5.44-1.42-13.73-2.76-20zm67.43 23.25c-.65 5.29-1 7.94-1.62 13.23h-70.49c.65-5.29 1-7.94 1.62-13.23h9.59q5.74-46.94 11.48-93.87h53.18l-11.49 93.87zm-37.73-80.64c-.87 7.12-1.31 10.69-2.18 17.81h25.78c.88-7.12 1.31-10.69 2.18-17.81zm22 31h-25.76c-.88 7.18-1.31 10.76-2.19 17.94h25.78c.88-7.15 1.32-10.72 2.19-17.9zm-31.85 49.6h25.78c.92-7.47 1.38-11.21 2.29-18.68h-25.76c-.92 7.51-1.37 11.25-2.29 18.72z" fill="#01000a"/><path d="m806 510.85c-1.59 1.86-3.18 3.71-4.76 5.44 13.46 12.69 28 22.9 45.51 29.19-4.25 3.52-9.26 8.91-11.75 13.52-5.6-2.84-11.31-5.81-16.73-9.15l-1 8h-62c.3-2.42.44-3.64.74-6.06a195.87 195.87 0 0 1 -17.71 9 50.24 50.24 0 0 0 -9.14-13.48c24.07-9.09 48.16-23 64.54-43.29zm-60.1 57.64h79.94q-3.12 25.53-6.25 51.08h-15.73c.24-2 .37-3 .61-5h-49.08c-.27 2.18-.4 3.26-.67 5.44h-15.12q3.15-25.73 6.31-51.52zm13.53 13c-1 7.82-1.43 11.73-2.39 19.55h49.08c1-7.82 1.44-11.73 2.39-19.55zm50.9-37.1a129.88 129.88 0 0 1 -19.4-17.69 168.71 168.71 0 0 1 -22.62 17.69z" fill="#01000a"/><path d="m934.79 604c10.16 0 12.3-2.22 15.08-13.85a40 40 0 0 0 13.51 5.07c-3.47 15.54-13.19 23.58-29.28 22.51h-40.4c-15.84.62-29.88-3.47-26.83-21.77q2.85-23.25 5.69-46.5c-3.06 2.72-6.09 5.19-9 7.42a96.78 96.78 0 0 0 -10.66-11.13c15.95-11.09 27.55-25.32 37.46-41.8l14.68 4.57c-2.37 4.21-5 8.17-7.82 12.25h65.48s-.65 4.33-1 6.18c-2.72 17.7-2.73 43.8-12.82 58.13-2.57 3.65-6 4.92-9.73 5.57a74.43 74.43 0 0 1 -14.31.49c.39-4.2-.35-10.27-2.13-14 4.17.37 8 .35 10 .37a4.59 4.59 0 0 0 4.07-1.86c6.57-11.57 7.08-28.38 9-41.06h-59.13c-2.75 3.21-5.47 6.18-8.17 9h47.34q-2.43 19.79-4.84 39.58h-37.93c-.61 5-.92 7.49-1.53 12.49-.87 7.17 1 8.28 13.86 8.28zm-48.47-47.49c-.66 5.44-1 8.16-1.66 13.6h23.54c.67-5.44 1-8.16 1.67-13.6z" fill="#01000a"/><path d="m280 601.59c-.78 6.31-2.51 9.74-6.91 11.87-4.2 2-9.95 2.35-17.51 2.35a45.8 45.8 0 0 0 -3.19-12.49c4.56.25 9.58.19 11.14.13s2.05-.5 2.23-2l1.35-11h-21.82c-2.08 8.76-6.49 18.78-12.32 25.72a46.93 46.93 0 0 0 -10-8.28c8.57-11.12 11.7-25.16 13.18-38.84q1.73-14.16 3.46-28.32h47.84zm66.5-82.59c-.65 5.3-1 7.94-1.62 13.24h-112.16c.64-5.3 1-7.94 1.62-13.24h26.39a70.2 70.2 0 0 0 -7.63-13.6l14.6-4.83c3.88 4.7 8 11.38 9.56 16.08l-7.11 2.35h34.45a161.51 161.51 0 0 0 12.45-18.67l15.42 4.7c-3.57 4.82-7.51 9.64-11.13 14zm-78.08 60.7c.4-3.22.59-4.82 1-8h-20.34c-.32 2.6-.76 5.19-1.35 8zm-17-27.46-1.05 8.54h20.33c.42-3.42.62-5.12 1-8.54zm53.82 40.2h-13.47l6.23-50.44h13.51zm17.76-53.93h14.5l-7.5 61.49c-.89 7.3-2.69 10.89-7.94 13.24-5 2.22-18.87 4.14-20.62 2.47-.93-.88-1.88-10-3.64-13.85 6.29.25 12.8.18 14.86.12s2.66-.49 2.87-2.22z" fill="#fff"/><path d="m390.5 581.8c0 5.44 0 8.17-.06 13.61-13.86 3.23-27.73 6.4-41.58 9.64-.48-5.83-.72-8.75-1.19-14.59 6.33-1.11 20.22-1.69 23.36-4.58 5.67-5.2 8.23-30.51 11.09-46l12.16 1.86q-5.5 21.1-12.07 41.93zm7-46h-41.65l1.65-13.48h18a105.13 105.13 0 0 0 -4.62-16.94l12.65-3.38a92.87 92.87 0 0 1 5.69 17.31l-9.54 3h19.46zm-40.78 47.62a339 339 0 0 0 1.28-41.07l11-1.86a325.18 325.18 0 0 1 -.67 40.94zm80.89-26-4.16 7.67h30.12l-4.74 38.71c-.66 5.44-1.87 8.51-5.38 10.51-3.31 1.9-7.32 2.1-12.65 2.1a45.58 45.58 0 0 0 -1.92-10.63c-.45 3.71-.68 5.56-1.13 9.27h-11q2.3-18.86 4.61-37.72h-6.69q-2.31 18.92-4.63 37.84h-11.2q2.32-18.91 4.63-37.84h-6.47l-4.74 38.71h-13.11l6.24-50.95h23.05c.93-2.48 1.74-5.07 2.43-7.67h-27.14c.63-5.2.95-7.79 1.58-13h73.13c-.64 5.2-.95 7.79-1.59 13zm27.65-19.3h-64.84q1.93-15.76 3.86-31.54h13.51c-.92 7.57-1.39 11.36-2.31 18.93h11.28c1.2-9.8 1.79-14.7 3-24.49h14.13c-1.2 9.79-1.8 14.69-3 24.49h11.9c.92-7.57 1.38-11.36 2.31-18.93h14q-1.93 15.8-3.85 31.56zm-16.08 39.21h-6.82c-1.35 11-2 16.55-3.37 27.58 2.34.12 4.69.12 5.44.12 1.11 0 1.4-.37 1.53-1.36 1.28-10.51 1.92-15.78 3.21-26.32z" fill="#fff"/><path d="m535.77 600h45.86l-1.63 13.09h-105.45l1.6-13.11h44.25c.73-6 1.1-9 1.83-15h-32.1c.62-5.1.94-7.65 1.56-12.74h32.1c.69-5.64 1-8.46 1.73-14.1h-26l1.3-10.64a179.39 179.39 0 0 1 -16.88 9.28 51.45 51.45 0 0 0 -7.62-11.78 160.67 160.67 0 0 0 44.06-26.84h-16.48c.66-5.44 1-8.16 1.66-13.61h42.44c9.73 17.73 28.24 31.67 46.81 38.84a87 87 0 0 0 -11.57 13.48 104.06 104.06 0 0 1 -14.59-8.87c-.5 4.05-.74 6.08-1.24 10.14h-26.52c-.69 5.64-1 8.46-1.73 14.1h32.48c-.63 5.09-.94 7.64-1.56 12.74h-32.48c-.73 6.02-1.1 9.02-1.83 15.02zm29-54.79a192.81 192.81 0 0 1 -26.44-27.08 201.27 201.27 0 0 1 -33.8 27.08z" fill="#fff"/><path d="m637 577.72a40.18 40.18 0 0 0 -.38-6.06c-11.27 1.66-24 2.25-34.85 6.31a107.06 107.06 0 0 0 -3.09-13.24c3.43-.74 6.6-3.33 11.13-7.91 1.82-1.73 5.34-5.2 9.53-10-10 1.11-13.12 1.86-15.08 2.72a99.5 99.5 0 0 0 -2.9-12.54c2.68-.62 5.22-3 8.38-6.68 7.71-9 13.7-19.79 19.47-30.42l12.34 5.44a315.74 315.74 0 0 1 -21.35 29.68l9.25-.62c3.85-5.19 7.74-10.63 11-16.08l11.32 7.8a353.69 353.69 0 0 1 -31.07 36.11l14.34-1.73c-.47-3.22-1.21-6.31-1.85-9.15l11.2-3.47a155.54 155.54 0 0 1 4.65 25.85zm-23.69 6.19c-2.34 10.31-4.69 20.64-9.16 30.3a60 60 0 0 0 -11-4.09c4.16-8.62 6.73-18.83 8.41-28.19zm14.94-2.6a222.3 222.3 0 0 1 .25 26.69l-12.21 2.48a219.87 219.87 0 0 0 .45-27zm14.22-3.71a133 133 0 0 1 3.56 19.54l-11.89 4c0-5.44-1.42-13.73-2.76-20zm67.43 23.25c-.65 5.29-1 7.94-1.62 13.23h-70.49c.65-5.29 1-7.94 1.62-13.23h9.59q5.74-46.94 11.48-93.87h53.18l-11.49 93.87zm-37.73-80.64c-.87 7.12-1.31 10.69-2.18 17.81h25.78c.88-7.12 1.31-10.69 2.18-17.81zm22 31h-25.76c-.88 7.18-1.31 10.76-2.19 17.94h25.78c.88-7.15 1.32-10.72 2.19-17.9zm-31.85 49.6h25.78c.92-7.47 1.38-11.21 2.29-18.68h-25.76c-.92 7.51-1.37 11.25-2.29 18.72z" fill="#fff"/><path d="m802 506.85c-1.59 1.86-3.18 3.71-4.76 5.44 13.46 12.69 28 22.9 45.51 29.19-4.25 3.52-9.26 8.91-11.75 13.52-5.6-2.84-11.31-5.81-16.73-9.15l-1 8h-62c.3-2.42.44-3.64.74-6.06a195.87 195.87 0 0 1 -17.71 9 50.24 50.24 0 0 0 -9.14-13.48c24.07-9.09 48.16-23 64.54-43.29zm-60.1 57.64h79.94q-3.12 25.53-6.25 51.08h-15.73c.24-2 .37-3 .61-5h-49.08c-.27 2.18-.4 3.26-.67 5.44h-15.12q3.15-25.73 6.31-51.52zm13.53 13c-1 7.82-1.43 11.73-2.39 19.55h49.08c1-7.82 1.44-11.73 2.39-19.55zm50.9-37.1a129.88 129.88 0 0 1 -19.4-17.69 168.71 168.71 0 0 1 -22.62 17.69z" fill="#fff"/><path d="m930.79 600c10.16 0 12.3-2.22 15.08-13.85a40 40 0 0 0 13.51 5.07c-3.47 15.54-13.19 23.58-29.28 22.51h-40.4c-15.84.62-29.88-3.47-26.83-21.77q2.85-23.25 5.69-46.5c-3.06 2.72-6.09 5.19-9 7.42a96.78 96.78 0 0 0 -10.66-11.13c15.95-11.09 27.55-25.32 37.46-41.8l14.68 4.57c-2.37 4.21-5 8.17-7.82 12.25h65.48s-.65 4.33-1 6.18c-2.72 17.7-2.73 43.8-12.82 58.13-2.57 3.65-6 4.92-9.73 5.57a74.43 74.43 0 0 1 -14.31.49c.39-4.2-.35-10.27-2.13-14 4.17.37 8 .35 10 .37a4.59 4.59 0 0 0 4.07-1.86c6.57-11.57 7.08-28.38 9-41.06h-59.13c-2.75 3.21-5.47 6.18-8.17 9h47.34q-2.43 19.79-4.84 39.58h-37.93c-.61 5-.92 7.49-1.53 12.49-.87 7.17 1 8.28 13.86 8.28zm-48.47-47.49c-.66 5.44-1 8.16-1.66 13.6h23.54c.67-5.44 1-8.16 1.67-13.6z" fill="#fff"/><path d="m511 442.68-13.94 24.37a3.52 3.52 0 0 1 -2.18 1.27h-27.88a3.52 3.52 0 0 1 -2.19-1.27l-13.94-24.37a3.61 3.61 0 0 1 0-2.55l13.94-24.37a3.48 3.48 0 0 1 2.19-1.27h27.88a3.48 3.48 0 0 1 2.18 1.27l13.94 24.37a3.51 3.51 0 0 1 0 2.55m6-5-14.83-25.91a8.13 8.13 0 0 0 -6.37-3.72h-29.69a8.14 8.14 0 0 0 -6.37 3.72l-14.82 25.91a8.3 8.3 0 0 0 0 7.43l14.82 25.89a8.16 8.16 0 0 0 6.37 3.71h29.65a8.14 8.14 0 0 0 6.37-3.71l14.87-25.88a8.37 8.37 0 0 0 0-7.43" fill="#ededed"/><path d="m458.91 441.84h22.03v4.72h-22.03z" fill="#ededed"/><path d="m463.23 450.3h17.71v4.72h-17.71z" fill="#ededed"/><path d="m467.55 458.76h13.39v4.72h-13.39z" fill="#ededed"/><path d="m559.53 439.26a172 172 0 0 1 9.08 17.94 1.06 1.06 0 0 1 -.59 1.53l-1.68.72a1 1 0 0 1 -1.47-.64 173.14 173.14 0 0 0 -8.62-17.73 1 1 0 0 1 .42-1.57l1.35-.72a1 1 0 0 1 1.51.47m-13.16 1.65a67.26 67.26 0 0 1 -8.57 17.95 1.06 1.06 0 0 1 -1.55.34l-1.31-.73a1 1 0 0 1 -.38-1.57 68.57 68.57 0 0 0 7.82-17.3 1 1 0 0 1 1.43-.72l1.85.63a1 1 0 0 1 .71 1.4m23-8.65v.08a1 1 0 0 1 -1.13 1.15h-33.68a1 1 0 0 1 -1.13-1.15v-.08a1 1 0 0 1 1.13-1.15h14.67v-6.74a1 1 0 0 1 1.14-1.15h2a1 1 0 0 1 1.14 1.15v6.74h14.67a1 1 0 0 1 1.13 1.15" fill="#ededed"/><path d="m604.33 448.46h9.84v-6.32h-9.84zm0-8.35h9.84v-6h-9.84zm-12.48-8.19h9.63a58.37 58.37 0 0 0 4.58-4.8h-10.8a40.37 40.37 0 0 1 -3.41 4.8m-.21 8.19h8.58v-6h-8.58zm-.42 8.35h9v-6.32h-8.58a58.26 58.26 0 0 1 -.42 6.32m5.8-24.69c-.17.34-.33.77-.59 1.28h12.7a1 1 0 0 1 1.13 1.14v.09a2.18 2.18 0 0 1 -.46 1.44 51.43 51.43 0 0 1 -4 4.2h11.4a1 1 0 0 1 1.13 1.14v22.23c0 4.5-.54 5.09-5.55 5.09-.5 0-2.22-.08-5.08-.17-.76 0-1.18-.42-1.18-1.14s.38-1.1 1.18-1.06c2.69.08 4.2.21 4.62.21 1.81 0 1.85 0 1.85-2.8v-4.88h-23.28a24.27 24.27 0 0 1 -3.87 9.72 1 1 0 0 1 -1.6.25l-1.22-1a1.12 1.12 0 0 1 -.29-1.57c2.56-4.24 3.57-9.29 3.57-18v-3.43l-1.76 1.44a.91.91 0 0 1 -1.56-.34l-.42-.85a1.17 1.17 0 0 1 .34-1.57 34.77 34.77 0 0 0 9.2-12.38 1.18 1.18 0 0 1 1.43-.73l1.55.3a.94.94 0 0 1 .76 1.44" fill="#ededed"/><path d="m648.09 430.35c1.93.89 3.45 1.74 4.54 2.37a20.12 20.12 0 0 0 2.77-2.72c-.75-.51-1.59-1.15-2.65-1.87a31 31 0 0 1 -4.66 2.25m9.16-5.81a28.66 28.66 0 0 1 -2.35 2.08l2.27 1.57a1 1 0 0 1 .21 1.61l-.51.63v.05c.79.29 1 .93.37 1.52a21.3 21.3 0 0 1 -2.39 2.12l2.27 1.57a1 1 0 0 1 .21 1.62l-.13.17a1 1 0 0 1 -1.64.16c-1.26-.93-2.23-1.61-2.86-2.07a29.54 29.54 0 0 1 -4.32 2.12 1.35 1.35 0 0 1 -1.56-.3c-.55-.51-.38-1.06.42-1.4a33.41 33.41 0 0 0 3.28-1.78c-1.22-.72-2.23-1.32-3-1.7s-.88-.93-.38-1.57l.34-.42-.5-.47c-.63-.59-.51-1.23.29-1.57a21.28 21.28 0 0 0 3.28-1.78c-1.22-.72-2.23-1.31-3-1.7a1 1 0 0 1 -.38-1.57 1 1 0 0 1 1.43-.25 37.08 37.08 0 0 1 4 2 22.81 22.81 0 0 0 2.18-2 1.23 1.23 0 0 1 1.56-.38l.5.21c.8.34 1 .93.38 1.53m-20.85.93c2.4-.25 5.22-.76 8.45-1.4a1.08 1.08 0 1 1 .42 2.12c-1.89.38-3.82.68-5.67 1l.08 2.29h5.26a1 1 0 0 1 1.13 1.14c0 .34-.38.51-1.13.51h-5.17l.12 3.1h5.05a1 1 0 0 1 1.13 1.14c0 .34-.38.56-1.13.56h-5l.12 3.22h24.3l.08-3.22h-4.92a1 1 0 0 1 -1.13-1.15c0-.34.38-.55 1.13-.55h5l.09-3.1h-5.09a1 1 0 0 1 -1.13-1.14c0-.34.38-.51 1.13-.51h5.17l.13-3h-5.55a1 1 0 0 1 -1.13-1.15c0-.55.37-.85 1.13-.85h8.76a1 1 0 0 1 1.14 1.19l-.59 13.45h1.34a1 1 0 0 1 1.14 1.15v4.66a1 1 0 0 1 -1.14 1.15h-1.89a1 1 0 0 1 -1.13-1.15v-3.86h-29.25v3.86a1 1 0 0 1 -1.13 1.15h-1.89a1 1 0 0 1 -1.14-1.15v-4.66a1 1 0 0 1 1.14-1.15h1.3l-.55-12.43a1.07 1.07 0 0 1 1-1.23m28.21 19.6a1.41 1.41 0 0 1 -.76 1.36 68.3 68.3 0 0 1 -10 5.05h16.3a1 1 0 0 1 1.14 1.14c0 .64-.38 1-1.14 1h-15.1v4.32c0 2.46-.63 2.89-5.5 2.89-1.68 0-3.62 0-5.84-.17a1.11 1.11 0 0 1 -1.14-1.15c0-.72.38-1.1 1.18-1.06 2.73.09 4.5.21 5.34.21 1.84 0 1.64.22 1.64-1.74v-3.3h-16.29a1 1 0 0 1 -1.14-1.15c0-.64.38-1 1.14-1h16.31v-.81a1 1 0 0 1 1.13-1.15h1.17c2.06-.85 4.33-1.95 7.1-3.43h-19.1a1 1 0 0 1 -1.14-1.15c0-.51.38-.8 1.14-.8h22.44c.76 0 1.14.34 1.14.93" fill="#ededed"/><path d="m716.18 435a1 1 0 0 1 -1.14 1.1h-11.64a1 1 0 0 1 -1.13-1.15c0-.68.38-1 1.13-1h11.6c.76 0 1.14.39 1.14 1.07m4.92-6.37v5.69a1 1 0 0 1 -1.14 1.14h-1.92a1 1 0 0 1 -1.14-1.14v-4.67h-15.39v4.67a1 1 0 0 1 -1.14 1.14h-1.8a1 1 0 0 1 -1.14-1.14v-5.69a1 1 0 0 1 1.14-1.14h8.11v-3.57a1 1 0 0 1 1.13-1.14h2a1 1 0 0 1 1.14 1.14v3.57h9a1 1 0 0 1 1.14 1.14m-.59 14.17a1 1 0 0 1 -1.14 1.15h-5.75v11.83c0 1.95-.3 1.91 2.06 1.91 1.34 0 1.55 0 2-1.14a29.4 29.4 0 0 0 .42-5.39c0-.81.46-1.19 1.22-1.1l1.64.16a1.08 1.08 0 0 1 1.05 1.24c0 1.27 0 2-.17 3.3-.12 1.66-.12 3.36-1.51 4.46a4.48 4.48 0 0 1 -1.89.59 26.89 26.89 0 0 1 -2.86.13c-5.26 0-6.1-.51-6.1-3.1v-12.86h-2.43c-.09 8.86-2.82 13-11.44 16.29a1.13 1.13 0 0 1 -1.51-.51l-.13-.26a1 1 0 0 1 .51-1.53c6.18-2.5 8.32-6.06 8.49-14h-3.92a1 1 0 0 1 -1.13-1.15 1 1 0 0 1 1.13-1.1h20.34a1 1 0 0 1 1.14 1.1m-23.71-15.1c-2.22 5.72-3.23 7.76-4 9.8 3.07 3.77 3.78 6.06 3.78 9.42 0 3.56-1.68 5.38-5.88 5.38a1.08 1.08 0 0 1 -1.14-1c-.12-.68.25-1.11 1.05-1.11h-.33c1.8 0 2.52-.76 2.52-3.9s-.84-5.05-3.07-8a1.36 1.36 0 0 1 -.21-1.57 80.12 80.12 0 0 0 3.82-10h-5v32.71a1 1 0 0 1 -1.13 1.14h-1.43a1 1 0 0 1 -1.14-1.14v-33.6a1 1 0 0 1 1.14-1.15h10.25a1 1 0 0 1 1.14 1.15v.51a3.72 3.72 0 0 1 -.3 1.44" fill="#ededed"/><path d="m-480.22 22.28h2160.44v1155.44h-2160.44z" fill="none"/><g fill="#fff" opacity=".7"><path d="m741.77 185.4a8.65 8.65 0 0 1 -4.09.68 6.19 6.19 0 0 1 -3.41-1.36 7 7 0 0 1 -2.18-3.31l-2-5.95a3.24 3.24 0 0 0 -1.58-2.11 3.57 3.57 0 0 0 -2.82.21l-4.54 1.83-1.73-4.39 4.54-1.83a3.56 3.56 0 0 0 2.18-1.81 3.22 3.22 0 0 0 -.31-2.58l-2.83-5.78a6.86 6.86 0 0 1 -.71-3.84 6 6 0 0 1 1.54-3.28 9.08 9.08 0 0 1 3.43-2.32l2.64-1.06 1.76 4.39-1.94.78a3.5 3.5 0 0 0 -1.89 1.52 2.51 2.51 0 0 0 .12 2.34l2.78 5.8a4.6 4.6 0 0 1 .13 4.16 6.34 6.34 0 0 1 -3.6 3.05l-.11-.27a6.32 6.32 0 0 1 4.7-.27 4.68 4.68 0 0 1 2.84 3.13l2 6.1a2.59 2.59 0 0 0 1.53 1.67 3.27 3.27 0 0 0 2.4-.15l2-.78 1.78 4.42z"/><path d="m757.3 174.66a3.85 3.85 0 0 1 -3 .1 3.74 3.74 0 0 1 -2-2.2 3.87 3.87 0 1 1 7.17-2.9 3.76 3.76 0 0 1 .07 3 3.82 3.82 0 0 1 -2.24 2z"/><path d="m780.19 165.42a3.84 3.84 0 0 1 -3 .11 4.28 4.28 0 0 1 -2.1-5.21 3.87 3.87 0 0 1 7.25.11 3.76 3.76 0 0 1 .08 3 3.9 3.9 0 0 1 -2.23 1.99z"/><path d="m803.07 156.19a3.81 3.81 0 0 1 -3 .1 3.69 3.69 0 0 1 -2-2.2 4 4 0 0 1 5.13-5.09 3.83 3.83 0 0 1 2 2.22 3.76 3.76 0 0 1 .07 3 3.84 3.84 0 0 1 -2.2 1.97z"/><path d="m819.08 154.22-1.78-4.43 1.94-.79a3.32 3.32 0 0 0 1.85-1.56 2.45 2.45 0 0 0 -.06-2.26l-2.79-5.79a4.72 4.72 0 0 1 -.13-4.23 6.33 6.33 0 0 1 3.58-3.06l.11.26a6.36 6.36 0 0 1 -4.69.3 4.57 4.57 0 0 1 -2.82-3.08l-2-6.1a2.52 2.52 0 0 0 -1.54-1.77 3.47 3.47 0 0 0 -2.41.22l-2 .78-1.77-4.39 2.64-1.06a9 9 0 0 1 4.07-.71 6.08 6.08 0 0 1 3.39 1.29 6.85 6.85 0 0 1 2.15 3.26l2 6.14a3.12 3.12 0 0 0 1.59 2.07 3.56 3.56 0 0 0 2.8-.2l4.54-1.83 1.77 4.38-4.54 1.83a3.53 3.53 0 0 0 -2.16 1.8 3.22 3.22 0 0 0 .31 2.63l2.72 5.64a7.11 7.11 0 0 1 .73 3.9 6.26 6.26 0 0 1 -1.52 3.34 8.62 8.62 0 0 1 -3.42 2.35z"/></g><g fill="#fff" opacity=".7"><path d="m666.51 144.91-25.27-1.43-2.39-5.93 17.2-18.55 2.2 5.45-11.19 11.89a19.77 19.77 0 0 1 -1.57 1.49 11 11 0 0 1 -1.29 1 14.21 14.21 0 0 1 1.63-.21 13.75 13.75 0 0 1 2.13 0l16.31.81z"/><path d="m676.13 150.18-1.39-51.25 6.17-2.48 1.38 51.25z"/><path d="m702.15 130.54-2.2-5.46 11.19-11.89a19.77 19.77 0 0 1 1.57-1.49 12.25 12.25 0 0 1 1.29-1q-.57.12-1.62.24a12.49 12.49 0 0 1 -2.12.06l-16.33-.86-2.24-5.54 25.31 1.4 2.39 5.93z"/></g></svg>