<?xml version="1.0" encoding="UTF-8" standalone="no"?>
<!DOCTYPE svg PUBLIC "-//W3C//DTD SVG 1.1//EN" "https://www.w3.org/Graphics/SVG/1.1/DTD/svg11.dtd">
<svg width="100%" height="100%" viewBox="0 0 80 80" version="1.1" xmlns="https://www.w3.org/2000/svg" xmlns:xlink="https://www.w3.org/1999/xlink" xml:space="preserve" style="fill-rule:evenodd;clip-rule:evenodd;stroke-linejoin:round;stroke-miterlimit:1.41421;">
    <g>
        <g transform="matrix(0.677707,0,0,0.677707,-8.81019,-14.9095)">
            <path d="M21,22L29,30L13,30L21,22Z" style="fill:rgb(230,31,0);"/>
        </g>
        <g transform="matrix(0.031147,0.676991,-0.676991,0.031147,94.2397,59.4271)">
            <path d="M21,22L29,30L11.402,29.926L21,22Z" style="fill:rgb(230,31,0);"/>
        </g>
        <g transform="matrix(0.932229,0.932229,-0.826131,0.826131,53.3373,-47.9156)">
            <path d="M80,58L63.888,39.819L16.273,39.637L0,58L80,58Z" style="fill:rgb(255,94,69);"/>
        </g>
    </g>
    <g transform="matrix(0.707107,0.707107,-0.707107,0.707107,61.7815,-18.293)">
        <path d="M-4.06,35.369L-4.3,35.444L-7.87,35.444L-7.87,48.839L-6.31,48.839L-6.31,37.034L-4.855,37.034C-5.095,38.024 -5.425,39.239 -5.71,40.154C-4.855,41.204 -4.66,42.164 -4.66,42.899C-4.66,43.319 -4.75,43.649 -4.93,43.784C-5.035,43.874 -5.185,43.904 -5.335,43.904C-5.5,43.919 -5.725,43.904 -5.98,43.889C-5.74,44.324 -5.59,44.984 -5.59,45.419C-5.245,45.434 -4.885,45.434 -4.615,45.389C-4.285,45.329 -4,45.239 -3.775,45.059C-3.295,44.699 -3.1,44.054 -3.1,43.094C-3.1,42.209 -3.28,41.144 -4.18,39.974C-3.775,38.819 -3.28,37.304 -2.89,36.044L-4.06,35.369ZM-0.7,39.599L2.6,39.599L2.6,40.799L-0.7,40.799L-0.7,39.599ZM2.6,36.989L2.6,38.159L-0.7,38.159L-0.7,36.989L2.6,36.989ZM4.04,42.494C3.605,42.959 2.945,43.514 2.33,43.979C2.09,43.469 1.895,42.929 1.73,42.344L4.325,42.344L4.325,35.459L-2.455,35.459L-2.455,46.214C-2.455,46.919 -2.83,47.324 -3.145,47.519C-2.89,47.819 -2.515,48.524 -2.38,48.914C-2.02,48.689 -1.465,48.464 1.46,47.714C1.4,47.339 1.37,46.604 1.385,46.094L-0.7,46.559L-0.7,42.344L0.2,42.344C0.905,45.284 2.105,47.594 4.34,48.824C4.595,48.329 5.135,47.624 5.525,47.279C4.535,46.829 3.725,46.124 3.095,45.269C3.77,44.834 4.55,44.264 5.195,43.754L4.04,42.494Z" style="fill:white;fill-rule:nonzero;"/>
        <path d="M9.95,37.364L9.95,40.004L8.57,40.004L8.57,37.364L9.95,37.364ZM8.57,44.384L8.57,41.564L9.95,41.564L9.95,44.384L8.57,44.384ZM11.615,35.774L6.92,35.774L6.92,47.294L8.57,47.294L8.57,45.974L11.615,45.974L11.615,35.774ZM12.485,44.714C13.1,45.494 13.865,46.589 14.21,47.234L15.77,46.319C15.395,45.659 14.585,44.639 13.97,43.919L12.485,44.714ZM20.39,38.024L20.39,36.464L17.015,36.464L17.015,34.859L15.26,34.859L15.26,36.464L11.885,36.464L11.885,38.024L15.26,38.024L15.26,39.449L12.365,39.449L12.365,40.994L17.15,40.994L17.15,42.164L11.9,42.164L11.9,43.709L17.15,43.709L17.15,46.934C17.15,47.144 17.075,47.204 16.835,47.204C16.61,47.204 15.785,47.204 15.065,47.174C15.29,47.654 15.56,48.359 15.62,48.854C16.73,48.854 17.555,48.809 18.125,48.554C18.725,48.284 18.89,47.834 18.89,46.979L18.89,43.709L20.33,43.709L20.33,42.164L18.89,42.164L18.89,40.994L19.985,40.994L19.985,39.449L17.015,39.449L17.015,38.024L20.39,38.024Z" style="fill:white;fill-rule:nonzero;"/>
        <path d="M24.11,34.874C23.48,37.079 22.4,39.254 21.23,40.664C21.5,41.144 21.95,42.164 22.085,42.584C22.4,42.209 22.715,41.774 23.03,41.309L23.03,48.854L24.725,48.854L24.725,38.099C25.13,37.199 25.46,36.269 25.745,35.369L24.11,34.874ZM32.24,42.734C32.345,42.839 32.465,42.944 32.57,43.064C32.3,42.989 32.03,42.899 31.865,42.809C31.82,43.244 31.745,43.319 31.445,43.319L30.125,43.319C29.72,43.319 29.63,43.274 29.63,42.974L29.63,42.299L28.235,42.299L28.235,42.599L27.53,42.239C27.365,42.494 27.155,42.749 26.915,43.004L26.915,41.984L30.095,41.984L29.645,42.224C30.05,42.524 30.53,43.004 30.785,43.304L31.775,42.719C31.595,42.509 31.28,42.239 30.965,41.984L33.845,41.984L33.845,42.869C33.62,42.614 33.38,42.404 33.155,42.194L32.24,42.734ZM28.73,45.794L31.82,45.779C31.415,46.064 30.905,46.334 30.305,46.544C29.72,46.349 29.18,46.094 28.73,45.794ZM28.355,40.499L32.51,40.499L32.51,40.979L28.355,40.979L28.355,40.499ZM32.51,38.129L32.51,38.579L28.355,38.579L28.355,38.129L32.51,38.129ZM32.51,39.779L28.355,39.779L28.355,39.299L32.51,39.299L32.51,39.779ZM35.435,40.979L34.175,40.979L34.175,37.259L30.965,37.259L31.19,36.734L35.135,36.734L35.135,35.459L25.85,35.459L25.85,36.734L29.345,36.734C29.315,36.914 29.285,37.094 29.24,37.259L26.765,37.259L26.765,40.979L25.4,40.979L25.4,43.109L26.81,43.109C26.585,43.334 26.345,43.544 26.105,43.694L27.08,44.459C27.53,44.144 27.92,43.709 28.25,43.259C28.28,43.679 28.415,43.934 28.7,44.084C28.43,44.384 28.085,44.684 27.68,44.984C27.56,44.849 27.44,44.714 27.335,44.579L26.045,45.029C26.195,45.254 26.375,45.449 26.57,45.659C26.18,45.854 25.79,46.049 25.34,46.214C25.655,46.424 26.105,46.889 26.3,47.219C26.765,47.009 27.185,46.784 27.575,46.559C27.845,46.754 28.13,46.934 28.43,47.114C27.455,47.339 26.315,47.519 25.085,47.639C25.4,47.999 25.775,48.539 25.94,48.929C27.59,48.704 29.045,48.389 30.305,47.969C31.565,48.404 32.99,48.689 34.565,48.854C34.76,48.464 35.105,47.879 35.42,47.549C34.28,47.459 33.215,47.324 32.225,47.114C33.155,46.604 33.86,45.974 34.34,45.254L33.275,44.654L32.975,44.714L29.93,44.714C30.065,44.564 30.185,44.414 30.32,44.264L31.625,44.264C32.42,44.264 32.78,44.069 32.93,43.439C33.26,43.799 33.575,44.204 33.755,44.489L34.715,43.889C34.565,43.679 34.34,43.394 34.07,43.109L35.435,43.109L35.435,40.979Z" style="fill:white;fill-rule:nonzero;"/>
        <path d="M47.045,38.669L47.045,39.359L44.24,39.359L44.24,38.669L47.045,38.669ZM44.24,42.914L44.24,42.074L46.1,42.074L45.425,42.524C45.65,42.644 45.875,42.764 46.115,42.899L44.24,42.914ZM44.24,40.334L47.045,40.334L47.045,41.024L44.24,41.024L44.24,40.334ZM39.53,41.024L39.53,40.334L42.395,40.334L42.395,41.024L39.53,41.024ZM39.53,38.669L42.395,38.669L42.395,39.359L39.53,39.359L39.53,38.669ZM42.395,37.634L37.85,37.634L37.85,42.074L42.395,42.074L42.395,42.914C40.34,42.929 38.45,42.929 37.01,42.914L37.085,44.414C38.645,44.399 40.655,44.369 42.83,44.339L42.05,44.954C42.86,45.479 43.835,46.259 44.285,46.799L45.5,45.779C45.11,45.329 44.39,44.774 43.7,44.324C45.11,44.294 46.58,44.264 48.005,44.234C48.275,44.474 48.515,44.684 48.71,44.894L49.955,43.934C49.37,43.379 48.335,42.629 47.33,42.074L48.815,42.074L48.815,37.634L44.24,37.634L44.24,36.974L49.835,36.974L49.835,35.579L44.24,35.579L44.24,34.859L42.395,34.859L42.395,35.579L36.95,35.579L36.95,36.974L42.395,36.974L42.395,37.634ZM38.045,48.434C38.63,47.654 39.095,46.484 39.425,45.524L37.88,44.894C37.595,45.809 37.085,46.874 36.5,47.564L38.045,48.434ZM42.575,47.189C41.705,47.189 41.555,47.129 41.555,46.724L41.555,45.029L39.785,45.029L39.785,46.739C39.785,48.194 40.325,48.629 42.41,48.629L45.335,48.629C46.895,48.629 47.39,48.194 47.6,46.454C47.12,46.364 46.43,46.124 46.055,45.899C45.98,47.009 45.845,47.189 45.185,47.189L42.575,47.189ZM47.075,45.464C47.735,46.394 48.35,47.639 48.53,48.419L50.18,47.894C49.97,47.039 49.31,45.869 48.62,44.969L47.075,45.464Z" style="fill:white;fill-rule:nonzero;"/>
        <path d="M53,43.784L54.44,43.784L54.755,38.249L54.83,36.164L52.61,36.164L52.685,38.249L53,43.784ZM53.72,47.774C54.5,47.774 55.1,47.144 55.1,46.334C55.1,45.524 54.5,44.894 53.72,44.894C52.94,44.894 52.355,45.524 52.355,46.334C52.355,47.144 52.94,47.774 53.72,47.774Z" style="fill:white;fill-rule:nonzero;"/>
        <path d="M58.55,43.784L59.99,43.784L60.305,38.249L60.38,36.164L58.16,36.164L58.235,38.249L58.55,43.784ZM59.27,47.774C60.05,47.774 60.65,47.144 60.65,46.334C60.65,45.524 60.05,44.894 59.27,44.894C58.49,44.894 57.905,45.524 57.905,46.334C57.905,47.144 58.49,47.774 59.27,47.774Z" style="fill:white;fill-rule:nonzero;"/>
    </g>
</svg>
