<?xml version="1.0" standalone="no"?>
<!DOCTYPE svg PUBLIC "-//W3C//DTD SVG 1.1//EN" "https://www.w3.org/Graphics/SVG/1.1/DTD/svg11.dtd">
<svg width="100%" height="100%" viewBox="0 0 80 80" version="1.1" xmlns="https://www.w3.org/2000/svg" xmlns:xlink="https://www.w3.org/1999/xlink" xml:space="preserve" style="fill-rule:evenodd;clip-rule:evenodd;stroke-linejoin:round;stroke-miterlimit:1.41421;">
    <g transform="matrix(0.677707,0,0,0.677707,-8.81019,-14.9095)">
        <path d="M21,22L29,30L13,30L21,22Z" style="fill:rgb(230,31,0);"/>
    </g>
    <g transform="matrix(0.031147,0.676991,-0.676991,0.031147,94.2397,59.4271)">
        <path d="M21,22L29,30L11.402,29.926L21,22Z" style="fill:rgb(230,31,0);"/>
    </g>
    <g transform="matrix(0.932229,0.932229,-0.826131,0.826131,53.3373,-47.9156)">
        <path d="M80,58L63.888,39.819L16.273,39.637L0,58L80,58Z" style="fill:rgb(255,94,69);"/>
    </g>
    <g transform="matrix(0.508111,0.508111,-0.508111,0.508111,17.1511,-27.4728)">
        <text x="46.635px" y="30.72px" style="font-family:'Roboto-Regular';font-size:20.875px;fill:white;">F<tspan x="57.908px 64.778px " y="30.72px 30.72px ">re</tspan>e</text>
        <text x="92.064px" y="30.72px" style="font-family:'PingFangTC-Medium';font-size:20.875px;fill:white;">免費</text>
    </g>
</svg>
