<?xml version="1.0" standalone="no"?><!DOCTYPE svg PUBLIC "-//W3C//DTD SVG 1.1//EN" "https://www.w3.org/Graphics/SVG/1.1/DTD/svg11.dtd"><svg width="100%" height="100%" viewBox="0 0 80 80" version="1.1" xmlns="https://www.w3.org/2000/svg" xmlns:xlink="https://www.w3.org/1999/xlink" xml:space="preserve" style="fill-rule:evenodd;clip-rule:evenodd;stroke-linejoin:round;stroke-miterlimit:1.41421;"><g><path d="M5.422,0l5.421,5.422l-10.843,0l5.422,-5.422Z" style="fill:#00936e;"/><path d="M80,74.329l-5.167,5.665l-0.498,-11.916l5.665,6.251Z" style="fill:#00936e;"/><path d="M80,74.578l0,-30.04l-44.238,-44.538l-30.34,0l74.578,74.578Z" style="fill:#0c9;"/></g><g><path d="M36.025,10.634l-2.207,2.206l-3.341,-3.341l-0.944,0.944l3.341,3.341l-2.588,2.588l-4.221,-4.221l-0.986,0.986l9.471,9.472l0.987,-0.987l-4.232,-4.232l2.588,-2.588l3.351,3.352l0.944,-0.944l-3.351,-3.352l2.206,-2.206l3.861,3.861l0.986,-0.986l-3.924,-3.925l0.042,0.021c0.382,-0.678 0.764,-1.463 1.135,-2.365l-1.241,-0.711c-0.244,0.711 -0.541,1.411 -0.891,2.101l-3.85,-3.851l-0.987,0.987l3.851,3.85Z" style="fill:#fff;fill-rule:nonzero;"/><path d="M44.945,22.375c-0.69,-0.243 -1.358,-0.509 -2.005,-0.795l1.888,-1.888l1.294,1.294l0.965,-0.965l-1.294,-1.294l1.825,-1.825l-1.019,-1.018l-1.824,1.825l-1.58,-1.581l-0.966,0.965l1.581,1.581l-2.249,2.248c-0.753,-0.392 -1.485,-0.827 -2.206,-1.294l-0.711,1.199c0.647,0.371 1.294,0.721 1.952,1.061l-2.355,2.354c-0.244,0.244 -0.509,0.234 -0.763,-0.021c-0.308,-0.308 -0.615,-0.658 -0.923,-1.029l-0.743,1.209l1.093,1.093c0.7,0.7 1.411,0.71 2.089,0.032l2.981,-2.981c0.647,0.287 1.305,0.562 1.973,0.827l0.997,-0.997ZM48.477,19.162l-0.976,0.975l2.736,2.737l-6.607,6.608c-0.276,0.276 -0.552,0.297 -0.785,0.064c-0.52,-0.52 -1.05,-1.093 -1.591,-1.698l-0.753,1.199l1.771,1.771c0.679,0.679 1.4,0.658 2.121,-0.063l6.863,-6.863l1.633,1.634l0.976,-0.976l-5.388,-5.388Z" style="fill:#fff;fill-rule:nonzero;"/><path d="M54.321,26.067l-0.933,0.933l3.67,3.67l0.933,-0.934l-1.337,-1.336c0.297,-0.488 0.584,-1.071 0.87,-1.739l-1.22,-0.69c-0.169,0.488 -0.371,0.987 -0.594,1.485l-1.389,-1.389ZM53.133,28.061l-0.87,0.869l2.864,2.864l0.87,-0.87l-2.864,-2.863ZM51.659,29.535l-0.881,0.88l2.864,2.864l0.881,-0.88l-2.864,-2.864ZM53.038,34.075l-3.066,-3.066l-3.807,3.808l0.954,0.955l0.583,-0.584l2.111,2.111l0.456,-0.456l-0.297,1.209c1.793,0.244 3.511,0.011 5.176,-0.679l-3.277,3.278l0.976,0.975l3.351,-3.351c-0.678,1.506 -0.975,3.203 -0.891,5.112l1.454,-0.159c-0.255,-1.591 -0.17,-3.012 0.243,-4.274l1.676,1.675l0.955,-0.954l-2.418,-2.418l0.806,-0.807l2.015,2.016l4.243,-4.243l-5.007,-5.006l-4.242,4.242l2.015,2.016l-0.806,0.806l-2.376,-2.376l-0.955,0.954l1.655,1.655c-1.294,0.403 -2.684,0.456 -4.147,0.18l2.62,-2.619ZM48.593,34.297l1.443,-1.442l1.167,1.167l-1.443,1.442l-1.167,-1.167ZM59.985,36.652l-1.082,-1.082l0.827,-0.827l1.082,1.082l-0.827,0.827ZM57.927,34.594l-1.071,-1.071l0.827,-0.827l1.072,1.071l-0.828,0.827ZM58.5,31.879l0.827,-0.827l1.072,1.071l-0.828,0.827l-1.071,-1.071ZM61.374,33.099l1.082,1.082l-0.827,0.827l-1.082,-1.082l0.827,-0.827Z" style="fill:#fff;fill-rule:nonzero;"/><path d="M63.517,38.381l-0.944,0.944l1.347,1.347c-1.4,0.742 -2.896,1.177 -4.487,1.283l-0.678,1.57c1.251,-0.233 2.503,-0.636 3.744,-1.199l-4.434,4.434l0.955,0.955l4.561,-4.561c-0.106,0.615 -0.276,1.357 -0.488,2.248l1.41,-0.286c0.043,-1.018 0.053,-1.983 0.022,-2.906l0.466,-0.467l1.241,1.241l0.944,-0.944l-1.241,-1.241l1.453,-1.453c0.605,0.414 1.188,0.785 1.772,1.114l0.604,-1.305c-1.347,-0.711 -2.736,-1.655 -4.158,-2.864l-0.753,1.135c0.467,0.382 0.944,0.753 1.422,1.125l-1.294,1.294l-1.464,-1.464ZM63.952,45.922l-0.902,0.902l2.09,2.089l-1.231,1.231l-2.471,-2.472l-0.902,0.902l5.951,5.95l0.901,-0.901l-2.503,-2.504l1.231,-1.23l2.131,2.132l0.902,-0.902l-2.132,-2.132l1.156,-1.156c0.849,0.679 1.665,1.305 2.45,1.878l0.541,-1.156c-1.718,-1.231 -3.553,-2.748 -5.526,-4.551l-0.71,1.072c0.742,0.657 1.463,1.272 2.174,1.877l-1.061,1.061l-2.089,-2.09ZM70.284,40.184l-3.214,3.214l4.656,4.656l3.214,-3.214l-4.656,-4.656ZM71.652,46.177l-2.704,-2.705l1.421,-1.421l2.704,2.704l-1.421,1.422Z" style="fill:#fff;fill-rule:nonzero;"/></g></svg>