<?xml version="1.0" standalone="no"?>
<!DOCTYPE svg PUBLIC "-//W3C//DTD SVG 1.1//EN" "https://www.w3.org/Graphics/SVG/1.1/DTD/svg11.dtd">
<svg width="100%" height="100%" viewBox="0 0 80 80" version="1.1" xmlns="https://www.w3.org/2000/svg" xmlns:xlink="https://www.w3.org/1999/xlink" xml:space="preserve" style="fill-rule:evenodd;clip-rule:evenodd;stroke-linejoin:round;stroke-miterlimit:1.41421;">
    <g>
        <g transform="matrix(0.677707,0,0,0.677707,-8.81019,-14.9095)">
            <path d="M21,22L29,30L13,30L21,22Z" style="fill:rgb(230,31,0);"/>
        </g>
        <g transform="matrix(0.031147,0.676991,-0.676991,0.031147,94.2397,59.4271)">
            <path d="M21,22L29,30L11.402,29.926L21,22Z" style="fill:rgb(230,31,0);"/>
        </g>
        <g transform="matrix(0.932229,0.932229,-0.826131,0.826131,53.3373,-47.9156)">
            <path d="M80,58L63.888,39.819L16.273,39.637L0,58L80,58Z" style="fill:rgb(255,94,69);"/>
        </g>
    </g>
    <g transform="matrix(0.508111,0.508111,-0.508111,0.508111,17.1511,-27.4728)">
        <path d="M53.631,26.128C53.193,27.422 52.504,28.842 51.794,29.823C52.253,30.094 53.047,30.637 53.422,30.95C54.153,29.885 55.009,28.174 55.531,26.671L53.631,26.128ZM58.537,17.131C58.328,17.903 57.952,18.968 57.639,19.719L54.633,19.719L56.136,19.302C56.032,18.717 55.76,17.82 55.447,17.131L58.537,17.131ZM61.689,25.46L61.689,23.372L58.453,23.372L58.453,21.765L62.023,21.765L62.023,19.719L59.852,19.719C60.165,19.072 60.478,18.258 60.791,17.465L59.1,17.131L61.71,17.131L61.71,15.106L58.725,15.106C58.474,14.396 58.098,13.541 57.785,12.852L55.301,13.457C55.51,13.958 55.739,14.543 55.927,15.106L52.358,15.106L52.358,17.131L55.176,17.131L53.464,17.548C53.715,18.196 53.965,19.093 54.069,19.719L52.045,19.719L52.045,21.765L56.053,21.765L56.053,23.372L52.17,23.372L52.17,25.46L56.053,25.46L56.053,32.39L58.453,32.39L58.453,25.46L61.689,25.46ZM71.333,19.907L65.029,19.907L65.029,16.63C67.074,16.254 69.245,15.753 70.957,15.064L69.057,13.248C67.534,13.958 65.008,14.605 62.732,15.023L62.732,22.454C62.732,24.374 62.67,26.629 62.085,28.633C61.73,27.84 61.083,26.733 60.52,25.898L58.892,26.775C59.476,27.735 60.186,29.071 60.52,29.906L62.002,28.988C61.772,29.718 61.459,30.407 61.062,31.013C61.584,31.263 62.565,32.056 62.983,32.495C64.757,29.823 65.029,25.523 65.029,22.454L65.029,22.204L66.97,22.204L66.97,32.453L69.391,32.453L69.391,22.204L71.333,22.204L71.333,19.907Z" style="fill:white;fill-rule:nonzero;"/>
        <path d="M80.747,16.484L77.073,16.484L78.472,15.732C78.138,14.939 77.512,13.812 76.927,12.935L75.007,13.854C75.487,14.647 76.03,15.691 76.343,16.484L72.752,16.484L72.752,18.446L80.747,18.446L80.747,16.484ZM80.058,19.385L73.671,19.385L73.671,21.264L80.058,21.264L80.058,19.385ZM73.671,24.082L80.058,24.082L80.058,22.204L73.671,22.204L73.671,24.082ZM78.054,29.384L75.716,29.384L75.716,27.046L78.054,27.046L78.054,29.384ZM83.377,19.031L85.131,19.031L85.131,20.367L83.377,20.367L83.377,19.031ZM83.377,15.774L85.131,15.774L85.131,17.131L83.377,17.131L83.377,15.774ZM89.118,17.131L87.281,17.131L87.281,15.774L89.118,15.774L89.118,17.131ZM89.118,20.367L87.281,20.367L87.281,19.031L89.118,19.031L89.118,20.367ZM91.894,25.752L91.894,23.56L87.427,23.56L87.427,22.329L91.414,22.329L91.414,13.833L81.165,13.833L81.165,22.329L85.006,22.329L85.006,23.56L80.559,23.56L80.559,25.752L83.983,25.752C83.043,27.234 81.645,28.633 80.204,29.551L80.204,25.063L73.629,25.063L73.629,32.265L75.716,32.265L75.716,31.388L80.204,31.388L80.204,30.345C80.643,30.783 81.081,31.347 81.353,31.764C82.689,30.866 83.962,29.51 85.006,27.986L85.006,32.516L87.427,32.516L87.427,27.777C88.429,29.301 89.661,30.72 90.85,31.66C91.226,31.075 91.999,30.219 92.541,29.802C91.059,28.883 89.494,27.339 88.429,25.752L91.894,25.752Z" style="fill:white;fill-rule:nonzero;"/>
        <path d="M109.554,19.031L104.356,19.031L104.356,16.025L109.554,16.025L109.554,19.031ZM111.955,13.937L102.06,13.937L102.06,21.118L111.955,21.118L111.955,13.937ZM101.496,24.875C101.121,24.354 99.43,22.183 98.887,21.577L98.887,21.243L101.225,21.243L101.225,18.926L98.887,18.926L98.887,15.899C99.722,15.691 100.515,15.44 101.246,15.148L99.931,13.102C98.386,13.833 96.027,14.459 93.898,14.835C94.17,15.357 94.462,16.192 94.566,16.755C95.192,16.672 95.86,16.547 96.528,16.421L96.528,18.926L93.669,18.926L93.669,21.243L95.965,21.243C95.359,23.247 94.378,25.46 93.397,26.838C93.731,27.464 94.253,28.549 94.462,29.301C95.234,28.153 95.923,26.525 96.528,24.792L96.528,32.557L98.887,32.557L98.887,24.249C99.388,25.189 99.91,26.211 100.181,26.9L101.496,24.875ZM108.385,29.927L108.385,28.028L112.122,28.028L112.122,25.898L108.385,25.898L108.385,23.936C109.7,23.748 110.974,23.539 112.08,23.268L110.556,21.389C108.448,21.932 105.045,22.329 102.039,22.517C102.29,23.018 102.561,23.853 102.645,24.395C103.688,24.354 104.816,24.291 105.922,24.207L105.922,25.898L101.956,25.898L101.956,28.028L105.922,28.028L105.922,29.927L100.891,29.927L100.891,32.14L112.957,32.14L112.957,29.927L108.385,29.927Z" style="fill:white;fill-rule:nonzero;"/>
        <path d="M116.672,25.46L118.676,25.46L119.115,17.757L119.219,14.856L116.13,14.856L116.234,17.757L116.672,25.46ZM117.674,31.013C118.76,31.013 119.595,30.136 119.595,29.009C119.595,27.881 118.76,27.005 117.674,27.005C116.589,27.005 115.775,27.881 115.775,29.009C115.775,30.136 116.589,31.013 117.674,31.013Z" style="fill:white;fill-rule:nonzero;"/>
        <path d="M124.396,25.46L126.4,25.46L126.838,17.757L126.943,14.856L123.853,14.856L123.958,17.757L124.396,25.46ZM125.398,31.013C126.483,31.013 127.318,30.136 127.318,29.009C127.318,27.881 126.483,27.005 125.398,27.005C124.312,27.005 123.498,27.881 123.498,29.009C123.498,30.136 124.312,31.013 125.398,31.013Z" style="fill:white;fill-rule:nonzero;"/>
    </g>
</svg>
