<svg width="36" height="32" viewBox="0 0 36 32" fill="none" xmlns="http://www.w3.org/2000/svg">
<g id="star" clip-path="url(#clip0_268_436)">
<path id="Vector" d="M7.69092 30.8591C8.27013 28.9534 8.84411 27.0451 9.42856 25.1394C9.72996 24.1579 9.99205 23.1582 10.3721 22.2079C10.8622 20.9817 10.4088 20.2293 9.37876 19.5472C6.54035 17.6676 3.74126 15.728 0.929059 13.8067C0.792774 13.713 0.682697 13.5828 0.300049 13.2262C1.39033 12.656 2.29978 11.8776 3.31406 11.7058C6.2442 11.2085 9.20841 10.8987 12.17 10.641C13.0794 10.5603 13.4437 10.2531 13.6665 9.42259C14.2038 7.39714 14.9062 5.41334 15.3963 3.37748C15.7344 1.96643 16.6989 1.27392 17.8992 0.828738C18.2006 0.716792 18.8899 1.00317 19.0734 1.30516C20.3183 3.35665 21.5554 5.41855 22.6299 7.55855C23.4083 9.10758 23.6075 9.31325 25.3399 9.05811C27.8402 8.69103 30.3458 8.36821 33.0505 8.2875C32.7124 8.6676 32.4163 9.09196 32.0336 9.41738C30.1623 11.0107 28.2674 12.5805 26.3804 14.1556C25.7304 14.6971 25.699 15.3089 25.906 16.1212C26.8443 19.7633 27.738 23.4185 28.5321 27.0945C28.6317 27.5553 28.1757 28.2895 27.7616 28.667C27.012 29.3517 26.0711 29.7682 25.0411 29.159C22.5172 27.6673 19.9959 26.1677 17.4956 24.6369C16.6674 24.1292 16.0751 23.9861 15.2915 24.853C13.7216 26.5921 12.0285 28.2322 10.3013 29.8203C9.6592 30.4113 8.77596 30.7471 8.00543 31.2001C7.90059 31.0856 7.79576 30.971 7.69092 30.8565V30.8591Z" fill="#3178C6"/>
<path id="Vector_2" d="M35.1 21.1588C34.3871 21.6483 33.7319 22.2705 32.9535 22.5542C32.5656 22.6948 31.7741 22.3512 31.4674 21.9815C30.8227 21.2005 30.4348 20.2138 29.8346 19.3885C29.0248 18.2742 29.6721 17.6416 30.5344 17.1548C31.3521 16.694 32.2511 15.9676 32.922 17.4828C33.3676 18.4877 34.0673 19.3807 34.6492 20.3257C34.7593 20.5028 34.8484 20.6902 35.1 21.1588Z" fill="#3178C6"/>
<path id="Vector_3" d="M7.16678 7.71735C5.94283 7.19147 5.68074 5.93923 5.22209 4.90567C4.96786 4.32772 4.81847 3.38789 5.11987 2.96353C5.51824 2.4064 6.38575 2.14346 7.10125 1.87791C7.29258 1.80762 7.76958 2.12263 7.91372 2.37256C8.34093 3.11193 8.61612 3.9346 9.0407 4.67657C9.95015 6.26986 9.882 6.56404 8.22299 7.32684C7.91635 7.46743 7.58612 7.56115 7.16415 7.71475L7.16678 7.71735Z" fill="#3178C6"/>
<path id="Vector_4" d="M25.7488 6.21002C26.2179 3.40615 28.8755 0.62571 31.1242 0.906878C29.2241 2.53922 29.3289 5.54876 26.4879 6.20221C26.2572 6.25428 26.003 6.21002 25.7488 6.21002Z" fill="#3178C6"/>
<path id="Vector_5" d="M8.1993 20.651C6.41973 22.6061 5.30847 24.8737 2.49365 25.3007C3.06238 23.1502 6.10522 20.5468 8.1993 20.651Z" fill="#3178C6"/>
</g>
<defs>
<clipPath id="clip0_268_436">
<rect width="34.8" height="30.4" fill="white" transform="translate(0.300049 0.800049)"/>
</clipPath>
</defs>
</svg>
