<svg width="40" height="40" viewBox="0 0 40 40" fill="none" xmlns="http://www.w3.org/2000/svg">
<path d="M1.6665 29.9999V8.33325C1.6665 7.00717 2.19367 5.73578 3.13135 4.7981C4.06903 3.86041 5.34042 3.33325 6.6665 3.33325H13.216C14.0436 3.33339 14.8588 3.5396 15.5874 3.93221C16.316 4.32489 16.9372 4.89135 17.3924 5.5826H17.3908L18.7319 7.56665L18.7417 7.58293C18.895 7.81574 19.1044 8.00691 19.3504 8.13794C19.5963 8.26885 19.8711 8.33588 20.1496 8.33325H33.3332C34.6593 8.33325 35.9306 8.86041 36.8683 9.7981C37.806 10.7358 38.3332 12.0072 38.3332 13.3333V29.9999C38.3332 31.326 37.806 32.5974 36.8683 33.5351C35.9306 34.4728 34.6593 34.9999 33.3332 34.9999H6.6665C5.34042 34.9999 4.06903 34.4728 3.13135 33.5351C2.19367 32.5974 1.6665 31.326 1.6665 29.9999ZM15.3644 16.4583C15.9394 15.7395 16.9894 15.6228 17.7082 16.1978C18.4269 16.7729 18.5436 17.8228 17.9686 18.5416L15.4686 21.6666L17.9686 24.7916C18.5436 25.5104 18.4269 26.5603 17.7082 27.1353C16.9894 27.7104 15.9394 27.5937 15.3644 26.8749L12.0311 22.7083C11.5441 22.0996 11.5441 21.2336 12.0311 20.6249L15.3644 16.4583ZM22.2915 16.1978C23.0103 15.6228 24.0602 15.7395 24.6353 16.4583L27.9686 20.6249C28.4555 21.2336 28.4555 22.0996 27.9686 22.7083L24.6353 26.8749C24.0602 27.5937 23.0103 27.7104 22.2915 27.1353C21.5727 26.5603 21.4561 25.5104 22.0311 24.7916L24.5311 21.6666L22.0311 18.5416C21.4561 17.8228 21.5727 16.7729 22.2915 16.1978ZM4.99984 29.9999C4.99984 30.4419 5.17556 30.8657 5.48812 31.1783C5.80068 31.4909 6.22448 31.6666 6.6665 31.6666H33.3332C33.7752 31.6666 34.199 31.4909 34.5116 31.1783C34.8241 30.8657 34.9998 30.4419 34.9998 29.9999V13.3333C34.9998 12.8912 34.8241 12.4674 34.5116 12.1549C34.199 11.8423 33.7752 11.6666 33.3332 11.6666H20.1659V11.665C19.3355 11.6703 18.5162 11.4711 17.783 11.0806C17.0505 10.6905 16.4272 10.1232 15.9683 9.43188L14.619 7.43319L14.6076 7.41691C14.4559 7.18665 14.2497 6.99767 14.007 6.86678C13.7641 6.73588 13.4919 6.66663 13.216 6.66659H6.6665C6.22448 6.66659 5.80068 6.84231 5.48812 7.15487C5.17556 7.46743 4.99984 7.89122 4.99984 8.33325V29.9999Z" fill="#4DFFCF"/>
</svg>
