<svg fill="none" height="60" viewBox="0 0 60 60" width="60" xmlns="http://www.w3.org/2000/svg"><circle cx="30" cy="30" fill="#689f40" r="30"/><path d="m22.344 40-4.104-17.832h3.624l1.752 8.568c.336 1.896.744 3.768 1.128 5.688h.096c.48-1.92.96-3.816 1.44-5.688l2.304-8.568h3.024l2.352 8.64c.456 1.848.936 3.696 1.416 5.616h.144c.336-1.92.672-3.744.984-5.616l1.8-8.64h3.384l-3.96 17.832h-4.44l-2.328-8.784c-.36-1.392-.648-2.808-.912-4.176h-.12c-.288 1.368-.576 2.784-.912 4.176l-2.304 8.784z" fill="#fff"/></svg>