<svg width="20" height="20" viewBox="0 0 20 20" fill="#647278" xmlns="http://www.w3.org/2000/svg">
<path d="M6.66658 16.6666H13.3333V14.1666C13.3333 13.25 13.0069 12.4652 12.3541 11.8125C11.7013 11.1597 10.9166 10.8333 9.99992 10.8333C9.08325 10.8333 8.29853 11.1597 7.64575 11.8125C6.99297 12.4652 6.66658 13.25 6.66658 14.1666V16.6666ZM3.33325 18.3333V16.6666H4.99992V14.1666C4.99992 13.3194 5.19784 12.5243 5.59367 11.7812C5.9895 11.0382 6.54159 10.4444 7.24992 9.99996C6.54159 9.55552 5.9895 8.96177 5.59367 8.21871C5.19784 7.47565 4.99992 6.68052 4.99992 5.83329V3.33329H3.33325V1.66663H16.6666V3.33329H14.9999V5.83329C14.9999 6.68052 14.802 7.47565 14.4062 8.21871C14.0103 8.96177 13.4583 9.55552 12.7499 9.99996C13.4583 10.4444 14.0103 11.0382 14.4062 11.7812C14.802 12.5243 14.9999 13.3194 14.9999 14.1666V16.6666H16.6666V18.3333H3.33325Z" fill="#647278"/>
</svg>
