<svg id="圖層_1" data-name="圖層 1" xmlns="https://www.w3.org/2000/svg" viewBox="0 0 140 136.67"><defs><style>.cls-1{fill:#86747b;}</style></defs><title>img_why_basic</title><path class="cls-1" d="M19.12,117A15.51,15.51,0,0,0,3.63,132.49a2.21,2.21,0,0,0,2.21,2.21H32.39a2.21,2.21,0,0,0,2.21-2.21A15.51,15.51,0,0,0,19.12,117ZM8.28,130.28a11.08,11.08,0,0,1,8.63-8.61v4.18h4.42v-4.18A11.08,11.08,0,0,1,30,130.28Z"/><path class="cls-1" d="M134.16,97.09h-3.88c-.12-.31-.25-.61-.38-.92l2.75-2.75a2.21,2.21,0,0,0,0-3.13l-9.38-9.38a2.18,2.18,0,0,0-1.66-.63,11,11,0,0,0,5.93-9.74V13A11.07,11.07,0,0,0,116.46,2H14.69A11.07,11.07,0,0,0,3.63,13V70.55A11.07,11.07,0,0,0,14.69,81.61H43.56L35.2,97.09H31.28a7.74,7.74,0,1,0,0,15.49H78.85a2.21,2.21,0,0,0,2.21,2.21h3.88c.12.31.25.61.38.92l-2.75,2.75a2.21,2.21,0,0,0,0,3.13L92,131a2.21,2.21,0,0,0,3.13,0l2.75-2.75.92.38v3.88A2.21,2.21,0,0,0,101,134.7h13.27a2.21,2.21,0,0,0,2.21-2.21v-3.88l.92-.38,2.75,2.75a2.21,2.21,0,0,0,3.13,0l9.38-9.38a2.21,2.21,0,0,0,0-3.13l-2.75-2.75c.14-.31.26-.61.38-.92h3.88a2.21,2.21,0,0,0,2.21-2.21V99.31A2.21,2.21,0,0,0,134.16,97.09ZM8.05,13a6.65,6.65,0,0,1,6.64-6.64H116.46A6.65,6.65,0,0,1,123.1,13V59.48H8.05Zm6.64,64.16a6.65,6.65,0,0,1-6.64-6.64V63.91h115v6.64a6.65,6.65,0,0,1-6.64,6.64H14.69ZM120.1,80.94l-2.72,2.72-.92-.38V81.61A10.92,10.92,0,0,0,120.1,80.94Zm-21.34.66v1.67l-.92.38-2.05-2.05Zm-7.49,0-1.91,1.91-1.3-1.91ZM78.85,108.16H31.28a3.32,3.32,0,1,1,0-6.64H78.85ZM40.23,97.09l8.36-15.48H82.71l3.47,5.09-3.6,3.6a2.21,2.21,0,0,0,0,3.13l2.75,2.75c-.14.31-.26.61-.38.92H40.23Zm91.71,13.28h-3.23a2.21,2.21,0,0,0-2.11,1.55,19.9,19.9,0,0,1-1.35,3.23,2.21,2.21,0,0,0,.4,2.59l2.29,2.29-6.26,6.26L119.4,124a2.22,2.22,0,0,0-2.59-.4,19.91,19.91,0,0,1-3.23,1.35,2.22,2.22,0,0,0-1.55,2.11v3.23h-8.85v-3.23a2.21,2.21,0,0,0-1.55-2.11,19.9,19.9,0,0,1-3.23-1.35,2.22,2.22,0,0,0-2.59.4l-2.29,2.29L87.27,120l2.29-2.29a2.21,2.21,0,0,0,.4-2.59,19.91,19.91,0,0,1-1.35-3.23,2.22,2.22,0,0,0-2.11-1.55H83.27v-8.85H86.5A2.21,2.21,0,0,0,88.61,100,19.9,19.9,0,0,1,90,96.74a2.21,2.21,0,0,0-.4-2.59l-2.29-2.29,6.26-6.26,2.29,2.29a2.21,2.21,0,0,0,2.59.4,19.91,19.91,0,0,1,3.23-1.35,2.22,2.22,0,0,0,1.55-2.11V81.61H112v3.23a2.21,2.21,0,0,0,1.55,2.11,19.9,19.9,0,0,1,3.23,1.35,2.21,2.21,0,0,0,2.59-.4l2.29-2.29,6.26,6.26-2.29,2.29a2.21,2.21,0,0,0-.4,2.59,19.91,19.91,0,0,1,1.35,3.23,2.22,2.22,0,0,0,2.11,1.55h3.23Z"/><path class="cls-1" d="M107.61,92.67a13.27,13.27,0,1,0,13.27,13.27A13.29,13.29,0,0,0,107.61,92.67Zm0,22.12a8.85,8.85,0,1,1,8.85-8.85A8.86,8.86,0,0,1,107.61,114.79Z"/><path class="cls-1" d="M47.23,19,44.1,15.89,28.61,31.37a2.21,2.21,0,0,0,0,3.13L44.1,50l3.13-3.13L33.31,32.94Z"/><path class="cls-1" d="M95.9,31.37,80.41,15.89,77.29,19,91.21,32.94,77.29,46.86,80.41,50,95.9,34.5A2.21,2.21,0,0,0,95.9,31.37Z"/><rect class="cls-1" x="40" y="28.52" width="44.51" height="4.42" transform="translate(6.93 72.67) rotate(-63.43)"/><rect class="cls-1" x="89.91" y="46.21" width="4.42" height="4.42"/><rect class="cls-1" x="98.76" y="46.21" width="4.42" height="4.42"/><rect class="cls-1" x="107.61" y="46.21" width="4.42" height="4.42"/></svg>