<svg id="圖層_1" data-name="圖層 1" xmlns="https://www.w3.org/2000/svg" viewBox="0 0 140 140"><defs><style>.cls-1{fill:#86747b;}</style></defs><title>img_why_framework</title><path class="cls-1" d="M111.38,31.21h-4.87a2.28,2.28,0,1,0,0,4.56h4.87a2.28,2.28,0,1,0,0-4.56Z"/><path class="cls-1" d="M14,21.47h0a2.28,2.28,0,1,0,2.31,2.28A2.27,2.27,0,0,0,14,21.47Z"/><path class="cls-1" d="M33.51,21.47h0a2.28,2.28,0,1,0,2.31,2.28A2.27,2.27,0,0,0,33.49,21.47Z"/><path class="cls-1" d="M23.75,21.47h0A2.28,2.28,0,1,0,26,23.75,2.27,2.27,0,0,0,23.73,21.47Z"/><path class="cls-1" d="M126,21.47H43.23a2.28,2.28,0,1,0,0,4.56H126a2.28,2.28,0,1,0,0-4.56Z"/><path class="cls-1" d="M67.57,45.81A7.15,7.15,0,1,0,74.72,53,7.16,7.16,0,0,0,67.57,45.81Zm0,9.74A2.59,2.59,0,1,1,70.15,53,2.59,2.59,0,0,1,67.57,55.55Z"/><path class="cls-1" d="M121.11,45.81H82.17a2.28,2.28,0,0,0,0,4.56h38.94a2.28,2.28,0,0,0,0-4.56Z"/><path class="cls-1" d="M35.92,45.81H16.45a2.28,2.28,0,0,0,0,4.56H35.92a2.28,2.28,0,0,0,0-4.56Z"/><path class="cls-1" d="M35.92,58H16.45a2.28,2.28,0,0,0,0,4.56H35.92a2.28,2.28,0,0,0,0-4.56Z"/><path class="cls-1" d="M35.92,70.15H23.75a2.28,2.28,0,1,0,0,4.56H35.92a2.28,2.28,0,1,0,0-4.56Z"/><path class="cls-1" d="M35.92,82.32H23.75a2.28,2.28,0,0,0,0,4.56H35.92a2.28,2.28,0,1,0,0-4.56Z"/><path class="cls-1" d="M35.92,94.49H23.75a2.28,2.28,0,0,0,0,4.56H35.92a2.28,2.28,0,1,0,0-4.56Z"/><path class="cls-1" d="M35.92,106.66H23.75a2.28,2.28,0,0,0,0,4.56H35.92a2.28,2.28,0,1,0,0-4.56Z"/><path class="cls-1" d="M87,55.55H82.17a2.28,2.28,0,0,0,0,4.56H87a2.28,2.28,0,0,0,0-4.56Z"/><path class="cls-1" d="M116.25,55.55h-4.87a2.28,2.28,0,1,0,0,4.56h4.87a2.28,2.28,0,0,0,0-4.56Z"/><path class="cls-1" d="M101.64,55.55H96.77a2.28,2.28,0,0,0,0,4.56h4.87a2.28,2.28,0,0,0,0-4.56Z"/><path class="cls-1" d="M67.57,72.59a7.15,7.15,0,1,0,7.15,7.15A7.16,7.16,0,0,0,67.57,72.59Zm0,9.74a2.59,2.59,0,1,1,2.59-2.59A2.59,2.59,0,0,1,67.57,82.32Z"/><path class="cls-1" d="M121.11,72.59H82.17a2.28,2.28,0,0,0,0,4.56h38.94a2.28,2.28,0,0,0,0-4.56Z"/><path class="cls-1" d="M87,82.32H82.17a2.28,2.28,0,0,0,0,4.56H87a2.28,2.28,0,0,0,0-4.56Z"/><path class="cls-1" d="M116.25,82.32h-4.87a2.28,2.28,0,1,0,0,4.56h4.87a2.28,2.28,0,0,0,0-4.56Z"/><path class="cls-1" d="M101.64,82.32H96.77a2.28,2.28,0,0,0,0,4.56h4.87a2.28,2.28,0,0,0,0-4.56Z"/><path class="cls-1" d="M67.57,99.36a7.15,7.15,0,1,0,7.15,7.15A7.16,7.16,0,0,0,67.57,99.36Zm0,9.74a2.59,2.59,0,1,1,2.59-2.59A2.59,2.59,0,0,1,67.57,109.1Z"/><path class="cls-1" d="M121.11,99.36H82.17a2.28,2.28,0,0,0,0,4.56h38.94a2.28,2.28,0,0,0,0-4.56Z"/><path class="cls-1" d="M87,109.1H82.17a2.28,2.28,0,0,0,0,4.56H87a2.28,2.28,0,0,0,0-4.56Z"/><path class="cls-1" d="M116.25,109.1h-4.87a2.28,2.28,0,1,0,0,4.56h4.87a2.28,2.28,0,0,0,0-4.56Z"/><path class="cls-1" d="M101.64,109.1H96.77a2.28,2.28,0,0,0,0,4.56h4.87a2.28,2.28,0,0,0,0-4.56Z"/><path class="cls-1" d="M130.85,11.74H9.15A7.16,7.16,0,0,0,2,18.89V121.11a7.16,7.16,0,0,0,7.15,7.15h121.7a7.16,7.16,0,0,0,7.15-7.15V18.89A7.16,7.16,0,0,0,130.85,11.74Zm-85,112H9.15a2.59,2.59,0,0,1-2.59-2.59V35.77H45.81Zm87.62-92.49H121.11a2.28,2.28,0,1,0,0,4.56h12.32v85.34a2.59,2.59,0,0,1-2.59,2.59H50.38V35.77h46.4a2.28,2.28,0,1,0,0-4.56H6.56V18.89A2.59,2.59,0,0,1,9.15,16.3h121.7a2.59,2.59,0,0,1,2.59,2.59V31.21Z"/></svg>