<svg id="圖層_1" data-name="圖層 1" xmlns="https://www.w3.org/2000/svg" viewBox="0 0 140 140"><defs><style>.cls-1{fill:#86747b;}</style></defs><title>img_why_ic</title><path class="cls-1" d="M28.67,4,16.77,15.89v9.4H4V55.1H16.77V89.16H4v17H16.77V136H136V4ZM8.26,50.84V29.55H33.81V50.84Zm0,51.1V93.42H33.81v8.52Zm123.48,29.81H21V106.19h17V99.81h4.26V95.55H38.06V89.16H21V55.1h17V50.84h4.26V46.58H38.06V33.81h4.26V29.55H38.06V25.29H21V17.66l9.4-9.4H131.74Z"/><path class="cls-1" d="M84.9,123.23h29.81V119H119v-4.26h-4.26v-4.26H119v-4.26h-4.26v-4.26H119V97.68h-4.26V93.42H119V89.16h-4.26V84.9H119V80.65h-4.26V76.39H119V72.13h-4.26V67.87H119V63.61h-4.26V59.35H119V55.1h-4.26V50.84H119V46.58h-4.26V42.32H119V38.06h-4.26V33.81H119V29.55h-4.26V25.29H119V21h-4.26V16.77H84.9V21H80.65v4.26H84.9v4.26H80.65v4.26H84.9v4.26H80.65v4.26H84.9v4.26H80.65v4.26H84.9V55.1H80.65v4.26H84.9v4.26H80.65v4.26H84.9v4.26H80.65v4.26H84.9v4.26H80.65V84.9H84.9v4.26H80.65v4.26H84.9v4.26H80.65v4.26H84.9v4.26H80.65v4.26H84.9v4.26H80.65V119H84.9ZM89.16,21h21.29V119H89.16Z"/><circle class="cls-1" cx="99.81" cy="27.42" r="2.13"/><path class="cls-1" d="M72.13,21h-17V33.81h17Zm-4.26,8.52H59.35V25.29h8.52Z"/><path class="cls-1" d="M72.13,42.32h-17V55.1h17Zm-4.26,8.52H59.35V46.58h8.52Z"/><path class="cls-1" d="M42.32,61.48v4.26H38.06V61.48H33.81v4.26H29.55V78.52h4.26v4.26h4.26V78.52h4.26v4.26h4.26V78.52h4.26v4.26H55.1V78.52h4.26V65.74H55.1V61.48H50.84v4.26H46.58V61.48ZM55.1,70v4.26H33.81V70Z"/><path class="cls-1" d="M33.81,110.45A8.52,8.52,0,1,0,42.32,119,8.52,8.52,0,0,0,33.81,110.45Zm0,12.77A4.26,4.26,0,1,1,38.06,119,4.26,4.26,0,0,1,33.81,123.23Z"/><path class="cls-1" d="M55.1,110.45A8.52,8.52,0,1,0,63.61,119,8.52,8.52,0,0,0,55.1,110.45Zm0,12.77A4.26,4.26,0,1,1,59.35,119,4.26,4.26,0,0,1,55.1,123.23Z"/><rect class="cls-1" x="50.84" y="93.42" width="4.26" height="8.52"/><rect class="cls-1" x="59.35" y="93.42" width="4.26" height="8.52"/><rect class="cls-1" x="67.87" y="93.42" width="4.26" height="8.52"/><circle class="cls-1" cx="29.55" cy="16.77" r="2.13"/></svg>