<svg id="圖層_1" data-name="圖層 1" xmlns="https://www.w3.org/2000/svg" xmlns:xlink="https://www.w3.org/1999/xlink" viewBox="0 0 389.81 275"><defs><style>.cls-1{fill:#fff;}.cls-2{fill:#231815;opacity:0.1;}.cls-3{fill:#86747b;}.cls-4{fill:#735378;}.cls-5{mask:url(#mask);}.cls-6{fill:#f29826;}.cls-7{mask:url(#mask-2);}.cls-8{mask:url(#mask-3);}.cls-9{mask:url(#mask-4);}.cls-10{fill:#7c5d82;}.cls-11{fill:#f4f4f4;}.cls-12{fill:#bdbdbd;}.cls-13{fill:#e0e0e0;}.cls-14{fill:#eee;}.cls-15{fill:#fafafa;}.cls-16{fill:#f7603e;}.cls-17{fill:#f53000;}.cls-18{fill:#fae246;}.cls-19{fill:#e3c129;}</style><mask id="mask" x="170.02" y="183.56" width="38.44" height="76.43" maskUnits="userSpaceOnUse"><path class="cls-1" d="M203.83,183.78c-9.14-3.21-28.22,29.65-32.33,52.66-1,5.44-1.26,11.18,2.15,15.65a16.39,16.39,0,0,0,17,5.4c8.82-2.86,11.52-15.12,14.07-27.5C205.27,227.48,213.38,187.13,203.83,183.78Z"/></mask><mask id="mask-2" x="-3828.14" y="-4602.74" width="4033.12" height="4865.32" maskUnits="userSpaceOnUse"/><mask id="mask-3" x="128.03" y="159.38" width="52.75" height="68.41" maskUnits="userSpaceOnUse"><path class="cls-1" d="M176.46,206.21c-8.5,14.92-15.6,14.91-31.67,14.91s-15.36-18.75-15.36-35.92,8.84-25.82,24.91-25.82S189.47,183.34,176.46,206.21Z"/></mask><mask id="mask-4" x="208.09" y="152.61" width="62.38" height="72.56" maskUnits="userSpaceOnUse"><path class="cls-1" d="M263.8,187.17c8.37,19.46,5.34,34.06-11.1,35.69s-42.29-7.93-44.38-29,9.55-39.49,26-41.11S254.83,166.32,263.8,187.17Z"/></mask></defs><title>img_act_discount</title><ellipse class="cls-2" cx="191.62" cy="260.01" rx="82.94" ry="15.33"/><path class="cls-3" d="M196.11,166.57c8.52-4.32,24,22.72,27.53,35.41s4.27,21-3.31,24.76c-10.27,5.06-18.54-9-22.52-24.33S190.62,169.35,196.11,166.57Z"/><path class="cls-4" d="M203.83,183.14c-9.14-3.21-28.22,29.65-32.33,52.66-1,5.44-1.26,11.18,2.15,15.65a16.39,16.39,0,0,0,17,5.4c8.82-2.86,11.52-15.12,14.07-27.5C205.27,226.84,213.38,186.5,203.83,183.14Z"/><g class="cls-5"><path class="cls-6" d="M198.76,245.49a14.37,14.37,0,1,1-28.74,0c0-8,6.43-15.55,14.37-15.55S198.76,237.48,198.76,245.49Z"/></g><g class="cls-7"><path class="cls-6" d="M186.38,262.57A21.62,21.62,0,0,1,165,240.76c0-5.77,5.62-14.25,9.53-18.65,4.12-4.64,6.63-5.88,12.32-5.88a19.32,19.32,0,0,1,14.84,7c3.91,4.4,3.26,10.42,3.26,16.19C204.94,251.43,198.17,262.57,186.38,262.57Zm0-39.73c-8.58,0-16.1,8.37-16.1,17.91a16.11,16.11,0,1,0,32.2,0C202.49,231.22,195,222.85,186.38,222.85Z"/></g><path class="cls-6" d="M174,175.66c-7.13-7.37-24.79,5-35.35,16.43s-13.94,26.85-6.75,33.15,17.75.44,26.26-12.47S178.44,180.21,174,175.66Z"/><g class="cls-8"><path class="cls-4" d="M174,175.55c-7.15-7.38-24.84,5-35.43,16.46s-14,26.9-6.76,33.22,17.79.44,26.31-12.5S178.45,180.11,174,175.55Z"/></g><path class="cls-3" d="M158.34,213c6.71-10.18,15.42-24.55,16.65-32.41-4.62-7-24.43,19.5-31.47,32.56-4.81,8.92-3.8,13-2.68,14.65C146.57,226.67,152.88,221.28,158.34,213Z"/><path class="cls-6" d="M142,216.24c-8.67-4.56-9.58-14.06-9.58-15.49l2.49-4c1.47,5.66,4.49,12.45,9.34,15.06Z"/><path class="cls-6" d="M232.67,174.89c2.46-5.78,23.23,6.42,32.6,22.62s3.36,25.36-.51,27.29c-6.28,3.13-16.55-14.8-22.06-25S231.23,178.28,232.67,174.89Z"/><g class="cls-9"><path class="cls-4" d="M232.67,174.61c2.47-5.81,23.36,6.45,32.79,22.75s3.38,25.5-.52,27.44c-6.32,3.15-16.64-14.88-22.18-25.18S231.22,178,232.67,174.61Z"/></g><path class="cls-3" d="M264.31,225c-.78-3.72-3.75-9.89-9.25-19.17-8.91-15-15.75-24.23-19.73-27.48a9.17,9.17,0,0,0-2.87-1.75c.3,4.59,5.43,14.27,10.23,23.18C248.08,209.77,258,227.11,264.31,225Z"/><path class="cls-6" d="M260.51,215.58a21,21,0,0,0,6.53-14.7l-1.78-3.36c-1.47,5.66-3,9.7-7.87,12.32Z"/><path class="cls-4" d="M281.13,103.78c0,45.92-40.5,68.68-88.72,68.68S109.34,141.4,109.34,100,148.41,21,196.61,22.51C244.53,24,281.13,62.35,281.13,103.78Z"/><path class="cls-10" d="M179.2,0a7.31,7.31,0,0,0-6.35,3.84c-13.74,18.57-18.6,51.41-18.61,52.4v0h0c0,4.13,1.33,7.21,4.65,8a12.87,12.87,0,0,0,5.95-.66,18.35,18.35,0,0,0,7.32-5.41c8.19-9.48,11.79-14.39,13-17.12,1.94-4.41-1.21-7.66-1.31-17.48-.07-6.23,1.79-15.55,1.83-15.84A6.59,6.59,0,0,0,179.2,0Z"/><path class="cls-11" d="M117.11,115.25c4.51,13.12,13,21.29,19,19.57.87-.25,4.66-1.35,6.18-8.32,2-9.29-1.68-21.21-2.2-22.83C135.67,90,126.73,81.16,120.58,82.92c-.88.25-4.69,1.34-6.18,8.32C112.32,101,116.59,113.73,117.11,115.25Z"/><path class="cls-4" d="M131.61,123.53c-.24.46-.69.64-1,.39s-1.33-1.32-1.65-1.6c-4.23-3.79-4.87-4.43-7.57-8.73a9.43,9.43,0,0,1-1-3.3c-.56-6.21,2.1-8.74,2.39-8.39,3.24,4,5.77,7.48,9.89,11.18l.58.5a2.94,2.94,0,0,1,.47,2Z"/><path class="cls-6" d="M152.67,148.12a3.63,3.63,0,0,1-1.15-2c-1.46-5.3-2.09-13.27-2.77-20.65a34.39,34.39,0,0,1,0-5.82,3.51,3.51,0,0,1,2.93-3.46,8.26,8.26,0,0,1,1.78-.19,9.14,9.14,0,0,1,7.88,4.9,2.81,2.81,0,0,1,.32,1.34q0,3.17,0,6.33c0,1.14-.12,6.72,0,17.9a1.88,1.88,0,0,1-.27,1C160.17,149.49,154.9,150,152.67,148.12Z"/><path class="cls-11" d="M241,130.2c-3.5,15.27-18.83,26.18-33.46,25.79-2.15-.06-11.47-.31-18.65-7.46-9.57-9.53-7.3-23.31-7-25.18,2.88-15.88,18.9-27.57,34-27.19,2.15.05,11.54.29,18.65,7.46C244.52,113.64,241.38,128.42,241,130.2Z"/><path class="cls-4" d="M197.11,139.27c.07.67.12,2.36.83,2.19l2.33-.56a163.13,163.13,0,0,0,27.74-10c1.12-.5,1.59-5.8,1.43-8.2-.29-4.4-.92-4.88-1.08-5s-.78.08-1.29.27c-8.85,3.36-17.52,6.69-27.66,9.2l-2.49.59c-.63.15-1,1.05-.9,1.66Z"/><path class="cls-3" d="M379.08,222.05a2.51,2.51,0,0,0,2.15-2.83c-.19-1.38-2.14-7.29-3.52-7.1s-1.65,6.41-1.46,7.79A2.51,2.51,0,0,0,379.08,222.05Z"/><rect class="cls-4" x="361.1" y="198.44" width="30" height="4.11" transform="translate(229.05 600.52) rotate(-97.88)"/><path class="cls-12" d="M381.68,214.86a.67.67,0,0,1-.57.76l-5.74.79a.67.67,0,0,1-.18-1.33l5.74-.79A.67.67,0,0,1,381.68,214.86Z"/><path class="cls-3" d="M369.18,150.51a2.51,2.51,0,0,1,2.83,2.15c.19,1.38-.08,7.6-1.46,7.79s-3.33-5.72-3.52-7.1A2.51,2.51,0,0,1,369.18,150.51Z"/><rect class="cls-13" x="184.85" y="39.75" width="21.72" height="363.07" transform="translate(388.07 -2.91) rotate(82.12)"/><rect class="cls-14" x="181.87" y="18.23" width="21.72" height="363.07" transform="translate(364.19 -18.53) rotate(82.12)"/><rect class="cls-4" x="356.98" y="168.73" width="30" height="4.11" transform="translate(490.16 -221.1) rotate(82.12)"/><rect class="cls-15" x="367.19" y="161.43" width="13.69" height="48.42" transform="translate(-21.92 53.03) rotate(-7.88)"/><path class="cls-6" d="M378.24,161.19l.13,1-14.88,2.06-.13-1a1.37,1.37,0,0,1,1.17-1.54L376.69,160A1.37,1.37,0,0,1,378.24,161.19Z"/><rect class="cls-14" x="368.85" y="185.52" width="13.69" height="24.21" transform="translate(-23.55 53.37) rotate(-7.88)"/><path class="cls-13" d="M373.46,155.44a.67.67,0,0,0-.76-.57l-5.74.79a.67.67,0,0,0,.18,1.33l5.74-.79A.67.67,0,0,0,373.46,155.44Z"/><path class="cls-6" d="M384.72,208l-.13-1-14.88,2.06.13,1a1.37,1.37,0,0,0,1.54,1.17l12.17-1.68A1.37,1.37,0,0,0,384.72,208Z"/><path class="cls-3" d="M21.46,271.49a2.51,2.51,0,0,0,2.15-2.83c-.19-1.38-2.14-7.29-3.52-7.1s-1.65,6.41-1.46,7.79A2.51,2.51,0,0,0,21.46,271.49Z"/><rect class="cls-4" x="3.49" y="247.93" width="30" height="4.11" transform="translate(-226.61 302.57) rotate(-97.88)"/><path class="cls-12" d="M24.07,264.35a.67.67,0,0,1-.57.76l-5.74.79a.67.67,0,0,1-.18-1.33l5.74-.79A.67.67,0,0,1,24.07,264.35Z"/><path class="cls-3" d="M11.57,200a2.51,2.51,0,0,1,2.83,2.15c.19,1.38-.08,7.6-1.46,7.79s-3.33-5.72-3.52-7.1A2.51,2.51,0,0,1,11.57,200Z"/><rect class="cls-4" x="-0.62" y="218.22" width="30" height="4.11" transform="matrix(0.14, 0.99, -0.99, 0.14, 230.6, 175.84)"/><rect class="cls-15" x="9.58" y="210.92" width="13.69" height="48.42" transform="translate(-32.08 4.47) rotate(-7.88)"/><path class="cls-6" d="M20.63,210.68l.13,1L5.88,213.71l-.13-1a1.37,1.37,0,0,1,1.17-1.54l12.17-1.68A1.37,1.37,0,0,1,20.63,210.68Z"/><rect class="cls-14" x="11.24" y="235.02" width="13.69" height="24.21" transform="translate(-33.71 4.81) rotate(-7.88)"/><path class="cls-13" d="M15.85,204.93a.67.67,0,0,0-.76-.57l-5.74.79a.67.67,0,0,0,.18,1.33l5.74-.79A.67.67,0,0,0,15.85,204.93Z"/><path class="cls-6" d="M27.11,257.52l-.13-1L12.1,258.61l.13,1a1.37,1.37,0,0,0,1.54,1.17l12.17-1.68A1.37,1.37,0,0,0,27.11,257.52Z"/><path class="cls-4" d="M45,239.43l-1.35-1.9,5.79-.8-1.88-13.56,4.11-.57,2.16,15.6Z"/><path class="cls-4" d="M67,236.36l-4,.55-.2-1.47L62,237.05l-6.44.89L54,227l6.48-.9,1.21,1.33L61.5,226l3.78-.52,1.26,9.12,1.13-.16Zm-5.23-8.55-3.66.51,1,7.3,3.66-.51Z"/><path class="cls-4" d="M76.76,235l-4,.56-6.08-10.31,4.17-.58,3.29,5.86L75.57,224l4.23-.59Z"/><path class="cls-4" d="M93.67,232.67l-4,.55-.2-1.47-.84,1.62-6.44.89-1.51-10.92,6.48-.9,1.21,1.33-.2-1.47,3.78-.52,1.26,9.12,1.13-.16Zm-5.23-8.55-3.66.51,1,7.3,3.66-.51Z"/><path class="cls-4" d="M98.46,222.83l.35,2.51,7.49-1,.9,6.5-11,1.53-1-1.8,8-1.1-.37-2.64-7.59,1-.89-6.4,11.47-1.59.27,1.92Z"/><path class="cls-4" d="M119.55,229.11l-10.63,1.47-1.51-10.92,11.13-1.54.27,1.92-7.26,1,1,7,7.59-1.05Z"/><path class="cls-4" d="M124.57,219.26l1.24,9-4,.55-1.51-10.94,4-.55.22,1.62,1-1.78,3.89-.54.27,2Z"/><path class="cls-4" d="M131.13,215.06l-.47-3.4,3.91-.54.47,3.4Zm1.69,12.21-1.51-10.94,3.91-.54,1.51,10.94Z"/><path class="cls-4" d="M144.13,225.68l-1.41-1.47.81,5.87-3.87.54-2.1-15.15,3.87-.54.22,1.57.8-1.72,6.61-.91,1.51,10.92Zm1.31-9.35-3.74.52,1,7,3.74-.52Z"/><path class="cls-4" d="M160.29,223.47l-6.44.89-1.25-9-2.11.29-.27-1.92,2.11-.29-.5-3.6,3.91-.54.5,3.6,2.95-.41.27,1.92-2.95.41,1,7.12,3.37-.47Z"/><path class="cls-4" d="M182.77,221.27,176,210.18l-3.75,12.54-4.19.58,4.11-13.87,3.11-.43-1.57-2.6-4,.55-.3-2.15,7.38-1L187,220.68Z"/><path class="cls-4" d="M191.58,210.36l1.3,9.41-3.62.5-2.47-17.87,8.28-1.15,1.17,8.47Zm.61-6.75-1.51.21.18,1.33,1.51-.21Zm.45,3.23-1.51.21.18,1.31,1.51-.21Zm7.14,12-1.29-1.95,4.34-.6-1-7.32-4.64.64L196,201.12l8.28-1.15,2.47,17.87Zm1.13-16.41-1.51.21.18,1.33,1.51-.21Zm.45,3.23-1.51.21.18,1.31,1.51-.21Z"/><path class="cls-4" d="M215.09,201l.7,1.47-3.21.44-.74-1.46-.49.07-.38,1.62-3.62.5,1-4.42,3.68-.51-.19.86L216,199l.26,1.86Zm10.07,2.32-13.25,1.83.1.72L225.57,204l.5,3.62-13.56,1.88.69,5-.38,2.55-3.68.51.42-2.83-1.47-10.66,13.5-1.87.08-.51-.41.06-.72-1.46-.43.06-.32,1.61-3.6.5,1-4.42,3.5-.48-.13.83,4.48-.62.26,1.88-1.53.21.64,1.16,1.25-.17ZM222,206l-9.82,1.36.11.78,9.82-1.36Zm2,9.51-1-1.36.16,1.15-2,.28-.29-2.13-.9.12.29,2.13-2,.28-.29-2.13-.9.13.34,2.45-3.23.45-.93-6.71,13.27-1.84.93,6.71Zm-6.47-4.13-.9.13.14,1,.9-.12Zm2.94-.41-.9.12.14,1,.9-.12Zm2.92-.41-.88.12.14,1,.88-.12Zm.34,2.47-.88.12.1.7.88-.12Z"/><path class="cls-4" d="M233.65,206.46l6.05-.84.29,2.07-6.05.84Z"/><path class="cls-4" d="M258.69,207.6l.41,3-6.2.86-1.25-1.64,3.44-.48-.17-1.21-7.24,1-.25-1.84,7.24-1-.09-.65,1.67-1.06-6.63.92-.18-1.29-2.41.33-.45-3.23.69-.1-.93-6.73,2.21-.31.07-.53,3.35-.46v.21l2.31-.32.41.28.45-.4,2.92-.4-.33.36,5.21-.72.93,6.73.76-.1.45,3.25-2.27.31.14,1-3.83,2.3,6.38-.88.25,1.84Zm-6.72-14-.17,1.9-1.86.26.08.61,1.62-.22,1.71-1.65Zm-.11,3.39.09.65-1.72.24.08.55,1.72-.24.19,1.39,1.59-1.49Zm8.58,1.58-1.72.24-.2-1.47,1.72-.24-.08-.59-1.74.24-.07-.53-1.58,1.53,2.29,1.37-2.8.39-.86-.49-.74.71-3,.42.54-.47-1.64.23.11.78,9.92-1.37Zm.66,2.53-10.53,1.46.12.88L261.22,202Zm-2.85-5.54-2.64.36-.68-.43-.62.61-2.52.35.05.37,2.72-.38.61.37.53-.53,2.6-.36Zm1.61-1.14-2,.27-.25-1.78-1.33,1.27,1.86,1.08,1.76-.24Z"/><path class="cls-4" d="M270.76,194.88l2-.28-1.48,5,.76-.1,1.25,9.06-3.66.51-1.15-8.28-1.35.19,1.53-5.23-2.09.29,1.77-5,4-.55Zm15.4,11.85-6.61.91-2.34-1.11L277,208l-3.48.48.34-2.69-.78-5.64,3.21-.45.62,4.5,1.2.56-.89-6.46-4.72.65-.26-1.86,4.72-.65-.37-2.66-4.07.56-.26-1.88,4.07-.56-.27-2,3.7-.51.27,2,3.64-.5.26,1.88-3.64.5.37,2.66,4.38-.61.26,1.86-4.38.61.35,2.51,3.74-.52.26,1.88-3.74.52.45,3.23,4.66-.64Z"/><path class="cls-4" d="M300.59,204.88l-1.12-1.95,3.48-.48-1.62-11.74-1.68.23-.34,2.21-3.48.48,1.62,11.68-8.26,1.14L287,190.63l1.68-.23L289,188l3.8-.53-.36,2.36,2.8-.39.46,3.33.94-5.86,3.66-.51-.36,2.4,4.75-.66L306.89,204ZM292.2,192l-1.68.23.66,4.74,1.68-.23Zm.93,6.73-1.68.23.69,5,1.68-.23Zm5.69,2.4-2.62-6.89,3.58-.5,2.64,6.89Z"/><path class="cls-4" d="M327.12,201.19l-4.27.59-3-13-5.15.71-.2-1.45-7.16,1-.26-1.9,1.68-.23-.54-1.47,3.84-.53.56,1.47,1.7-.24.2,1.45,4.91-.68-.74-2.92,3.62-.5.7,2.93,2.47-.34.26,1.9-2.29.32,2.57,11,1.57-.22Zm-19-9.25-.26-1.88,6.38-.88.26,1.88Zm.4,2.9-.26-1.88,6.38-.88.26,1.88Zm1.15,8.76-1.06-7.67,6.5-.9,1.06,7.67Zm2.85-6.23-.82.11.53,3.8.82-.11Zm4.05,5-.27-1.94.89-.37-.89-6.44-.88.12-.26-1.9,4.87-.67.26,1.9-.86.12.78,5.6,1.45-.54.27,1.92Zm6.79-16.59-.47-2,1.86-.26.49,2Z"/><path class="cls-4" d="M328.72,191.7l-1.17-7.11,1.33-.18,1.13,7.12Zm10.77,7.76-3,.41V199l-2.41.33-.74-1.75-.4,2.83-3.31.46.94-7.67-1.47-10.63,3.21-.44,1.45,10.49.74-.1,2,4.82,0-3,2.95-.41Zm2.57-15.28.16,1.13,3.6-.5,1,7.4-3.6.5.85,6.11-3.5.48-.85-6.11-3.62.5-1-7.4,3.62-.5-.16-1.12-4,.55.65,5.58-1.29.18-.85-7.18,1.15-.16,0-.35,4.13-.57-.2-1.45,3.5-.48.2,1.45,3.91-.54.27,1.94Zm-2.56,3.48-1.53.21.49,3.54,1.53-.21Zm-.67,3.14-.52-2.43.86-.12.52,2.43Zm4.68-3.69-1.51.21.49,3.54,1.51-.21Zm-.06,3.05-.86.12-.09-2.49.84-.12Zm1.8,8.5-1.64-5.38,2.94-.41,1.62,5.38Z"/><path class="cls-16" d="M296.91,81a9.44,9.44,0,0,1,11.64,0,8.53,8.53,0,0,0,7.55,1.5A9.44,9.44,0,0,1,326.86,87a8.53,8.53,0,0,0,6.4,4.28,9.44,9.44,0,0,1,8.23,8.23,8.53,8.53,0,0,0,4.28,6.4,9.44,9.44,0,0,1,4.46,10.76,8.53,8.53,0,0,0,1.5,7.55,9.44,9.44,0,0,1,0,11.64,8.53,8.53,0,0,0-1.5,7.55,9.44,9.44,0,0,1-4.46,10.76,8.53,8.53,0,0,0-4.28,6.4,9.44,9.44,0,0,1-8.23,8.23,8.53,8.53,0,0,0-6.4,4.28,9.44,9.44,0,0,1-10.76,4.46,8.53,8.53,0,0,0-7.55,1.5,9.44,9.44,0,0,1-11.64,0,8.53,8.53,0,0,0-7.55-1.5A9.44,9.44,0,0,1,278.61,173a8.53,8.53,0,0,0-6.4-4.28,9.44,9.44,0,0,1-8.23-8.23,8.53,8.53,0,0,0-4.28-6.4,9.44,9.44,0,0,1-4.46-10.76,8.53,8.53,0,0,0-1.5-7.55,9.44,9.44,0,0,1,0-11.64,8.53,8.53,0,0,0,1.5-7.55,9.44,9.44,0,0,1,4.46-10.76,8.53,8.53,0,0,0,4.28-6.4,9.44,9.44,0,0,1,8.23-8.23,8.53,8.53,0,0,0,6.4-4.28,9.44,9.44,0,0,1,10.76-4.46A8.53,8.53,0,0,0,296.91,81Z"/><path class="cls-17" d="M351.72,124.18a8.53,8.53,0,0,1-1.5-7.55,9.44,9.44,0,0,0-4.46-10.76,8.53,8.53,0,0,1-4.28-6.4,9.44,9.44,0,0,0-8.23-8.23,8.53,8.53,0,0,1-6.4-4.28,9.44,9.44,0,0,0-10.76-4.46,8.53,8.53,0,0,1-7.55-1.5,9.42,9.42,0,0,0-5.71-2V181a9.42,9.42,0,0,0,5.71-2,8.53,8.53,0,0,1,7.55-1.5A9.44,9.44,0,0,0,326.86,173a8.53,8.53,0,0,1,6.4-4.28,9.44,9.44,0,0,0,8.23-8.23,8.53,8.53,0,0,1,4.28-6.4,9.44,9.44,0,0,0,4.46-10.76,8.53,8.53,0,0,1,1.5-7.55A9.44,9.44,0,0,0,351.72,124.18Z"/><path class="cls-18" d="M302.73,168.05A38.05,38.05,0,1,1,340.79,130,38.1,38.1,0,0,1,302.73,168.05Zm0-69.19A31.13,31.13,0,1,0,333.87,130,31.17,31.17,0,0,0,302.73,98.87Z"/><path class="cls-18" d="M284.09,126.16c3.78,0,6.71,1.59,6.71,6v.52c0,4.58-3,6.3-6.66,6.3-4.41,0-6.77-2.52-6.77-5.1,0-1.48.79-1.89,2.14-1.89,1.86,0,2.14.71,2.14,1.59,0,1.1,1,1.67,2.38,1.67a2.26,2.26,0,0,0,2.49-2.58v-.52c0-1.81-.93-2.69-2.44-2.69h-4.16c-1.26,0-1.64-.63-1.64-1.67,0-.27,0-.49.05-.79l.74-6.9c.08-.82.3-1.32.77-1.32h8.74c.82,0,1.23.93,1.23,1.86s-.41,1.86-1.23,1.86h-6l-.27,3.67h1.78Z"/><path class="cls-18" d="M292.37,132.49v-7.26c0-4.71,2.93-6.47,6.71-6.47s6.74,1.75,6.74,6.47v7.26c0,4.71-3,6.47-6.74,6.47S292.37,137.2,292.37,132.49Zm9.18-7.26c0-1.89-.93-2.74-2.47-2.74s-2.44.85-2.44,2.74v7.26c0,1.89.9,2.74,2.44,2.74s2.47-.85,2.47-2.74Z"/><path class="cls-18" d="M307.54,126.35v-3.89c0-2.71,1.78-3.7,4.11-3.7s4.11,1,4.11,3.7v3.89c0,2.71-1.81,3.7-4.11,3.7S307.54,129.07,307.54,126.35Zm5.48-3.89a1.2,1.2,0,0,0-1.37-1.32,1.18,1.18,0,0,0-1.34,1.32v3.89a1.18,1.18,0,0,0,1.34,1.32,1.2,1.2,0,0,0,1.37-1.32Zm11.23-3.37a1.19,1.19,0,0,1-.11.52l-9.64,19.76a1.37,1.37,0,0,1-1.23.68,1.52,1.52,0,0,1-1.53-1.45,1.23,1.23,0,0,1,.14-.52l9.62-19.75a1.21,1.21,0,0,1,1.15-.68A1.57,1.57,0,0,1,324.26,119.09Zm-4.14,16.08v-3.89c0-2.71,1.78-3.7,4.11-3.7s4.11,1,4.11,3.7v3.89c0,2.71-1.81,3.7-4.11,3.7S320.12,137.89,320.12,135.18Zm5.48-3.89a1.2,1.2,0,0,0-1.37-1.32,1.18,1.18,0,0,0-1.34,1.32v3.89a1.18,1.18,0,0,0,1.34,1.32,1.2,1.2,0,0,0,1.37-1.32Z"/><path class="cls-19" d="M302.85,91.95v6.92a31.13,31.13,0,0,1,0,62.27v6.92a38.05,38.05,0,0,0,0-76.1Z"/></svg>