<svg id="圖層_1" data-name="圖層 1" xmlns="https://www.w3.org/2000/svg" viewBox="0 0 578.61 125.92"><defs><style>.cls-1{fill:#86747b;}.cls-2{fill:#735378;}.cls-3{fill:#bdbdbd;}.cls-4{fill:#e0e0e0;}.cls-5{fill:#eee;}.cls-6{fill:#fafafa;}.cls-7{fill:#f29826;}</style></defs><title>title_js_contined</title><path class="cls-1" d="M565.52,125.92a4.38,4.38,0,0,0,4.38-4.38c0-2.42-2-13.1-4.38-13.1s-4.38,10.68-4.38,13.1A4.38,4.38,0,0,0,565.52,125.92Z"/><rect class="cls-2" x="539.37" y="84.4" width="52.3" height="7.16" transform="translate(477.54 653.5) rotate(-90)"/><path class="cls-3" d="M571.74,114.13a1.17,1.17,0,0,1-1.17,1.17h-10.1a1.17,1.17,0,0,1,0-2.34h10.1A1.17,1.17,0,0,1,571.74,114.13Z"/><path class="cls-1" d="M565.52,0a4.38,4.38,0,0,1,4.38,4.38c0,2.42-2,13.1-4.38,13.1s-4.38-10.68-4.38-13.1A4.38,4.38,0,0,1,565.52,0Z"/><rect class="cls-4" x="268.58" y="-197.24" width="37.87" height="556" transform="translate(368.28 -206.75) rotate(90)"/><rect class="cls-5" x="268.58" y="-235.1" width="37.87" height="556" transform="translate(330.42 -244.62) rotate(90)"/><rect class="cls-2" x="539.37" y="32.1" width="52.3" height="7.16" transform="translate(601.2 -529.83) rotate(90)"/><rect class="cls-6" x="553.58" y="19.63" width="23.87" height="84.41"/><path class="cls-7" d="M578.61,20.61v1.7H552.42v-1.7a2.39,2.39,0,0,1,2.39-2.39h21.42A2.39,2.39,0,0,1,578.61,20.61Z"/><rect class="cls-5" x="553.58" y="61.83" width="23.87" height="42.21"/><path class="cls-4" d="M571.74,9.54a1.17,1.17,0,0,0-1.17-1.17h-10.1a1.17,1.17,0,0,0,0,2.34h10.1A1.17,1.17,0,0,0,571.74,9.54Z"/><path class="cls-7" d="M578.61,103.05v-1.7H552.42v1.7a2.39,2.39,0,0,0,2.39,2.39h21.42A2.39,2.39,0,0,0,578.61,103.05Z"/><path class="cls-1" d="M13.1,125.83a4.38,4.38,0,0,0,4.38-4.38c0-2.42-2-13.1-4.38-13.1S8.71,119,8.71,121.45A4.38,4.38,0,0,0,13.1,125.83Z"/><rect class="cls-2" x="-13.05" y="84.4" width="52.3" height="7.16" transform="translate(-74.88 101.08) rotate(-90)"/><path class="cls-3" d="M19.32,114.13a1.17,1.17,0,0,1-1.17,1.17H8A1.17,1.17,0,0,1,8,113h10.1A1.17,1.17,0,0,1,19.32,114.13Z"/><path class="cls-1" d="M13.1,0a4.38,4.38,0,0,1,4.38,4.38c0,2.42-2,13.1-4.38,13.1S8.71,6.8,8.71,4.38A4.38,4.38,0,0,1,13.1,0Z"/><rect class="cls-2" x="-13.05" y="32.1" width="52.3" height="7.16" transform="translate(48.78 22.59) rotate(90)"/><rect class="cls-6" x="1.16" y="19.63" width="23.87" height="84.41"/><path class="cls-7" d="M26.19,20.61v1.7H0v-1.7a2.39,2.39,0,0,1,2.39-2.39H23.81A2.39,2.39,0,0,1,26.19,20.61Z"/><rect class="cls-5" x="1.16" y="61.83" width="23.87" height="42.21"/><path class="cls-4" d="M19.32,9.54a1.17,1.17,0,0,0-1.17-1.17H8a1.17,1.17,0,0,0,0,2.34h10.1A1.17,1.17,0,0,0,19.32,9.54Z"/><path class="cls-7" d="M26.19,103.05v-1.7H0v1.7a2.39,2.39,0,0,0,2.39,2.39H23.81A2.39,2.39,0,0,0,26.19,103.05Z"/><path class="cls-2" d="M192.61,53.94V58.3l1.73-1v4l-1.73,1V77.45h-7.88L183,74h3V66l-2.56,1.51v-4l2.56-1.44V53.94h-2.63V50.49h2.63V45.77h6.55v4.72h1.94v3.46Zm20.88,12V77.45h-9.57l-1.15-2.66H198.3l-2.92-7.85h6.77l2.66,7.13h2.09V65.93H194.19V62.54H206.9V60.31h6.59v2.23h2v3.38ZM194.84,59.3V56h7V52.21h-6.23V48.9h6.23V45.73h6.7V48.9h6v3.31h-6V56h6.95V59.3Z"/><path class="cls-2" d="M226.56,53h4.17v3.28L228.21,60h2.59v6.3h-11V63l4.61-6.55h-4.68V53.19l5.18-7.49h6.69Zm-6.77,24.4v-10h3.38v10Zm4.17,0v-10h2.92v10Zm3.74-16.7-1.48,2.23h1.48ZM245,77.41l-2.41-3.24H240.6l-2.88,3.24h-9.9v-10h3v9.76l2.73-3h-1.37V61.86h18.21V74.17h-1.08l2.52,3.24ZM244.2,50v1h6v2.38H232V51h6V50h-7.16V47.21h7.16V45.7h6.12v1.51h7.31V50Zm6.66,10.91h-19.4V54.16h19.4Zm-13.1-4.1h-1.19V58.4h1.19Zm6.66,7.67h-6.33v1h6.33Zm0,3.1h-6.33v1h6.33Zm0,3h-6.33v1.12h6.33Zm-2.59-13.71H240.6V58.4h1.22Zm4.14,0h-1.22V58.4H246Z"/><path class="cls-2" d="M279.19,77.37l-5.79-5.65h-3.82L264,77.37h-9l5.58-5.65h-3.92V68.56h7l2.23-2.27h-8.82V51.93h11V49.59H255.57V46.17h31.86v3.42H274.9v2.34h10.94V66.29h-11l-2.2,2.27h6.44l9,8.82ZM268.1,55.13h-4.36v2.34h4.36Zm0,5.51h-4.36V63h4.36Zm11.12-5.51H274.9v2.34h4.32Zm0,5.51H274.9V63h4.32Z"/><path class="cls-2" d="M295.46,76.51h-4.21l1.3-9.54h4.14Zm7.74-16.23v2.2h4.93v3.35H303.2V77.34h-6V65.82h-5.15V62.47h5.15v-2.2h-5.58V56.93H294l-1-4.68h5.76l1,4.68h.94L302,52.25h5.79l-1.44,4.68h2.05v3.35Zm-11.12-9V48h4.64l-.65-2.34h6.55l.72,2.34h4.82v3.31Zm30.16-.5H314.9v6h8.6V60.2H322V77.34h-5.72V60.2H314.9V73.13l-1.55,4.21h-5.9l.29-1.08h-3l-1-9.29h3.82l.83,7.38L309.1,72V47.39h7.6l.58-1.73h6.44Z"/><path class="cls-2" d="M347.34,77.48l-1.91-3.67,6.37,0V71.69h-5.62l-2.63-5-2.74,5h-5.65v5.79H328.3V52.86H340V49.69h-7.67V46h14.4v6.88h11.88V77.48Zm-7.31-21h-4.86V69.67L340,60.24Zm11.77,0h-5v3.78l5,9.43Z"/><path class="cls-2" d="M393.52,67.66v9.79h-28V67.66H363l8.17-8.6h-7.27l5.65-4.61h-5.9v-6.3H376.1l-.94-2.34h7.38l.9,2.34H395v6.3h-5.47l5.18,4.61H387.8l8.32,8.6ZM388.2,51.49H370.56v2.09l1-.86h7.63l-5.83,5.4h12.2l-6.08-5.4h8.06l.61.5Zm-1.4,17.78H372.18V74h14.61ZM381.5,61.5h-4.36L373,65.86h12.71Z"/></svg>