<svg id="圖層_1" data-name="圖層 1" xmlns="https://www.w3.org/2000/svg" xmlns:xlink="https://www.w3.org/1999/xlink" viewBox="0 0 578.61 125.92"><defs><style>.cls-1{fill:none;}.cls-2{clip-path:url(#clip-path);}.cls-3,.cls-5{opacity:0.2;}.cls-4{fill:#c0e0e2;}.cls-5{fill:#b0d0d1;}.cls-6{fill:#fff;opacity:0.24;}.cls-7{clip-path:url(#clip-path-2);}.cls-8{fill:#86747b;}.cls-9{fill:#735378;}.cls-10{fill:#bdbdbd;}.cls-11{fill:#e0e0e0;}.cls-12{fill:#eee;}.cls-13{fill:#fafafa;}.cls-14{fill:#f29826;}</style><clipPath id="clip-path"><rect class="cls-1" x="-2173.69" y="-245.63" width="1987" height="691"/></clipPath><clipPath id="clip-path-2"><rect class="cls-1" x="836.31" y="-241.63" width="1987" height="691"/></clipPath></defs><title>title_js_why</title><g class="cls-2"><g class="cls-3"><path class="cls-4" d="M50.29-16.35C44.44-102.69-36.05-85.13-78.5-32.44c-13.17-48.3-74.64,14.64-84.88,33.66-19-19-29.27-30.73-61.47-24.89S-264.36,10-286.32,26.1c-16.1-45.37-46.83-70.25-92.2-41,1.46-29.27-26.35-61.46-51.22-32.2,0-38.05-43.91-43.9-71.72-33.66C-530.72-69-551.21-36.83-561.45-9c-8.78-46.83-98.06-43.91-83.42,8.78C-655.12-29.51-699-4.64-696.1,23.17c-16.1-27.81-42.44-52.68-77.56-48.3s-57.08,22-55.62,58.54c-10.24-22-19-46.83-45.36-49.76-23.42-2.93-55.62,19-55.62,42.45-20.49-32.2-82-4.39-99.52,22-4.39-17.56,2.92-41-11.71-55.61s-39.52-7.32-49.76,11.71c4.39-30.73-7.32-51.22-41-46.83-21.63,3.61-48.18,20-65.9,35.52-5.42-17.49-17.74-27.26-40.58-9.18-5.86-86.35-86.34-68.78-128.79-16.1-13.17-48.3-74.64,14.64-84.88,33.66-19-19-29.27-30.73-61.47-24.89S-1553.37,10-1575.32,26.1c-16.1-45.37-46.83-70.25-92.2-41,1.46-29.27-26.34-61.46-51.22-32.2,0-38.05-43.91-43.9-71.71-33.66-29.27,11.71-49.76,43.91-60,71.71-8.78-46.83-98.05-43.91-83.42,8.78-10.24-29.27-54.15-4.39-51.22,23.42-16.1-27.81-42.44-52.68-77.56-48.3s-57.08,22-55.62,58.54c-10.25-22-19-46.83-45.37-49.76-23.42-2.93-55.62,19-55.62,42.45-20.49-32.2-82-4.39-99.52,22-4.39-17.56,2.93-41-11.71-55.61s-39.51-7.32-49.76,11.71c4.39-30.73-7.32-51.22-41-46.83-26.34,4.39-60,27.8-76.1,45.37V438.8H94.2s-7.67-310.63,0-414.17C95.67-6.1,85.42-44.15,50.29-16.35Z"/></g><path class="cls-5" d="M-25.12,112.71C-41,67.06-129.32-4.69-176.89,6.18s-81.54,32.61-79.28,116.18c-43-44.7-106.47-7.48-145,27.31-40.78-43.49-90.61-17.39-108.73,4.34-4.53-30.43-24.92-63-92.88-63s-158.57,80.3-158.57,80.3S-750,147.49-779.44,141s-58.89,30.3-58.89,30.3-4.54-47.69-43-48.91-79.28,48.91-79.28,48.91S-938,99.66-974.25,97.49-1049,122.36-1049,122.36s0-44.43-63.43-48.78c-31.42-2.15-56.15,21.79-73.13,46.51-47.68-63.65-115.63-60.2-126.21-7.38C-1327.62,67.06-1416-4.69-1463.53,6.18s-81.55,32.61-79.28,116.18c-43-44.7-106.47-7.48-145,27.31-40.77-43.49-90.61-17.39-108.73,4.34-4.53-30.43-24.92-63-92.87-63S-2048,171.27-2048,171.27s11.33-23.78-18.12-30.3-58.89,30.3-58.89,30.3-4.53-47.69-43-48.91-79.28,48.91-79.28,48.91,22.65-71.61-13.59-73.78-74.75,24.87-74.75,24.87,0-44.43-63.43-48.78-99.67,97.7-99.67,97.7v574.1H90.41V181.88C91.62,99.68-13.79,56.18-25.12,112.71Z"/><g id="_群組_" data-name="&lt;群組&gt;"><path id="_複合路徑_" data-name="&lt;複合路徑&gt;" class="cls-6" d="M-443.29-117.84c137.49,9.29,358.63,9.29,358.63,9.29l-13.56-31.94c-83.89,40.57-319.71,9-428.4-8.5-8.87-3.75-17.25-7.48-25.06-11.19-153.48-72.88-374.34-15.4-472.71,32.87-125.44,8.66-288.85-4.26-409.48-17.49l-60.28-15.38c-305.43-77.88-665,169.8-672,169.8v49c-51.77-3.62-95.67-8.33-123.74-11.57-20.15-2.32-32.14-3.88-33-3.71,0,0,99.12,69.92,170.56,60.83,65.28,7.43,149.53,3.54,253.22-27,218.46-64.35,307.24-44,336.88-30.93-28-13.67-104.57-38.54-249.83-2.9-79,19.37-179.76,22.48-270.93,19.56,132.17-74.93,389.16-200.71,525.41-134.5,188.6,91.66,438,71.32,656.36,0S41.08,101.53,41.08,101.53V9.62S-247.95-51.74-443.29-117.84ZM-1889.17-71.55c-3.43-9.3,39.31-72.66,101.41-55.75S-1877.34-39.46-1889.17-71.55Zm211.23-47.34c-36.35,20.17-76.21,12.25-44.75-8.41C-1716-131.69-1641.59-139.05-1677.94-118.88Zm168.81,7.72s147.1,18.79,155.38,40.24S-1585.2-97.35-1509.13-111.16Zm461-3.29c-55.57,33.9-100.92,36.46-221.72,9.79A1102.8,1102.8,0,0,0-1047.22-115Zm146.92,3.36c-55.66,3.74,159.39-61.7,203.32-28.76S-785.32-118.88-901.18-111.1Z"/></g></g><g class="cls-7"><g class="cls-3"><path class="cls-4" d="M3060.29-12.35c-5.85-86.35-86.35-68.78-128.79-16.1-13.17-48.3-74.64,14.64-84.88,33.66-19-19-29.27-30.73-61.47-24.89S2745.64,14,2723.68,30.1c-16.1-45.37-46.83-70.25-92.2-41,1.46-29.27-26.35-61.46-51.22-32.2,0-38.05-43.91-43.9-71.72-33.66-29.27,11.71-49.76,43.91-60,71.71-8.78-46.83-98.06-43.91-83.42,8.78C2354.88-25.51,2311-.64,2313.9,27.17c-16.1-27.81-42.44-52.68-77.56-48.3s-57.08,22-55.62,58.54c-10.24-22-19-46.83-45.36-49.76-23.42-2.93-55.62,19-55.62,42.45-20.49-32.2-82-4.39-99.52,22-4.39-17.56,2.92-41-11.71-55.61S1929-10.89,1918.75,8.14c4.39-30.73-7.32-51.22-41-46.83-21.63,3.61-48.18,20-65.9,35.52-5.42-17.49-17.74-27.26-40.58-9.18-5.86-86.35-86.34-68.78-128.79-16.1-13.17-48.3-74.64,14.64-84.88,33.66-19-19-29.27-30.73-61.47-24.89S1456.63,14,1434.68,30.1c-16.1-45.37-46.83-70.25-92.2-41,1.46-29.27-26.34-61.46-51.22-32.2,0-38.05-43.91-43.9-71.71-33.66-29.27,11.71-49.76,43.91-60,71.71-8.78-46.83-98.05-43.91-83.42,8.78C1065.88-25.51,1022-.64,1024.9,27.17c-16.1-27.81-42.44-52.68-77.56-48.3s-57.08,22-55.62,58.54c-10.25-22-19-46.83-45.37-49.76-23.42-2.93-55.62,19-55.62,42.45-20.49-32.2-82-4.39-99.52,22-4.39-17.56,2.93-41-11.71-55.61S640-10.89,629.75,8.14c4.39-30.73-7.32-51.22-41-46.83-26.34,4.39-60,27.8-76.1,45.37V442.8H3104.2s-7.67-310.63,0-414.17C3105.67-2.1,3095.42-40.15,3060.29-12.35Z"/></g><path class="cls-5" d="M2984.88,116.71C2969,71.06,2880.68-.69,2833.11,10.18s-81.54,32.61-79.28,116.18c-43-44.7-106.47-7.48-145,27.31-40.78-43.49-90.61-17.39-108.73,4.34-4.53-30.43-24.92-63-92.88-63s-158.57,80.3-158.57,80.3,11.33-23.78-18.12-30.3-58.89,30.3-58.89,30.3-4.54-47.69-43-48.91-79.28,48.91-79.28,48.91,22.65-71.61-13.59-73.78S1961,126.36,1961,126.36s0-44.43-63.43-48.78c-31.42-2.15-56.15,21.79-73.13,46.51-47.68-63.65-115.63-60.2-126.21-7.38C1682.38,71.06,1594-.69,1546.47,10.18s-81.55,32.61-79.28,116.18c-43-44.7-106.47-7.48-145,27.31-40.77-43.49-90.61-17.39-108.73,4.34-4.53-30.43-24.92-63-92.87-63S962,175.27,962,175.27s11.33-23.78-18.12-30.3S885,175.27,885,175.27s-4.53-47.69-43-48.91-79.28,48.91-79.28,48.91,22.65-71.61-13.59-73.78-74.75,24.87-74.75,24.87,0-44.43-63.43-48.78-99.67,97.7-99.67,97.7v574.1H3100.41V185.88C3101.62,103.68,2996.21,60.18,2984.88,116.71Z"/></g><path class="cls-8" d="M565.52,125.92a4.38,4.38,0,0,0,4.38-4.38c0-2.42-2-13.1-4.38-13.1s-4.38,10.68-4.38,13.1A4.38,4.38,0,0,0,565.52,125.92Z"/><rect class="cls-9" x="539.37" y="84.4" width="52.3" height="7.16" transform="translate(477.54 653.5) rotate(-90)"/><path class="cls-10" d="M571.74,114.13a1.17,1.17,0,0,1-1.17,1.17h-10.1a1.17,1.17,0,0,1,0-2.34h10.1A1.17,1.17,0,0,1,571.74,114.13Z"/><path class="cls-8" d="M565.52,0a4.38,4.38,0,0,1,4.38,4.38c0,2.42-2,13.1-4.38,13.1s-4.38-10.68-4.38-13.1A4.38,4.38,0,0,1,565.52,0Z"/><rect class="cls-11" x="268.58" y="-197.24" width="37.87" height="556" transform="translate(368.28 -206.75) rotate(90)"/><rect class="cls-12" x="268.58" y="-235.1" width="37.87" height="556" transform="translate(330.42 -244.62) rotate(90)"/><rect class="cls-9" x="539.37" y="32.1" width="52.3" height="7.16" transform="translate(601.2 -529.83) rotate(90)"/><rect class="cls-13" x="553.58" y="19.63" width="23.87" height="84.41"/><path class="cls-14" d="M578.61,20.61v1.7H552.42v-1.7a2.39,2.39,0,0,1,2.39-2.39h21.42A2.39,2.39,0,0,1,578.61,20.61Z"/><rect class="cls-12" x="553.58" y="61.83" width="23.87" height="42.21"/><path class="cls-11" d="M571.74,9.54a1.17,1.17,0,0,0-1.17-1.17h-10.1a1.17,1.17,0,0,0,0,2.34h10.1A1.17,1.17,0,0,0,571.74,9.54Z"/><path class="cls-14" d="M578.61,103.05v-1.7H552.42v1.7a2.39,2.39,0,0,0,2.39,2.39h21.42A2.39,2.39,0,0,0,578.61,103.05Z"/><path class="cls-8" d="M13.1,125.83a4.38,4.38,0,0,0,4.38-4.38c0-2.42-2-13.1-4.38-13.1S8.71,119,8.71,121.45A4.38,4.38,0,0,0,13.1,125.83Z"/><rect class="cls-9" x="-13.05" y="84.4" width="52.3" height="7.16" transform="translate(-74.88 101.08) rotate(-90)"/><path class="cls-10" d="M19.32,114.13a1.17,1.17,0,0,1-1.17,1.17H8A1.17,1.17,0,0,1,8,113h10.1A1.17,1.17,0,0,1,19.32,114.13Z"/><path class="cls-8" d="M13.1,0a4.38,4.38,0,0,1,4.38,4.38c0,2.42-2,13.1-4.38,13.1S8.71,6.8,8.71,4.38A4.38,4.38,0,0,1,13.1,0Z"/><rect class="cls-9" x="-13.05" y="32.1" width="52.3" height="7.16" transform="translate(48.78 22.59) rotate(90)"/><rect class="cls-13" x="1.16" y="19.63" width="23.87" height="84.41"/><path class="cls-14" d="M26.19,20.61v1.7H0v-1.7a2.39,2.39,0,0,1,2.39-2.39H23.81A2.39,2.39,0,0,1,26.19,20.61Z"/><rect class="cls-12" x="1.16" y="61.83" width="23.87" height="42.21"/><path class="cls-11" d="M19.32,9.54a1.17,1.17,0,0,0-1.17-1.17H8a1.17,1.17,0,0,0,0,2.34h10.1A1.17,1.17,0,0,0,19.32,9.54Z"/><path class="cls-14" d="M26.19,103.05v-1.7H0v1.7a2.39,2.39,0,0,0,2.39,2.39H23.81A2.39,2.39,0,0,0,26.19,103.05Z"/><path class="cls-9" d="M124,77.41l-.29-.68H122.2l-.65-9.54h2.7l.43,6.88h.86V65.86H109.49l-2.88,11.55h-6.44l6-24.33h-5.76V49.73h1.19l-.83-3.31h4.68l.9,3.31H107l1-4h6.48l-1,4h15v3.6l-.83,2.77h2.48v3.6l-.72,2.77h2.41V77.41Zm-11.77-.68h-3.56l.83-9.54h3.42Zm-1.15-17.28-.68,3h12.35l.83-3Zm1.62-6.37-.76,3H121l.86-3Zm1.4,23.65-.61-9.54h3.06l.68,9.54Zm4,0-.58-9.54h3.1l.65,9.54Z"/><path class="cls-9" d="M142.83,58h1.08V77.45h-6.55V59.74h-1.62l2.88-14.07h6.62Zm23.9-8.24V77.45H155.57l-2.05-3.6h6.84V49.73h-15V46.2h23v3.53ZM145.56,71.18V52.83h13.17V71.18Zm8-14.9h-2.63V67.76h2.63Z"/><path class="cls-9" d="M190.71,77.59l-2.45-.94-2.52.94H171.66L181.24,74l-5.69-2.23v-4h-3.1V64.38h3.1V62.54h6.77v1.84h11.73V62.54h6.88v1.84h3v3.38h-3v4L195.42,74l9.65,3.64ZM195,49.23v2.52h8v9.61h-29.7V51.75h8.06V49.23h-9V46h31.46v3.24Zm-13.61,5.69h-1.91v3.24h1.91Zm12.63,12.85H182.32v1.12l6,2.34L194.05,69Zm-4.86-18.54h-1.91v2.52h1.91Zm0,5.69h-1.91v3.24h1.91Zm7.74,0H195v3.24h1.91Z"/><path class="cls-9" d="M218.28,76.08l-1.87-3.6H226.6V48.61h7.23V76.08Z"/><path class="cls-9" d="M257,76h-7V73.45L248.2,76H236.86V56.82h11.41L250,59.41V56.82h6.66V72.87h2Zm-7-16h-6.44V72.87H250Z"/><path class="cls-9" d="M274.23,76.08H267.1l-8-19.26h7.34l4.28,10.91,4.1-10.91h7.45Z"/><path class="cls-9" d="M304,76h-7V73.45L295.18,76H283.84V56.82h11.41L297,59.41V56.82h6.66V72.87h2Zm-7-16h-6.44V72.87H297Z"/><path class="cls-9" d="M314.62,60.2v4.43h13.17V76.08H308.36L307,72.73h14V68.09H307.67V56.82h20.19V60.2Z"/><path class="cls-9" d="M349.54,76.08H330.82V56.86H350.4v3.38H337.62V72.62H351Z"/><path class="cls-9" d="M360.56,60.28v15.8H353.5V56.82h7.06v2.84l2.12-2.84h6.84v3.46Z"/><path class="cls-9" d="M372.9,54.59v-6h6.88v6Zm0,21.49V56.82h6.88V76.08Z"/><path class="cls-9" d="M392.81,76l-2.09-2.88V83.49h-6.8V56.82h6.8v2.77l1.8-2.77h11.63V76Zm4.5-15.84h-6.59V72.59h6.59Z"/><path class="cls-9" d="M421.25,76.08H409.91V60.24H406.2V56.86h3.71V50.52h6.88v6.34H422v3.38h-5.18V72.77h5.94Z"/><path class="cls-9" d="M466.68,77.48h-7.52L457,54.37H448V51.82h-12.6V48.47h3l-.58-2.66h6.77l.61,2.66h3V51h8.64l-.58-5.22h6.37L463,51h4.36v3.35h-4L465.17,74h2.77Zm-30.67,0V64h11.45v13.5ZM436.12,57V53.65h11.23V57Zm0,5.11V58.76h11.23v3.31Zm6.3,5.33H441v6.7h1.44Zm5.79,9.65V73.63l1.62-.43V61.86h-1.55V58.51h8.57v3.35h-1.51v9.86l2.63-.58v3.38Zm15.69-27-.32-3.6h3.28l.36,3.6Z"/><path class="cls-9" d="M488.46,77.45h-5.25l.22-1.58h-4.25l-.86-3.2-1.37,4.79h-5.83l3.46-13V45.7h5.65V64.16h1.3L483.89,73l.79-5.22h5.18Zm-16.74-16L471.4,48.9h2.34L474,61.46Zm24.84-9.79v2h6.34v13h-6.34V77.45H490.4V66.68H484v-13h6.37v-2h-7.06l-.22,9.79h-2.27l.25-12.6h2v-.61h7.27V45.7h6.15v2.56h6.88v3.42Zm-5.25,5.4h-2.7V63.3h2.7Zm-1.91,5.26L489.07,58h1.51l.32,4.32Zm9-5.26H495.7V63.3h2.66Zm-.83,5.26H496l.43-4.32h1.48Zm1.08,15.12-1.55-9.68h5.18l1.51,9.68Z"/></svg>