<svg id="圖層_1" data-name="圖層 1" xmlns="https://www.w3.org/2000/svg" xmlns:xlink="https://www.w3.org/1999/xlink" viewBox="0 0 578.61 125.92"><defs><style>.cls-1{fill:none;}.cls-2{clip-path:url(#clip-path);}.cls-3{fill:#b0d0d1;opacity:0.2;}.cls-4{clip-path:url(#clip-path-2);}.cls-5{fill:#86747b;}.cls-6{fill:#735378;}.cls-7{fill:#bdbdbd;}.cls-8{fill:#e0e0e0;}.cls-9{fill:#eee;}.cls-10{fill:#fafafa;}.cls-11{fill:#f29826;}</style><clipPath id="clip-path"><rect class="cls-1" x="-2171.69" y="-838.63" width="1987" height="691"/></clipPath><clipPath id="clip-path-2"><rect class="cls-1" x="838.31" y="-834.63" width="1987" height="691"/></clipPath></defs><title>title_js_extra_course</title><g class="cls-2"><path class="cls-3" d="M-23.12-480.29C-39-525.94-127.32-597.69-174.89-586.82s-81.54,32.61-79.28,116.18c-43-44.7-106.47-7.48-145,27.31-40.78-43.49-90.61-17.39-108.73,4.34-4.53-30.43-24.92-63-92.88-63s-158.57,80.3-158.57,80.3S-748-445.51-777.44-452s-58.89,30.3-58.89,30.3-4.54-47.69-43-48.91-79.28,48.91-79.28,48.91,22.65-71.61-13.59-73.78S-1047-470.64-1047-470.64s0-44.43-63.43-48.78c-31.42-2.15-56.15,21.79-73.13,46.51-47.68-63.65-115.63-60.2-126.21-7.38-15.86-45.65-104.2-117.39-151.77-106.53s-81.55,32.61-79.28,116.18c-43-44.7-106.47-7.48-145,27.31-40.77-43.49-90.61-17.39-108.73,4.34-4.53-30.43-24.92-63-92.87-63S-2046-421.73-2046-421.73s11.33-23.78-18.12-30.3-58.89,30.3-58.89,30.3-4.53-47.69-43-48.91-79.28,48.91-79.28,48.91,22.65-71.61-13.59-73.78-74.75,24.87-74.75,24.87,0-44.43-63.43-48.78-99.67,97.7-99.67,97.7v574.1H92.41V-411.12C93.62-493.32-11.79-536.82-23.12-480.29Z"/></g><g class="cls-4"><path class="cls-3" d="M2986.88-476.29c-15.86-45.65-104.2-117.39-151.77-106.53s-81.54,32.61-79.28,116.18c-43-44.7-106.47-7.48-145,27.31-40.78-43.49-90.61-17.39-108.73,4.34-4.53-30.43-24.92-63-92.88-63s-158.57,80.3-158.57,80.3,11.33-23.78-18.12-30.3-58.89,30.3-58.89,30.3-4.54-47.69-43-48.91-79.28,48.91-79.28,48.91,22.65-71.61-13.59-73.78S1963-466.64,1963-466.64s0-44.43-63.43-48.78c-31.42-2.15-56.15,21.79-73.13,46.51-47.68-63.65-115.63-60.2-126.21-7.38-15.86-45.65-104.2-117.39-151.77-106.53s-81.55,32.61-79.28,116.18c-43-44.7-106.47-7.48-145,27.31-40.77-43.49-90.61-17.39-108.73,4.34-4.53-30.43-24.92-63-92.87-63S964-417.73,964-417.73s11.33-23.78-18.12-30.3S887-417.73,887-417.73s-4.53-47.69-43-48.91-79.28,48.91-79.28,48.91,22.65-71.61-13.59-73.78-74.75,24.87-74.75,24.87,0-44.43-63.43-48.78-99.67,97.7-99.67,97.7v574.1H3102.41V-407.12C3103.62-489.32,2998.21-532.82,2986.88-476.29Z"/></g><path class="cls-5" d="M565.52,125.92a4.38,4.38,0,0,0,4.38-4.38c0-2.42-2-13.1-4.38-13.1s-4.38,10.68-4.38,13.1A4.38,4.38,0,0,0,565.52,125.92Z"/><rect class="cls-6" x="539.37" y="84.4" width="52.3" height="7.16" transform="translate(477.54 653.5) rotate(-90)"/><path class="cls-7" d="M571.74,114.13a1.17,1.17,0,0,1-1.17,1.17h-10.1a1.17,1.17,0,0,1,0-2.34h10.1A1.17,1.17,0,0,1,571.74,114.13Z"/><path class="cls-5" d="M565.52,0a4.38,4.38,0,0,1,4.38,4.38c0,2.42-2,13.1-4.38,13.1s-4.38-10.68-4.38-13.1A4.38,4.38,0,0,1,565.52,0Z"/><rect class="cls-8" x="268.58" y="-197.24" width="37.87" height="556" transform="translate(368.28 -206.75) rotate(90)"/><rect class="cls-9" x="268.58" y="-235.1" width="37.87" height="556" transform="translate(330.42 -244.62) rotate(90)"/><rect class="cls-6" x="539.37" y="32.1" width="52.3" height="7.16" transform="translate(601.2 -529.83) rotate(90)"/><rect class="cls-10" x="553.58" y="19.63" width="23.87" height="84.41"/><path class="cls-11" d="M578.61,20.61v1.7H552.42v-1.7a2.39,2.39,0,0,1,2.39-2.39h21.42A2.39,2.39,0,0,1,578.61,20.61Z"/><rect class="cls-9" x="553.58" y="61.83" width="23.87" height="42.21"/><path class="cls-8" d="M571.74,9.54a1.17,1.17,0,0,0-1.17-1.17h-10.1a1.17,1.17,0,0,0,0,2.34h10.1A1.17,1.17,0,0,0,571.74,9.54Z"/><path class="cls-11" d="M578.61,103.05v-1.7H552.42v1.7a2.39,2.39,0,0,0,2.39,2.39h21.42A2.39,2.39,0,0,0,578.61,103.05Z"/><path class="cls-5" d="M13.1,125.83a4.38,4.38,0,0,0,4.38-4.38c0-2.42-2-13.1-4.38-13.1S8.71,119,8.71,121.45A4.38,4.38,0,0,0,13.1,125.83Z"/><rect class="cls-6" x="-13.05" y="84.4" width="52.3" height="7.16" transform="translate(-74.88 101.08) rotate(-90)"/><path class="cls-7" d="M19.32,114.13a1.17,1.17,0,0,1-1.17,1.17H8A1.17,1.17,0,0,1,8,113h10.1A1.17,1.17,0,0,1,19.32,114.13Z"/><path class="cls-5" d="M13.1,0a4.38,4.38,0,0,1,4.38,4.38c0,2.42-2,13.1-4.38,13.1S8.71,6.8,8.71,4.38A4.38,4.38,0,0,1,13.1,0Z"/><rect class="cls-6" x="-13.05" y="32.1" width="52.3" height="7.16" transform="translate(48.78 22.59) rotate(90)"/><rect class="cls-10" x="1.16" y="19.63" width="23.87" height="84.41"/><path class="cls-11" d="M26.19,20.61v1.7H0v-1.7a2.39,2.39,0,0,1,2.39-2.39H23.81A2.39,2.39,0,0,1,26.19,20.61Z"/><rect class="cls-9" x="1.16" y="61.83" width="23.87" height="42.21"/><path class="cls-8" d="M19.32,9.54a1.17,1.17,0,0,0-1.17-1.17H8a1.17,1.17,0,0,0,0,2.34h10.1A1.17,1.17,0,0,0,19.32,9.54Z"/><path class="cls-11" d="M26.19,103.05v-1.7H0v1.7a2.39,2.39,0,0,0,2.39,2.39H23.81A2.39,2.39,0,0,0,26.19,103.05Z"/><path class="cls-6" d="M211.44,49.55l-.58,2.34h4v18.9H201.25V66.61h-7.05L192,65l-1.84,1.66h-7.2l5-4.57-3.85-2.77h6.84l2-1.87h-2.66l-.94,1.15H183.5l2.63-3.28h-2.3V48.22h4.9L188,45.7h6.73l.65,2.52h4.9v7.05h-.79V58l-4.07,3.74,5.79,4.18v-14h3.2l.61-2.34h-4.14V46.09h14.51v3.46ZM184.3,77.48v-10h15.48v10ZM194.66,51.6h-5.22v1.19h4.68L193,54.12h1.66Zm-.72,19.26h-3.78V74.1h3.78Zm11.84,6.62H200.1l2-5.94h5.69Zm3.42-22.25h-2.3v2h2.3Zm0,5.08h-2.3v2h2.3Zm0,5.15h-2.3v2h2.3Zm1,12-1.84-5.94h5.72L216,77.48Z"/><path class="cls-6" d="M227.75,77.48h-8.32l5.58-7-5-10.15h6.26l2.7,5.4v-13h-1.87l-2,6.55h-6.16L223,45.66h6.26l-1.12,3.49h7.23V68Zm9.07,0V45.66h6.37V77.48ZM246,71.9l-2-21.78h5.9l1.91,21.78Z"/><path class="cls-6" d="M264.54,69.53l-.61-10.08-.36.68V77.45h-6.3V64.16H255l5.11-11.41h-4.61V49.26h2.12l-1-3.53h6.77l1,3.53h2.05v4.43L264.11,59h2.56l.61,10.51Zm16,2.23v5.69h-5.94V71.76h-6.66V50.52h6.66V45.7h5.94v4.82h6.59V71.76ZM274.58,54H273v5.4h1.62Zm0,8.86H273v5.4h1.62ZM282.14,54h-1.62v5.4h1.62Zm0,8.86h-1.62v5.4h1.62Z"/><path class="cls-6" d="M293.59,75h-2.3l.58-15.33h2.27Zm9.21-24.4h-2.2V54.7H304V58h-3.42V77.55h-5.69V58h-3.6V54.7h3.6V50.56h-3.17V47.28h5.69l.58-1.55h6.41Zm15.26,9.57h4.46l1.37,11.41h-5.4l-1.12-10.29-2.16,3.35v9.54h7.34L321,77.55H309.39V73.63l-1.8,2.77H302l.83-1.44h-1l-.5-15.33h2.34l.43,13.46,3.53-5.44h-3.17l.43-12.71h3.53L308,67l1.37-2.05V53.47h5.83v2.3l2.05-3.28h-6.16l-2.56-6.7h6.55L317.56,52l1.22-1.8h5.65Z"/><path class="cls-6" d="M327.36,51.93V48.54h3l-.61-2.84h6.55l.65,2.84h2.84v3.38Zm.72,25.45V64h11.09V77.37Zm.11-20.3V53.69h10.87v3.38Zm0,5.18V58.91h10.87v3.35Zm6.19,5.11H333V74h1.37Zm10.22,10h-5.08l1.66-9.58h5Zm7.85-10.65V77.37h-5.83V66.72h-6.77V63.34h6.77V61h-6.08V46.06h18V61h-6.08v2.38h7v3.38Zm-5.83-17.21H345.1v2.38h1.55Zm0,5.69H345.1v2.38h1.55ZM354,49.51h-1.51v2.38H354Zm0,5.69h-1.51v2.38H354Zm.47,22.17-1.4-9.58h5.11l1.44,9.58Z"/><path class="cls-6" d="M375.63,50.56H373.4v4.25h3.42v3.28H373.4V77.34h-6.16V58.08h-3.6V54.81h3.6V50.56H364V47.17h6.37l.47-1.51h6.26Zm-11.84,24.3.36-15.26h2.41l-.36,15.26Zm12.67,2.48V74.85h-1.91L374,59.59h2.41l.47,14.33h5.9V70.14H377.9V66.68h4.93V63h-5.54V59.59h11.3l.4-1.12h6.55l-1.4,4.5h-4.79v3.71h5.07v3.46h-5.07v3.78h6.33v3.42Zm1-19.76V46.06H394.6V57.58Zm11-8.1h-4.9v4.64h4.9Z"/></svg>