<svg id="圖層_1" data-name="圖層 1" xmlns="https://www.w3.org/2000/svg" xmlns:xlink="https://www.w3.org/1999/xlink" viewBox="0 0 655.61 125.92"><defs><style>.cls-1{fill:none;}.cls-2{clip-path:url(#clip-path);}.cls-3{opacity:0.2;}.cls-4{fill:#c0e0e2;}.cls-5{fill:#fff;opacity:0.24;}.cls-6{clip-path:url(#clip-path-2);}.cls-7{fill:#86747b;}.cls-8{fill:#735378;}.cls-9{fill:#bdbdbd;}.cls-10{fill:#e0e0e0;}.cls-11{fill:#eee;}.cls-12{fill:#fafafa;}.cls-13{fill:#f29826;}</style><clipPath id="clip-path"><rect class="cls-1" x="-2172.19" y="-66.63" width="1987" height="691"/></clipPath><clipPath id="clip-path-2"><rect class="cls-1" x="837.81" y="-62.63" width="1987" height="691"/></clipPath></defs><title>title_js_01</title><g class="cls-2"><g class="cls-3"><path class="cls-4" d="M51.79,162.65C45.94,76.31-34.55,93.87-77,146.56c-13.17-48.3-74.64,14.64-84.88,33.66-19-19-29.27-30.73-61.47-24.89S-262.86,189-284.82,205.1c-16.1-45.37-46.83-70.25-92.2-41,1.46-29.27-26.35-61.46-51.22-32.2,0-38.05-43.91-43.9-71.72-33.66C-529.22,110-549.71,142.17-560,170c-8.78-46.83-98.06-43.91-83.42,8.78-10.24-29.27-54.15-4.39-51.23,23.42-16.1-27.81-42.44-52.68-77.56-48.3s-57.08,22-55.62,58.54c-10.24-22-19-46.83-45.36-49.76-23.42-2.93-55.62,19-55.62,42.45-20.49-32.2-82-4.39-99.52,22-4.39-17.56,2.92-41-11.71-55.61s-39.52-7.32-49.76,11.71c4.39-30.73-7.32-51.22-41-46.83-21.63,3.61-48.18,20-65.9,35.52-5.42-17.49-17.74-27.26-40.58-9.18-5.86-86.35-86.34-68.78-128.79-16.1-13.17-48.3-74.64,14.64-84.88,33.66-19-19-29.27-30.73-61.47-24.89s-39.51,33.66-61.47,49.77c-16.1-45.37-46.83-70.25-92.2-41,1.46-29.27-26.34-61.46-51.22-32.2,0-38.05-43.91-43.9-71.71-33.66-29.27,11.71-49.76,43.91-60,71.71-8.78-46.83-98.05-43.91-83.42,8.78-10.24-29.27-54.15-4.39-51.22,23.42-16.1-27.81-42.44-52.68-77.56-48.3s-57.08,22-55.62,58.54c-10.25-22-19-46.83-45.37-49.76-23.42-2.93-55.62,19-55.62,42.45-20.49-32.2-82-4.39-99.52,22-4.39-17.56,2.93-41-11.71-55.61s-39.51-7.32-49.76,11.71c4.39-30.73-7.32-51.22-41-46.83-26.34,4.39-60,27.8-76.1,45.37V617.8H95.7S88,307.17,95.7,203.64C97.17,172.9,86.92,134.85,51.79,162.65Z"/></g><g id="_群組_" data-name="&lt;群組&gt;"><path id="_複合路徑_" data-name="&lt;複合路徑&gt;" class="cls-5" d="M-441.79,61.16c137.49,9.29,358.63,9.29,358.63,9.29L-96.73,38.51c-83.89,40.57-319.71,9-428.4-8.5-8.87-3.75-17.25-7.48-25.06-11.19-153.48-72.88-374.34-15.4-472.71,32.87-125.44,8.66-288.85-4.26-409.48-17.49l-60.28-15.38c-305.43-77.88-665,169.8-672,169.8v49c-51.77-3.62-95.67-8.33-123.74-11.57-20.15-2.32-32.14-3.88-33-3.71,0,0,99.12,69.92,170.56,60.83,65.28,7.43,149.53,3.54,253.22-27,218.46-64.35,307.24-44,336.88-30.93-28-13.67-104.57-38.54-249.83-2.9-79,19.37-179.76,22.48-270.93,19.56C-1949.27,167-1692.29,41.24-1556,107.45c188.6,91.66,438,71.32,656.36,0S42.58,280.53,42.58,280.53V188.62S-246.45,127.26-441.79,61.16Zm-1445.88,46.29c-3.43-9.3,39.31-72.66,101.41-55.75S-1875.84,139.54-1887.67,107.45Zm211.23-47.34c-36.35,20.17-76.21,12.25-44.75-8.41C-1714.51,47.31-1640.09,39.95-1676.44,60.12Zm168.81,7.72s147.1,18.79,155.38,40.24S-1583.7,81.65-1507.63,67.84Zm461-3.29c-55.57,33.9-100.92,36.46-221.72,9.79A1102.8,1102.8,0,0,0-1045.72,64Zm146.92,3.36c-55.66,3.74,159.39-61.7,203.32-28.76S-783.82,60.12-899.68,67.9Z"/></g></g><g class="cls-6"><g class="cls-3"><path class="cls-4" d="M3061.79,166.65c-5.85-86.35-86.35-68.78-128.79-16.1-13.17-48.3-74.64,14.64-84.88,33.66-19-19-29.27-30.73-61.47-24.89s-39.51,33.66-61.47,49.77c-16.1-45.37-46.83-70.25-92.2-41,1.46-29.27-26.35-61.46-51.22-32.2,0-38.05-43.91-43.9-71.72-33.66-29.27,11.71-49.76,43.91-60,71.71-8.78-46.83-98.06-43.91-83.42,8.78-10.24-29.27-54.15-4.39-51.23,23.42-16.1-27.81-42.44-52.68-77.56-48.3s-57.08,22-55.62,58.54c-10.24-22-19-46.83-45.36-49.76-23.42-2.93-55.62,19-55.62,42.45-20.49-32.2-82-4.39-99.52,22-4.39-17.56,2.92-41-11.71-55.61s-39.52-7.32-49.76,11.71c4.39-30.73-7.32-51.22-41-46.83-21.63,3.61-48.18,20-65.9,35.52-5.42-17.49-17.74-27.26-40.58-9.18-5.86-86.35-86.34-68.78-128.79-16.1-13.17-48.3-74.64,14.64-84.88,33.66-19-19-29.27-30.73-61.47-24.89s-39.51,33.66-61.47,49.77c-16.1-45.37-46.83-70.25-92.2-41,1.46-29.27-26.34-61.46-51.22-32.2,0-38.05-43.91-43.9-71.71-33.66-29.27,11.71-49.76,43.91-60,71.71-8.78-46.83-98.05-43.91-83.42,8.78-10.24-29.27-54.15-4.39-51.22,23.42-16.1-27.81-42.44-52.68-77.56-48.3s-57.08,22-55.62,58.54c-10.25-22-19-46.83-45.37-49.76-23.42-2.93-55.62,19-55.62,42.45-20.49-32.2-82-4.39-99.52,22-4.39-17.56,2.93-41-11.71-55.61s-39.51-7.32-49.76,11.71c4.39-30.73-7.32-51.22-41-46.83-26.34,4.39-60,27.8-76.1,45.37V621.8H3105.7s-7.67-310.63,0-414.17C3107.17,176.9,3096.92,138.85,3061.79,166.65Z"/></g></g><path class="cls-7" d="M642.52,125.92a4.38,4.38,0,0,0,4.38-4.38c0-2.42-2-13.1-4.38-13.1s-4.38,10.68-4.38,13.1A4.38,4.38,0,0,0,642.52,125.92Z"/><rect class="cls-8" x="616.37" y="84.4" width="52.3" height="7.16" transform="translate(554.54 730.5) rotate(-90)"/><path class="cls-9" d="M648.74,114.13a1.17,1.17,0,0,1-1.17,1.17h-10.1a1.17,1.17,0,0,1,0-2.34h10.1A1.17,1.17,0,0,1,648.74,114.13Z"/><path class="cls-7" d="M642.52,0a4.38,4.38,0,0,1,4.38,4.38c0,2.42-2,13.1-4.38,13.1s-4.38-10.68-4.38-13.1A4.38,4.38,0,0,1,642.52,0Z"/><rect class="cls-10" x="307.08" y="-235.74" width="37.87" height="633" transform="translate(406.78 -245.25) rotate(90)"/><rect class="cls-11" x="307.08" y="-273.6" width="37.87" height="633" transform="translate(368.92 -283.12) rotate(90)"/><rect class="cls-8" x="616.37" y="32.1" width="52.3" height="7.16" transform="translate(678.2 -606.83) rotate(90)"/><rect class="cls-12" x="630.58" y="19.63" width="23.87" height="84.41"/><path class="cls-13" d="M655.61,20.61v1.7H629.42v-1.7a2.39,2.39,0,0,1,2.39-2.39h21.42A2.39,2.39,0,0,1,655.61,20.61Z"/><rect class="cls-11" x="630.58" y="61.83" width="23.87" height="42.21"/><path class="cls-10" d="M648.74,9.54a1.17,1.17,0,0,0-1.17-1.17h-10.1a1.17,1.17,0,0,0,0,2.34h10.1A1.17,1.17,0,0,0,648.74,9.54Z"/><path class="cls-13" d="M655.61,103.05v-1.7H629.42v1.7a2.39,2.39,0,0,0,2.39,2.39h21.42A2.39,2.39,0,0,0,655.61,103.05Z"/><path class="cls-7" d="M13.1,125.83a4.38,4.38,0,0,0,4.38-4.38c0-2.42-2-13.1-4.38-13.1S8.71,119,8.71,121.45A4.38,4.38,0,0,0,13.1,125.83Z"/><rect class="cls-8" x="-13.05" y="84.4" width="52.3" height="7.16" transform="translate(-74.88 101.08) rotate(-90)"/><path class="cls-9" d="M19.32,114.13a1.17,1.17,0,0,1-1.17,1.17H8A1.17,1.17,0,0,1,8,113h10.1A1.17,1.17,0,0,1,19.32,114.13Z"/><path class="cls-7" d="M13.1,0a4.38,4.38,0,0,1,4.38,4.38c0,2.42-2,13.1-4.38,13.1S8.71,6.8,8.71,4.38A4.38,4.38,0,0,1,13.1,0Z"/><rect class="cls-8" x="-13.05" y="32.1" width="52.3" height="7.16" transform="translate(48.78 22.59) rotate(90)"/><rect class="cls-12" x="1.16" y="19.63" width="23.87" height="84.41"/><path class="cls-13" d="M26.19,20.61v1.7H0v-1.7a2.39,2.39,0,0,1,2.39-2.39H23.81A2.39,2.39,0,0,1,26.19,20.61Z"/><rect class="cls-11" x="1.16" y="61.83" width="23.87" height="42.21"/><path class="cls-10" d="M19.32,9.54a1.17,1.17,0,0,0-1.17-1.17H8a1.17,1.17,0,0,0,0,2.34h10.1A1.17,1.17,0,0,0,19.32,9.54Z"/><path class="cls-13" d="M26.19,103.05v-1.7H0v1.7a2.39,2.39,0,0,0,2.39,2.39H23.81A2.39,2.39,0,0,0,26.19,103.05Z"/><path class="cls-8" d="M61.37,76.08l-1.87-3.6H69.69V48.61h7.24V76.08Z"/><path class="cls-8" d="M100.11,76h-7V73.45L91.29,76H79.95V56.82H91.36l1.76,2.59V56.82h6.66V72.87h2Zm-7-16H86.68V72.87h6.44Z"/><path class="cls-8" d="M117.31,76.08h-7.13l-8-19.26h7.34l4.28,10.91,4.1-10.91h7.45Z"/><path class="cls-8" d="M147.08,76h-7V73.45L138.27,76H126.93V56.82h11.41l1.76,2.59V56.82h6.66V72.87h2Zm-7-16h-6.44V72.87h6.44Z"/><path class="cls-8" d="M157.71,60.2v4.43h13.17V76.08H151.44l-1.33-3.35h14V68.09H150.76V56.82H171V60.2Z"/><path class="cls-8" d="M192.63,76.08H173.91V56.86h19.58v3.38H180.71V72.62h13.35Z"/><path class="cls-8" d="M203.64,60.28v15.8h-7.05V56.82h7.05v2.84l2.13-2.84h6.84v3.46Z"/><path class="cls-8" d="M216,54.59v-6h6.88v6Zm0,21.49V56.82h6.88V76.08Z"/><path class="cls-8" d="M235.9,76l-2.09-2.88V83.49H227V56.82h6.8v2.77l1.8-2.77h11.63V76Zm4.5-15.84h-6.59V72.59h6.59Z"/><path class="cls-8" d="M264.34,76.08H253V60.24h-3.71V56.86H253V50.52h6.87v6.34h5.18v3.38h-5.18V72.77h5.94Z"/><path class="cls-8" d="M303.68,77.66l-9-20.77-9.47,20.77h-7.38l10.4-23h5.47l-2.09-4.86h-7V46.06h13l13.53,31.6Z"/><path class="cls-8" d="M321.51,60.92V77.48h-6.37V46h14.58v14.9Zm2.66-11.52h-2.66v2.34h2.66Zm0,5.69h-2.66v2.3h2.66Zm9.47,22.39-1.76-3.67h7.63V60.92h-8.17V46h14.58V77.48Zm5.87-28.08h-2.66v2.34h2.66Zm0,5.69h-2.66v2.3h2.66Z"/><path class="cls-8" d="M381.19,56.82H357.87v1.26h23.87v6.37H357.87V73.2l-1.26,4.32h-6.48l1.4-4.79V54h23.76l.25-.86h-.72l-.9-2.7h-.76l-.94,2.7h-6.33l2.7-7.42h6.15l-.43,1.4h7.88v3.31h-2.7l.83,2.16h2.2Zm-16.85-6.41.86,2.7h-5.65l-.94-2.7h-.86l-1,2.7h-6.37L353,45.7h6.48L359,47.14h7.49v3.28Zm10.8,10.19H357.87V62h17.28Zm1.22,16.92L375,74.93v2h-3.6V73.2h-1.58v3.74h-3.6V73.2H364.6v4.32h-5.69V65.71h23.36V77.52Zm-10.19-8.67H364.6v1.76h1.58Zm5.18,0h-1.58v1.76h1.58Zm5.15,0H375v1.76h1.55Zm0,4.36H375v1.22h1.55Z"/><path class="cls-8" d="M395.09,64.24h10.65v3.64H395.09Z"/><path class="cls-8" d="M438.07,72.19v5.26H427.16l-1.76-3.13h6V72.19H418.71V69h12.74V67.8l3.13-1.44H422.92V64.09h-4.25V58.4h1.22V46.56h3.89l.25-.9h5.9l-.07.36h4.07l.65.58.86-.58h5.15l-.65.54h9.18V58.4h1.33v5.72h-4v1.76L439.3,69h11.23v3.24Zm5.69-10.55H425.22v1.55h18.54Zm-14-15.15L429,49.73h-3.28v1.08h2.84L432,48.36Zm-1,5.83v1.15h-3v1h3v2.45l3.1-2.2Zm14.43,4.79h-3V54.52h3v-1h-3.06v-.94l-3.1,2.27,3.64,2.92h-4.93l-1.37-1-1.44,1H427.6l1-.68h-2.88V58.4h17.46Zm-3.06-5.72h-4.64l-1.08-.9-1.22.9h-4.43V52h4.79l1,.79,1-.79h4.57Zm3.06-1.58h-3.46V46.67l-2.59,1.87,3,2.3h3.09Z"/><path class="cls-8" d="M461.94,53.11h3.56l-3.74,8.21h1.33V77.27h-6.44V62.69h-2.37L458.16,54h-3.67l4.25-8.17h7ZM485.7,77.27H474.07l-3.78-2.48-.72,2.48h-6.12l1.22-4.57V62.76h5.65v7.92l1.94,1.26V60.56H464V57.29h8.32V52.61h-7.16V49.3h7.16V45.81h6.51V49.3h6.41v3.31h-6.41v4.68h7.7v3.28h-7.7V65h6.59V68.3h-6.59V74H487Z"/><path class="cls-8" d="M511.08,77.52l-1.48-3.64h6.12V53.22h-3L511.65,57h-6.12V77.52H491V49.66h3l1.15-4h6.69l-1.19,4h4.93v5.87l3-9.9H515l-1.19,4.07h8.35V77.52Zm-11.41-24.3h-3v8.35h3Zm0,11.84h-3v8.78h3Zm9.25,5.51L506,58h6.3l2.92,12.53Z"/><path class="cls-8" d="M557.77,77.48h-7.52l-2.12-23.11h-9.07V51.82h-12.6V48.47h3l-.58-2.66h6.77l.61,2.66h3V51h8.64l-.58-5.22h6.37l.5,5.22h4.36v3.35h-4L556.26,74H559Zm-30.67,0V64h11.45v13.5ZM527.21,57V53.65h11.23V57Zm0,5.11V58.76h11.23v3.31Zm6.3,5.33h-1.44v6.7h1.44Zm5.8,9.65V73.63l1.62-.43V61.86h-1.55V58.51h8.57v3.35h-1.51v9.86l2.63-.58v3.38ZM555,50l-.32-3.6h3.28l.36,3.6Z"/><path class="cls-8" d="M579.55,77.45H574.3l.22-1.58h-4.25l-.86-3.2L568,77.45H562.2l3.46-13V45.7h5.65V64.16h1.29L575,73l.79-5.22H581Zm-16.74-16-.32-12.56h2.34l.25,12.56Zm24.84-9.79v2H594v13h-6.33V77.45h-6.16V66.68h-6.37v-13h6.37v-2h-7.05l-.22,9.79H572l.25-12.6h2v-.61h7.27V45.7h6.16v2.56h6.88v3.42Zm-5.26,5.4h-2.7V63.3h2.7Zm-1.91,5.26L580.16,58h1.51l.32,4.32Zm9-5.26h-2.66V63.3h2.66Zm-.83,5.26h-1.51l.43-4.32H589Zm1.08,15.12-1.55-9.68h5.18l1.51,9.68Z"/></svg>