<svg id="圖層_1" data-name="圖層 1" xmlns="https://www.w3.org/2000/svg" viewBox="0 0 578.61 125.92"><defs><style>.cls-1{fill:#86747b;}.cls-2{fill:#735378;}.cls-3{fill:#bdbdbd;}.cls-4{fill:#e0e0e0;}.cls-5{fill:#eee;}.cls-6{fill:#fafafa;}.cls-7{fill:#f29826;}</style></defs><title>title_js_onsell</title><path class="cls-1" d="M565.52,125.92a4.38,4.38,0,0,0,4.38-4.38c0-2.42-2-13.1-4.38-13.1s-4.38,10.68-4.38,13.1A4.38,4.38,0,0,0,565.52,125.92Z"/><rect class="cls-2" x="539.37" y="84.4" width="52.3" height="7.16" transform="translate(477.54 653.5) rotate(-90)"/><path class="cls-3" d="M571.74,114.13a1.17,1.17,0,0,1-1.17,1.17h-10.1a1.17,1.17,0,0,1,0-2.34h10.1A1.17,1.17,0,0,1,571.74,114.13Z"/><path class="cls-1" d="M565.52,0a4.38,4.38,0,0,1,4.38,4.38c0,2.42-2,13.1-4.38,13.1s-4.38-10.68-4.38-13.1A4.38,4.38,0,0,1,565.52,0Z"/><rect class="cls-4" x="268.58" y="-197.24" width="37.87" height="556" transform="translate(368.28 -206.75) rotate(90)"/><rect class="cls-5" x="268.58" y="-235.1" width="37.87" height="556" transform="translate(330.42 -244.62) rotate(90)"/><rect class="cls-2" x="539.37" y="32.1" width="52.3" height="7.16" transform="translate(601.2 -529.83) rotate(90)"/><rect class="cls-6" x="553.58" y="19.63" width="23.87" height="84.41"/><path class="cls-7" d="M578.61,20.61v1.7H552.42v-1.7a2.39,2.39,0,0,1,2.39-2.39h21.42A2.39,2.39,0,0,1,578.61,20.61Z"/><rect class="cls-5" x="553.58" y="61.83" width="23.87" height="42.21"/><path class="cls-4" d="M571.74,9.54a1.17,1.17,0,0,0-1.17-1.17h-10.1a1.17,1.17,0,0,0,0,2.34h10.1A1.17,1.17,0,0,0,571.74,9.54Z"/><path class="cls-7" d="M578.61,103.05v-1.7H552.42v1.7a2.39,2.39,0,0,0,2.39,2.39h21.42A2.39,2.39,0,0,0,578.61,103.05Z"/><path class="cls-1" d="M13.1,125.83a4.38,4.38,0,0,0,4.38-4.38c0-2.42-2-13.1-4.38-13.1S8.71,119,8.71,121.45A4.38,4.38,0,0,0,13.1,125.83Z"/><rect class="cls-2" x="-13.05" y="84.4" width="52.3" height="7.16" transform="translate(-74.88 101.08) rotate(-90)"/><path class="cls-3" d="M19.32,114.13a1.17,1.17,0,0,1-1.17,1.17H8A1.17,1.17,0,0,1,8,113h10.1A1.17,1.17,0,0,1,19.32,114.13Z"/><path class="cls-1" d="M13.1,0a4.38,4.38,0,0,1,4.38,4.38c0,2.42-2,13.1-4.38,13.1S8.71,6.8,8.71,4.38A4.38,4.38,0,0,1,13.1,0Z"/><rect class="cls-2" x="-13.05" y="32.1" width="52.3" height="7.16" transform="translate(48.78 22.59) rotate(90)"/><rect class="cls-6" x="1.16" y="19.63" width="23.87" height="84.41"/><path class="cls-7" d="M26.19,20.61v1.7H0v-1.7a2.39,2.39,0,0,1,2.39-2.39H23.81A2.39,2.39,0,0,1,26.19,20.61Z"/><rect class="cls-5" x="1.16" y="61.83" width="23.87" height="42.21"/><path class="cls-4" d="M19.32,9.54a1.17,1.17,0,0,0-1.17-1.17H8a1.17,1.17,0,0,0,0,2.34h10.1A1.17,1.17,0,0,0,19.32,9.54Z"/><path class="cls-7" d="M26.19,103.05v-1.7H0v1.7a2.39,2.39,0,0,0,2.39,2.39H23.81A2.39,2.39,0,0,0,26.19,103.05Z"/><path class="cls-2" d="M93.36,51.93V48.54h3L95.7,45.7h6.55l.65,2.84h2.84v3.38Zm.72,25.45V64h11.09V77.37Zm.11-20.3V53.69h10.87v3.38Zm0,5.18V58.91h10.87v3.35Zm6.19,5.11H99V74h1.37Zm10.22,10h-5.08l1.66-9.58h5Zm7.85-10.65V77.37h-5.83V66.72h-6.77V63.34h6.77V61h-6.08V46.06h18V61h-6.08v2.38h7v3.38Zm-5.83-17.21H111.1v2.38h1.55Zm0,5.69H111.1v2.38h1.55ZM120,49.51h-1.51v2.38H120Zm0,5.69h-1.51v2.38H120Zm.47,22.17-1.4-9.58h5.11l1.44,9.58Z"/><path class="cls-2" d="M141.63,50.56H139.4v4.25h3.42v3.28H139.4V77.34h-6.16V58.08h-3.6V54.81h3.6V50.56H130V47.17h6.37l.47-1.51h6.26Zm-11.84,24.3.36-15.26h2.41l-.36,15.26Zm12.67,2.48V74.85h-1.91L140,59.59h2.41l.47,14.33h5.9V70.14H143.9V66.68h4.93V63h-5.54V59.59h11.3l.4-1.12h6.55l-1.4,4.5h-4.79v3.71h5.07v3.46h-5.07v3.78h6.33v3.42Zm1-19.76V46.06H160.6V57.58Zm11-8.1h-4.9v4.64h4.9Z"/><path class="cls-2" d="M165.43,77.52V73.81h10.48v-28h7.24V55.85h13.14v3.67H183.14V73.81h14.29v3.71Z"/><path class="cls-2" d="M208.2,52.72h5.15v3l-3.24,4.1h3.2v6.37H201.72v-4l4.71-5.83h-4.68V52.65l5.36-6.84h6.52Zm-6.33,24.66v-10h3.35v10Zm4.25,0v-10h3.17v10Zm3.67-17.17-2.16,2.74h2.16Zm17,2.12v15h-7.59l-1.33-3.13-.72,2.38h-4.1v.76h-2.84v-10h2.84v6.8l2-6.62h-1.15V64.24h5.76v3.89L218,74h2.45V62.33h-5.83V48h4l1-2.27h7L225.76,48h6.91V62.33Zm-.29-10.8h-5.87v1.94h5.87Zm0,5.36h-5.87v2h5.87Zm2.34,19.8L227.24,70h4.9l1.58,6.7ZM232.21,69h-4.82l1.37-5.58h4.79Z"/><path class="cls-2" d="M253.13,69.67h-2.45l3.53-5.44h-4.46V57h7.13v6.91Z"/><path class="cls-2" d="M287,77.34V57.58h-1.62v19H273.86V46.89h11.52V56l3-10.37H295L293.37,51h2.7l-.83-5.29h6.23l.79,5.29h2.88V54.3h-3.28v4.36h2.92V62h-2.92v4.21h2.92v3.38h-2.92V74h3.6v3.35Zm-6.66-27h-1.26V73.16h1.26Zm15.41,3.92h-2.66v4.36h2.66Zm0,7.74h-2.66v4.21h2.66Zm0,7.59h-2.66V74h2.66Z"/><path class="cls-2" d="M309.43,62.94V59.23h31.82v3.71Z"/><path class="cls-2" d="M345.43,62.94V59.23h31.82v3.71Z"/><path class="cls-2" d="M406.38,59.23V53.44h-7.59L397,60.24h-6.7l.47-1.73H384L381.22,46h7L390.93,58l3.24-12.56h6.66l-1.19,4.57h13.53v9.18ZM388.27,77.45H381.4l2.38-16.56h6.91Zm18.11,0-4.5-6.55-5,6.55h-7.56l8.78-11.7V56.86h6.8v8.82h1.12l8.17,11.77Z"/><path class="cls-2" d="M437,69.45v8.06h-7.16V69.45H417.47V65.93h12.38V62.15H418.58V58.48h11.27V45.77l7.16,0V58.48h11.23v3.67H437v3.78h12.35v3.53ZM421.68,57.07l-3.85-9.93h6.95l3.85,9.93Zm23.36,0h-7l4-9.93h7.05Z"/><path class="cls-2" d="M460.16,58.26h.72V77.48h-6.19V60.17h-1.4l2.48-14.47h6.37Zm8.71,19.22h-7.52L465,74h7.52Zm10.51-28.33v1.33h5.4v8.39H462.39V50.49h5.4V49.15h-5.36v-3.1h23v3.1ZM463.08,72.95V60.2h21.06V72.95Zm4.72-19.62h-1.51V56h1.51ZM478,62.8h-8.71v1H478ZM478,66h-8.71v1.12H478Zm0,3.28h-8.71v1.12H478Zm-3.71-20.09h-1.51v1.33h1.51Zm0,4.18h-1.51V56h1.51Zm4.18,24.15L474.52,74H482l3.89,3.53Zm2.45-24.15h-1.51V56h1.51Z"/></svg>