<svg id="圖層_1" data-name="圖層 1" xmlns="https://www.w3.org/2000/svg" xmlns:xlink="https://www.w3.org/1999/xlink" viewBox="0 0 578.61 125.92"><defs><style>.cls-1{fill:none;}.cls-2{clip-path:url(#clip-path);}.cls-3,.cls-5{opacity:0.2;}.cls-4{fill:#c0e0e2;}.cls-5{fill:#b0d0d1;}.cls-6{clip-path:url(#clip-path-2);}.cls-7{fill:#86747b;}.cls-8{fill:#735378;}.cls-9{fill:#bdbdbd;}.cls-10{fill:#e0e0e0;}.cls-11{fill:#eee;}.cls-12{fill:#fafafa;}.cls-13{fill:#f29826;}</style><clipPath id="clip-path"><rect class="cls-1" x="-2171.69" y="-434.63" width="1987" height="691"/></clipPath><clipPath id="clip-path-2"><rect class="cls-1" x="838.31" y="-430.63" width="1987" height="691"/></clipPath></defs><title>title_js_three_feature</title><g class="cls-2"><g class="cls-3"><path class="cls-4" d="M52.29-205.35c-5.85-86.35-86.35-68.78-128.79-16.1-13.17-48.3-74.64,14.64-84.88,33.66-19-19-29.27-30.73-61.47-24.89S-262.36-179-284.32-162.9c-16.1-45.37-46.83-70.25-92.2-41,1.46-29.27-26.35-61.46-51.22-32.2,0-38.05-43.91-43.9-71.72-33.66-29.27,11.71-49.76,43.91-60,71.71-8.78-46.83-98.06-43.91-83.42,8.78-10.24-29.27-54.15-4.39-51.23,23.42-16.1-27.81-42.44-52.68-77.56-48.3s-57.08,22-55.62,58.54c-10.24-22-19-46.83-45.36-49.76-23.42-2.93-55.62,19-55.62,42.45-20.49-32.2-82-4.39-99.52,22-4.39-17.56,2.92-41-11.71-55.61s-39.52-7.32-49.76,11.71c4.39-30.73-7.32-51.22-41-46.83-21.63,3.61-48.18,20-65.9,35.52-5.42-17.49-17.74-27.26-40.58-9.18-5.86-86.35-86.34-68.78-128.79-16.1-13.17-48.3-74.64,14.64-84.88,33.66-19-19-29.27-30.73-61.47-24.89s-39.51,33.66-61.47,49.77c-16.1-45.37-46.83-70.25-92.2-41,1.46-29.27-26.34-61.46-51.22-32.2,0-38.05-43.91-43.9-71.71-33.66-29.27,11.71-49.76,43.91-60,71.71-8.78-46.83-98.05-43.91-83.42,8.78-10.24-29.27-54.15-4.39-51.22,23.42-16.1-27.81-42.44-52.68-77.56-48.3s-57.08,22-55.62,58.54c-10.25-22-19-46.83-45.37-49.76-23.42-2.93-55.62,19-55.62,42.45-20.49-32.2-82-4.39-99.52,22-4.39-17.56,2.93-41-11.71-55.61s-39.51-7.32-49.76,11.71c4.39-30.73-7.32-51.22-41-46.83-26.34,4.39-60,27.8-76.1,45.37V249.8H96.2s-7.67-310.63,0-414.17C97.67-195.1,87.42-233.15,52.29-205.35Z"/></g><path class="cls-5" d="M-23.12-76.29C-39-121.94-127.32-193.69-174.89-182.82s-81.54,32.61-79.28,116.18c-43-44.7-106.47-7.48-145,27.31C-439.92-82.82-489.75-56.72-507.88-35c-4.53-30.43-24.92-63-92.88-63s-158.57,80.3-158.57,80.3S-748-41.51-777.44-48s-58.89,30.3-58.89,30.3-4.54-47.69-43-48.91-79.28,48.91-79.28,48.91S-936-89.34-972.25-91.51-1047-66.64-1047-66.64s0-44.43-63.43-48.78c-31.42-2.15-56.15,21.79-73.13,46.51-47.68-63.65-115.63-60.2-126.21-7.38-15.86-45.65-104.2-117.39-151.77-106.53s-81.55,32.61-79.28,116.18c-43-44.7-106.47-7.48-145,27.31-40.77-43.49-90.61-17.39-108.73,4.34-4.53-30.43-24.92-63-92.87-63S-2046-17.73-2046-17.73s11.33-23.78-18.12-30.3S-2123-17.73-2123-17.73s-4.53-47.69-43-48.91-79.28,48.91-79.28,48.91,22.65-71.61-13.59-73.78-74.75,24.87-74.75,24.87,0-44.43-63.43-48.78-99.67,97.7-99.67,97.7v574.1H92.41V-7.12C93.62-89.32-11.79-132.82-23.12-76.29Z"/></g><g class="cls-6"><g class="cls-3"><path class="cls-4" d="M3062.29-201.35c-5.85-86.35-86.35-68.78-128.79-16.1-13.17-48.3-74.64,14.64-84.88,33.66-19-19-29.27-30.73-61.47-24.89s-39.51,33.66-61.47,49.77c-16.1-45.37-46.83-70.25-92.2-41,1.46-29.27-26.35-61.46-51.22-32.2,0-38.05-43.91-43.9-71.72-33.66-29.27,11.71-49.76,43.91-60,71.71-8.78-46.83-98.06-43.91-83.42,8.78-10.24-29.27-54.15-4.39-51.23,23.42-16.1-27.81-42.44-52.68-77.56-48.3s-57.08,22-55.62,58.54c-10.24-22-19-46.83-45.36-49.76-23.42-2.93-55.62,19-55.62,42.45-20.49-32.2-82-4.39-99.52,22-4.39-17.56,2.92-41-11.71-55.61s-39.52-7.32-49.76,11.71c4.39-30.73-7.32-51.22-41-46.83-21.63,3.61-48.18,20-65.9,35.52-5.42-17.49-17.74-27.26-40.58-9.18-5.86-86.35-86.34-68.78-128.79-16.1-13.17-48.3-74.64,14.64-84.88,33.66-19-19-29.27-30.73-61.47-24.89s-39.51,33.66-61.47,49.77c-16.1-45.37-46.83-70.25-92.2-41,1.46-29.27-26.34-61.46-51.22-32.2,0-38.05-43.91-43.9-71.71-33.66-29.27,11.71-49.76,43.91-60,71.71-8.78-46.83-98.05-43.91-83.42,8.78-10.24-29.27-54.15-4.39-51.22,23.42-16.1-27.81-42.44-52.68-77.56-48.3s-57.08,22-55.62,58.54c-10.25-22-19-46.83-45.37-49.76-23.42-2.93-55.62,19-55.62,42.45-20.49-32.2-82-4.39-99.52,22-4.39-17.56,2.93-41-11.71-55.61s-39.51-7.32-49.76,11.71c4.39-30.73-7.32-51.22-41-46.83-26.34,4.39-60,27.8-76.1,45.37V253.8H3106.2s-7.67-310.63,0-414.17C3107.67-191.1,3097.42-229.15,3062.29-201.35Z"/></g><path class="cls-5" d="M2986.88-72.29c-15.86-45.65-104.2-117.39-151.77-106.53s-81.54,32.61-79.28,116.18c-43-44.7-106.47-7.48-145,27.31-40.78-43.49-90.61-17.39-108.73,4.34-4.53-30.43-24.92-63-92.88-63s-158.57,80.3-158.57,80.3S2262-37.51,2232.56-44s-58.89,30.3-58.89,30.3-4.54-47.69-43-48.91-79.28,48.91-79.28,48.91,22.65-71.61-13.59-73.78S1963-62.64,1963-62.64s0-44.43-63.43-48.78c-31.42-2.15-56.15,21.79-73.13,46.51-47.68-63.65-115.63-60.2-126.21-7.38-15.86-45.65-104.2-117.39-151.77-106.53s-81.55,32.61-79.28,116.18c-43-44.7-106.47-7.48-145,27.31-40.77-43.49-90.61-17.39-108.73,4.34-4.53-30.43-24.92-63-92.87-63S964-13.73,964-13.73,975.36-37.51,945.92-44,887-13.73,887-13.73s-4.53-47.69-43-48.91S764.7-13.73,764.7-13.73s22.65-71.61-13.59-73.78-74.75,24.87-74.75,24.87,0-44.43-63.43-48.78-99.67,97.7-99.67,97.7v574.1H3102.41V-3.12C3103.62-85.32,2998.21-128.82,2986.88-72.29Z"/></g><path class="cls-7" d="M565.52,125.92a4.38,4.38,0,0,0,4.38-4.38c0-2.42-2-13.1-4.38-13.1s-4.38,10.68-4.38,13.1A4.38,4.38,0,0,0,565.52,125.92Z"/><rect class="cls-8" x="539.37" y="84.4" width="52.3" height="7.16" transform="translate(477.54 653.5) rotate(-90)"/><path class="cls-9" d="M571.74,114.13a1.17,1.17,0,0,1-1.17,1.17h-10.1a1.17,1.17,0,0,1,0-2.34h10.1A1.17,1.17,0,0,1,571.74,114.13Z"/><path class="cls-7" d="M565.52,0a4.38,4.38,0,0,1,4.38,4.38c0,2.42-2,13.1-4.38,13.1s-4.38-10.68-4.38-13.1A4.38,4.38,0,0,1,565.52,0Z"/><rect class="cls-10" x="268.58" y="-197.24" width="37.87" height="556" transform="translate(368.28 -206.75) rotate(90)"/><rect class="cls-11" x="268.58" y="-235.1" width="37.87" height="556" transform="translate(330.42 -244.62) rotate(90)"/><rect class="cls-8" x="539.37" y="32.1" width="52.3" height="7.16" transform="translate(601.2 -529.83) rotate(90)"/><rect class="cls-12" x="553.58" y="19.63" width="23.87" height="84.41"/><path class="cls-13" d="M578.61,20.61v1.7H552.42v-1.7a2.39,2.39,0,0,1,2.39-2.39h21.42A2.39,2.39,0,0,1,578.61,20.61Z"/><rect class="cls-11" x="553.58" y="61.83" width="23.87" height="42.21"/><path class="cls-10" d="M571.74,9.54a1.17,1.17,0,0,0-1.17-1.17h-10.1a1.17,1.17,0,0,0,0,2.34h10.1A1.17,1.17,0,0,0,571.74,9.54Z"/><path class="cls-13" d="M578.61,103.05v-1.7H552.42v1.7a2.39,2.39,0,0,0,2.39,2.39h21.42A2.39,2.39,0,0,0,578.61,103.05Z"/><path class="cls-7" d="M13.1,125.83a4.38,4.38,0,0,0,4.38-4.38c0-2.42-2-13.1-4.38-13.1S8.71,119,8.71,121.45A4.38,4.38,0,0,0,13.1,125.83Z"/><rect class="cls-8" x="-13.05" y="84.4" width="52.3" height="7.16" transform="translate(-74.88 101.08) rotate(-90)"/><path class="cls-9" d="M19.32,114.13a1.17,1.17,0,0,1-1.17,1.17H8A1.17,1.17,0,0,1,8,113h10.1A1.17,1.17,0,0,1,19.32,114.13Z"/><path class="cls-7" d="M13.1,0a4.38,4.38,0,0,1,4.38,4.38c0,2.42-2,13.1-4.38,13.1S8.71,6.8,8.71,4.38A4.38,4.38,0,0,1,13.1,0Z"/><rect class="cls-8" x="-13.05" y="32.1" width="52.3" height="7.16" transform="translate(48.78 22.59) rotate(90)"/><rect class="cls-12" x="1.16" y="19.63" width="23.87" height="84.41"/><path class="cls-13" d="M26.19,20.61v1.7H0v-1.7a2.39,2.39,0,0,1,2.39-2.39H23.81A2.39,2.39,0,0,1,26.19,20.61Z"/><rect class="cls-11" x="1.16" y="61.83" width="23.87" height="42.21"/><path class="cls-10" d="M19.32,9.54a1.17,1.17,0,0,0-1.17-1.17H8a1.17,1.17,0,0,0,0,2.34h10.1A1.17,1.17,0,0,0,19.32,9.54Z"/><path class="cls-13" d="M26.19,103.05v-1.7H0v1.7a2.39,2.39,0,0,0,2.39,2.39H23.81A2.39,2.39,0,0,0,26.19,103.05Z"/><path class="cls-8" d="M93.27,77.52v-3.6h31.14v3.6Zm.4-28V46h30.42v3.56Zm1.26,13.17V59.16h27.86v3.56Z"/><path class="cls-8" d="M153.57,77.48l-8.82-15-8.21,15h-7.88l11.63-21.2H129.09V52.54h12.06V45.59h7.09v6.95h12.27v3.74H148.24l-1.19,2.09h3.28l11,19.11Z"/><path class="cls-8" d="M168.55,76.65h-3.67l.61-8.78h3.6Zm22.61.79h-9l-1.44-3.35h3.74l-3-4.57h5.72l.86,1.22L190.61,66h-3.53l-1.37,2.52h-5.65l.5,8.17h-3.64l-.58-8.78h3.46l.61-1h-4.72V77.45h-5.94V66.83h-4.82V63.41h4.82V61.1H165.2v-15h15V51.6l3-5.87h6.08l-.83,1.76h7.67v4L191.26,61h-1.55l-.79,1.51h7.6v4.54ZM170.2,49.51h-1.73V52h1.73Zm0,5.62h-1.73v2.48h1.73Zm6.73-5.62H175.2V52h1.73Zm0,5.62H175.2v2.48h1.73Zm9.72-4.21-.9,1.76h-5.58V61.1h-4.46v2.3h4.86v3.1L183.38,61h-1.62l-1.33-3.42h2.34l-1.51-3.78h5.15l.9,2.05,2.63-5Z"/><path class="cls-8" d="M211.39,57.22l-.76-8.35L207.71,58h1.37V77.45h-6.73V59.88h-2.27l4.57-14.29h7l-.54,1.66h5l.86,10ZM224.74,70.1v7.34H217.9V70.1h-8V66.58h8V62.15h-7.31V58.66h7.31V45.59h6.84V58.66H232v3.49h-7.24v4.43H233V70.1Zm6.7-12.89h-5.79l1.19-10h5.79Z"/><path class="cls-8" d="M261.78,77.34l-1.73-3.49h2.59V54.55H261V71.4l-2.7,5.94h-6.37l.61-1.48-15.59,1.26V73.7l1.15-.11V46.13h14.76V72.34l1.26-.11.9-1.76V54.55h-1.37V51H255V45.63h6V51h7.49V77.34Zm-15-27.64h-2.7v5.4h2.7Zm0,8.82h-2.7v5.4h2.7Zm0,8.89h-2.7v5.69l2.7-.22Z"/><path class="cls-8" d="M280,58.22h1.55V77.45h-6.73V59.92h-2.34L277,45.84h7.05Zm18.21-.47v-5h-7.59l-1.94,5.76H282l4.25-12.71h6.66l-1.08,3.31h12.63v8.6Zm-9.25,19.69-1.08-2.05h-5.76L284,60.13h6l-1.66,13.71h2.23V55.13H297V77.45Zm10.4-2.05-1.62-15.26h6l1.69,15.26Z"/><path class="cls-8" d="M339.69,77.41H320.57l-4-1.94-1.12,1.94h-6.73l3-5.65v-5h-2.52V63.48l2.56-6.08h-3.06V53.94H318v4.14l-2.16,5.22h2.2v9l3.56,1.73H341.2Zm-28-24.55-2.77-7.05h7l2.77,7.05Zm22.89,20.09-1.22-3.38h1.87v-2H333v5h-6.33v-5h-2.16V72.8h-5V53.55h5.62l-3.74-3.17h7.31l1,.83,2.45-1.69H320.18V46.13h19.4v3.46l-5.51,4h6.12v19.4Zm-7.85-16h-2.16v2.12h2.16Zm0,5.33h-2.16v2.16h2.16Zm8.5-5.33H333v2.12h2.16Zm0,5.33H333v2.16h2.16Z"/><path class="cls-8" d="M375.29,77.37H354.74l-1.87-1.94-1.12,1.94h-7.09l3.28-5.65V66.43h-2.77V63.08L348,57.29H344.8V53.83h9.29v3.92l-2.41,5.15h2.52v9.32L356,74h21.31ZM347.75,52.72l-3-7.06h6.88l3,7.06Zm20.7,20.19-.79-1.76h-5.58V61.5h7.63v8.13h1V60.06H361V72.91h-5.8V56.78h1V46.06h19.11V56.78h1.26V72.91Zm1.12-23.47h-7.45v7.34h1.48V50.92h6Zm-3.1,15.12h-1.08V68h1.08Zm3.1-10.44h-1.44v2.66h1.44Z"/><path class="cls-8" d="M412.08,77.48h-7.52l-2.12-23.11h-9.07V51.82h-12.6V48.47h3l-.58-2.66h6.77l.61,2.66h3V51h8.64l-.58-5.22h6.37l.5,5.22h4.36v3.35h-4L410.57,74h2.77Zm-30.67,0V64h11.45v13.5ZM381.52,57V53.65h11.23V57Zm0,5.11V58.77h11.23v3.31Zm6.3,5.33h-1.44v6.7h1.44Zm5.8,9.65V73.63l1.62-.43V61.86h-1.55V58.51h8.57v3.35h-1.51v9.86l2.63-.58v3.38Zm15.69-27-.32-3.6h3.28l.36,3.6Z"/><path class="cls-8" d="M433.86,77.45h-5.25l.22-1.58h-4.25l-.86-3.2-1.37,4.79h-5.83l3.46-13V45.7h5.65V64.16h1.3L429.29,73l.79-5.22h5.18Zm-16.74-16L416.8,48.9h2.34l.25,12.56ZM442,51.67v2h6.33v13H442V77.45h-6.16V66.68h-6.37v-13h6.37v-2h-7.06l-.22,9.79h-2.27l.25-12.6h2v-.61h7.27V45.7H442v2.55h6.88v3.42Zm-5.26,5.4H434V63.3h2.7Zm-1.91,5.25L434.48,58H436l.32,4.32Zm9-5.25H441.1V63.3h2.66Zm-.83,5.25h-1.51l.43-4.32h1.48ZM444,77.45l-1.55-9.68h5.18l1.51,9.68Z"/></svg>