<svg id="圖層_1" data-name="圖層 1" xmlns="https://www.w3.org/2000/svg" xmlns:xlink="https://www.w3.org/1999/xlink" viewBox="0 0 578.61 125.92"><defs><style>.cls-1{fill:none;}.cls-2{clip-path:url(#clip-path);}.cls-3,.cls-5{opacity:0.2;}.cls-4{fill:#c0e0e2;}.cls-5{fill:#b0d0d1;}.cls-6{clip-path:url(#clip-path-2);}.cls-7{fill:#86747b;}.cls-8{fill:#735378;}.cls-9{fill:#bdbdbd;}.cls-10{fill:#e0e0e0;}.cls-11{fill:#eee;}.cls-12{fill:#fafafa;}.cls-13{fill:#f29826;}</style><clipPath id="clip-path"><rect class="cls-1" x="-2169.69" y="-627.63" width="1987" height="691"/></clipPath><clipPath id="clip-path-2"><rect class="cls-1" x="840.31" y="-623.63" width="1987" height="691"/></clipPath></defs><title>title_js_online</title><g class="cls-2"><g class="cls-3"><path class="cls-4" d="M54.29-398.35c-5.85-86.35-86.35-68.78-128.79-16.1-13.17-48.3-74.64,14.64-84.88,33.66-19-19-29.27-30.73-61.47-24.89S-260.36-372-282.32-355.9c-16.1-45.37-46.83-70.25-92.2-41,1.46-29.27-26.35-61.46-51.22-32.2,0-38.05-43.91-43.9-71.72-33.66-29.27,11.71-49.76,43.91-60,71.71-8.78-46.83-98.06-43.91-83.42,8.78-10.24-29.27-54.15-4.39-51.23,23.42-16.1-27.81-42.44-52.68-77.56-48.3s-57.08,22-55.62,58.54c-10.24-22-19-46.83-45.36-49.76-23.42-2.93-55.62,19-55.62,42.45-20.49-32.2-82-4.39-99.52,22-4.39-17.56,2.92-41-11.71-55.61s-39.52-7.32-49.76,11.71c4.39-30.73-7.32-51.22-41-46.83-21.63,3.61-48.18,20-65.9,35.52-5.42-17.49-17.74-27.26-40.58-9.18-5.86-86.35-86.34-68.78-128.79-16.1-13.17-48.3-74.64,14.64-84.88,33.66-19-19-29.27-30.73-61.47-24.89s-39.51,33.66-61.47,49.77c-16.1-45.37-46.83-70.25-92.2-41,1.46-29.27-26.34-61.46-51.22-32.2,0-38.05-43.91-43.9-71.71-33.66-29.27,11.71-49.76,43.91-60,71.71-8.78-46.83-98.05-43.91-83.42,8.78-10.24-29.27-54.15-4.39-51.22,23.42-16.1-27.81-42.44-52.68-77.56-48.3s-57.08,22-55.62,58.54c-10.25-22-19-46.83-45.37-49.76-23.42-2.93-55.62,19-55.62,42.45-20.49-32.2-82-4.39-99.52,22-4.39-17.56,2.93-41-11.71-55.61s-39.51-7.32-49.76,11.71c4.39-30.73-7.32-51.22-41-46.83-26.34,4.39-60,27.8-76.1,45.37V56.8H98.2s-7.67-310.63,0-414.17C99.67-388.1,89.42-426.15,54.29-398.35Z"/></g><path class="cls-5" d="M-21.12-269.29C-37-314.94-125.32-386.69-172.89-375.82s-81.54,32.61-79.28,116.18c-43-44.7-106.47-7.48-145,27.31-40.78-43.49-90.61-17.39-108.73,4.34-4.53-30.43-24.92-63-92.88-63s-158.57,80.3-158.57,80.3S-746-234.51-775.44-241s-58.89,30.3-58.89,30.3-4.54-47.69-43-48.91-79.28,48.91-79.28,48.91,22.65-71.61-13.59-73.78S-1045-259.64-1045-259.64s0-44.43-63.43-48.78c-31.42-2.15-56.15,21.79-73.13,46.51-47.68-63.65-115.63-60.2-126.21-7.38-15.86-45.65-104.2-117.39-151.77-106.53s-81.55,32.61-79.28,116.18c-43-44.7-106.47-7.48-145,27.31-40.77-43.49-90.61-17.39-108.73,4.34-4.53-30.43-24.92-63-92.87-63S-2044-210.73-2044-210.73s11.33-23.78-18.12-30.3-58.89,30.3-58.89,30.3-4.53-47.69-43-48.91-79.28,48.91-79.28,48.91,22.65-71.61-13.59-73.78-74.75,24.87-74.75,24.87,0-44.43-63.43-48.78-99.67,97.7-99.67,97.7v574.1H94.41V-200.12C95.62-282.32-9.79-325.82-21.12-269.29Z"/></g><g class="cls-6"><g class="cls-3"><path class="cls-4" d="M3064.29-394.35c-5.85-86.35-86.35-68.78-128.79-16.1-13.17-48.3-74.64,14.64-84.88,33.66-19-19-29.27-30.73-61.47-24.89s-39.51,33.66-61.47,49.77c-16.1-45.37-46.83-70.25-92.2-41,1.46-29.27-26.35-61.46-51.22-32.2,0-38.05-43.91-43.9-71.72-33.66-29.27,11.71-49.76,43.91-60,71.71-8.78-46.83-98.06-43.91-83.42,8.78-10.24-29.27-54.15-4.39-51.23,23.42-16.1-27.81-42.44-52.68-77.56-48.3s-57.08,22-55.62,58.54c-10.24-22-19-46.83-45.36-49.76-23.42-2.93-55.62,19-55.62,42.45-20.49-32.2-82-4.39-99.52,22-4.39-17.56,2.92-41-11.71-55.61s-39.52-7.32-49.76,11.71c4.39-30.73-7.32-51.22-41-46.83-21.63,3.61-48.18,20-65.9,35.52-5.42-17.49-17.74-27.26-40.58-9.18-5.86-86.35-86.34-68.78-128.79-16.1-13.17-48.3-74.64,14.64-84.88,33.66-19-19-29.27-30.73-61.47-24.89s-39.51,33.66-61.47,49.77c-16.1-45.37-46.83-70.25-92.2-41,1.46-29.27-26.34-61.46-51.22-32.2,0-38.05-43.91-43.9-71.71-33.66-29.27,11.71-49.76,43.91-60,71.71-8.78-46.83-98.05-43.91-83.42,8.78-10.24-29.27-54.15-4.39-51.22,23.42-16.1-27.81-42.44-52.68-77.56-48.3s-57.08,22-55.62,58.54c-10.25-22-19-46.83-45.37-49.76-23.42-2.93-55.62,19-55.62,42.45-20.49-32.2-82-4.39-99.52,22-4.39-17.56,2.93-41-11.71-55.61s-39.51-7.32-49.76,11.71c4.39-30.73-7.32-51.22-41-46.83-26.34,4.39-60,27.8-76.1,45.37V60.8H3108.2s-7.67-310.63,0-414.17C3109.67-384.1,3099.42-422.15,3064.29-394.35Z"/></g><path class="cls-5" d="M2988.88-265.29c-15.86-45.65-104.2-117.39-151.77-106.53s-81.54,32.61-79.28,116.18c-43-44.7-106.47-7.48-145,27.31-40.78-43.49-90.61-17.39-108.73,4.34-4.53-30.43-24.92-63-92.88-63s-158.57,80.3-158.57,80.3,11.33-23.78-18.12-30.3-58.89,30.3-58.89,30.3-4.54-47.69-43-48.91-79.28,48.91-79.28,48.91,22.65-71.61-13.59-73.78S1965-255.64,1965-255.64s0-44.43-63.43-48.78c-31.42-2.15-56.15,21.79-73.13,46.51-47.68-63.65-115.63-60.2-126.21-7.38-15.86-45.65-104.2-117.39-151.77-106.53s-81.55,32.61-79.28,116.18c-43-44.7-106.47-7.48-145,27.31-40.77-43.49-90.61-17.39-108.73,4.34-4.53-30.43-24.92-63-92.87-63S966-206.73,966-206.73s11.33-23.78-18.12-30.3S889-206.73,889-206.73s-4.53-47.69-43-48.91-79.28,48.91-79.28,48.91,22.65-71.61-13.59-73.78-74.75,24.87-74.75,24.87,0-44.43-63.43-48.78-99.67,97.7-99.67,97.7v574.1H3104.41V-196.12C3105.62-278.32,3000.21-321.82,2988.88-265.29Z"/></g><path class="cls-7" d="M565.52,125.92a4.38,4.38,0,0,0,4.38-4.38c0-2.42-2-13.1-4.38-13.1s-4.38,10.68-4.38,13.1A4.38,4.38,0,0,0,565.52,125.92Z"/><rect class="cls-8" x="539.37" y="84.4" width="52.3" height="7.16" transform="translate(477.54 653.5) rotate(-90)"/><path class="cls-9" d="M571.74,114.13a1.17,1.17,0,0,1-1.17,1.17h-10.1a1.17,1.17,0,0,1,0-2.34h10.1A1.17,1.17,0,0,1,571.74,114.13Z"/><path class="cls-7" d="M565.52,0a4.38,4.38,0,0,1,4.38,4.38c0,2.42-2,13.1-4.38,13.1s-4.38-10.68-4.38-13.1A4.38,4.38,0,0,1,565.52,0Z"/><rect class="cls-10" x="268.58" y="-197.24" width="37.87" height="556" transform="translate(368.28 -206.75) rotate(90)"/><rect class="cls-11" x="268.58" y="-235.1" width="37.87" height="556" transform="translate(330.42 -244.62) rotate(90)"/><rect class="cls-8" x="539.37" y="32.1" width="52.3" height="7.16" transform="translate(601.2 -529.83) rotate(90)"/><rect class="cls-12" x="553.58" y="19.63" width="23.87" height="84.41"/><path class="cls-13" d="M578.61,20.61v1.7H552.42v-1.7a2.39,2.39,0,0,1,2.39-2.39h21.42A2.39,2.39,0,0,1,578.61,20.61Z"/><rect class="cls-11" x="553.58" y="61.83" width="23.87" height="42.21"/><path class="cls-10" d="M571.74,9.54a1.17,1.17,0,0,0-1.17-1.17h-10.1a1.17,1.17,0,0,0,0,2.34h10.1A1.17,1.17,0,0,0,571.74,9.54Z"/><path class="cls-13" d="M578.61,103.05v-1.7H552.42v1.7a2.39,2.39,0,0,0,2.39,2.39h21.42A2.39,2.39,0,0,0,578.61,103.05Z"/><path class="cls-7" d="M13.1,125.83a4.38,4.38,0,0,0,4.38-4.38c0-2.42-2-13.1-4.38-13.1S8.71,119,8.71,121.45A4.38,4.38,0,0,0,13.1,125.83Z"/><rect class="cls-8" x="-13.05" y="84.4" width="52.3" height="7.16" transform="translate(-74.88 101.08) rotate(-90)"/><path class="cls-9" d="M19.32,114.13a1.17,1.17,0,0,1-1.17,1.17H8A1.17,1.17,0,0,1,8,113h10.1A1.17,1.17,0,0,1,19.32,114.13Z"/><path class="cls-7" d="M13.1,0a4.38,4.38,0,0,1,4.38,4.38c0,2.42-2,13.1-4.38,13.1S8.71,6.8,8.71,4.38A4.38,4.38,0,0,1,13.1,0Z"/><rect class="cls-8" x="-13.05" y="32.1" width="52.3" height="7.16" transform="translate(48.78 22.59) rotate(90)"/><rect class="cls-12" x="1.16" y="19.63" width="23.87" height="84.41"/><path class="cls-13" d="M26.19,20.61v1.7H0v-1.7a2.39,2.39,0,0,1,2.39-2.39H23.81A2.39,2.39,0,0,1,26.19,20.61Z"/><rect class="cls-11" x="1.16" y="61.83" width="23.87" height="42.21"/><path class="cls-10" d="M19.32,9.54a1.17,1.17,0,0,0-1.17-1.17H8a1.17,1.17,0,0,0,0,2.34h10.1A1.17,1.17,0,0,0,19.32,9.54Z"/><path class="cls-13" d="M26.19,103.05v-1.7H0v1.7a2.39,2.39,0,0,0,2.39,2.39H23.81A2.39,2.39,0,0,0,26.19,103.05Z"/><path class="cls-8" d="M59.19,52.72h5.15v3l-3.24,4.1h3.2v6.37H52.72v-4l4.71-5.83H52.75V52.65l5.36-6.84h6.52ZM52.86,77.37v-10h3.35v10Zm4.25,0v-10h3.17v10ZM60.78,60.2l-2.16,2.74h2.16Zm17,2.12v15H70.21l-1.33-3.13-.72,2.38h-4.1v.76H61.21v-10h2.84v6.8l2-6.62H64.92V64.24h5.76v3.89L68.95,74H71.4V62.33H65.57V48h4l1-2.27h7L76.76,48h6.91V62.33Zm-.29-10.8H71.65v1.94h5.87Zm0,5.36H71.65v2h5.87Zm2.34,19.8L78.24,70h4.9l1.58,6.7ZM83.2,69H78.38l1.37-5.58h4.79Z"/><path class="cls-8" d="M88.43,77.52V73.81H98.9v-28h7.24V55.85h13.14v3.67H106.14V73.81h14.29v3.71Z"/><path class="cls-8" d="M131.23,60.1V77.23H125V46h14.72V60.1Zm2.7-10.76h-2.7v2.2h2.7Zm0,5.29h-2.7v2.16h2.7Zm14,22.79-1.15-3H132.92V61.82h15V74h1.62V60.1h-8.5V46h14.79V77.41ZM142.1,65h-3.28v6.16h3.28Zm7.49-15.69h-2.74v2.2h2.74Zm0,5.29h-2.74v2.16h2.74Z"/><path class="cls-8" d="M185.19,65.6l-.76-1.22H168.35l-.79,1.22h-7.34l6.51-10.51H186l6.8,10.51ZM174.65,51l.65,3.17h-6L168.63,51h-.68l-1.12,3.17h-6.59l3.06-8.35h6.51l-.65,1.8h7.16V51ZM162.59,77.41V66.68h27.82V77.41Zm21.13-7.49H169.17V74.1h14.54Zm-3.09-11.41h-8.53l-1.66,2.66h12ZM190.34,51l.65,3.17H184.8L184.11,51h-.76l-1.12,3.17h-6.62l3.1-8.35h6.41l-.61,1.8h7.41V51Z"/><path class="cls-8" d="M212.12,69.67h-2.45l3.53-5.44h-4.46V57h7.13v6.91Z"/><path class="cls-8" d="M260.07,72.41v5h-6.19v-5h-4.32V69.1h4.32v-3.2H252.3L252,67.8h-3.24v9.61h-7L240.2,74h3.35V70h-5v3.24l-1.12,4.17h-5.51L233.29,72V55.2H232.1l3.28-9.47h6l-.61,1.94h6.62v3l-1.19,3.2h2.48v3.74l2.3-8.13h-2.59V46h15.33V58.58h-6.44l-1.51-3.49H258V49.44h-1.22l-2.27,9.14h-5.76v8.6l1.15-6.7h3.2l-.29,2h1.08V59.38h6.19v3.13h3.67v3.38h-3.67v3.2h4.46v3.31ZM239.63,57.29h-1.08v3.06h1.08Zm0,6.3h-1.08v3.13h1.08ZM239.7,51l-.94,2.81h1.73l.9-2.81Zm3.85,6.26h-1.12v3.06h1.12Zm0,6.3h-1.12v3.13h1.12Z"/><path class="cls-8" d="M274.51,77.45h-6.59l2.77-13.64h6.55Zm-3.74-23.9L268,45.63h6.77l2.77,7.92Zm.22,9.11-2.92-8.13h6.8l2.88,8.13Zm22.68,14.79L288.3,69l-5,8.46h-7.41l7.52-12.78h-5.29V61.18h6.23V54.23h-5.8V50.59h5.8V45.7h6.48v4.89h8.31V61.18h1.33v3.49h-9.68l-.61,1.08h3.56L301,77.45Zm-.22-23.22h-2.63v6.95h2.63Z"/><path class="cls-8" d="M335.67,77.48h-7.52L326,54.37H317V51.82h-12.6V48.47h3l-.58-2.66h6.77l.61,2.66h3V51h8.64l-.58-5.22h6.37L332,51h4.36v3.35h-4L334.16,74h2.77Zm-30.67,0V64h11.45v13.5ZM305.11,57V53.65h11.23V57Zm0,5.11V58.77h11.23v3.31Zm6.3,5.33H310v6.7h1.44Zm5.79,9.65V73.63l1.62-.43V61.86h-1.55V58.51h8.57v3.35h-1.51v9.86l2.63-.58v3.38ZM332.9,50l-.32-3.6h3.28l.36,3.6Z"/><path class="cls-8" d="M357.45,77.45H352.2l.22-1.58h-4.25l-.86-3.2-1.37,4.79H340.1l3.46-13V45.7h5.65V64.16h1.3L352.88,73l.79-5.22h5.18Zm-16.74-16-.32-12.56h2.34L343,61.46Zm24.84-9.79v2h6.34v13h-6.34V77.45H359.4V66.68H353v-13h6.37v-2h-7.06l-.22,9.79h-2.27l.25-12.6h2v-.61h7.27V45.7h6.15v2.55h6.88v3.42Zm-5.25,5.4h-2.7V63.3h2.7Zm-1.91,5.25L358.07,58h1.51l.32,4.32Zm9-5.25h-2.66V63.3h2.66Zm-.83,5.25H365l.43-4.32h1.48Zm1.08,15.12-1.55-9.68h5.18l1.51,9.68Z"/><path class="cls-8" d="M395.9,70v7.45h-7V70H377.18V50.92h11.73V45.63h7v5.29h11.81V70Zm-7-15.66h-5v12.2h5Zm12,0h-5v12.2h5Z"/><path class="cls-8" d="M433,77.52l-1.48-3.64h6.12V53.22h-3L433.56,57h-6.12V77.52H412.9V49.66h3l1.15-4h6.7l-1.19,4h4.93v5.87l3-9.9h6.44l-1.19,4.07h8.35V77.52Zm-11.41-24.3h-3v8.35h3Zm0,11.84h-3v8.78h3Zm9.25,5.51L427.94,58h6.3l2.92,12.53Z"/><path class="cls-8" d="M478.2,54.3v4.14H480v3.38H478.2v4.1H480v3.35H478.2v4.86h2.34v3.35h-21l-2.38-2.84-2.37,2.84h-6.95l4.57-5.58h-3.92V69h5.36V67.8h-4.75v-3h4.75V63.62h-4.72V56h4.72V54.7h-3.64V50.56h-1.76V47.43h1.76V45.48h5.58v1.94h2.34V45.48h5.58v1.94h1.8v3.13h-1.8V54.7h-4V56h4.9l2.2-10.33h5.4L471,50.88h2.09l-.68-5.25h5.51l.72,5.25h1.94V54.3Zm-24.37,4.43h-1.37v2h1.37Zm4.28-8.17h-2.34V52h2.34Zm7.59,7h-1.19v6.08h-4.86v1.22h4.9v3h-4.9V69h5.43V71.9h-5.72l-.72.9H462L465.7,77ZM461,58.73h-1.37v2H461Zm11.81-4.43h-1.51v4.14h1.51Zm0,7.52h-1.51v4.1h1.51Zm0,7.45h-1.51v4.86h1.51Z"/><path class="cls-8" d="M515.56,77.45h-23l-3.35-2.7-.32,2.7H484l1.37-11.88h4.86l-.58,5.08,1.62,1.4V64h-6.95V60.6h16.16V64h-3.24v3.06h3.28v3.24h-3.28V74.1h19.69ZM485.25,59.16V46.06h14.36v13.1Zm8.5-9.61h-2.66v1.51h2.66Zm0,4.79h-2.66v1.51h2.66Zm11.48,19h-5.9l2.84-4.82h6Zm6.23-23.9-.47,2h4.46V67.73H501.24V51.42h3.49l.43-2h-4.57V46.06h15.48v3.38Zm-1.8,5.25H507V56h2.63Zm0,4.14H507v1.33h2.63Zm0,4.25H507v1.37h2.63Zm1.4,10.26-2.37-4.82h5.9L517,73.34Z"/></svg>