<?xml version="1.0" encoding="UTF-8"?>
<svg width="600px" height="600px" viewBox="0 0 600 600" version="1.1" xmlns="https://www.w3.org/2000/svg" xmlns:xlink="https://www.w3.org/1999/xlink">
    <!-- Generator: Sketch 40.3 (33839) - https://www.bohemiancoding.com/sketch -->
    <title>online_learning</title>
    <desc>Created with Sketch.</desc>
    <defs>
        <rect id="path-1" x="0" y="0" width="74.997753" height="57.6012001"></rect>
        <rect id="path-3" x="12.8902388" y="11.0771539" width="46.8735956" height="79.7555078" rx="23.4367978"></rect>
        <mask id="mask-4" maskContentUnits="userSpaceOnUse" maskUnits="objectBoundingBox" x="0" y="0" width="46.8735956" height="79.7555078" fill="white">
            <use xlink:href="#path-3"></use>
        </mask>
    </defs>
    <g id="Page-1" stroke="none" stroke-width="1" fill="none" fill-rule="evenodd">
        <g id="online_learning">
            <path d="M515.410881,422.942307 L81.6508929,422.942307 C77.4254524,422.942307 74,419.514803 74,415.286832 L74,124.655474 C74,120.427504 77.4254524,117 81.6508929,117 L515.410881,117 C519.636321,117 523.061774,120.427504 523.061774,124.655474 L523.061774,415.286832 C523.061774,419.514803 519.636321,422.942307 515.410881,422.942307 L515.410881,422.942307 Z" id="Stroke-1" stroke="#4A4A4A" stroke-width="4"></path>
            <path d="M81.6508929,117 L515.410881,117 C519.636321,117 523.061774,120.427504 523.061774,124.655474 L523.061774,382.051328 L74,382.051328 L74,124.655474 C74,120.427504 77.4254524,117 81.6508929,117 L81.6508929,117 Z" id="Stroke-3" stroke="#4A4A4A" stroke-width="4"></path>
            <polygon id="Stroke-5" stroke="#4A4A4A" stroke-width="4" points="356.240095 471.674102 240.440476 471.674102 254.206714 423.218978 342.476542 423.218978"></polygon>
            <polygon id="Stroke-7" stroke="#4A4A4A" stroke-width="4" points="221.64881 482.789314 373.756613 482.789314 373.756613 471.569343 221.64881 471.569343"></polygon>
            <polygon id="Stroke-9" stroke="#4A4A4A" stroke-width="4" fill="#4A4A4A" points="92.7916667 366.544292 506.643226 366.544292 506.643226 135.80292 92.7916667 135.80292"></polygon>
            <polygon id="Triangle" fill="#50E3C2" points="267 282 267 217 332 249.5"></polygon>
            <rect id="Rectangle" fill="#D8D8D8" x="108" y="342.879496" width="5" height="15.120504"></rect>
            <rect id="Rectangle-Copy" fill="#D8D8D8" x="118" y="342.879496" width="5" height="15.120504"></rect>
            <rect id="Rectangle-2" fill="#D8D8D8" x="130" y="349" width="363" height="3"></rect>
            <rect id="Rectangle-3" fill="#50E3C2" x="130" y="349" width="170" height="3"></rect>
            <g id="Group" transform="translate(421.000000, 371.000000)">
                <polygon id="Stroke-11" stroke="#4A4A4A" stroke-width="4" points="71.7825738 114.843 12.5402698 114.843 6.85425599 70.5402447 77.4685877 70.5402447"></polygon>
                <g id="Group-4" transform="translate(5.000000, 0.533522)">
                    <mask id="mask-2" fill="white">
                        <use xlink:href="#path-1"></use>
                    </mask>
                    <g id="Rectangle-5"></g>
                    <g id="Rectangle-4" mask="url(#mask-2)" stroke-width="6" stroke="#7ED321" fill="#B8E986">
                        <use mask="url(#mask-4)" xlink:href="#path-3"></use>
                    </g>
                    <path d="M7.03103934,55 L14.0620787,55" id="Stroke-12" stroke="#7ED321" stroke-width="3" stroke-linecap="round" stroke-linejoin="round" mask="url(#mask-2)"></path>
                    <path d="M7.03103934,42 L14.0620787,42" id="Stroke-13" stroke="#7ED321" stroke-width="3" stroke-linecap="round" stroke-linejoin="round" mask="url(#mask-2)"></path>
                    <path d="M7.03103934,28 L14.0620787,28" id="Stroke-14" stroke="#7ED321" stroke-width="3" stroke-linecap="round" stroke-linejoin="round" mask="url(#mask-2)"></path>
                    <path d="M56.2483147,50 L60.9356743,50" id="Stroke-15" stroke="#7ED321" stroke-width="3" stroke-linecap="round" stroke-linejoin="round" mask="url(#mask-2)"></path>
                    <path d="M56.2483147,33 L60.9356743,33" id="Stroke-16" stroke="#7ED321" stroke-width="3" stroke-linecap="round" stroke-linejoin="round" mask="url(#mask-2)"></path>
                    <path d="M56.2483147,22.3780662 L60.9825479,19.938877" id="Stroke-17" stroke="#7ED321" stroke-width="3" stroke-linecap="round" stroke-linejoin="round" mask="url(#mask-2)"></path>
                    <path d="M46.8735956,13.7511788 L48.3969875,8.86172309" id="Stroke-18" stroke="#7ED321" stroke-width="3" stroke-linecap="round" stroke-linejoin="round" mask="url(#mask-2)"></path>
                    <path d="M18.7494382,13.2925846 L22.2298027,17.1873119" id="Stroke-19" stroke="#7ED321" stroke-width="3" stroke-linecap="round" stroke-linejoin="round" mask="url(#mask-2)"></path>
                    <path d="M23.4367978,26.6344967 C24.0016246,26.4417543 24.723478,26.8383164 24.8078505,27.3988204 L24.8078505,27.5406079" id="Stroke-20" stroke="#7ED321" stroke-width="3" stroke-linecap="round" stroke-linejoin="round" mask="url(#mask-2)"></path>
                    <path d="M48.9688453,26.5851693 L46.8735956,28.9977734" id="Stroke-21" stroke="#7ED321" stroke-width="3" stroke-linecap="round" stroke-linejoin="round" mask="url(#mask-2)"></path>
                    <path d="M49.2172754,42.6691967 C49.9672529,42.4764542 50.7148868,42.2859272 51.4648643,42.0931847" id="Stroke-22" stroke="#7ED321" stroke-width="3" stroke-linecap="round" stroke-linejoin="round" mask="url(#mask-2)"></path>
                    <path d="M35.1551967,48.739477 C36.3551608,48.8458177 37.5082512,49.3620131 38.3566633,50.1728607" id="Stroke-23" stroke="#7ED321" stroke-width="3" stroke-linecap="round" stroke-linejoin="round" mask="url(#mask-2)"></path>
                    <path d="M35.1551967,37.6676939 C35.3731589,37.6189544 35.570028,37.9136067 35.4317509,38.079764" id="Stroke-24" stroke="#7ED321" stroke-width="3" stroke-linecap="round" stroke-linejoin="round" mask="url(#mask-2)"></path>
                    <path d="M16.4057585,35.4468924 C16.9002749,36.401743 17.8822767,37.1173272 18.9838062,37.3255777" id="Stroke-25" stroke="#7ED321" stroke-width="3" stroke-linecap="round" stroke-linejoin="round" mask="url(#mask-2)"></path>
                    <path d="M21.093118,53.6643796 C21.5993529,53.4118205 22.1501176,53.2434478 22.7149444,53.1703386" id="Stroke-26" stroke="#7ED321" stroke-width="3" stroke-linecap="round" stroke-linejoin="round" mask="url(#mask-2)"></path>
                    <path d="M61.8567405,58.4098323 C60.7317742,58.3123534 59.6232136,58.03764 58.5919945,57.6012001" id="Stroke-27" stroke="#7ED321" stroke-width="3" stroke-linecap="round" stroke-linejoin="round" mask="url(#mask-2)"></path>
                    <path d="M30.4678372,6.64629232 C30.7561098,8.34109686 31.0443824,10.0359014 31.3303113,11.7307059" id="Stroke-28" stroke="#7ED321" stroke-width="3" stroke-linecap="round" stroke-linejoin="round" mask="url(#mask-2)"></path>
                    <path d="M11.7183989,22.1543077 C12.3699419,22.2916644 12.9628929,22.6616414 13.3542874,23.1756213" id="Stroke-29" stroke="#7ED321" stroke-width="3" stroke-linecap="round" stroke-linejoin="round" mask="url(#mask-2)"></path>
                    <path d="M51.5609552,55.4225524 C52.7234204,55.3095654 53.911666,55.4579993 55.0014771,55.852346" id="Stroke-30" stroke="#7ED321" stroke-width="3" stroke-linecap="round" stroke-linejoin="round" mask="url(#mask-2)"></path>
                    <path d="M60.9356743,42.2150334 C61.3880045,42.2859272 61.8590841,42.243834 62.2879775,42.0931847" id="Stroke-31" stroke="#7ED321" stroke-width="3" stroke-linecap="round" stroke-linejoin="round" mask="url(#mask-2)"></path>
                    <path d="M60.9356743,26.7313877 C61.1841044,26.6826482 61.4348781,26.6339088 61.6833082,26.5851693" id="Stroke-32" stroke="#7ED321" stroke-width="3" stroke-linecap="round" stroke-linejoin="round" mask="url(#mask-2)"></path>
                    <path d="M9.37471912,37.6623232 C10.0754794,37.7996799 10.7762396,37.9348211 11.4769999,38.0721778" id="Stroke-33" stroke="#7ED321" stroke-width="3" stroke-linecap="round" stroke-linejoin="round" mask="url(#mask-2)"></path>
                </g>
                <polygon id="Stroke-10" stroke="#4A4A4A" stroke-width="4" points="0.933380757 70.2451467 82.152 70.2451467 82.152 58.5335221 0.933380757 58.5335221"></polygon>
            </g>
        </g>
    </g>
</svg>