<svg xmlns="http://www.w3.org/2000/svg" width="208.729" height="80.733" fill="none" display="block" overflow="visible" preserveAspectRatio="none" viewBox="0 0 208.729 80.733"><path stroke="#9ab4e2" d="M195.632.5v17.996h12.597V34.68h-12.597v22.108c0 2.5.405 4.34 1.156 5.576.684 1.056 2.146 1.685 4.642 1.685h6.799v14.026l-.351.11q-1.843.575-4.561 1.027-2.61.566-5.331.793h.001q-2.603.228-4.655.227-6.129.002-10.935-1.369l-.014-.004c-3.162-1.002-5.654-2.71-7.448-5.128-1.809-2.438-2.686-5.743-2.686-9.857V34.68h-8.323V18.496h9.34L178.002.87l.1-.37zm-71.808 16.646c6.802 0 12.76 1.172 17.861 3.53h.001c5.114 2.29 9.092 5.77 11.921 10.433 2.834 4.673 4.234 10.543 4.234 17.58 0 6.964-1.401 12.833-4.232 17.577l-.002.004c-2.828 4.662-6.804 8.178-11.915 10.542l-.006.002c-5.101 2.284-11.059 3.418-17.862 3.418-6.804 0-12.763-1.134-17.864-3.418l-.007-.003c-5.036-2.365-8.974-5.88-11.8-10.54l-.002-.005c-2.832-4.745-4.233-10.613-4.233-17.577 0-7.037 1.4-12.907 4.235-17.58 2.827-4.661 6.767-8.141 11.806-10.432 5.101-2.36 11.061-3.53 17.865-3.53Zm0 16.185c-2.561 0-4.597.512-6.143 1.496l-.006.003c-1.47.91-2.567 2.28-3.283 4.142l-.002.005c-.72 1.801-1.089 3.984-1.089 6.563v6.411c0 2.579.369 4.763 1.089 6.563.714 1.785 1.813 3.162 3.295 4.152 1.547.908 3.582 1.383 6.139 1.383 2.566 0 4.607-.478 6.156-1.393 1.551-.99 2.679-2.366 3.39-4.142.72-1.8 1.089-3.984 1.089-6.563V45.54c-.001-2.579-.369-4.762-1.089-6.563l-.003-.005c-.714-1.855-1.843-3.224-3.387-4.136l-.007-.005-.007-.004c-1.546-.984-3.581-1.496-6.142-1.496ZM22.374.5l.15.173 24.063 27.774.556.634a88 88 0 0 1 2.164 2.652 224 224 0 0 1 3.37 4.382q1.47 1.745 2.354 2.987a173 173 0 0 1-.093-5.597V.5h23.608v78.383h-21.76l-.15-.17-27.106-30.93-.005-.007a87 87 0 0 1-3.28-4.073l-.005-.006-.005-.006a251 251 0 0 0-2.213-3.086q.084 1.849.085 3.698v34.58H.5V.5z"/></svg>