<svg xmlns="http://www.w3.org/2000/svg" width="353.099" height="110.411" fill="none" display="block" overflow="visible" preserveAspectRatio="none" viewBox="0 0 353.099 110.411"><path stroke="#c9d8f0" d="M315.911.5q5.68 0 10.895.947 5.354.945 9.932 2.366 4.565 1.416 8.206 3.312 3.792 1.736 6.504 3.65l.358.252-.204.389-9.087 17.233-.228.433-.438-.219a227 227 0 0 1-4.554-2.355l-.009-.005-.01-.006a59 59 0 0 0-5.748-2.952l-.009-.004a40 40 0 0 0-6.189-2.32l-.007-.002q-3.07-.92-5.966-.92c-3.597 0-6.17.773-7.815 2.225l-.007.006-.007.005c-1.657 1.364-2.477 3.099-2.481 5.24.103 1.708.504 3.196 1.194 4.477.696 1.293 1.749 2.604 3.175 3.93 1.428 1.225 3.276 2.46 5.553 3.702q2.987 1.63 7.185 3.386l1.225.505.006.003q6.292 2.673 11.029 5.515c3.169 1.902 5.771 4.075 7.797 6.524l.392.463a24.9 24.9 0 0 1 4.402 7.849c1.067 3.092 1.594 6.648 1.594 10.66q.001 7.301-2.701 13.82a31.7 31.7 0 0 1-7.478 11.134q-4.936 4.776-11.916 7.471c-4.662 1.801-9.894 2.696-15.69 2.696q-6.155 0-11.846-1.105h-.003q-5.517-1.104-10.256-2.841-4.719-1.73-8.661-3.622l-.007-.004-.007-.004q-3.927-2.042-6.767-3.776l-.379-.232.185-.403 8.46-18.487.252-.55.493.352q1.074.768 4.045 2.644a125 125 0 0 0 6.698 3.582h-.001a98 98 0 0 0 7.623 3.11c2.574.927 4.865 1.38 6.881 1.38 4.326 0 7.353-.98 9.202-2.83 1.971-1.971 2.987-4.754 2.987-8.419 0-3.63-1.251-6.285-3.709-8.055l-.017-.013c-2.453-1.942-6.008-3.853-10.686-5.724l-.004-.002q-6.92-2.83-12.283-5.985-5.38-3.163-9.194-7.134l-.007-.008a30.5 30.5 0 0 1-5.733-8.919l-.005-.013c-1.28-3.306-1.914-7.13-1.914-11.46 0-4.767.954-9.025 2.876-12.761l.002-.005q3.02-5.725 7.954-9.706 4.931-4.135 11.283-6.2l.815-.269Q309.226.5 315.911.5ZM211.017 1.91l.133.29 18.352 39.607 18.812-39.612.136-.285h28.076l-.368.727-33.785 66.63v39.704H215.68V67.855L182.99 2.634l-.362-.724zm-57.952 0 .12.328L192.037 108.3l.246.672h-27.248l-.108-.354-7.725-25.183h-33.574l-8.035 25.189-.111.348H88.699l.257-.678L129.22 2.233l.122-.323zm-12.558 28.618a500 500 0 0 0-1.725 5.706l-.002.005a393 393 0 0 1-2.819 8.77 203 203 0 0 1-3.141 9.58q-1.452 4.502-2.905 8.733h21.157q-1.461-4.231-3.057-8.732l-.003-.01-.003-.009a547 547 0 0 0-3.131-9.704l-.002-.007-.003-.008a1275 1275 0 0 0-2.662-8.77l-.001-.004a262 262 0 0 0-1.703-5.55ZM35.936 1.597c8.922 0 16.613 1.364 23.06 4.11 6.54 2.637 11.935 6.388 16.169 11.258q6.341 7.296 9.345 17.417l.363 1.25q2.636 9.45 2.635 20.67.002 12.284-3.157 22.087l-.001-.001c-1.943 6.334-4.976 11.789-9.106 16.354l-.403.44c-4.237 4.555-9.633 8.042-16.172 10.467-6.544 2.428-14.282 3.635-23.203 3.635q-3.413 0-6.389-.089l-1.935-.068h-7.656q-2.945 0-6.153-.088l-2.168-.068H.5V1.911h5.494q4.084-.159 9.262-.158h10.653q5.637-.155 10.026-.156ZM34.838 20.77c-1.77 0-3.106.052-4.018.153l-.027.003H27.35v69.061q1.74.123 3.102.124h4.387c4.542 0 8.27-.774 11.207-2.294l.006-.003q4.578-2.29 7.323-6.56c1.84-2.861 3.177-6.351 4.003-10.48q1.243-6.367 1.244-14.159c0-12.075-2.02-21.044-5.986-26.981-3.943-5.902-9.848-8.864-17.797-8.864Z"/></svg>