<?xml version="1.0" encoding="UTF-8" standalone="no"?>
<svg width="940px" height="285px" viewBox="0 0 940 285" version="1.1" xmlns="https://www.w3.org/2000/svg" xmlns:xlink="https://www.w3.org/1999/xlink">
    <!-- Generator: Sketch 3.8.3 (29802) - https://www.bohemiancoding.com/sketch -->
    <title>cloud-front</title>
    <desc>Created with Sketch.</desc>
    <defs></defs>
    <g id="Page-1" stroke="none" stroke-width="1" fill="none" fill-rule="evenodd" stroke-opacity="0.601788949" fill-opacity="0.495584239">
        <g id="cloud-front" stroke="#A3B1B7" fill="#FAFAFA">
            <path d="M168.695054,81.4342228 C167.67699,78.919778 165.213474,77.1456478 162.334122,77.1456478 C162.13618,77.1456478 161.940863,77.1561488 161.747121,77.1724252 C160.260191,74.437461 157.555155,72.4606632 154.36025,71.9713204 C153.895059,71.5045546 153.363188,71.1049946 152.780387,70.7873418 C152.796663,70.5116927 152.807689,70.2344685 152.807689,69.954619 C152.807689,62.3750562 146.663077,56.230969 139.083514,56.230969 C135.160371,56.230969 131.624712,57.8796131 129.123393,60.5184939 C128.673954,60.4539132 128.214539,60.4187352 127.747248,60.4187352 C127.115618,60.4187352 126.498689,60.4812156 125.901187,60.5988259 C122.927327,53.8934646 116.635176,48.992686 109.106018,47.9772472 C103.386693,39.5423846 93.7232228,34 82.7649896,34 C65.2006286,34 50.9619086,48.2387201 50.9619086,65.803081 C50.9619086,66.8815253 51.0159883,67.9468435 51.1209975,68.9974603 C46.3373042,70.0948063 42.768042,74.3749806 42.768042,79.4910279 C42.768042,80.292773 42.8583499,81.0729913 43.0247895,81.824857 C41.6139911,82.328376 40.5565487,82.9642066 40,83.6787941 L43.6128409,83.6787941 L56.4586142,83.6787941 L61.9232921,83.6787941 L63.4622016,83.6787941 L90.1371592,83.6787941 L95.0169359,83.6787941 L101.556383,83.6787941 L109.071365,83.6787941 L120.747861,83.6787941 L122.197513,83.6787941 C122.200663,83.7013711 122.202763,83.723423 122.205913,83.746 C122.225865,83.7239481 122.244242,83.7008461 122.264194,83.6787941 L128.73696,83.6787941 L139.083514,83.6787941 L142.776162,83.6787941 L147.301533,83.6787941 L149.501475,83.6787941 L155.480173,83.6787941 L156.706155,83.6787941 L162.838692,83.6787941 L169.187547,83.6787941 L177.046959,83.6787941 C175.426142,82.5053165 172.351998,81.6500167 168.695054,81.4342228" id="cloud"></path>
            <path d="M458.998708,253.805996 C458.144366,251.695916 456.077025,250.207096 453.660722,250.207096 C453.494612,250.207096 453.330705,250.215909 453.16812,250.229567 C451.920314,247.934432 449.650293,246.275537 446.969184,245.864888 C446.578803,245.473186 446.132466,245.137883 445.643389,244.871314 C445.657048,244.639994 445.666301,244.407352 445.666301,244.172507 C445.666301,237.811866 440.509846,232.655852 434.149206,232.655852 C430.856971,232.655852 427.889905,234.039367 425.790841,236.253871 C425.413679,236.199676 425.028146,236.170155 424.636003,236.170155 C424.10595,236.170155 423.588233,236.222587 423.08682,236.321284 C420.591207,230.694258 415.310941,226.581608 408.992599,225.729469 C404.193038,218.651075 396.083618,214 386.887654,214 C372.14794,214 360.199048,225.948893 360.199048,240.688607 C360.199048,241.593619 360.244431,242.487616 360.332553,243.369275 C356.318158,244.29015 353.322894,247.881999 353.322894,252.1753 C353.322894,252.84811 353.398679,253.502856 353.538352,254.133809 C352.354434,254.556354 351.467046,255.089932 351,255.689602 L354.031835,255.689602 L364.81179,255.689602 L369.397655,255.689602 L370.689082,255.689602 L393.074254,255.689602 L397.16928,255.689602 L402.657073,255.689602 L408.963519,255.689602 L418.762236,255.689602 L419.978759,255.689602 C419.981403,255.708548 419.983165,255.727054 419.985809,255.746 C420.002552,255.727494 420.017974,255.708108 420.034717,255.689602 L425.466552,255.689602 L434.149206,255.689602 L437.248013,255.689602 L441.045628,255.689602 L442.891782,255.689602 L447.909004,255.689602 L448.937827,255.689602 L454.084148,255.689602 L459.411999,255.689602 L466.007485,255.689602 C464.647323,254.704839 462.067554,253.987086 458.998708,253.805996" id="Fill-1-Copy-2"></path>
            <path d="M776.998708,140.805996 C776.144366,138.695916 774.077025,137.207096 771.660722,137.207096 C771.494612,137.207096 771.330705,137.215909 771.16812,137.229567 C769.920314,134.934432 767.650293,133.275537 764.969184,132.864888 C764.578803,132.473186 764.132466,132.137883 763.643389,131.871314 C763.657048,131.639994 763.666301,131.407352 763.666301,131.172507 C763.666301,124.811866 758.509846,119.655852 752.149206,119.655852 C748.856971,119.655852 745.889905,121.039367 743.790841,123.253871 C743.413679,123.199676 743.028146,123.170155 742.636003,123.170155 C742.10595,123.170155 741.588233,123.222587 741.08682,123.321284 C738.591207,117.694258 733.310941,113.581608 726.992599,112.729469 C722.193038,105.651075 714.083618,101 704.887654,101 C690.14794,101 678.199048,112.948893 678.199048,127.688607 C678.199048,128.593619 678.244431,129.487616 678.332553,130.369275 C674.318158,131.29015 671.322894,134.881999 671.322894,139.1753 C671.322894,139.84811 671.398679,140.502856 671.538352,141.133809 C670.354434,141.556354 669.467046,142.089932 669,142.689602 L672.031835,142.689602 L682.81179,142.689602 L687.397655,142.689602 L688.689082,142.689602 L711.074254,142.689602 L715.16928,142.689602 L720.657073,142.689602 L726.963519,142.689602 L736.762236,142.689602 L737.978759,142.689602 C737.981403,142.708548 737.983165,142.727054 737.985809,142.746 C738.002552,142.727494 738.017974,142.708108 738.034717,142.689602 L743.466552,142.689602 L752.149206,142.689602 L755.248013,142.689602 L759.045628,142.689602 L760.891782,142.689602 L765.909004,142.689602 L766.937827,142.689602 L772.084148,142.689602 L777.411999,142.689602 L784.007485,142.689602 C782.647323,141.704839 780.067554,140.987086 776.998708,140.805996" id="Fill-1-Copy-4"></path>
        </g>
    </g>
</svg>