<svg xmlns="http://www.w3.org/2000/svg" viewBox="0 0 826.19 119.2"><defs><style>.a{fill:#fff;}.b{fill:#45b6dc;}</style></defs><title>資產 4</title><path class="a" d="M25.83,72.41l2.4-19.29H9.17L9.05,42.28l21.23-.46L33.82,20l14.27-.91L44.21,40.34H57.44a16.24,16.24,0,0,1,.29-2.23q.28-1.65.74-3.94t1-4.79q.57-2.51,1.08-4.74t1-3.71c.3-1,.49-1.6.57-1.83l10.5.57L69.88,40.34H84.26V52.21H68.06a25.78,25.78,0,0,0-.91,4.62q-.46,3.37-1,9Q66,67,65.89,67.9c-.08.57-.15,1-.23,1.43a5.45,5.45,0,0,1-.11,1.25L81.64,70c0,.08,0,.38.11.91a21.27,21.27,0,0,1,.11,2.63A42.88,42.88,0,0,1,81.18,82H63.38l-4,31.27-11.75-.91,3.08-29.56A19.24,19.24,0,0,0,48,82.68q-1.48,0-3.88.17l-5.71.4L33,112.35H20.24q.11-1.83.57-6t1.6-10.78q.68-4,1.2-7t.74-4.91q-4,0-8.33.17t-9,.4V73Zm13.92-1,12.67-.68,2.74-19.06H42.84Z"/><path class="a" d="M95,112.12l.8-1.26a57.14,57.14,0,0,0,4.17-8.1q2-4.68,3.6-9.76t2.74-10a82.26,82.26,0,0,0,1.6-9q.45-4.45.8-11.18T109,49.58V42.51l-6,.23H97l-.23-3.65q-.11-1.48-.23-3.2t-.11-2.74l-.11-2.4L109,30.41l.34-19.74h1q.57,0,2.11-.17a30.58,30.58,0,0,1,3.37-.17l3.88-.23q1.94-.11,3.31-.11h2.74l-.11,9.47-.23,9.24.68.11q.68.11,3.08.23l6.5.34q8.1.34,11.18.34h1l-.34,4.91q0,1.14-.06,3.94t-.06,6.68q0,3.88-.06,8.62t-.06,9.87v9.7q0,4.57-.06,8t-.11,5.82a29,29,0,0,1-.17,3q0,1-.17,3.42t-.29,4.91a56.71,56.71,0,0,1-1,9.93,8.34,8.34,0,0,1-2.34,4.57,8.09,8.09,0,0,1-3.59,2.11,32.64,32.64,0,0,1-5,1.14,42.29,42.29,0,0,1-5.25.46q-2.57.06-4.28.06h-1l-.34-3.42q-.11-1.6-.23-3.31t-.11-2.85v-2.62l1.94-.11a6.45,6.45,0,0,1,1.77-.23h1.65a2.37,2.37,0,0,0,3-1.94q.23-1.14.46-3.88t.34-7.19q0-3.65.17-7.42t.29-6.16q0-2.4.17-5.88t.17-6.45q.23-3.08.29-7.25t.29-7.47Q134,47.3,134,45V42.51c0-.23-.3-.36-.91-.4s-1.83-.06-3.65-.06l-4.68.11-.11,8.22q-.11,6.16-.34,11.13t-.63,9q-.4,4.05-.91,7.36t-1.08,6q-.34,1.6-.74,3.54T120.21,91a98.15,98.15,0,0,1-3.65,13.12A38.75,38.75,0,0,1,110.06,116q-1.71,2.06-2.23,2.57a1.47,1.47,0,0,1-1.31.4,10.61,10.61,0,0,1-5-1.6A25.22,25.22,0,0,1,96,113.15Zm56.83-91.19.91-.11q1.94-.23,7.19-.4t13.92.06q8.67.23,13.81.4t7,.4a1.54,1.54,0,0,1,1,1,19.55,19.55,0,0,1,.63,3.48q.11,2.28.11,9t.11,17.8q.11,11.07.06,18.37t-.17,11q-.11,1-.11,5.25v9.7L196,109.5l-8.33.23q-3.65,0-7.42.23t-5.93.46q-2.4.23-5.48.34l-6.73.23a56.55,56.55,0,0,1-8.67-.23,10.23,10.23,0,0,1-.29-3.2q-.06-3-.06-7.3T153,91q-.06-4.79-.29-7.76-.57-10.38-.63-20.6T152.05,42Zm14.61,16.32v4.11a6.37,6.37,0,0,0,.11,1.83V59.45q0,5.88.06,12.33t.11,11.93q.06,5.48.17,9.07a25,25,0,0,0,.23,3.71,10.54,10.54,0,0,0,2.4,0q.68,0,2.34-.06t3.48-.17q1.82-.11,3.37-.29a5.55,5.55,0,0,0,1.88-.4q0-.11-.06-4.91t-.29-12q-.11-6.51-.11-10.61T180,61.91q-.11-2.06-.06-4.45t.17-5V31.89H166.55Z"/><path class="a" d="M212.43,103.79a58.28,58.28,0,0,0,4.17-4.68,34.24,34.24,0,0,0,3.71-5.71q.8-1.48,2.05-3.37t1.94-3.14q2.85-5.48,5.93-11.07T236.39,64q3.65-7.53,6.85-15.29a97.53,97.53,0,0,0,5-16,30.51,30.51,0,0,0,.06-3.37,10.18,10.18,0,0,0-.29-2.68,17.21,17.21,0,0,0-2.74-.06l-5.93.17q-3.77.12-6.39.23t-4.22.23a10.54,10.54,0,0,1-2.4,0c0-.15,0-.82-.11-2s-.15-2.68-.23-4.51-.06-3.27-.17-4.56-.17-2.13-.17-2.51l-.23-.8,5,.11q2.17.23,4.56.29a35.37,35.37,0,0,1,4,.29q1.48.12,5.36.29l8.33.4q4.45.12,7.36.29a12.45,12.45,0,0,1,3.25.4,22.83,22.83,0,0,1,.23,3.48q.11,3.37.11,9,.23,8.22.34,10.73a18.35,18.35,0,0,0,.69,4A102.1,102.1,0,0,0,269,54.83a69.1,69.1,0,0,0,5.42,10.44,67.87,67.87,0,0,0,7.13,9.3,117.75,117.75,0,0,0,9.53,9.24,103.5,103.5,0,0,0,11.36,8.9,38.32,38.32,0,0,0,9,4.45q1,.34,1.83.68c.53.23.8.42.8.57l-.63,1.2q-.51,1-1.31,2.28l-1.65,2.74q-.86,1.43-1.77,2.68L307,110q-.86,1.37-1.54,2.4a10.11,10.11,0,0,1-1.31,1.71,1.06,1.06,0,0,1-1.08.11,28,28,0,0,1-5.36-1.77,35.48,35.48,0,0,1-5.82-3.14q-.8-.57-1.77-1.14a16.09,16.09,0,0,1-1.43-.91,26.53,26.53,0,0,1-4.39-2.85,43.42,43.42,0,0,1-5.08-4.79q-1.48-1.48-3.54-3.77t-4.22-4.74q-2.17-2.45-4.11-4.68t-3.2-3.71a45.63,45.63,0,0,1-7-14,9.43,9.43,0,0,1-.51-1.2c-.11-.34-.25-.47-.4-.4a4.44,4.44,0,0,1-.57,1.26,19.81,19.81,0,0,0-1.14,2.51q-.68,1.6-1.08,2.63c-.27.68-.48,1.07-.63,1.14a.33.33,0,0,0-.11.23.33.33,0,0,1-.11.23c-.08.15-.15.32-.23.51s-.19.44-.34.74a45.93,45.93,0,0,1-2.74,5.76q-2.05,3.82-4.34,7.82-1.83,3.2-4.68,7.36a95,95,0,0,1-6.28,8.16,81.71,81.71,0,0,1-7.13,7.36,26,26,0,0,1-7.25,4.85q-.57.23-1.2-.63t-2.91-4.17q-1.37-2.05-2.51-3.71t-1.48-2.23l-.8-1.37Z"/><path class="a" d="M330.43,104.82q1.82-2.74,3.88-6.39t4.11-7.53q2.05-3.88,3.77-7.59T345,76.52q1.37-3.19,2.23-5.25t1.37-3.37l.8-2.05a11.08,11.08,0,0,0,.4-1.2l.34-.86c.07-.19.15-.36.23-.51l.23-.46a5.53,5.53,0,0,0,1.54.74q1.54.63,3.82,1.43t4.39,1.77q2.23.86,3.25,1.2t1.83.69c.53.23.8.38.8.46a5.22,5.22,0,0,1-.29,1.26l-.69,2.17-.86,2.68q-.46,1.43-.8,2.68c-.08.23-.21.59-.4,1.08a7.21,7.21,0,0,0-.4,1.43,10,10,0,0,0-.63,1.65,10.19,10.19,0,0,1-.63,1.66q-.34.68-.74,1.54a14.44,14.44,0,0,0-.63,1.54q-.34.92-1.2,2.68t-2.34,4.62q-3,5.94-5.93,11.18a78.21,78.21,0,0,1-7.3,10.61l-1.83,2.28-.91-.57a11.24,11.24,0,0,1-1.71-1.31q-1.26-1.09-2.62-2.45a52,52,0,0,0-4.39-4A19.79,19.79,0,0,0,329.4,108c-.46,0-.68-.15-.68-.46a2.59,2.59,0,0,1,.51-1Q329.75,105.85,330.43,104.82Zm-.57-69,8.45.11q1.94.12,4.45.17l5.42.11q2.91.06,5.93.06h5.76q5.48.23,9.59.23a25.68,25.68,0,0,0,4.79-.23q.57,0,2.34-.06t3.82-.06q2.28-.23,4.22-.23a28.92,28.92,0,0,0,3-.11,34.2,34.2,0,0,1,5.25-.23h10q5.59.23,10.39.23h10.27V51.29h-1.48l-2.68.06q-2.23.06-5.76.06t-8.16.06q-4.62.06-10,.06-12.1.11-22.77.06t-20.37-.17q-9.7-.11-15-.23a46.64,46.64,0,0,1-6.16-.34q-.11-.69-.68-6-.11-2.4-.29-4.45t-.17-2.74ZM366.72,15l2-.63a26.65,26.65,0,0,1,4.05-.86l4.34-1a6.44,6.44,0,0,0,2.28-.91c.38-.07.76-.17,1.14-.29a3.36,3.36,0,0,1,.91-.17q.57-.23.91.57a22.49,22.49,0,0,1,.8,4.22q.34,1.37.91,3.48t1.14,4.34q.57,2.23,1,4.28a18.27,18.27,0,0,1,.4,3.31,1.39,1.39,0,0,1-.46,1.54,5.48,5.48,0,0,1-2.74.63l-2.74.63q-1.71.4-3.42.63a27.3,27.3,0,0,1-3.94.46,2.81,2.81,0,0,1-1.77-.46q-.11-.34-.4-1.48a15.8,15.8,0,0,1-.4-2.62q-.34-1.6-1-4.34t-1.37-5.25q-.68-2.4-1.14-4.11A15.92,15.92,0,0,1,366.72,15Zm23.17,53.64a20.36,20.36,0,0,1,2.23-1.26q1.77-.91,3.88-1.94t4-1.77a9.84,9.84,0,0,1,2.34-.74c.15,0,.51.44,1.08,1.31s1.24,2,2,3.48,1.43,2.74,2.23,4.11,1.43,2.4,1.88,3.08a30.23,30.23,0,0,0,1.6,3,37.48,37.48,0,0,1,1.83,3.42q1.71,3.08,3.48,5.76t4.39,6.22q1.48,1.94,2.91,3.94l2.8,3.94q2.74,4.11,3.08,4.79,0,.69-1.66,2.28a48.15,48.15,0,0,1-3.77,3.25,44.55,44.55,0,0,1-4.05,2.85,7.83,7.83,0,0,1-2.4,1.2c-.3,0-.9-.48-1.77-1.43s-1.92-2.19-3.14-3.71q-.91-1.37-2.28-3.08t-2.4-2.85q-4.68-6.28-9.24-13.64a100.13,100.13,0,0,1-7.53-14.55,26.29,26.29,0,0,0-.91-2.51q-.57-1.37-.91-2.05a3.28,3.28,0,0,1-.8-2Q388.86,69.1,389.89,68.64Z"/><path class="a" d="M446.27,40.79a8.75,8.75,0,0,0,2.85-1.48A30.2,30.2,0,0,0,455,34.4a43,43,0,0,0,5.31-7.08A60.47,60.47,0,0,1,463.67,22q2.34-3.42,6.22-8.9,1.71-2.4,2.91-4A7.88,7.88,0,0,0,474,7.24q0-.68,2.63.57a30.34,30.34,0,0,0,5.59,1.94q2.85.69,5.82,1.26a4.34,4.34,0,0,1-.46,1.6c-.46,1-.65,1.48-.57,1.48q0,.23,1.66.29t4.17.06q2.4.23,6.45.29t7.59.29l6.39.23q2.74.12,3.2.11a2,2,0,0,1,1,.17,3,3,0,0,1,.74.86,5.89,5.89,0,0,1,.4,1.08c.11.42.21.74.29,1a11.11,11.11,0,0,1-.17,3.59,11.23,11.23,0,0,1-1.2,3.71q-.34.57-.8,1.48t-.91,1.94l-.91,2.05a7.45,7.45,0,0,1-.91,1.6,3.46,3.46,0,0,0-.63,1.14c0,.23,0,.34.06.34q.34.34,3.88.51t11.18.4q3.77.12,6.33.23a17.4,17.4,0,0,1,2.8.23,10.64,10.64,0,0,1,.17,2.34q.06,2.23.11,5.54t.06,7.19V67q.34,20,.34,39.94v4.91a26.16,26.16,0,0,1-.11,2.8,8,8,0,0,1-.23,1.31,1.45,1.45,0,0,1-.34.57,4.12,4.12,0,0,1-1.65.68q-1.31.34-4.51.8l-3,.57q-1.26.23-2.45.4a17.75,17.75,0,0,1-2.51.17c-.88,0-1.88,0-3-.11H515a19.25,19.25,0,0,1-.4-2.45q-.17-1.54-.4-3.94t-.4-3.59a5,5,0,0,1-.06-1.65c0-.08.4-.15,1.2-.23s1.77-.15,2.91-.23,2.17-.3,3.08-.46a15,15,0,0,1,1.71-.23l1-.34V95.12l-2.85.11q-1.48.12-4.68.23t-7.7.23q-4.51.12-10.1.23t-11.75.34q-5.48.23-9.53.29a35,35,0,0,0-5.08.29h-2.05l-1,3.77a30.93,30.93,0,0,1-7,13.69q-1.26,1.6-2.11,2.74a5,5,0,0,1-1.31,1.37l-.91.68-3.65-2.51a27.52,27.52,0,0,1-3.31-2.34q-1.6-1.31-2.62-2.11l-2.05-2.05,1-1.94q.57-.91,1.54-2.85t2.05-4.17q1.08-2.23,2-4.28t1.26-3.08a12.82,12.82,0,0,0,.57-2.17q.23-1.25.46-2.17t.4-2.57q.28-1.54.4-2.91a82.52,82.52,0,0,0,1.54-9.47q.63-5.59.74-11.07.34-4.45.46-7.48t.17-4.79q.06-1.77,0-2.62c0-.57-.06-.89-.06-1l-.23-.91-1,.91a7,7,0,0,1-1.31,1q-.86.51-1.88,1t-2,.91q-1,.4-1.65.63t-1.08-.68q-.51-1-2-5.25A27.82,27.82,0,0,1,446,41.25C445.94,40.87,446,40.72,446.27,40.79Zm26.36,42.45a11.09,11.09,0,0,0,3.2.46q3,.23,7.3.46l5.25.11V70.81h-2.74q-1.37,0-3.31.06t-3.88.06a20.66,20.66,0,0,0-3.54.17q-.69.17-.68.74c-.15.68-.34,1.56-.57,2.63a35.74,35.74,0,0,0-.57,3.88A37.48,37.48,0,0,0,472.63,83.25Zm23.51-47.36.68-1.71a15.46,15.46,0,0,1,.68-1.65,3.93,3.93,0,0,1,1-1.43l2.05-3.42a9.86,9.86,0,0,0,1.14-2.28,7,7,0,0,0-2.17-.11q-1.26,0-4.34-.06t-7.87.17l-6.62.23-1.6,2.85a12.44,12.44,0,0,1-1.43,2.68l-1.66,2.45-1.48,2.28Zm-20.2,23.4,2.85.23q1.37,0,3.2.06t3.31.06l3.31.23.11-5.82V48.33l-6.16-.11h-4.51a6.06,6.06,0,0,0-1.77.11c0,.15,0,.76-.11,1.83s-.11,2.36-.11,3.88Zm28.42,23.85h5.93q2.62,0,5.36.06t4.45.06l3.54.23V74.69q-.12-1.94-.11-2.91v-1.2a18.09,18.09,0,0,0-2.85-.23q-2.63-.11-6.62-.11l-9.24-.11-.11,1.37q0,.46-.11,2.34T504.36,78Zm1.48-24.31q.91,0,2.85.06l5,.17q3.08.11,5.14.23t3,.23l1.83.11V47.3h-5.48q-2.4.23-4.85.23t-4.05.11l-3.42.23L505.73,50a12,12,0,0,0-.23,2.57v2.91a22.32,22.32,0,0,0-.06,2.63C505.48,58.6,505.61,58.83,505.84,58.83Z"/><path class="a" d="M562.45,85l15.75.11q3.42,0,6.68.06l6,.11,4.85.11q2.11.06,3.25.06l4.79.23,1-1.25a7,7,0,0,1,1.94-1.66q1.48-1,3.65-2.22,3.42-2.06,5.93-3.71a16.94,16.94,0,0,0,2.85-2.11q.23-.57-.91,0-.68,0-6.5.17t-18.15.29l-9.7.23-.23-.69a10.63,10.63,0,0,1-.23-1.83q-.12-1.48-.11-3.31L583,64.88l15.75.23q3.42,0,7,.06t7,.17q3.42.11,6.39.17t5.14.06q6.62.34,10,.29a38.13,38.13,0,0,0,5.42-.4,1.51,1.51,0,0,1,1.71.4A14.44,14.44,0,0,1,643.25,69a14.42,14.42,0,0,1,1.48,3.48,2.37,2.37,0,0,1-.91,1.88,18.19,18.19,0,0,1-2.34,1.88q-1.54,1.09-3.54,2.4t-4.22,2.57q-2.23,1.26-4.51,2.4l-2,1.2q-.86.51-.86.63.57.34,6.5.23t10.39-.34q2.05,0,5.42-.17t6.45-.17h7.3V96l-6.62.23q-3,0-6.56.17l-6.11.29q-2.63,0-5.71.17t-5.48.17q-2.17.23-4.39.29T624,97.4l-2.74.23-.23,6.16q-.11,11-1.37,12.21a9.55,9.55,0,0,1-3.37,1.08L610,118.4q-1.26.11-3,.11t-4.05.11a22.07,22.07,0,0,1-5.36-.23c0-.15,0-.74-.11-1.77s-.11-2.26-.11-3.71l-.11-5.36,1.83-.11q.68,0,2.17-.11t2.63-.11l3.08-.11V96.26l-9.7.11q-4.11.23-8.33.4t-6.39.17l-5.93.29q-3.54.17-6.62.17l-7.08.23-.11-4.79q0-2.06-.11-3.88t-.11-2.62Zm.68-28.42V51.18l1.83-.34q.91,0,2.11-.06a15.45,15.45,0,0,0,2.34-.29l2.28-.11V48.1c0-.53,0-1.46-.11-2.8s-.11-2.68-.11-4.05-.17-3.37-.29-5.76-.17-4.74-.17-7q-.23-3.42-.29-6.5t-.06-4.45a20.93,20.93,0,0,1,.11-3.31,20.17,20.17,0,0,1,3.82-.91q3.14-.57,6.9-1.14a37.41,37.41,0,0,0,4.11-.46q2.05-.34,3.08-.57,1.71-.11,2.91-.29c.8-.11,1.2-.13,1.2-.06s0,.53.06,1.14a13,13,0,0,0,.4,2.28q.57,3.2,0,3.42-.12.23-1.31.57t-2.91.69q-2.05.46-3.2.68a3.56,3.56,0,0,0-1.6.63,1.43,1.43,0,0,0-.46,1.14c0,.5,0,1.2.11,2.11l.11,3.08,10.16.68v3.31a19.62,19.62,0,0,1,.06,2.51,2.27,2.27,0,0,1-.29,1.25l-1.48.17a30.81,30.81,0,0,1-3.65.17l-4.79.11.23,2.05v2.05l1.37.23a27.94,27.94,0,0,0,4.11.4q2.17.06,4.11.06.57.34.34,3.31v3.08l-2.62.34q-1.14,0-2.62.06t-2.51.06H584v4.45l29.44-.11q12.67-.23,20.77-.34h8.67a1.6,1.6,0,0,0,.11-.68,7.45,7.45,0,0,0,.11-1.71l.11-2.4-5.93-.23q-2.74,0-4.45-.17T630.92,45a3.21,3.21,0,0,1-.23-1.14q-.12-1-.23-2.4l-.23-3.31,12.9.34.34-.68c0-.23,0-.57.06-1s.06-.84.06-1.14v-1.6h-12l-.11-2.4a10.17,10.17,0,0,1-.23-2.22V25.39l6.39.34,6.28.11V19.91L638,20h-5.82V16.2a2,2,0,0,0-.23-1.08q0-.91.34-.91v-.46a4.12,4.12,0,0,1-.23-.57,2.12,2.12,0,0,1-.11-.68v-.8l11.64.11q11.41.12,11.64.57.57.8.57,4.17t-.57,11.24q-.11,2.29-.11,5.42T655,40.45q-.12,4.11-.06,6.39a23,23,0,0,0,.17,2.85,2.94,2.94,0,0,0,1.08.23,20.39,20.39,0,0,0,2.34.11c.91,0,1.67,0,2.28.06s.91.13.91.29q.23.12.29,2.51t.06,5.82v8.22h-3.42a15.78,15.78,0,0,1-3,.17,10.42,10.42,0,0,0-2.57.17q-1.6.23-2-.23a7,7,0,0,1-.63-3q-.11-2.28-.68-2.4-1.94-.57-8.39-.57T623.85,61q-11.07,0-19.74.11t-15,.34q-2.51.23-5.25.29t-4.45.06q-1.71,0-2.85.11c-.76.08-1.14.15-1.14.23q0,.57-.06,1.88c0,.88-.11,1.79-.23,2.74s-.23,1.83-.34,2.63a6.07,6.07,0,0,1-.4,1.66c-.08.46-.76.78-2.05,1a48.59,48.59,0,0,1-5.14.4q-2.74,0-3.37-.06c-.42,0-.63-.25-.63-.63s-.15-2.26-.23-5.19S563,60.27,563.13,56.54Zm36.29-43a5.7,5.7,0,0,1,1.37-1.77,8.37,8.37,0,0,1,1.94-1.43,2,2,0,0,1,1.08-.29,8.33,8.33,0,0,1,1.65.63A9.84,9.84,0,0,0,608.56,12q.45.11,1.25.4a6.89,6.89,0,0,1,1.48.74,3.6,3.6,0,0,0,1.83.46,8.19,8.19,0,0,0,3.42-1.26q.69-.34,1.31-.68t1.31-.68c.08-.08.13-.11.17-.11s.09,0,.17-.11a1.77,1.77,0,0,0,.68-.46,1.42,1.42,0,0,1,1-.46q.91,0,2.74,2.17a5.44,5.44,0,0,1,1.54,2.63q.06.91-1.54,2.28T622.54,19q.17.68,2.8,2.28l2.17,1.48-.46,1a23.5,23.5,0,0,1-1.71,3.08,5.25,5.25,0,0,1-1.37,1.6,4.06,4.06,0,0,1-.69-.06,7.36,7.36,0,0,1-1-.29q-.69-.23-1.83-.74l-3-1.31-1.54-.68c-.5-.23-.93-.42-1.31-.57a4.64,4.64,0,0,0-.57-.23,4.15,4.15,0,0,1-.57-.23.46.46,0,0,1-.34.11,2.28,2.28,0,0,0-.8.57,6.29,6.29,0,0,1-1.54.91l-2.62,1.26q-1.43.68-2.8,1.2l-1.94.74a2,2,0,0,1-1.54.06.84.84,0,0,1-.51-.74,2.28,2.28,0,0,0-.34-1,6.92,6.92,0,0,1-.57-1.43,9.22,9.22,0,0,0-.68-1.48,2,2,0,0,1-.34-.8c0-.08.11-.21.34-.4s.46-.4.68-.63a4.39,4.39,0,0,0,1.48-.74l1.94-1.31a24,24,0,0,0,2-1.37q.4-.34.06-.68-.12-.34-1.14-.86t-2.28-1.2a8.7,8.7,0,0,1-3.08-1.48A1.1,1.1,0,0,1,599.43,13.52Zm3.77,29.1a17,17,0,0,0,1.88-1q.86-.51,1.2-.74l.69-.46-1.48-.91-1.2-.8a1.66,1.66,0,0,0-.74-.34c-.23.08-.3,0-.23-.23s.23-1,.46-2.17a4.45,4.45,0,0,0,.29-1,2.06,2.06,0,0,1,.17-.63v-.68c-.08-.23,0-.47.29-.74a1.32,1.32,0,0,1,1-.4A6.8,6.8,0,0,1,607,33q1.2.4,2.68,1l3.42,1.14,3.08-1.48q1.37-.68,2.51-1.14A5.53,5.53,0,0,1,620.2,32a5.68,5.68,0,0,1,2.28.91,8.87,8.87,0,0,1,2.28,1.71A1.27,1.27,0,0,1,625,36,4.88,4.88,0,0,1,624,37.49a7.25,7.25,0,0,1-1.08.91,5.43,5.43,0,0,0-.63.46c-.46.23-.55.5-.29.8a10.22,10.22,0,0,0,2.34,1.48A11.81,11.81,0,0,1,626,42c.46.3.68.5.68.57a8.92,8.92,0,0,1-1.25,3L624.08,48l-1.14-.23a13.77,13.77,0,0,1-3.42-.86,33.78,33.78,0,0,1-3.65-1.54l-1.48-.68-1.37.68a29.93,29.93,0,0,1-4.11,2.11,33.38,33.38,0,0,1-3.65,1.31l-2.05.57-.46-.68a6.28,6.28,0,0,0-.74-1.08A8.07,8.07,0,0,1,601,46c-.61-.91-.8-1.54-.57-1.88A8,8,0,0,1,603.19,42.62Z"/><path class="a" d="M678.74,113.26q0-9.7.29-19.12T679.54,75q0-2.74.06-7t.29-8.16q.34-7.3.46-14.72t.34-15.29q.23-7.87.46-12.1t.34-4.79a.66.66,0,0,1,.46-.11.5.5,0,0,1,.69.11h1.83q1.48,0,3.88.06l5.54.11q3.14.06,6.68.17l16.55.11L717,15.12a11.47,11.47,0,0,0-.29,2.28c0,.91-.06,1.75-.06,2.51q-.57,6.16-1.48,12.38a73.44,73.44,0,0,1-2.85,12.15q-.34,1.14-.57,2.17A7.89,7.89,0,0,0,711.5,48a5.51,5.51,0,0,0,.4,1.26q.4,1,1,2.4,1,2.17,1.77,4.11T716,59.57q.63,1.88,1.14,3.94t1,4.56q1.37,7.31.69,11.53a12.58,12.58,0,0,1-3.54,7.08,15.49,15.49,0,0,1-4.79,3.25,25.93,25.93,0,0,1-6.39,1.77,5.23,5.23,0,0,1-2.74,0A3.71,3.71,0,0,1,700,90q-.34-1-.68-2.34t-.68-2.57q-.34-1.25-.51-2.23a9.31,9.31,0,0,1-.17-1.31c0-.07.21-.17.63-.29a5.42,5.42,0,0,1,1.43-.17,13,13,0,0,0,4.62-1.6q1.88-1.14,1.88-4.45a21.72,21.72,0,0,0-.4-3.88q-.4-2.17-1-4.39t-1.31-4.28q-.74-2.05-1.43-3.54a6.6,6.6,0,0,0-1.25-2.11q-.92-1.08-2.51-2.68-.57-.57-1-1.08c-.3-.34-.61-.67-.91-1a5.76,5.76,0,0,1-.46-.51c-.15-.19-.3-.36-.46-.51a.47.47,0,0,1,.17-.29,1.5,1.5,0,0,0,.29-.4,10,10,0,0,1,.51-1.14q.4-.8.91-1.77l1-1.94c.34-.65.63-1.2.86-1.66q.45-1.48,1.14-3.82t1-3.82q.11-.8.29-2.57t.34-3.65q.17-1.88.34-3.54a20.25,20.25,0,0,1,.29-2.11v-1l-4,.34a28,28,0,0,0-2.8.11,5.5,5.5,0,0,0-1.31.23q-.11.57-.23,3.71t-.23,7.7q-.12,4.57-.29,9.81t-.23,10q-.06,4.74-.11,8.22t-.06,4.62q0,19.17-.34,31.73t-.68,14.49a5.76,5.76,0,0,0-.29,1.37c0,.46-.06.8-.06,1v.91H678.74Zm37.21-3.88a35.37,35.37,0,0,0,3.65-2.68,36.3,36.3,0,0,0,3.65-3.37,13.85,13.85,0,0,0,2.11-2.68,19,19,0,0,0,1.6-3.59q.74-2.17,1.54-5.14t1.83-7.3q.8-3.88,1.14-5.54a6,6,0,0,0,.23-2,4,4,0,0,0-1-.23,26.6,26.6,0,0,0-3.14-.11q-1.6,0-2.85.11c-.84.08-1.37.11-1.6.11l-.91.34v-12L751,65.1h16q6,0,8.67.11,4.79.11,4.34.46c0,.23,0,.86.06,1.88s.06,2.26.06,3.71V76.4l-6.85.23q-2.74,0-4.68.17t-2.17.17a14.29,14.29,0,0,0-.29,2.68q-.17,2.57-.29,5.71t-.17,5.88q-.06,2.74-.06,3.2-.23,3.54-.29,6t-.06,2.85c.07.38.4.65,1,.8a14.16,14.16,0,0,0,3.14.23,12.51,12.51,0,0,0,2.34-.17,6.09,6.09,0,0,0,1.54-.51l1.37-.46V99.68l.23-3.2h10l.34,5a33.49,33.49,0,0,1-.06,7.25,11.62,11.62,0,0,1-1.43,4.05,8,8,0,0,1-6,3.88,11.87,11.87,0,0,0-2.4.29,23.21,23.21,0,0,1-2.74.4q-1.6.23-3.25.34t-3.37.11a37.71,37.71,0,0,1-5.19-.34,18.33,18.33,0,0,1-3.94-.91q-2.4-1-3.31-4.62A61,61,0,0,1,752.35,100q-.12-3.08-.23-7.42t-.11-8l-.11-8.22h-4.56c-.53,0-.84.08-.91.23q0-.11-.57,3.08A67.36,67.36,0,0,1,742.6,97a36.82,36.82,0,0,1-9.07,14.89,16.81,16.81,0,0,1-2.57,2.05q-1.54,1-3.14,2.05t-3.14,1.83l-2.45,1.26q-.69.34-2.05-.68a6.53,6.53,0,0,1-1.71-2.17c-.23-.38-.44-.74-.63-1.08s-.36-.67-.51-1-.4-.57-.74-1a9,9,0,0,1-.86-1.37l-1.14-1.71Zm2.51-68.25V27l.23-5.36,3.2.23q1.6,0,4.68.17t6.28.17q3.31.11,5.71.11h2.51q2.28.57,1.71-1.14-.11-.57-.57-2T741.28,16a26.8,26.8,0,0,1-1.37-4.68q-.34-.46,2.85-.46,1.37,0,2.91-.11l2.8-.23a21.4,21.4,0,0,1,2.63-.4,2.3,2.3,0,0,1,1.54.4,2.93,2.93,0,0,1,1,1.54q.34,1.09.8,3,.69,2.05,1.2,3.42a6.23,6.23,0,0,0,.74,1.6,19.48,19.48,0,0,0,3.2.29q3.08.17,8.56.17l11.64.34.57,4.45q.23,2.05.34,4.28t.23,4.62q.11,2.4.06,3.82a11.81,11.81,0,0,1-.17,1.88,4.58,4.58,0,0,1-1.43.23q-1.31.12-4.17.23-3.65,0-4.57-.06t-1.14-.4c0-.23,0-.74-.11-1.54s-.19-1.73-.34-2.8l-.34-3.77h-2.05q-3.42,0-13.24.34-9.59.34-16.55.68l-7.87.34v3.65q-.23,1.71-.29,2.8a2.42,2.42,0,0,1-.29,1.31,3.71,3.71,0,0,1-1.25.23q-1.14.12-3.88.11Zm9.24,3.42a5.12,5.12,0,0,1,1.37-.17q1.14-.06,3.77-.11t6.9-.06H772.1V54.38h-5.48q-2.4,0-6.45.17t-7.82.29q-3,.23-6.68.29t-8.27.29q-9,.34-10,.34-.11,0-.11-1.54V50.38L727,44.9Z"/><path class="a" d="M804.05,28.24v-10l.11-7.42,8.67-.23q12.67,0,13.35,1,0,.23-.11,2.28t-.34,4.91q-.11,3.08-.34,7t-.46,6.62q0,.8-.29,6.62t-1,16.78Q823,66.7,822.6,73T822,80.85q-.57,3.54-.91,3.65a6.5,6.5,0,0,1-2.11.23H806.68l-1.6-.23-.23-12.33q0-5.14-.11-9.64t-.11-6.33q-.23-1.71-.34-5.59t-.11-8.22q-.11-4.91-.11-8.45Zm.34,76.24v-4.34l3.31-.23h6.56c1.18,0,2.28,0,3.31.11a15.38,15.38,0,0,1,2.45.34l1,.11v4q0,3.65-.29,7t-.74,3.88q-.57.57-3.59.86a36,36,0,0,1-6.68-.06,23.33,23.33,0,0,1-3.42-.46,2.65,2.65,0,0,1-1.14-.57q-.34-.34-.46-2.85T804.4,104.48Z"/><path class="b" d="M18.83,65.41l2.4-19.29H2.17L2.05,35.28l21.23-.46L26.82,13l14.27-.91L37.21,33.34H50.44a16.24,16.24,0,0,1,.29-2.23q.28-1.65.74-3.94t1-4.79q.57-2.51,1.08-4.74t1-3.71c.3-1,.49-1.6.57-1.83l10.5.57L62.88,33.34H77.26V45.21H61.06a25.78,25.78,0,0,0-.91,4.62q-.46,3.37-1,9Q59,60,58.89,60.9c-.08.57-.15,1-.23,1.43a5.45,5.45,0,0,1-.11,1.25L74.64,63c0,.08,0,.38.11.91a21.27,21.27,0,0,1,.11,2.63A42.88,42.88,0,0,1,74.18,75H56.38l-4,31.27-11.75-.91,3.08-29.56A19.24,19.24,0,0,0,41,75.68q-1.48,0-3.88.17l-5.71.4L26,105.35H13.24q.11-1.83.57-6t1.6-10.78q.68-4,1.2-7t.74-4.91q-4,0-8.33.17t-9,.4V66Zm13.92-1,12.67-.68,2.74-19.06H35.84Z"/><path class="b" d="M88,105.12l.8-1.26A57.14,57.14,0,0,0,93,95.76q2-4.68,3.6-9.76t2.74-10a82.26,82.26,0,0,0,1.6-9q.45-4.45.8-11.18T102,42.58V35.51l-6,.23H90l-.23-3.65q-.11-1.48-.23-3.2t-.11-2.74l-.11-2.4L102,23.41l.34-19.74h1q.57,0,2.11-.17a30.58,30.58,0,0,1,3.37-.17l3.88-.23Q114.7,3,116.07,3h2.74l-.11,9.47-.23,9.24.68.11q.68.11,3.08.23l6.5.34q8.1.34,11.18.34h1l-.34,4.91q0,1.14-.06,3.94t-.06,6.68q0,3.88-.06,8.62t-.06,9.87v9.7q0,4.57-.06,8t-.11,5.82a29,29,0,0,1-.17,3q0,1-.17,3.42t-.29,4.91a56.71,56.71,0,0,1-1,9.93,8.34,8.34,0,0,1-2.34,4.57,8.09,8.09,0,0,1-3.59,2.11,32.64,32.64,0,0,1-5,1.14,42.29,42.29,0,0,1-5.25.46q-2.57.06-4.28.06h-1l-.34-3.42q-.11-1.6-.23-3.31t-.11-2.85V97.71l1.94-.11a6.45,6.45,0,0,1,1.77-.23h1.65a2.37,2.37,0,0,0,3-1.94q.23-1.14.46-3.88t.34-7.19q0-3.65.17-7.42t.29-6.16q0-2.4.17-5.88t.17-6.45q.23-3.08.29-7.25t.29-7.47Q127,40.3,127,38V35.51c0-.23-.3-.36-.91-.4s-1.83-.06-3.65-.06l-4.68.11-.11,8.22q-.11,6.16-.34,11.13t-.63,9q-.4,4.05-.91,7.36t-1.08,6q-.34,1.6-.74,3.54T113.21,84a98.15,98.15,0,0,1-3.65,13.12A38.75,38.75,0,0,1,103.06,109q-1.71,2.06-2.23,2.57a1.47,1.47,0,0,1-1.31.4,10.61,10.61,0,0,1-5-1.6A25.22,25.22,0,0,1,89,106.15Zm56.83-91.19.91-.11q1.94-.23,7.19-.4t13.92.06q8.67.23,13.81.4t7,.4a1.54,1.54,0,0,1,1,1,19.55,19.55,0,0,1,.63,3.48q.11,2.28.11,9t.11,17.8q.11,11.07.06,18.37t-.17,11q-.11,1-.11,5.25v9.7L189,102.5l-8.33.23q-3.65,0-7.42.23t-5.93.46q-2.4.23-5.48.34l-6.73.23a56.55,56.55,0,0,1-8.67-.23,10.23,10.23,0,0,1-.29-3.2q-.06-3-.06-7.3T146,84q-.06-4.79-.29-7.76-.57-10.38-.63-20.6T145.05,35Zm14.61,16.32v4.11a6.37,6.37,0,0,0,.11,1.83V52.45q0,5.88.06,12.33t.11,11.93q.06,5.48.17,9.07a25,25,0,0,0,.23,3.71,10.54,10.54,0,0,0,2.4,0q.68,0,2.34-.06t3.48-.17q1.82-.11,3.37-.29a5.55,5.55,0,0,0,1.88-.4q0-.11-.06-4.91t-.29-12q-.11-6.51-.11-10.61T173,54.91q-.11-2.06-.06-4.45t.17-5V24.89H159.55Z"/><path class="b" d="M205.43,96.79a58.28,58.28,0,0,0,4.17-4.68,34.24,34.24,0,0,0,3.71-5.71q.8-1.48,2.05-3.37t1.94-3.14q2.85-5.48,5.93-11.07T229.39,57q3.65-7.53,6.85-15.29a97.53,97.53,0,0,0,5-16,30.51,30.51,0,0,0,.06-3.37,10.18,10.18,0,0,0-.29-2.68,17.21,17.21,0,0,0-2.74-.06l-5.93.17q-3.77.12-6.39.23t-4.22.23a10.54,10.54,0,0,1-2.4,0c0-.15,0-.82-.11-2s-.15-2.68-.23-4.51-.06-3.27-.17-4.56-.17-2.13-.17-2.51l-.23-.8,5,.11q2.17.23,4.56.29a35.37,35.37,0,0,1,4,.29q1.48.12,5.36.29l8.33.4q4.45.12,7.36.29a12.45,12.45,0,0,1,3.25.4,22.83,22.83,0,0,1,.23,3.48q.11,3.37.11,9,.23,8.22.34,10.73a18.35,18.35,0,0,0,.69,4A102.1,102.1,0,0,0,262,47.83a69.1,69.1,0,0,0,5.42,10.44,67.87,67.87,0,0,0,7.13,9.3,117.75,117.75,0,0,0,9.53,9.24,103.5,103.5,0,0,0,11.36,8.9,38.32,38.32,0,0,0,9,4.45q1,.34,1.83.68c.53.23.8.42.8.57l-.63,1.2q-.51,1-1.31,2.28l-1.65,2.74q-.86,1.43-1.77,2.68L300,103q-.86,1.37-1.54,2.4a10.11,10.11,0,0,1-1.31,1.71,1.06,1.06,0,0,1-1.08.11,28,28,0,0,1-5.36-1.77,35.48,35.48,0,0,1-5.82-3.14q-.8-.57-1.77-1.14a16.09,16.09,0,0,1-1.43-.91,26.53,26.53,0,0,1-4.39-2.85,43.42,43.42,0,0,1-5.08-4.79q-1.48-1.48-3.54-3.77t-4.22-4.74q-2.17-2.45-4.11-4.68t-3.2-3.71a45.63,45.63,0,0,1-7-14,9.43,9.43,0,0,1-.51-1.2c-.11-.34-.25-.47-.4-.4a4.44,4.44,0,0,1-.57,1.26,19.81,19.81,0,0,0-1.14,2.51q-.68,1.6-1.08,2.63c-.27.68-.48,1.07-.63,1.14a.33.33,0,0,0-.11.23.33.33,0,0,1-.11.23c-.08.15-.15.32-.23.51s-.19.44-.34.74a45.93,45.93,0,0,1-2.74,5.76q-2.05,3.82-4.34,7.82-1.83,3.2-4.68,7.36A95,95,0,0,1,227,98.39a81.71,81.71,0,0,1-7.13,7.36,26,26,0,0,1-7.25,4.85q-.57.23-1.2-.63t-2.91-4.17q-1.37-2.05-2.51-3.71t-1.48-2.23l-.8-1.37Z"/><path class="b" d="M323.43,97.82q1.82-2.74,3.88-6.39t4.11-7.53q2.05-3.88,3.77-7.59T338,69.52q1.37-3.19,2.23-5.25t1.37-3.37l.8-2.05a11.08,11.08,0,0,0,.4-1.2l.34-.86c.07-.19.15-.36.23-.51l.23-.46a5.53,5.53,0,0,0,1.54.74q1.54.63,3.82,1.43t4.39,1.77q2.23.86,3.25,1.2t1.83.69c.53.23.8.38.8.46a5.22,5.22,0,0,1-.29,1.26l-.69,2.17-.86,2.68q-.46,1.43-.8,2.68c-.08.23-.21.59-.4,1.08a7.21,7.21,0,0,0-.4,1.43,10,10,0,0,0-.63,1.65,10.19,10.19,0,0,1-.63,1.66q-.34.68-.74,1.54a14.44,14.44,0,0,0-.63,1.54q-.34.92-1.2,2.68t-2.34,4.62q-3,5.94-5.93,11.18a78.21,78.21,0,0,1-7.3,10.61l-1.83,2.28-.91-.57a11.24,11.24,0,0,1-1.71-1.31q-1.26-1.09-2.62-2.45a52,52,0,0,0-4.39-4A19.79,19.79,0,0,0,322.4,101c-.46,0-.68-.15-.68-.46a2.59,2.59,0,0,1,.51-1Q322.75,98.85,323.43,97.82Zm-.57-69,8.45.11q1.94.12,4.45.17l5.42.11q2.91.06,5.93.06h5.76q5.48.23,9.59.23a25.68,25.68,0,0,0,4.79-.23q.57,0,2.34-.06t3.82-.06q2.28-.23,4.22-.23a28.92,28.92,0,0,0,3-.11,34.2,34.2,0,0,1,5.25-.23h10q5.59.23,10.39.23h10.27V44.29h-1.48l-2.68.06q-2.23.06-5.76.06t-8.16.06q-4.62.06-10,.06-12.1.11-22.77.06t-20.37-.17q-9.7-.11-15-.23a46.64,46.64,0,0,1-6.16-.34q-.11-.69-.68-6-.11-2.4-.29-4.45t-.17-2.74ZM359.72,8l2-.63a26.65,26.65,0,0,1,4.05-.86l4.34-1a6.44,6.44,0,0,0,2.28-.91c.38-.07.76-.17,1.14-.29a3.36,3.36,0,0,1,.91-.17q.57-.23.91.57a22.49,22.49,0,0,1,.8,4.22q.34,1.37.91,3.48t1.14,4.34q.57,2.23,1,4.28a18.27,18.27,0,0,1,.4,3.31,1.39,1.39,0,0,1-.46,1.54,5.48,5.48,0,0,1-2.74.63l-2.74.63q-1.71.4-3.42.63a27.3,27.3,0,0,1-3.94.46,2.81,2.81,0,0,1-1.77-.46q-.11-.34-.4-1.48a15.8,15.8,0,0,1-.4-2.62q-.34-1.6-1-4.34t-1.37-5.25q-.68-2.4-1.14-4.11A15.92,15.92,0,0,1,359.72,8Zm23.17,53.64a20.36,20.36,0,0,1,2.23-1.26q1.77-.91,3.88-1.94t4-1.77a9.84,9.84,0,0,1,2.34-.74c.15,0,.51.44,1.08,1.31s1.24,2,2,3.48,1.43,2.74,2.23,4.11,1.43,2.4,1.88,3.08a30.23,30.23,0,0,0,1.6,3,37.48,37.48,0,0,1,1.83,3.42q1.71,3.08,3.48,5.76t4.39,6.22q1.48,1.94,2.91,3.94l2.8,3.94q2.74,4.11,3.08,4.79,0,.69-1.66,2.28a48.15,48.15,0,0,1-3.77,3.25,44.55,44.55,0,0,1-4.05,2.85,7.83,7.83,0,0,1-2.4,1.2c-.3,0-.9-.48-1.77-1.43s-1.92-2.19-3.14-3.71q-.91-1.37-2.28-3.08t-2.4-2.85q-4.68-6.28-9.24-13.64a100.13,100.13,0,0,1-7.53-14.55,26.29,26.29,0,0,0-.91-2.51q-.57-1.37-.91-2.05a3.28,3.28,0,0,1-.8-2Q381.86,62.1,382.89,61.64Z"/><path class="b" d="M439.27,33.79a8.75,8.75,0,0,0,2.85-1.48A30.2,30.2,0,0,0,448,27.4a43,43,0,0,0,5.31-7.08A60.47,60.47,0,0,1,456.67,15q2.34-3.42,6.22-8.9,1.71-2.4,2.91-4A7.88,7.88,0,0,0,467,.24q0-.68,2.63.57a30.34,30.34,0,0,0,5.59,1.94Q478.07,3.44,481,4a4.34,4.34,0,0,1-.46,1.6c-.46,1-.65,1.48-.57,1.48q0,.23,1.66.29t4.17.06q2.4.23,6.45.29t7.59.29l6.39.23q2.74.12,3.2.11a2,2,0,0,1,1,.17,3,3,0,0,1,.74.86,5.89,5.89,0,0,1,.4,1.08c.11.42.21.74.29,1a11.11,11.11,0,0,1-.17,3.59,11.23,11.23,0,0,1-1.2,3.71q-.34.57-.8,1.48t-.91,1.94l-.91,2.05a7.45,7.45,0,0,1-.91,1.6,3.46,3.46,0,0,0-.63,1.14c0,.23,0,.34.06.34q.34.34,3.88.51t11.18.4q3.77.12,6.33.23a17.4,17.4,0,0,1,2.8.23,10.64,10.64,0,0,1,.17,2.34q.06,2.23.11,5.54t.06,7.19V60q.34,20,.34,39.94v4.91a26.16,26.16,0,0,1-.11,2.8,8,8,0,0,1-.23,1.31,1.45,1.45,0,0,1-.34.57,4.12,4.12,0,0,1-1.65.68q-1.31.34-4.51.8l-3,.57q-1.26.23-2.45.4a17.75,17.75,0,0,1-2.51.17c-.88,0-1.88,0-3-.11H508a19.25,19.25,0,0,1-.4-2.45q-.17-1.54-.4-3.94t-.4-3.59a5,5,0,0,1-.06-1.65c0-.08.4-.15,1.2-.23s1.77-.15,2.91-.23,2.17-.3,3.08-.46a15,15,0,0,1,1.71-.23l1-.34V88.12l-2.85.11q-1.48.12-4.68.23t-7.7.23q-4.51.12-10.1.23t-11.75.34q-5.48.23-9.53.29a35,35,0,0,0-5.08.29h-2.05l-1,3.77a30.93,30.93,0,0,1-7,13.69q-1.26,1.6-2.11,2.74a5,5,0,0,1-1.31,1.37l-.91.68-3.65-2.51a27.52,27.52,0,0,1-3.31-2.34q-1.6-1.31-2.62-2.11l-2.05-2.05,1-1.94q.57-.91,1.54-2.85t2.05-4.17q1.08-2.23,2-4.28t1.26-3.08a12.82,12.82,0,0,0,.57-2.17q.23-1.25.46-2.17t.4-2.57q.28-1.54.4-2.91a82.52,82.52,0,0,0,1.54-9.47q.63-5.59.74-11.07.34-4.45.46-7.48t.17-4.79q.06-1.77,0-2.62c0-.57-.06-.89-.06-1l-.23-.91-1,.91a7,7,0,0,1-1.31,1q-.86.51-1.88,1t-2,.91q-1,.4-1.65.63t-1.08-.68q-.51-1-2-5.25A27.82,27.82,0,0,1,439,34.25C438.94,33.87,439,33.72,439.27,33.79Zm26.36,42.45a11.09,11.09,0,0,0,3.2.46q3,.23,7.3.46l5.25.11V63.81h-2.74q-1.37,0-3.31.06t-3.88.06a20.66,20.66,0,0,0-3.54.17q-.69.17-.68.74c-.15.68-.34,1.56-.57,2.63a35.74,35.74,0,0,0-.57,3.88A37.48,37.48,0,0,0,465.63,76.25Zm23.51-47.36.68-1.71a15.46,15.46,0,0,1,.68-1.65,3.93,3.93,0,0,1,1-1.43l2.05-3.42a9.86,9.86,0,0,0,1.14-2.28,7,7,0,0,0-2.17-.11q-1.26,0-4.34-.06t-7.87.17l-6.62.23-1.6,2.85a12.44,12.44,0,0,1-1.43,2.68l-1.66,2.45-1.48,2.28Zm-20.2,23.4,2.85.23q1.37,0,3.2.06t3.31.06l3.31.23.11-5.82V41.33l-6.16-.11h-4.51a6.06,6.06,0,0,0-1.77.11c0,.15,0,.76-.11,1.83s-.11,2.36-.11,3.88Zm28.42,23.85h5.93q2.62,0,5.36.06t4.45.06l3.54.23V67.69q-.12-1.94-.11-2.91v-1.2a18.09,18.09,0,0,0-2.85-.23q-2.63-.11-6.62-.11l-9.24-.11-.11,1.37q0,.46-.11,2.34T497.36,71Zm1.48-24.31q.91,0,2.85.06l5,.17q3.08.11,5.14.23t3,.23l1.83.11V40.3h-5.48q-2.4.23-4.85.23t-4.05.11l-3.42.23L498.73,43a12,12,0,0,0-.23,2.57v2.91a22.32,22.32,0,0,0-.06,2.63C498.48,51.6,498.61,51.83,498.84,51.83Z"/><path class="b" d="M555.45,78l15.75.11q3.42,0,6.68.06l6,.11,4.85.11q2.11.06,3.25.06l4.79.23,1-1.25a7,7,0,0,1,1.94-1.66q1.48-1,3.65-2.22,3.42-2.06,5.93-3.71a16.94,16.94,0,0,0,2.85-2.11q.23-.57-.91,0-.68,0-6.5.17t-18.15.29l-9.7.23-.23-.69a10.63,10.63,0,0,1-.23-1.83q-.12-1.48-.11-3.31L576,57.88l15.75.23q3.42,0,7,.06t7,.17q3.42.11,6.39.17t5.14.06q6.62.34,10,.29a38.13,38.13,0,0,0,5.42-.4,1.51,1.51,0,0,1,1.71.4A14.44,14.44,0,0,1,636.25,62a14.42,14.42,0,0,1,1.48,3.48,2.37,2.37,0,0,1-.91,1.88,18.19,18.19,0,0,1-2.34,1.88q-1.54,1.09-3.54,2.4t-4.22,2.57q-2.23,1.26-4.51,2.4l-2,1.2q-.86.51-.86.63.57.34,6.5.23t10.39-.34q2.05,0,5.42-.17t6.45-.17h7.3V89l-6.62.23q-3,0-6.56.17l-6.11.29q-2.63,0-5.71.17t-5.48.17q-2.17.23-4.39.29T617,90.4l-2.74.23L614,96.79q-.11,11-1.37,12.21a9.55,9.55,0,0,1-3.37,1.08L603,111.4q-1.26.11-3,.11t-4.05.11a22.07,22.07,0,0,1-5.36-.23c0-.15,0-.74-.11-1.77s-.11-2.26-.11-3.71l-.11-5.36,1.83-.11q.68,0,2.17-.11t2.63-.11l3.08-.11V89.26l-9.7.11q-4.11.23-8.33.4t-6.39.17l-5.93.29q-3.54.17-6.62.17l-7.08.23-.11-4.79q0-2.06-.11-3.88t-.11-2.62Zm.68-28.42V44.18l1.83-.34q.91,0,2.11-.06a15.45,15.45,0,0,0,2.34-.29l2.28-.11V41.1c0-.53,0-1.46-.11-2.8s-.11-2.68-.11-4.05-.17-3.37-.29-5.76-.17-4.74-.17-7q-.23-3.42-.29-6.5t-.06-4.45a20.93,20.93,0,0,1,.11-3.31,20.17,20.17,0,0,1,3.82-.91q3.14-.57,6.9-1.14a37.41,37.41,0,0,0,4.11-.46q2.05-.34,3.08-.57,1.71-.11,2.91-.29c.8-.11,1.2-.13,1.2-.06s0,.53.06,1.14a13,13,0,0,0,.4,2.28q.57,3.2,0,3.42-.12.23-1.31.57t-2.91.69q-2.05.46-3.2.68a3.56,3.56,0,0,0-1.6.63,1.43,1.43,0,0,0-.46,1.14c0,.5,0,1.2.11,2.11l.11,3.08,10.16.68v3.31a19.62,19.62,0,0,1,.06,2.51,2.27,2.27,0,0,1-.29,1.25l-1.48.17a30.81,30.81,0,0,1-3.65.17l-4.79.11.23,2.05v2.05l1.37.23a27.94,27.94,0,0,0,4.11.4q2.17.06,4.11.06.57.34.34,3.31v3.08l-2.62.34q-1.14,0-2.62.06t-2.51.06H577v4.45l29.44-.11q12.67-.23,20.77-.34h8.67a1.6,1.6,0,0,0,.11-.68,7.45,7.45,0,0,0,.11-1.71l.11-2.4-5.93-.23q-2.74,0-4.45-.17T623.92,38a3.21,3.21,0,0,1-.23-1.14q-.12-1-.23-2.4l-.23-3.31,12.9.34.34-.68c0-.23,0-.57.06-1s.06-.84.06-1.14v-1.6h-12l-.11-2.4a10.17,10.17,0,0,1-.23-2.22V18.39l6.39.34,6.28.11V12.91L631,13h-5.82V9.2A2,2,0,0,0,625,8.12q0-.91.34-.91V6.75a4.12,4.12,0,0,1-.23-.57,2.12,2.12,0,0,1-.11-.68v-.8l11.64.11q11.41.12,11.64.57.57.8.57,4.17t-.57,11.24q-.11,2.29-.11,5.42T648,33.45q-.12,4.11-.06,6.39a23,23,0,0,0,.17,2.85,2.94,2.94,0,0,0,1.08.23,20.39,20.39,0,0,0,2.34.11c.91,0,1.67,0,2.28.06s.91.13.91.29q.23.12.29,2.51t.06,5.82v8.22h-3.42a15.78,15.78,0,0,1-3,.17,10.42,10.42,0,0,0-2.57.17q-1.6.23-2-.23a7,7,0,0,1-.63-3q-.11-2.28-.68-2.4-1.94-.57-8.39-.57T616.85,54q-11.07,0-19.74.11t-15,.34q-2.51.23-5.25.29t-4.45.06q-1.71,0-2.85.11c-.76.08-1.14.15-1.14.23q0,.57-.06,1.88c0,.88-.11,1.79-.23,2.74s-.23,1.83-.34,2.63a6.07,6.07,0,0,1-.4,1.66c-.08.46-.76.78-2.05,1a48.59,48.59,0,0,1-5.14.4q-2.74,0-3.37-.06c-.42,0-.63-.25-.63-.63s-.15-2.26-.23-5.19S556,53.27,556.13,49.54Zm36.29-43a5.7,5.7,0,0,1,1.37-1.77,8.37,8.37,0,0,1,1.94-1.43A2,2,0,0,1,596.82,3a8.33,8.33,0,0,1,1.65.63A9.84,9.84,0,0,0,601.56,5q.45.11,1.25.4a6.89,6.89,0,0,1,1.48.74,3.6,3.6,0,0,0,1.83.46,8.19,8.19,0,0,0,3.42-1.26q.69-.34,1.31-.68T612.17,4c.08-.08.13-.11.17-.11s.09,0,.17-.11a1.77,1.77,0,0,0,.68-.46,1.42,1.42,0,0,1,1-.46q.91,0,2.74,2.17a5.44,5.44,0,0,1,1.54,2.63q.06.91-1.54,2.28T615.54,12q.17.68,2.8,2.28l2.17,1.48-.46,1a23.5,23.5,0,0,1-1.71,3.08,5.25,5.25,0,0,1-1.37,1.6,4.06,4.06,0,0,1-.69-.06,7.36,7.36,0,0,1-1-.29q-.69-.23-1.83-.74l-3-1.31-1.54-.68c-.5-.23-.93-.42-1.31-.57a4.64,4.64,0,0,0-.57-.23,4.15,4.15,0,0,1-.57-.23.46.46,0,0,1-.34.11,2.28,2.28,0,0,0-.8.57,6.29,6.29,0,0,1-1.54.91l-2.62,1.26q-1.43.68-2.8,1.2l-1.94.74a2,2,0,0,1-1.54.06.84.84,0,0,1-.51-.74,2.28,2.28,0,0,0-.34-1,6.92,6.92,0,0,1-.57-1.43,9.22,9.22,0,0,0-.68-1.48,2,2,0,0,1-.34-.8c0-.08.11-.21.34-.4s.46-.4.68-.63a4.39,4.39,0,0,0,1.48-.74l1.94-1.31a24,24,0,0,0,2-1.37q.4-.34.06-.68-.12-.34-1.14-.86t-2.28-1.2a8.7,8.7,0,0,1-3.08-1.48A1.1,1.1,0,0,1,592.43,6.52Zm3.77,29.1a17,17,0,0,0,1.88-1q.86-.51,1.2-.74l.69-.46-1.48-.91-1.2-.8a1.66,1.66,0,0,0-.74-.34c-.23.08-.3,0-.23-.23s.23-1,.46-2.17a4.45,4.45,0,0,0,.29-1,2.06,2.06,0,0,1,.17-.63v-.68c-.08-.23,0-.47.29-.74a1.32,1.32,0,0,1,1-.4A6.8,6.8,0,0,1,600,26q1.2.4,2.68,1l3.42,1.14,3.08-1.48q1.37-.68,2.51-1.14A5.53,5.53,0,0,1,613.2,25a5.68,5.68,0,0,1,2.28.91,8.87,8.87,0,0,1,2.28,1.71A1.27,1.27,0,0,1,618,29,4.88,4.88,0,0,1,617,30.49a7.25,7.25,0,0,1-1.08.91,5.43,5.43,0,0,0-.63.46c-.46.23-.55.5-.29.8a10.22,10.22,0,0,0,2.34,1.48A11.81,11.81,0,0,1,619,35c.46.3.68.5.68.57a8.92,8.92,0,0,1-1.25,3L617.08,41l-1.14-.23a13.77,13.77,0,0,1-3.42-.86,33.78,33.78,0,0,1-3.65-1.54l-1.48-.68-1.37.68a29.93,29.93,0,0,1-4.11,2.11,33.38,33.38,0,0,1-3.65,1.31l-2.05.57-.46-.68a6.28,6.28,0,0,0-.74-1.08A8.07,8.07,0,0,1,594,39c-.61-.91-.8-1.54-.57-1.88A8,8,0,0,1,596.19,35.62Z"/><path class="b" d="M671.74,106.26q0-9.7.29-19.12T672.54,68q0-2.74.06-7t.29-8.16q.34-7.3.46-14.72t.34-15.29q.23-7.87.46-12.1t.34-4.79a.66.66,0,0,1,.46-.11.5.5,0,0,1,.69.11h1.83q1.48,0,3.88.06l5.54.11q3.14.06,6.68.17l16.55.11L710,8.12a11.47,11.47,0,0,0-.29,2.28c0,.91-.06,1.75-.06,2.51q-.57,6.16-1.48,12.38a73.44,73.44,0,0,1-2.85,12.15q-.34,1.14-.57,2.17A7.89,7.89,0,0,0,704.5,41a5.51,5.51,0,0,0,.4,1.26q.4,1,1,2.4,1,2.17,1.77,4.11T709,52.57q.63,1.88,1.14,3.94t1,4.56q1.37,7.31.69,11.53a12.58,12.58,0,0,1-3.54,7.08,15.49,15.49,0,0,1-4.79,3.25,25.93,25.93,0,0,1-6.39,1.77,5.23,5.23,0,0,1-2.74,0A3.71,3.71,0,0,1,693,83q-.34-1-.68-2.34t-.68-2.57q-.34-1.25-.51-2.23a9.31,9.31,0,0,1-.17-1.31c0-.07.21-.17.63-.29a5.42,5.42,0,0,1,1.43-.17,13,13,0,0,0,4.62-1.6q1.88-1.14,1.88-4.45a21.72,21.72,0,0,0-.4-3.88q-.4-2.17-1-4.39t-1.31-4.28q-.74-2.05-1.43-3.54a6.6,6.6,0,0,0-1.25-2.11q-.92-1.08-2.51-2.68-.57-.57-1-1.08c-.3-.34-.61-.67-.91-1a5.76,5.76,0,0,1-.46-.51c-.15-.19-.3-.36-.46-.51a.47.47,0,0,1,.17-.29,1.5,1.5,0,0,0,.29-.4,10,10,0,0,1,.51-1.14q.4-.8.91-1.77l1-1.94c.34-.65.63-1.2.86-1.66q.45-1.48,1.14-3.82t1-3.82q.11-.8.29-2.57t.34-3.65q.17-1.88.34-3.54a20.25,20.25,0,0,1,.29-2.11v-1l-4,.34a28,28,0,0,0-2.8.11,5.5,5.5,0,0,0-1.31.23q-.11.57-.23,3.71t-.23,7.7q-.12,4.57-.29,9.81t-.23,10q-.06,4.74-.11,8.22t-.06,4.62q0,19.17-.34,31.73t-.68,14.49a5.76,5.76,0,0,0-.29,1.37c0,.46-.06.8-.06,1v.91H671.74Zm37.21-3.88a35.37,35.37,0,0,0,3.65-2.68,36.3,36.3,0,0,0,3.65-3.37,13.85,13.85,0,0,0,2.11-2.68,19,19,0,0,0,1.6-3.59q.74-2.17,1.54-5.14t1.83-7.3q.8-3.88,1.14-5.54a6,6,0,0,0,.23-2,4,4,0,0,0-1-.23,26.6,26.6,0,0,0-3.14-.11q-1.6,0-2.85.11c-.84.08-1.37.11-1.6.11l-.91.34v-12L744,58.1h16q6,0,8.67.11,4.79.11,4.34.46c0,.23,0,.86.06,1.88s.06,2.26.06,3.71V69.4l-6.85.23q-2.74,0-4.68.17t-2.17.17a14.29,14.29,0,0,0-.29,2.68q-.17,2.57-.29,5.71t-.17,5.88q-.06,2.74-.06,3.2-.23,3.54-.29,6t-.06,2.85c.07.38.4.65,1,.8a14.16,14.16,0,0,0,3.14.23,12.51,12.51,0,0,0,2.34-.17,6.09,6.09,0,0,0,1.54-.51l1.37-.46V92.68l.23-3.2h10l.34,5a33.49,33.49,0,0,1-.06,7.25,11.62,11.62,0,0,1-1.43,4.05,8,8,0,0,1-6,3.88,11.87,11.87,0,0,0-2.4.29,23.21,23.21,0,0,1-2.74.4q-1.6.23-3.25.34t-3.37.11a37.71,37.71,0,0,1-5.19-.34,18.33,18.33,0,0,1-3.94-.91q-2.4-1-3.31-4.62A61,61,0,0,1,745.35,93q-.12-3.08-.23-7.42t-.11-8l-.11-8.22h-4.56c-.53,0-.84.08-.91.23q0-.11-.57,3.08A67.36,67.36,0,0,1,735.6,90a36.82,36.82,0,0,1-9.07,14.89,16.81,16.81,0,0,1-2.57,2.05q-1.54,1-3.14,2.05t-3.14,1.83l-2.45,1.26q-.69.34-2.05-.68a6.53,6.53,0,0,1-1.71-2.17c-.23-.38-.44-.74-.63-1.08s-.36-.67-.51-1-.4-.57-.74-1a9,9,0,0,1-.86-1.37l-1.14-1.71Zm2.51-68.25V20l.23-5.36,3.2.23q1.6,0,4.68.17t6.28.17q3.31.11,5.71.11h2.51q2.28.57,1.71-1.14-.11-.57-.57-2T734.28,9a26.8,26.8,0,0,1-1.37-4.68q-.34-.46,2.85-.46,1.37,0,2.91-.11l2.8-.23a21.4,21.4,0,0,1,2.63-.4,2.3,2.3,0,0,1,1.54.4,2.93,2.93,0,0,1,1,1.54q.34,1.09.8,3,.69,2.05,1.2,3.42a6.23,6.23,0,0,0,.74,1.6,19.48,19.48,0,0,0,3.2.29q3.08.17,8.56.17l11.64.34.57,4.45q.23,2.05.34,4.28t.23,4.62q.11,2.4.06,3.82a11.81,11.81,0,0,1-.17,1.88,4.58,4.58,0,0,1-1.43.23q-1.31.12-4.17.23-3.65,0-4.57-.06t-1.14-.4c0-.23,0-.74-.11-1.54s-.19-1.73-.34-2.8l-.34-3.77h-2.05q-3.42,0-13.24.34-9.59.34-16.55.68l-7.87.34v3.65q-.23,1.71-.29,2.8a2.42,2.42,0,0,1-.29,1.31,3.71,3.71,0,0,1-1.25.23q-1.14.12-3.88.11Zm9.24,3.42a5.12,5.12,0,0,1,1.37-.17q1.14-.06,3.77-.11t6.9-.06H765.1V47.38h-5.48q-2.4,0-6.45.17t-7.82.29q-3,.23-6.68.29t-8.27.29q-9,.34-10,.34-.11,0-.11-1.54V43.38L720,37.9Z"/><path class="b" d="M797.05,21.24v-10l.11-7.42,8.67-.23q12.67,0,13.35,1,0,.23-.11,2.28t-.34,4.91q-.11,3.08-.34,7t-.46,6.62q0,.8-.29,6.62t-1,16.78Q816,59.7,815.6,66T815,73.85q-.57,3.54-.91,3.65a6.5,6.5,0,0,1-2.11.23H799.68l-1.6-.23-.23-12.33q0-5.14-.11-9.64t-.11-6.33q-.23-1.71-.34-5.59t-.11-8.22q-.11-4.91-.11-8.45Zm.34,76.24V93.14l3.31-.23h6.56c1.18,0,2.28,0,3.31.11a15.38,15.38,0,0,1,2.45.34l1,.11v4q0,3.65-.29,7t-.74,3.88q-.57.57-3.59.86a36,36,0,0,1-6.68-.06,23.33,23.33,0,0,1-3.42-.46,2.65,2.65,0,0,1-1.14-.57q-.34-.34-.46-2.85T797.4,97.48Z"/></svg>