<svg xmlns="http://www.w3.org/2000/svg" xmlns:xlink="http://www.w3.org/1999/xlink" viewBox="0 0 255 160"><defs><style>.cls-1,.cls-10{fill:none;}.cls-2,.cls-8{fill:#004d40;}.cls-10,.cls-13,.cls-14,.cls-15,.cls-2,.cls-6,.cls-7{stroke:#00251a;stroke-linecap:round;stroke-linejoin:round;}.cls-3{clip-path:url(#clip-path);}.cls-14,.cls-4{fill:#69f0ae;}.cls-15,.cls-5{fill:#9fffe0;}.cls-6{fill:#ededed;}.cls-7{fill:#2bbd7e;}.cls-9{clip-path:url(#clip-path-2);}.cls-11,.cls-13{fill:#fff;}.cls-12{fill:#00251a;}</style><clipPath id="clip-path"><rect class="cls-1" width="255" height="160"/></clipPath><clipPath id="clip-path-2"><path class="cls-2" d="M114.54,59.32c-.31,3.18,4.82,8.66,11.74,9.33s13-3.73,13.32-6.91-5.28-4-12.2-4.61S114.84,56.14,114.54,59.32Z"/></clipPath></defs><title>hex-feature-1</title><g id="main"><g class="cls-3"><circle class="cls-4" cx="115.87" cy="79.28" r="71.92"/><polygon class="cls-5" points="172.35 64.9 162.93 59.46 162.93 70.34 172.35 64.9"/><polygon class="cls-5" points="58.48 19.42 59.83 13.94 54.41 15.51 58.48 19.42"/><polygon class="cls-5" points="55.55 49.48 59.16 51.45 55.55 53.42 53.58 57.03 51.6 53.42 48 51.45 51.6 49.48 53.58 45.87 55.55 49.48"/><polygon class="cls-5" points="166.84 9.12 168.59 10.08 166.84 11.04 165.87 12.8 164.91 11.04 163.16 10.08 164.91 9.12 165.87 7.36 166.84 9.12"/><rect class="cls-5" x="72.49" y="33.06" width="9.32" height="9.81" transform="translate(88.79 -47.23) rotate(71.58)"/><rect class="cls-5" x="74.67" y="15.75" width="3.55" height="3.55" transform="translate(15.92 -32.35) rotate(26.58)"/><path class="cls-6" d="M177,68.35l2.5-3.46a11.56,11.56,0,0,1,8.95-4.79L196,53.91c1.42,3.31,2.52,4.71.54,7.72l-7.18,8.27"/><path class="cls-6" d="M188.83,64.5,197,63.34l16.55-5.7a3.52,3.52,0,0,1,4.57,3.57h0a3.54,3.54,0,0,1-2.18,3l-18.32,7.53-8.15-1"/><path class="cls-6" d="M183.53,72.88l-3-3.61c5.42-2.88,7.23-6,16.39-3.85l19.21-6.27a3.52,3.52,0,0,1,4.57,3.57h0a3.53,3.53,0,0,1-2.18,3L200.19,73.3l-8.15-1"/><path class="cls-6" d="M171.45,79.29l0-.66a15.8,15.8,0,0,1,8.2-13.13h0c5.35-3,12.95-2.15,16.7,2.71l12.28-3.89a3.52,3.52,0,0,1,4.64,3.47h0a3.51,3.51,0,0,1-2.11,3.09l-16.95,8.77L184.87,78l5.1,1.11-2.87,9.19"/><path class="cls-7" d="M134.16,33.7l-11,24.44a27.05,27.05,0,0,0,24.64,38.2h1.31a18.58,18.58,0,0,0,18.45-20.76h0a18.5,18.5,0,0,0-3.17-8.4L153.55,51.6"/><path class="cls-2" d="M138.84,87.83l20.38,16.29-3,9.07,12-36.28,26.69,7.57L182.2,127.39c-1.71,9.87-12.72,18.79-23.38,13.14l-13.67-7.23L132.66,114"/><path class="cls-2" d="M144.63,153.85h0a73.67,73.67,0,0,1-69.41-9.32l-1-.74L81,101.37a29.22,29.22,0,0,1,33.58-24.08l13,2.13A29.24,29.24,0,0,1,151.64,113Z"/><path class="cls-6" d="M138,75.66,136.79,83h0a30.78,30.78,0,0,1-30.69-1.76l-6.66-4.38,2.42-11.95Z"/><rect class="cls-6" x="91.94" y="13.34" width="62.58" height="69.38" rx="31.29" transform="translate(244.68 100.39) rotate(-177.98)"/><rect class="cls-4" x="139.13" y="46.81" width="3.02" height="7.77" rx="1.51"/><circle class="cls-7" cx="150.1" cy="49.52" r="2.51"/><circle class="cls-7" cx="125.1" cy="47.55" r="2.51"/><path class="cls-7" d="M96.88,44.14l44.74-14.92,11.91,7.15.9,4c6.08-3,.86-8.28.86-8.28a39.68,39.68,0,0,0-38.4-29.71h0A39.68,39.68,0,0,0,79.1,30L76,39.66,64.94,64.1a27.05,27.05,0,0,0,24.65,38.2h1.3a18.58,18.58,0,0,0,18.46-20.75h0a18.66,18.66,0,0,0-3.18-8.41L95.39,57.56Z"/><path class="cls-6" d="M99.78,59.42a8.2,8.2,0,0,1,1.61-16.33"/><path class="cls-8" d="M114.54,59.32c-.31,3.18,4.82,8.66,11.74,9.33s13-3.73,13.32-6.91-5.28-4-12.2-4.61S114.84,56.14,114.54,59.32Z"/><g class="cls-9"><ellipse class="cls-6" cx="125.32" cy="54.82" rx="4.36" ry="15.56" transform="translate(42.03 163.33) rotate(-76.12)"/><ellipse class="cls-7" cx="128.22" cy="69.4" rx="7.39" ry="11.53" transform="translate(30.09 177.23) rotate(-76.12)"/></g><path class="cls-10" d="M114.54,59.32c-.31,3.18,4.82,8.66,11.74,9.33s13-3.73,13.32-6.91-5.28-4-12.2-4.61S114.84,56.14,114.54,59.32Z"/><path class="cls-10" d="M123.16,40.69a3.88,3.88,0,0,1,6.82,1"/><path class="cls-10" d="M148.15,43.62c1.26-1.74,5.26-3.74,6.83,1"/><circle class="cls-11" cx="111.91" cy="51.38" r="4"/><polygon class="cls-12" points="99.38 55.02 100.62 55.7 99.38 56.38 98.69 57.63 98.01 56.38 96.77 55.7 98.01 55.02 98.69 53.78 99.38 55.02"/><path class="cls-2" d="M64.35,90.75H94.18a0,0,0,0,1,0,0v44.74A14.91,14.91,0,0,1,79.26,150.4h0a14.91,14.91,0,0,1-14.91-14.91V90.75A0,0,0,0,1,64.35,90.75Z"/><circle class="cls-6" cx="79.15" cy="92.57" r="13.29"/><path class="cls-6" d="M73.93,99.48,64.41,116a3.91,3.91,0,0,1-5.34,1.43h0a3.92,3.92,0,0,1-1.43-5.34l9.52-16.49"/><path class="cls-6" d="M80.19,101l-9.52,16.49A3.91,3.91,0,0,1,65.33,119h0a3.91,3.91,0,0,1-1.43-5.34l9.52-16.49"/><path class="cls-6" d="M73.67,80.84a7.79,7.79,0,0,0-12,3.66l-5,8.72a3.91,3.91,0,1,0,6.77,3.91l1.85-3.21A7.77,7.77,0,0,0,76.8,87.1"/><path class="cls-6" d="M88,102.61l-8.84,15.31a3.91,3.91,0,0,1-5.34,1.43h0A3.91,3.91,0,0,1,72.39,114L81.23,98.7"/><line class="cls-10" x1="72.11" y1="96.48" x2="84.5" y2="99.49"/><circle class="cls-13" cx="186.46" cy="39.89" r="20.59"/><ellipse class="cls-14" cx="72.08" cy="95.59" rx="24.11" ry="12.88" transform="translate(-4.66 3.7) rotate(-2.85)"/><ellipse class="cls-15" cx="72.04" cy="94.64" rx="17.29" ry="9.24" transform="matrix(1, -0.05, 0.05, 1, -4.61, 3.7)"/><polygon class="cls-13" points="53.58 84.98 69.41 67.88 91.26 71.35 53.58 84.98"/><polygon class="cls-7" points="91.26 88.07 53.58 101.71 53.58 84.98 91.26 71.35 91.26 88.07"/><polygon class="cls-15" points="91.26 81.71 53.58 95.35 53.58 91.34 91.26 77.71 91.26 81.71"/><circle class="cls-15" cx="77.15" cy="67.94" r="4.75"/><circle class="cls-15" cx="70.83" cy="69.53" r="3.71"/><circle class="cls-15" cx="76.44" cy="71.34" r="2.96"/><polyline class="cls-10" points="180.99 33.13 173.07 41.05 180.7 48.68"/><polyline class="cls-10" points="193.6 48.68 201.52 40.76 193.89 33.13"/><line class="cls-10" x1="184.45" y1="49.44" x2="189.14" y2="31.37"/></g></g></svg>