<svg xmlns="http://www.w3.org/2000/svg" viewBox="0 0 160 160"><defs><style>.cls-1,.cls-4{fill:#fff;}.cls-1,.cls-2,.cls-3,.cls-4{stroke:#00251a;stroke-linejoin:round;}.cls-1{stroke-linecap:round;}.cls-2{fill:#ededed;}.cls-3,.cls-5{fill:none;}</style></defs><title>hex-progress-sm-3</title><g id="main"><path class="cls-1" d="M37.64,80.44,54,74.61a3.62,3.62,0,0,1,2.85.16l51.79,25.48L99.47,121l-27.34,3.17-34-7a20,20,0,0,1-8.83-4.31l-8.33-7H13.06l-.73-3.22a36.34,36.34,0,0,1,6-29.35l1.75-2.43"/><rect class="cls-1" x="61.88" y="28.83" width="81.43" height="105.86"/><rect class="cls-2" x="59.85" y="28.83" width="81.43" height="105.86" transform="translate(12.36 -13.2) rotate(8)"/><line class="cls-3" x1="67.38" y1="113.07" x2="72.62" y2="75.78"/><rect class="cls-2" x="73.07" y="36.94" width="29.52" height="29.52" transform="translate(8.05 -11.72) rotate(8)"/><circle class="cls-4" cx="88.53" cy="46.66" r="4.58"/><path class="cls-4" d="M81.09,53.15h11.2a2,2,0,0,1,2,2v11.2a0,0,0,0,1,0,0H79.06a0,0,0,0,1,0,0V55.19a2,2,0,0,1,2-2Z" transform="translate(9.16 -11.48) rotate(8)"/><rect class="cls-4" x="107.32" y="50.99" width="31.05" height="4.07" transform="translate(8.58 -16.58) rotate(8)"/><rect class="cls-4" x="79.01" y="76.93" width="32.57" height="4.07" transform="translate(11.92 -12.49) rotate(8)"/><rect class="cls-4" x="76.32" y="96.08" width="32.57" height="4.07" transform="translate(14.56 -11.93) rotate(8)"/><rect class="cls-4" x="74.28" y="114.3" width="32.57" height="4.07" transform="translate(17.07 -11.47) rotate(8)"/><rect class="cls-4" x="106.36" y="57.63" width="25.04" height="4.07" transform="translate(9.46 -15.96) rotate(8)"/><circle class="cls-4" cx="72.62" cy="75.78" r="3.05"/><circle class="cls-4" cx="70" cy="94.43" r="3.05"/><circle class="cls-4" cx="67.38" cy="113.07" r="3.05"/><line class="cls-3" x1="77.96" y1="81.67" x2="98.12" y2="84.5"/><line class="cls-3" x1="77.54" y1="84.69" x2="104.75" y2="88.52"/><line class="cls-3" x1="75.77" y1="100.89" x2="95.93" y2="103.72"/><line class="cls-3" x1="75.35" y1="103.91" x2="102.56" y2="107.74"/><line class="cls-3" x1="73.22" y1="119.03" x2="93.38" y2="121.87"/><line class="cls-3" x1="72.8" y1="122.06" x2="100.01" y2="125.88"/><rect class="cls-2" x="115.45" y="81.08" width="18.32" height="10.18" transform="translate(13.2 -16.5) rotate(8)"/><rect class="cls-2" x="112.76" y="100.23" width="18.32" height="10.18" transform="translate(15.84 -15.94) rotate(8)"/><rect class="cls-2" x="110.21" y="118.37" width="18.32" height="10.18" transform="translate(18.34 -15.41) rotate(8)"/><line class="cls-3" x1="105.21" y1="66.99" x2="136.46" y2="71.39"/><line class="cls-3" x1="108.75" y1="41.79" x2="140" y2="46.18"/><circle class="cls-4" cx="111.27" cy="42.15" r="3.05"/><circle class="cls-4" cx="133.94" cy="71.03" r="3.05"/><path class="cls-1" d="M20.4,70.88l16,8.36,21.07-1.33L73.34,88.63l7.58,1.72a6,6,0,0,1,4.26,8.11h0A6,6,0,0,1,78,102L58.54,96.62,63.62,98h0a25.13,25.13,0,0,1-32.44,6.13L27.48,102"/><polyline class="cls-1" points="77.49 91.83 74.89 97.02 82.19 98.81"/><rect class="cls-5" width="160" height="160"/></g></svg>