<svg xmlns="http://www.w3.org/2000/svg" viewBox="0 0 160 160"><defs><style>.cls-1{fill:#fff;}.cls-1,.cls-2,.cls-4{stroke:#00251a;stroke-linecap:round;stroke-linejoin:round;}.cls-2{fill:#ededed;}.cls-3{fill:#00251a;}.cls-4,.cls-5{fill:none;}</style></defs><title>hex-progress-sm-4</title><g id="main"><path class="cls-1" d="M20.29,92.52,35.51,93a14.73,14.73,0,0,1,12.85,8.39h0l13.69.81h0a7.82,7.82,0,0,1-5.87,8.32l-11.61,2.93-10.12,6.75"/><path class="cls-1" d="M41.34,109.17l15.28,6.2,27,5.33a4.09,4.09,0,0,1,3.21,3.13h0a4.11,4.11,0,0,1-4.08,5l-11.82-.22-22.09-5.31"/><path class="cls-1" d="M45.62,115l15.29,6.2L87.5,125.9A4.41,4.41,0,0,1,91,129.27h0a4.41,4.41,0,0,1-4.38,5.37l-11.44-.21-22.09-5.32"/><path class="cls-2" d="M85.25,22.25a41,41,0,0,0-40.59,35H28.21L45.93,75A41,41,0,1,0,85.25,22.25Z"/><path class="cls-1" d="M20.17,86.07l11.67,6.86,5.89,3.67a41,41,0,0,1,18.45,26.29h0L76.59,128a4.47,4.47,0,0,1,3.33,3.71h0a4.48,4.48,0,0,1-4.6,5.11l-25.65-1-9.24-4A24.72,24.72,0,0,1,25,114.78h0l-10.43-1.33s-8.72-18.1,5.63-27.38Z"/><rect class="cls-1" x="58.36" y="45.72" width="54.81" height="37.22"/><rect class="cls-1" x="58.36" y="45.72" width="54.81" height="19.62"/><rect class="cls-1" x="81.37" y="62.64" width="9.47" height="5.41"/><rect class="cls-1" x="69.38" y="45.72" width="33.46" height="5.41"/><polygon class="cls-1" points="74.3 38.8 74.3 46.68 78.51 46.68 78.51 42.31 93.7 42.31 93.7 46.68 97.92 46.68 97.92 38.8 74.3 38.8"/><path class="cls-1" d="M108.13,71a28.52,28.52,0,0,1,28.2,24.34h11.43l-12.31,12.3A28.5,28.5,0,1,1,108.13,71Z"/><rect class="cls-2" x="87.82" y="90.33" width="36.65" height="21.38"/><rect class="cls-2" x="87.82" y="99.14" width="36.65" height="3.77"/><ellipse class="cls-2" cx="106.15" cy="101.12" rx="8.91" ry="9.01"/><path class="cls-3" d="M104.44,105a2.35,2.35,0,0,0,1.34.67v-3.62a9.66,9.66,0,0,1-1.24-.39,3.36,3.36,0,0,1-.86-.5,1.83,1.83,0,0,1-.51-.72,3.05,3.05,0,0,1-.16-1,2.76,2.76,0,0,1,.22-1.12,2.71,2.71,0,0,1,.59-.89,2.63,2.63,0,0,1,.87-.59,3.06,3.06,0,0,1,1.09-.26v-.9h.74v.91a2.8,2.8,0,0,1,1.75.82,3.94,3.94,0,0,1,.91,1.89H108a1.82,1.82,0,0,0-1.52-1.59v3.36l.81.22a2.88,2.88,0,0,1,.64.24,2.77,2.77,0,0,1,.7.47,2.59,2.59,0,0,1,.58.75,2.39,2.39,0,0,1,.23,1.08,3,3,0,0,1-.22,1.19,2.64,2.64,0,0,1-.62.89,3,3,0,0,1-.93.6,4.32,4.32,0,0,1-1.19.27v1.12h-.74v-1.12a3.38,3.38,0,0,1-2.15-1,3.45,3.45,0,0,1-.9-2.25h1.15A2,2,0,0,0,104.44,105Zm.24-6.89a1.5,1.5,0,0,0-.45,1.18,1.58,1.58,0,0,0,.11.61,1.14,1.14,0,0,0,.33.42,2.14,2.14,0,0,0,.49.3c.19.08.4.15.62.22v-3.2A1.93,1.93,0,0,0,104.68,98.12Zm2.54,7.42a1.5,1.5,0,0,0,.55-.32,1.45,1.45,0,0,0,.37-.53,2.15,2.15,0,0,0,.13-.76,1.4,1.4,0,0,0-.5-1.12,2.16,2.16,0,0,0-.56-.32l-.69-.24v3.43A2.48,2.48,0,0,0,107.22,105.54Z"/><polygon class="cls-2" points="87.82 96.03 87.82 90.33 93.46 90.33 87.82 96.03"/><polygon class="cls-2" points="93.46 111.71 87.82 111.71 87.82 106.01 93.46 111.71"/><polygon class="cls-2" points="124.47 106.01 124.47 111.71 118.83 111.71 124.47 106.01"/><polygon class="cls-2" points="118.83 90.33 124.47 90.33 124.47 96.03 118.83 90.33"/><polyline class="cls-4" points="128.14 108.61 128.14 86.91 93.83 86.91"/><rect class="cls-5" width="160" height="160"/></g></svg>