<svg xmlns="http://www.w3.org/2000/svg" viewBox="0 0 160 160"><defs><style>.cls-1,.cls-2{fill:#fff;}.cls-1,.cls-3{stroke:#00251a;}.cls-1{stroke-linecap:round;}.cls-1,.cls-2,.cls-3{stroke-linejoin:round;}.cls-2{stroke:#000;}.cls-3{fill:#ededed;}.cls-4{fill:none;}</style></defs><title>hex-progress-sm-5</title><g id="main"><path class="cls-1" d="M60.77,107.79l19.44,10.47a5.41,5.41,0,0,0,7.29-2.13h0a5.41,5.41,0,0,0-1.18-6.71L54.41,81.6a5.41,5.41,0,0,0-3.71-1.33l-29,.88h0c-17.16,16.17-5,38-5,38L39.79,132.7a5.41,5.41,0,0,0,5.88-.27l13.48-9.68a5.39,5.39,0,0,0,1.48-7.17L52.5,102a5.41,5.41,0,0,1-.75-2.24l-.82-8.24.71,7.14a5.42,5.42,0,0,0,2.06,3.73L60,107.3A4.69,4.69,0,0,0,60.77,107.79Z"/><path class="cls-1" d="M34.94,120l2.77,5.54a4.06,4.06,0,0,0,3.06,2.2l13.44,1.93a4.07,4.07,0,0,0,4.51-3l.48-1.85a4.07,4.07,0,0,0-2.64-4.87l-16.69-5.61a4.06,4.06,0,0,0-4.78,1.76h0A4.06,4.06,0,0,0,34.94,120Z"/><path class="cls-1" d="M42.77,117.36l3.37,3.37A4.6,4.6,0,0,0,48.56,122l15.51,2.65a4.49,4.49,0,0,0,5.08-3.19l.84-2.93a4.5,4.5,0,0,0-3.62-5.69l-19.72-3.08a4.49,4.49,0,0,0-5.19,4.52h0A4.53,4.53,0,0,0,42.77,117.36Z"/><polygon class="cls-2" points="57.66 82.84 99.96 56.8 142.27 82.84 57.66 82.84"/><rect class="cls-2" x="57.66" y="82.84" width="84.61" height="52.07"/><rect class="cls-3" x="67.01" y="37.28" width="65.09" height="84.61"/><polygon class="cls-2" points="142.27 134.91 57.66 82.84 57.66 134.91 142.27 134.91"/><polygon class="cls-2" points="57.66 134.91 142.27 82.84 142.27 134.91 57.66 134.91"/><polygon class="cls-2" points="57.66 134.91 99.96 108.88 142.27 134.91 57.66 134.91"/><circle class="cls-2" cx="99.96" cy="107.92" r="9.76"/><path d="M101.69,110.83a2.59,2.59,0,0,0,0,.52.64.64,0,0,0,.12.36.42.42,0,0,0,.34.14,2.06,2.06,0,0,0,1.25-.45,4.4,4.4,0,0,0,1.06-1.16,6.76,6.76,0,0,0,.72-1.56,5.56,5.56,0,0,0,.27-1.68,5.14,5.14,0,0,0-.44-2.16,4.63,4.63,0,0,0-1.2-1.62,5.49,5.49,0,0,0-1.77-1,6.26,6.26,0,0,0-2.13-.35,6.09,6.09,0,0,0-4.46,1.88,6.22,6.22,0,0,0-1.27,2,7,7,0,0,0-.44,2.53,6.55,6.55,0,0,0,.46,2.48,6.23,6.23,0,0,0,1.3,2,6.15,6.15,0,0,0,4.45,1.83,5.41,5.41,0,0,0,1.43-.19,6.41,6.41,0,0,0,1.38-.52,6.23,6.23,0,0,0,1.23-.81,5.65,5.65,0,0,0,1-1.08h1a6.52,6.52,0,0,1-1.1,1.45,7,7,0,0,1-1.45,1.09,7.22,7.22,0,0,1-3.48.92,7.44,7.44,0,0,1-2.91-.56,6.89,6.89,0,0,1-2.3-1.54,7.07,7.07,0,0,1-1.5-2.33,7.61,7.61,0,0,1-.54-2.88,7.27,7.27,0,0,1,.56-2.84,6.93,6.93,0,0,1,1.53-2.28A7.12,7.12,0,0,1,97,101.55a7,7,0,0,1,2.8-.56,7.65,7.65,0,0,1,2.61.44,6.14,6.14,0,0,1,2.1,1.25,5.94,5.94,0,0,1,1.4,1.92,5.82,5.82,0,0,1,.51,2.46,6.23,6.23,0,0,1-.4,2.21,6.36,6.36,0,0,1-1.05,1.8,5,5,0,0,1-1.45,1.22,3.43,3.43,0,0,1-1.63.43,1.27,1.27,0,0,1-.88-.33,1.4,1.4,0,0,1-.43-1h0a5.78,5.78,0,0,1-1.09.87,2.52,2.52,0,0,1-1.39.42,2.48,2.48,0,0,1-1.08-.23,2.34,2.34,0,0,1-.81-.61,2.59,2.59,0,0,1-.51-.9,3.3,3.3,0,0,1-.18-1.1,6.47,6.47,0,0,1,.33-2,6.35,6.35,0,0,1,.94-1.81,4.73,4.73,0,0,1,1.47-1.31,3.71,3.71,0,0,1,1.89-.5,2.05,2.05,0,0,1,1.19.38,2.68,2.68,0,0,1,.88,1.26l.49-1.27h1l-1.87,5.62A5,5,0,0,0,101.69,110.83Zm-3-5.12a4.21,4.21,0,0,0-1,1.13A5.39,5.39,0,0,0,97,108.3a5.12,5.12,0,0,0-.24,1.48,2,2,0,0,0,.46,1.38,1.5,1.5,0,0,0,1.16.51,2,2,0,0,0,1.27-.48,5.09,5.09,0,0,0,1-1.17,6.52,6.52,0,0,0,.69-1.49,4.85,4.85,0,0,0,.25-1.45,1.7,1.7,0,0,0-.13-.67,2.24,2.24,0,0,0-.35-.58,2.1,2.1,0,0,0-.49-.41,1.16,1.16,0,0,0-.57-.15A2.32,2.32,0,0,0,98.69,105.71Z"/><path class="cls-4" d="M120.71,33H150V62.3H120.71Z"/><path class="cls-2" d="M121.93,58.64h4.88V44h-4.88Zm26.85-13.43a2.45,2.45,0,0,0-2.44-2.44h-7.7l1.16-5.58,0-.39a1.82,1.82,0,0,0-.53-1.29L138,34.23l-8,8a2.39,2.39,0,0,0-.72,1.72v12.2a2.45,2.45,0,0,0,2.44,2.45h11a2.41,2.41,0,0,0,2.24-1.49l3.69-8.61a2.39,2.39,0,0,0,.17-.89V45.32h0Z"/><path class="cls-4" d="M57.25,52.53H76.78V72.06H57.25Z"/><path class="cls-2" d="M58.06,69.62h3.26V59.86H58.06Zm17.9-9A1.63,1.63,0,0,0,74.34,59H69.2L70,55.32l0-.26a1.23,1.23,0,0,0-.36-.86l-.86-.85-5.35,5.36A1.55,1.55,0,0,0,63,59.86V68a1.63,1.63,0,0,0,1.62,1.63h7.32a1.62,1.62,0,0,0,1.5-1l2.46-5.74A1.67,1.67,0,0,0,76,62.3V60.74h0Z"/><path class="cls-4" d="M82.47,19.62h24.41V44H82.47Z"/><path class="cls-2" d="M83.49,41h4.07V28.77H83.49Zm22.37-11.19a2,2,0,0,0-2-2H97.41l1-4.65,0-.33A1.54,1.54,0,0,0,98,21.71l-1.08-1.07-6.69,6.7a2,2,0,0,0-.6,1.43V38.94a2,2,0,0,0,2,2h9.16a2,2,0,0,0,1.87-1.24l3.07-7.17a2.07,2.07,0,0,0,.14-.74V29.88h0Z"/><path class="cls-4" d="M80.44,54.77h39.05v39h-39Z"/><path class="cls-2" d="M100,58A16.27,16.27,0,1,0,116.24,74.3,16.27,16.27,0,0,0,100,58Zm0,29.28a13,13,0,1,1,13-13A13,13,0,0,1,100,87.31Zm5.7-14.64a2.44,2.44,0,1,0-2.44-2.44A2.44,2.44,0,0,0,105.66,72.67Zm-11.39,0a2.44,2.44,0,1,0-2.44-2.44A2.44,2.44,0,0,0,94.27,72.67ZM100,83.25a8.94,8.94,0,0,0,8.32-5.7H91.65A8.94,8.94,0,0,0,100,83.25Z"/><circle class="cls-2" cx="112.57" cy="61.28" r="6.92"/><polyline class="cls-2" points="108.22 61.48 110.99 64.25 116.72 58.51"/><path class="cls-1" d="M20.94,111.06l9.62,1.75h0a19.29,19.29,0,0,0,24.08,3.07l1.66-1,8.79,1.22,7.63-1.76a6,6,0,0,0,4.64-5.83h0a6,6,0,0,0-5.62-6l-13.68-.84-16-6"/><polyline class="cls-1" points="67.92 104.75 67.92 112.3 73.62 111.48"/><rect class="cls-4" width="160" height="160"/></g></svg>