<svg xmlns="http://www.w3.org/2000/svg" xmlns:xlink="http://www.w3.org/1999/xlink" viewBox="0 0 160 160"><defs><style>.cls-1,.cls-5{fill:none;}.cls-1,.cls-2,.cls-3{stroke:#00251a;stroke-linecap:round;stroke-linejoin:round;}.cls-2{fill:#fff;}.cls-3{fill:#ededed;}.cls-4{clip-path:url(#clip-path);}</style><clipPath id="clip-path"><path class="cls-1" d="M84.38,88.75,29.44,132.7l.36.14a151.62,151.62,0,0,0,109.15,0l.36-.14h0Z"/></clipPath></defs><title>hex-progress-sm-1</title><g id="main"><circle class="cls-2" cx="85.03" cy="89.72" r="45.72"/><circle class="cls-3" cx="85.03" cy="89.72" r="29.53"/><path class="cls-2" d="M58.09,48.2l13.7-6.69a3.74,3.74,0,0,1,4.58,1.06L88.2,57.74l-10,14.88-21.87.24,15.75-16.6-5.58-4"/><path class="cls-2" d="M52.46,46.12l14.09-6.88a3.2,3.2,0,0,1,3.92.9L82.56,55.65,63.84,76l-9.18-9.8,11.79-12-5.57-4"/><path class="cls-2" d="M14.81,69.94l27.13,4.37,24-5.89L62.59,56l.86,2.88L95.09,69.62a4.61,4.61,0,0,0,5.23-1.68h0a4.61,4.61,0,0,0-1.19-6.51L63.75,37.85a6.22,6.22,0,0,0-6.85,0L39,49.49,25.31,37.56h0A33.11,33.11,0,0,0,14.5,68.14l.31,1.8"/><path class="cls-2" d="M84.38,88.75,29.44,132.7l.72.28a151.67,151.67,0,0,0,109.15-.28h0Z"/><g class="cls-4"><polygon class="cls-2" points="108.96 98.17 96.67 98.17 84.38 87.72 72.08 98.17 59.79 98.17 72.08 108 78.23 103.08 84.38 108 90.52 103.08 96.67 108 108.96 98.17"/></g><path class="cls-1" d="M84.38,88.75,29.44,132.7l.36.14a151.62,151.62,0,0,0,109.15,0l.36-.14h0Z"/><polygon class="cls-3" points="139.85 32.6 121.14 29.36 117.37 51.07 136.09 54.32 130.84 42.22 139.85 32.6"/><rect class="cls-3" x="91.85" y="33" width="34.2" height="22.04" transform="translate(9.13 -17.97) rotate(9.84)"/><polygon class="cls-2" points="127.68 36.08 121.14 29.36 120.19 34.78 127.68 36.08"/><line class="cls-1" x1="94.04" y1="29.96" x2="85.03" y2="81.17"/><path class="cls-2" d="M14.81,69.94,42,74.29l1.24,1.08a20.77,20.77,0,0,0,26.26.77h0l17.18-2.08a5.37,5.37,0,0,0,4-5h0a5.38,5.38,0,0,0-6.19-5.49L71,64.48,58.1,59.71"/><polyline class="cls-2" points="81.23 65.97 81.23 72.62 86.84 72"/><polygon class="cls-2" points="109.44 119.31 114.94 123.09 117.34 121.42 120.77 123.76 128.67 118.38 121.46 113.47 114.25 118.38 110.47 115.81 109.44 116.56 101.89 119.31 109.44 119.31"/><polygon class="cls-2" points="38.45 114.56 43.95 118.34 46.35 116.67 49.78 119.01 57.68 113.64 50.47 108.72 43.26 113.64 39.48 111.06 38.45 111.82 30.9 114.56 38.45 114.56"/><polygon class="cls-2" points="109.7 37.35 111.04 41.95 115.59 43.45 111.63 46.15 111.61 50.94 107.82 48.01 103.26 49.47 104.87 44.96 102.08 41.07 106.86 41.21 109.7 37.35"/><polygon class="cls-2" points="103.16 16.13 109.81 18.02 104.11 29.42 103.16 16.13"/><polygon class="cls-2" points="114.2 17.19 117.49 21.21 109.1 25.8 114.2 17.19"/><rect class="cls-5" width="160" height="160"/></g></svg>