<svg xmlns="http://www.w3.org/2000/svg" viewBox="0 0 160 160"><defs><style>.cls-1,.cls-12,.cls-2,.cls-3,.cls-4,.cls-5,.cls-6,.cls-8{fill:none;}.cls-1,.cls-10,.cls-11,.cls-2,.cls-3,.cls-4,.cls-5,.cls-6,.cls-7,.cls-8,.cls-9{stroke:#00251a;stroke-linecap:round;stroke-linejoin:round;}.cls-1{stroke-dasharray:28;}.cls-10,.cls-11,.cls-2{stroke-dasharray:24;}.cls-3{stroke-dasharray:19;}.cls-4{stroke-dasharray:12;}.cls-5{stroke-dasharray:4;}.cls-6{stroke-dasharray:27;}.cls-10,.cls-7{fill:#fff;}.cls-11,.cls-9{fill:#ededed;}</style></defs><title>hex-progress-sm-2</title><g id="main"><line class="cls-1" x1="98.22" y1="69.87" x2="36.91" y2="81.77"/><line class="cls-2" x1="98.22" y1="69.87" x2="105.54" y2="119.29"/><line class="cls-2" x1="51.55" y1="48.83" x2="98.22" y2="69.87"/><line class="cls-3" x1="51.55" y1="31.44" x2="98.22" y2="69.87"/><line class="cls-4" x1="146.72" y1="111.97" x2="98.22" y2="69.87"/><line class="cls-2" x1="148.55" y1="40.59" x2="98.22" y2="69.87"/><line class="cls-2" x1="118.35" y1="21.38" x2="98.22" y2="69.87"/><line class="cls-5" x1="108.28" y1="26.87" x2="98.22" y2="69.87"/><line class="cls-6" x1="119.26" y1="127.52" x2="98.22" y2="69.87"/><path class="cls-7" d="M11.31,120.69l4.38.87,27.05,16.36a7.56,7.56,0,0,0,8.24-.29l12.64-8.89,2.79-23.4"/><polyline class="cls-7" points="75.8 100.53 35.08 141.25 27.76 141.25 27.76 134.84 68.94 93.67"/><line class="cls-8" x1="27.76" y1="141.25" x2="71.68" y2="97.33"/><circle class="cls-7" cx="98.45" cy="69.65" r="38.2"/><circle class="cls-9" cx="98.45" cy="69.65" r="30.88"/><polyline class="cls-9" points="89.83 60.39 79 71.22 89.43 81.65"/><polyline class="cls-9" points="107.06 81.65 117.89 70.82 107.46 60.39"/><line class="cls-8" x1="94.56" y1="82.69" x2="100.96" y2="57.98"/><path class="cls-7" d="M39.08,126l14.54,10.37A5.29,5.29,0,0,0,61.08,135h0a3.78,3.78,0,0,0-1.2-5.34l-16.67-10A3.77,3.77,0,0,0,38,121h0A3.77,3.77,0,0,0,39.08,126Z"/><path class="cls-7" d="M46.61,123.23,60,130.42a6.53,6.53,0,0,0,8.92-2.77h0a5.13,5.13,0,0,0-2.53-7.06L51.07,114a5.14,5.14,0,0,0-6.7,2.59h0A5.12,5.12,0,0,0,46.61,123.23Z"/><path class="cls-7" d="M53.47,119.2l13.38,7.19a6.54,6.54,0,0,0,8.92-2.77h0a5.13,5.13,0,0,0-2.53-7.06L57.93,110a5.14,5.14,0,0,0-6.7,2.59h0A5.12,5.12,0,0,0,53.47,119.2Z"/><path class="cls-7" d="M26.12,115.32h0A17.46,17.46,0,0,0,54,111.88l.23-.41-2.42,3.73,9.28-.09L61.5,113l-.44,2.09h0A10.84,10.84,0,0,0,71.13,125l.9.06-.78-22L55.81,94.3a8.49,8.49,0,0,0-6.18-.89L30.93,97.8l-8.3-10.34C6.54,97.65,11.31,120.69,11.31,120.69l4.38.87"/><path class="cls-8" d="M68.79,121.15l-.36-6.41A1.67,1.67,0,0,1,70.1,113h0"/><circle class="cls-10" cx="39.2" cy="60.27" r="2.29"/><circle class="cls-10" cx="138.94" cy="93.21" r="2.29"/><circle class="cls-11" cx="59.33" cy="26.41" r="2.29"/><circle class="cls-11" cx="97.76" cy="122.49" r="2.29"/><circle class="cls-10" cx="144.43" cy="31.9" r="2.29"/><rect class="cls-12" x="10" y="10" width="139.13" height="140"/><rect class="cls-12" width="160" height="160"/></g></svg>