<svg xmlns="http://www.w3.org/2000/svg" xmlns:xlink="http://www.w3.org/1999/xlink" viewBox="0 0 255 160"><defs><style>.cls-1,.cls-10{fill:none;}.cls-2,.cls-7{fill:#004d40;}.cls-10,.cls-11,.cls-12,.cls-2,.cls-6,.cls-9{stroke:#00251a;stroke-linecap:round;stroke-linejoin:round;}.cls-3{clip-path:url(#clip-path);}.cls-12,.cls-4{fill:#69f0ae;}.cls-5{fill:#9fffe0;}.cls-6{fill:#ededed;}.cls-8{clip-path:url(#clip-path-2);}.cls-9{fill:#2bbd7e;}.cls-11,.cls-13{fill:#fff;}</style><clipPath id="clip-path"><rect class="cls-1" width="255" height="160"/></clipPath><clipPath id="clip-path-2"><ellipse class="cls-2" cx="136" cy="65.78" rx="8.08" ry="4.66" transform="matrix(1, -0.06, 0.06, 1, -3.71, 8.3)"/></clipPath></defs><title>hex-feature-2</title><g id="main"><g class="cls-3"><circle class="cls-4" cx="128" cy="77.6" r="73"/><polygon class="cls-5" points="200.65 50.7 191.22 45.26 191.22 56.13 200.65 50.7"/><polygon class="cls-5" points="52.63 44.46 53.98 38.98 48.56 40.55 52.63 44.46"/><polygon class="cls-5" points="68.2 61.22 71.81 63.19 68.2 65.17 66.23 68.77 64.25 65.17 60.65 63.19 64.25 61.22 66.23 57.61 68.2 61.22"/><polygon class="cls-5" points="193.76 12.25 195.51 13.21 193.76 14.17 192.79 15.93 191.83 14.17 190.08 13.21 191.83 12.25 192.79 10.49 193.76 12.25"/><rect class="cls-5" x="66.79" y="12.11" width="9.32" height="9.81" transform="matrix(0.32, 0.95, -0.95, 0.32, 65.01, -56.15)"/><rect class="cls-5" x="183.6" y="66.11" width="3.55" height="3.55" transform="translate(49.96 -75.76) rotate(26.58)"/><path class="cls-2" d="M161.17,69h0A14.07,14.07,0,0,1,175.23,83.1v44.7a0,0,0,0,1,0,0H147.1a0,0,0,0,1,0,0V83.1A14.07,14.07,0,0,1,161.17,69Z" transform="translate(-24.07 61.69) rotate(-20.2)"/><path class="cls-2" d="M81.6,69h28.13a0,0,0,0,1,0,0v44.7A14.07,14.07,0,0,1,95.66,127.8h0A14.07,14.07,0,0,1,81.6,113.74V69a0,0,0,0,1,0,0Z" transform="matrix(-0.94, -0.35, 0.35, -0.94, 151.46, 223.81)"/><path class="cls-2" d="M162.22,145.73h0a65.38,65.38,0,0,1-66.63,2.16l-1.06-.58L94.35,103c0-16.66,12.45-30.17,27.81-30.17h12.5c15.36,0,27.82,13.51,27.82,30.17Z"/><path class="cls-6" d="M143.38,80.53l-.37.16h0a23,23,0,0,1-30.29.1l-.3-.26h0V60.59h31Z"/><rect class="cls-6" x="95.87" y="10.49" width="64.59" height="71.61" rx="32.29"/><path class="cls-6" d="M97.55,57.71a8.11,8.11,0,1,1,0-16.21"/><path class="cls-6" d="M158.24,41.5a8.11,8.11,0,1,1,0,16.21"/><ellipse class="cls-7" cx="136" cy="65.78" rx="8.08" ry="4.66" transform="matrix(1, -0.06, 0.06, 1, -3.71, 8.3)"/><g class="cls-8"><ellipse class="cls-6" cx="135.28" cy="57.53" rx="6.62" ry="8.73" transform="translate(66.86 187.65) rotate(-85.3)"/><ellipse class="cls-9" cx="139.17" cy="71.87" rx="6.28" ry="8.76" transform="translate(56.14 204.68) rotate(-85.3)"/></g><ellipse class="cls-10" cx="136" cy="65.78" rx="8.08" ry="4.66" transform="matrix(1, -0.06, 0.06, 1, -3.71, 8.3)"/><rect class="cls-4" x="126.34" y="48.19" width="3.11" height="8.69" rx="1.41"/><circle class="cls-9" cx="140.8" cy="52.99" r="2.59"/><circle class="cls-9" cx="115" cy="53.03" r="2.59"/><path class="cls-10" d="M110.44,41.81a4,4,0,0,1,7,1.07"/><path class="cls-10" d="M145.36,41.81a4,4,0,0,0-7.05,1.07"/><path class="cls-9" d="M100,34.87V48.59a1.86,1.86,0,0,1-3.7.38l-.43-7.51-2.16.72,1.13-8.41Z"/><path class="cls-9" d="M151.64,29.38S146,36.89,130,38.17,92.8,36,90.74,30.48s5.16-6.59,5.16-6.59-4.13-2.2-5.16-5.49,4.13-3.3,4.13-3.3C104.5,4.37,114.47.65,129.22,1.22s26.14,9.36,32.65,21.57a2.46,2.46,0,0,1-.94,3.3h0V41.46l-1.22-.41-1.33,6.84a1.84,1.84,0,0,1-3.65-.39V38.17h-2.06Z"/><path class="cls-6" d="M93.24,116.44l2-6.94a11.07,11.07,0,0,0,6.91-5.1c2.93-4.5,1.24-8.09,1.24-8.09l4.22-5.53A3.32,3.32,0,0,0,105,85.55h0L84.4,97l-5.29,13.22"/><path class="cls-6" d="M88.64,101.35l2.73,3.3c3.48-4.37,6.78-3.43,6.37-12l8.69-18.17a3.21,3.21,0,0,0-2.43-4.7h0a3.22,3.22,0,0,0-3.09,1.44L87.48,91.74l3.09,2.08"/><path class="cls-6" d="M90.17,97.71l2.36,3.58c3.93-4,7.11-2.69,7.62-11.24l10.58-17.14A3.21,3.21,0,0,0,108.82,68h0a3.23,3.23,0,0,0-3.23,1.1L90,88l2.85,2.4"/><path class="cls-6" d="M86.92,108.58a12.25,12.25,0,0,0,11.71-6.09,22.73,22.73,0,0,0,3.25-13.36l6.4-9.84c1.25-1.86.49-4.29-1.47-4.69h0a3.13,3.13,0,0,0-3,1.22L87.45,89.32l-8.34,20.87"/><path class="cls-6" d="M163.59,116.44l-2-6.94a11.07,11.07,0,0,1-6.91-5.1c-2.93-4.5-1.24-8.09-1.24-8.09l-4.22-5.53a3.32,3.32,0,0,1,2.58-5.23h0L172.43,97l5.28,13.22"/><path class="cls-6" d="M168.19,101.35l-2.73,3.3c-3.49-4.37-6.78-3.43-6.38-12L150.4,74.49a3.21,3.21,0,0,1,2.43-4.7h0a3.22,3.22,0,0,1,3.09,1.44l13.43,20.51-3.09,2.08"/><path class="cls-6" d="M166.66,97.71l-2.36,3.58c-3.93-4-7.11-2.69-7.62-11.24L146.1,72.91A3.21,3.21,0,0,1,148,68h0a3.21,3.21,0,0,1,3.22,1.1l15.55,19-2.84,2.4"/><path class="cls-6" d="M169.91,108.58a12.25,12.25,0,0,1-11.71-6.09A22.73,22.73,0,0,1,155,89.13l-6.4-9.84c-1.25-1.86-.49-4.29,1.47-4.69h0a3.13,3.13,0,0,1,3,1.22l16.36,13.5,8.33,20.87"/><path class="cls-2" d="M175.64,101.12h0a14.07,14.07,0,0,1,14.07,14.07v44.7a0,0,0,0,1,0,0H161.57a0,0,0,0,1,0,0v-44.7A14.07,14.07,0,0,1,175.64,101.12Z" transform="translate(385.53 192.35) rotate(159.8)"/><path class="cls-2" d="M67.13,101.12H95.26a0,0,0,0,1,0,0v44.7a14.07,14.07,0,0,1-14.07,14.07h0a14.07,14.07,0,0,1-14.07-14.07v-44.7A0,0,0,0,1,67.13,101.12Z" transform="translate(50.05 -20.01) rotate(20.2)"/><polygon class="cls-9" points="128.41 76.69 105.75 88.02 128.41 99.35 151.08 88.02 128.41 76.69"/><polygon class="cls-11" points="128.41 126.55 105.75 115.22 105.75 88.02 128.41 99.35 128.41 126.55"/><polygon class="cls-12" points="128.41 126.55 151.08 115.22 151.08 88.02 128.41 99.35 128.41 126.55"/><circle class="cls-13" cx="104.67" cy="55.58" r="4"/><circle class="cls-13" cx="152.61" cy="55.58" r="4"/></g></g></svg>