<svg xmlns="http://www.w3.org/2000/svg" xmlns:xlink="http://www.w3.org/1999/xlink" viewBox="0 0 255 160"><defs><style>.cls-1,.cls-8{fill:none;}.cls-2,.cls-9{fill:#004d40;}.cls-11,.cls-12,.cls-2,.cls-6,.cls-7,.cls-8{stroke:#00251a;stroke-linecap:round;stroke-linejoin:round;}.cls-3{clip-path:url(#clip-path);}.cls-12,.cls-4{fill:#69f0ae;}.cls-5{fill:#9fffe0;}.cls-6{fill:#2bbd7e;}.cls-7{fill:#ededed;}.cls-10{clip-path:url(#clip-path-2);}.cls-11,.cls-13{fill:#fff;}</style><clipPath id="clip-path"><rect class="cls-1" width="255" height="160"/></clipPath><clipPath id="clip-path-2"><path class="cls-2" d="M122,62.58c.21,3.1,5.23,8.24,11.23,7.91s10.68-6,10.47-9.09-5.24-2.47-11.23-2.15S121.81,59.47,122,62.58Z"/></clipPath></defs><title>hex-feature-3</title><g id="main"><g class="cls-3"><circle class="cls-4" cx="138.59" cy="79.28" r="71.92"/><polygon class="cls-5" points="94.48 84.55 105.14 86.73 101.7 76.41 94.48 84.55"/><polygon class="cls-5" points="213.05 87.75 214.41 82.27 208.99 83.84 213.05 87.75"/><polygon class="cls-5" points="192.84 12.14 196.45 14.12 192.84 16.09 190.87 19.7 188.9 16.09 185.29 14.12 188.9 12.14 190.87 8.54 192.84 12.14"/><polygon class="cls-5" points="97.15 97.01 98.9 97.97 97.15 98.93 96.19 100.69 95.22 98.93 93.47 97.97 95.22 97.01 96.19 95.25 97.15 97.01"/><rect class="cls-5" x="185.05" y="69.88" width="9.32" height="9.81" transform="translate(200.7 -128.83) rotate(71.58)"/><rect class="cls-5" x="186.64" y="35.23" width="3.55" height="3.55" transform="translate(36.46 -80.38) rotate(26.58)"/><circle class="cls-6" cx="108.33" cy="62.98" r="19.04"/><path class="cls-7" d="M85.58,109.24l21.28,6.53L88.67,131.86l-7.86-6.48L61,119.87c-2.47-.69-4.22-5.25-4.59-7.78l.28-5.4"/><path class="cls-7" d="M67.05,118.28,55.94,114.6A3.6,3.6,0,0,1,53.67,110l.33-1a3.63,3.63,0,0,1,4.84-2.12l10.77,4.64a3.6,3.6,0,0,1,1.92,4.67h0A3.6,3.6,0,0,1,67.05,118.28Z"/><path class="cls-7" d="M67.47,112.23l-11.1-3.68a3.61,3.61,0,0,1-2.27-4.63l.33-1a3.61,3.61,0,0,1,4.84-2.12L70,105.49A3.62,3.62,0,0,1,72,110.16h0A3.62,3.62,0,0,1,67.47,112.23Z"/><path class="cls-7" d="M69.72,105.26,57.18,101.1a2.13,2.13,0,0,1-1.34-2.72h0a6,6,0,0,1,8-3.5l8.46,3.64a3.62,3.62,0,0,1,1.92,4.67h0A3.62,3.62,0,0,1,69.72,105.26Z"/><path class="cls-7" d="M106.86,115.77l-23.2-9.32-.88-24.91s-6.24-.77-7.56,3.53S72,95.44,72,95.44l-3.4,3.78a12.49,12.49,0,0,0-2.4,8.2h0a12.52,12.52,0,0,0,8.39,11l4.29,1.48"/><path class="cls-2" d="M130.28,91.6l-4.2,18.74L123.84,116,87.08,105.64,78.42,132l42.66,13.5c9.14,4.1,22.69,0,24-12l1.65-15.37-9-21.16"/><path class="cls-2" d="M120,153.88h0a73.69,73.69,0,0,0,69.42-9.33l1-.74-6.8-42.41A29.23,29.23,0,0,0,150,77.31l-13,2.14A29.22,29.22,0,0,0,113,113Z"/><path class="cls-7" d="M124.38,75.93l1.21,7.36h0a23.48,23.48,0,0,0,26.51-1.08L157.77,78l-2.36-12Z"/><rect class="cls-7" x="105.28" y="14.04" width="62.58" height="69.38" rx="31.29" transform="translate(-1.63 4.85) rotate(-2.02)"/><rect class="cls-4" x="120.29" y="48.08" width="3.02" height="7.77" rx="1.51" transform="translate(243.59 103.92) rotate(180)"/><circle class="cls-6" cx="111.88" cy="50.59" r="2.51"/><circle class="cls-6" cx="136.89" cy="50.02" r="2.51"/><path class="cls-8" d="M143.73,41.7c-4.33-1.69-11.46.24-13.9,4.37"/><path class="cls-8" d="M115.26,45.6c-.87-2.54-5-5.59-8.4-.8"/><path class="cls-6" d="M147.94,31.6h0s1.39,21.5,16,21.5c10.5,3.62,5.09-1,5.09-1a35.6,35.6,0,1,0-67.83-11.29l33.69-1.49A16.19,16.19,0,0,0,147.94,31.6Z"/><path class="cls-9" d="M122,62.58c.21,3.1,5.23,8.24,11.23,7.91s10.68-6,10.47-9.09-5.24-2.47-11.23-2.15S121.81,59.47,122,62.58Z"/><g class="cls-10"><ellipse class="cls-7" cx="129.35" cy="54.98" rx="8.01" ry="11.74" transform="translate(66.92 180.89) rotate(-86.66)"/><ellipse class="cls-6" cx="138.59" cy="71.72" rx="7.6" ry="11.78" transform="translate(58.53 205.67) rotate(-86.49)"/></g><path class="cls-8" d="M122,62.58c.21,3.1,5.23,8.24,11.23,7.91s10.68-6,10.47-9.09-5.24-2.47-11.23-2.15S121.81,59.47,122,62.58Z"/><path class="cls-11" d="M86.42,29.76a24.66,24.66,0,0,1,2.7,32.12l7.07,6.92L81.12,69a24.67,24.67,0,1,1,5.3-39.2Z"/><path class="cls-2" d="M170.75,79.34c11.33.68,13.92,6.41,17.75,11.81l22.73,32.12-20,15.31-27.93-37"/><polygon class="cls-12" points="69.03 33.08 73.33 41.78 82.93 43.18 75.98 49.95 77.63 59.52 69.03 55 60.44 59.52 62.09 49.95 55.13 43.18 64.74 41.78 69.03 33.08"/><path class="cls-7" d="M155.24,104.41,152.5,79.63s-6.28-.3-7.28,4.09-2.46,10.57-2.46,10.57l-1.26,1.63-6.9-1.58a6,6,0,0,0-7.7,4.09h0c-.17.61-.9,6.95-1.47,11.53a6,6,0,0,0,3.84,6.32h0a5.55,5.55,0,0,0,4.33,3.2l20.21,4,8.32,5.87L179.07,112Z"/><path class="cls-2" d="M169.61,96.86h29.83a0,0,0,0,1,0,0V141.6a14.91,14.91,0,0,1-14.91,14.91h0a14.91,14.91,0,0,1-14.91-14.91V96.86a0,0,0,0,1,0,0Z" transform="translate(12.94 270.42) rotate(-74.43)"/><circle class="cls-13" cx="147.48" cy="54.59" r="4"/><circle class="cls-6" cx="169.52" cy="61.29" r="20.2"/></g></g></svg>