<svg width="1440" height="850" viewBox="0 0 1440 850" fill="none" xmlns="http://www.w3.org/2000/svg">
<g opacity="0.16">
<path opacity="0.5" d="M720.883 -1.04541H718.611V908.045H720.883V-1.04541Z" fill="white"/>
<path opacity="0.2" d="M765.315 -2.18188H763.042V909.182H765.315V-2.18188Z" fill="white"/>
<path opacity="0.2" d="M810.883 -2.18188H808.61V909.182H810.883V-2.18188Z" fill="white"/>
<path opacity="0.2" d="M856.451 -2.18188H854.179V909.182H856.451V-2.18188Z" fill="white"/>
<path opacity="0.2" d="M902.02 -2.18188H899.747V909.182H902.02V-2.18188Z" fill="white"/>
<path opacity="0.5" d="M947.588 -2.18188H945.315V909.182H947.588V-2.18188Z" fill="white"/>
<path opacity="0.2" d="M993.156 -2.18188H990.883V909.182H993.156V-2.18188Z" fill="white"/>
<path opacity="0.2" d="M1038.72 -2.18188H1036.45V909.182H1038.72V-2.18188Z" fill="white"/>
<path opacity="0.2" d="M1084.29 -2.18188H1082.02V909.182H1084.29V-2.18188Z" fill="white"/>
<path opacity="0.2" d="M1129.86 -2.18188H1127.59V909.182H1129.86V-2.18188Z" fill="white"/>
<path opacity="0.5" d="M1175.43 -2.18188H1173.16V909.182H1175.43V-2.18188Z" fill="white"/>
<path opacity="0.2" d="M1221 -2.18188H1218.72V909.182H1221V-2.18188Z" fill="white"/>
<path opacity="0.2" d="M1266.56 -2.18188H1264.29V909.182H1266.56V-2.18188Z" fill="white"/>
<path opacity="0.2" d="M1312.13 -2.18188H1309.86V909.182H1312.13V-2.18188Z" fill="white"/>
<path opacity="0.2" d="M1357.7 -2.18188H1355.43V909.182H1357.7V-2.18188Z" fill="white"/>
<path opacity="0.5" d="M1403.27 -2.18188H1401V909.182H1403.27V-2.18188Z" fill="white"/>
<path opacity="0.5" d="M1628.84 -2.18188H719.747V0.0908422H1628.84V-2.18188Z" fill="white"/>
<path opacity="0.2" d="M1629.97 42.25H718.611V44.5227H1629.97V42.25Z" fill="white"/>
<path opacity="0.2" d="M1629.97 87.8181H718.611V90.0908H1629.97V87.8181Z" fill="white"/>
<path opacity="0.2" d="M1629.97 133.386H718.611V135.659H1629.97V133.386Z" fill="white"/>
<path opacity="0.2" d="M1629.97 178.955H718.611V181.227H1629.97V178.955Z" fill="white"/>
<path opacity="0.5" d="M1629.97 224.523H718.611V226.795H1629.97V224.523Z" fill="white"/>
<path opacity="0.2" d="M1629.97 270.091H718.611V272.364H1629.97V270.091Z" fill="white"/>
<path opacity="0.2" d="M1629.97 315.659H718.611V317.932H1629.97V315.659Z" fill="white"/>
<path opacity="0.2" d="M1629.97 361.228H718.611V363.5H1629.97V361.228Z" fill="white"/>
<path opacity="0.2" d="M1629.97 406.795H718.611V409.068H1629.97V406.795Z" fill="white"/>
<path opacity="0.5" d="M1629.97 452.364H718.611V454.636H1629.97V452.364Z" fill="white"/>
<path opacity="0.2" d="M1629.97 497.932H718.611V500.205H1629.97V497.932Z" fill="white"/>
<path opacity="0.2" d="M1629.97 543.5H718.611V545.772H1629.97V543.5Z" fill="white"/>
<path opacity="0.2" d="M1629.97 589.068H718.611V591.341H1629.97V589.068Z" fill="white"/>
<path opacity="0.2" d="M1629.97 634.636H718.611V636.909H1629.97V634.636Z" fill="white"/>
<path opacity="0.5" d="M1629.97 680.205H718.611V682.478H1629.97V680.205Z" fill="white"/>
<path opacity="0.2" d="M1629.97 725.773H718.611V728.046H1629.97V725.773Z" fill="white"/>
<path opacity="0.2" d="M1629.97 771.341H718.611V773.614H1629.97V771.341Z" fill="white"/>
<path opacity="0.2" d="M1629.97 816.909H718.611V819.182H1629.97V816.909Z" fill="white"/>
<path d="M720.883 -9H718.611V6.90909H720.883V-9Z" fill="white"/>
<path d="M727.701 -2.18188H711.792V0.0908422H727.701V-2.18188Z" fill="white"/>
<path d="M720.883 218.273H718.611V234.182H720.883V218.273Z" fill="white"/>
<path d="M727.701 225.091H711.792V227.364H727.701V225.091Z" fill="white"/>
<path d="M720.883 445.545H718.611V461.455H720.883V445.545Z" fill="white"/>
<path d="M727.701 452.364H711.792V454.636H727.701V452.364Z" fill="white"/>
<path d="M720.883 672.818H718.611V688.727H720.883V672.818Z" fill="white"/>
<path d="M727.701 679.637H711.792V681.909H727.701V679.637Z" fill="white"/>
<path d="M948.156 -9H945.883V6.90909H948.156V-9Z" fill="white"/>
<path d="M954.974 -2.18188H939.065V0.0908422H954.974V-2.18188Z" fill="white"/>
<path d="M948.156 218.273H945.883V234.182H948.156V218.273Z" fill="white"/>
<path d="M954.974 225.091H939.065V227.364H954.974V225.091Z" fill="white"/>
<path d="M948.156 445.545H945.883V461.455H948.156V445.545Z" fill="white"/>
<path d="M954.974 452.364H939.065V454.636H954.974V452.364Z" fill="white"/>
<path d="M948.156 672.818H945.883V688.727H948.156V672.818Z" fill="white"/>
<path d="M954.974 679.637H939.065V681.909H954.974V679.637Z" fill="white"/>
<path d="M1175.43 -9H1173.16V6.90909H1175.43V-9Z" fill="white"/>
<path d="M1182.25 -2.18188H1166.34V0.0908422H1182.25V-2.18188Z" fill="white"/>
<path d="M1175.43 218.273H1173.16V234.182H1175.43V218.273Z" fill="white"/>
<path d="M1182.25 225.091H1166.34V227.364H1182.25V225.091Z" fill="white"/>
<path d="M1175.43 445.545H1173.16V461.455H1175.43V445.545Z" fill="white"/>
<path d="M1182.25 452.364H1166.34V454.636H1182.25V452.364Z" fill="white"/>
<path d="M1175.43 672.818H1173.16V688.727H1175.43V672.818Z" fill="white"/>
<path d="M1182.25 679.637H1166.34V681.909H1182.25V679.637Z" fill="white"/>
<path d="M1402.7 -9H1400.43V6.90909H1402.7V-9Z" fill="white"/>
<path d="M1409.52 -2.18188H1393.61V0.0908422H1409.52V-2.18188Z" fill="white"/>
<path d="M1402.7 218.273H1400.43V234.182H1402.7V218.273Z" fill="white"/>
<path d="M1409.52 225.091H1393.61V227.364H1409.52V225.091Z" fill="white"/>
<path d="M1402.7 445.545H1400.43V461.455H1402.7V445.545Z" fill="white"/>
<path d="M1409.52 452.364H1393.61V454.636H1409.52V452.364Z" fill="white"/>
<path d="M1402.7 672.818H1400.43V688.727H1402.7V672.818Z" fill="white"/>
<path d="M1409.52 679.637H1393.61V681.909H1409.52V679.637Z" fill="white"/>
<path d="M834.52 111.455H832.247V113.727H834.52V111.455Z" fill="white"/>
<path d="M1061.79 111.455H1059.52V113.727H1061.79V111.455Z" fill="white"/>
<path d="M1289.07 111.455H1286.79V113.727H1289.07V111.455Z" fill="white"/>
<path d="M834.52 338.728H832.247V341H834.52V338.728Z" fill="white"/>
<path d="M1061.79 338.728H1059.52V341H1061.79V338.728Z" fill="white"/>
<path d="M1289.07 338.728H1286.79V341H1289.07V338.728Z" fill="white"/>
<path d="M834.52 566H832.247V568.273H834.52V566Z" fill="white"/>
<path d="M1061.79 566H1059.52V568.273H1061.79V566Z" fill="white"/>
<path d="M1289.07 566H1286.79V568.273H1289.07V566Z" fill="white"/>
<path d="M834.52 793.273H832.247V795.546H834.52V793.273Z" fill="white"/>
<path d="M1061.79 793.273H1059.52V795.546H1061.79V793.273Z" fill="white"/>
<path d="M1289.07 793.273H1286.79V795.546H1289.07V793.273Z" fill="white"/>
<g clip-path="url(#clip0_7021_485)">
<path opacity="0.5" d="M38.7952 -2.18188H36.5225V909.182H38.7952V-2.18188Z" fill="white"/>
<path opacity="0.2" d="M84.3638 -2.18188H82.0911V909.182H84.3638V-2.18188Z" fill="white"/>
<path opacity="0.2" d="M129.932 -2.18188H127.659V909.182H129.932V-2.18188Z" fill="white"/>
<path opacity="0.2" d="M175.5 -2.18188H173.228V909.182H175.5V-2.18188Z" fill="white"/>
<path opacity="0.2" d="M221.068 -2.18188H218.795V909.182H221.068V-2.18188Z" fill="white"/>
<path opacity="0.5" d="M266.636 -2.18188H264.364V909.182H266.636V-2.18188Z" fill="white"/>
<path opacity="0.2" d="M312.205 -2.18188H309.932V909.182H312.205V-2.18188Z" fill="white"/>
<path opacity="0.2" d="M357.772 -2.18188H355.5V909.182H357.772V-2.18188Z" fill="white"/>
<path opacity="0.2" d="M403.341 -2.18188H401.068V909.182H403.341V-2.18188Z" fill="white"/>
<path opacity="0.2" d="M448.909 -2.18188H446.636V909.182H448.909V-2.18188Z" fill="white"/>
<path opacity="0.5" d="M494.477 -2.18188H492.204V909.182H494.477V-2.18188Z" fill="white"/>
<path opacity="0.2" d="M540.046 -2.18188H537.773V909.182H540.046V-2.18188Z" fill="white"/>
<path opacity="0.2" d="M585.614 -2.18188H583.341V909.182H585.614V-2.18188Z" fill="white"/>
<path opacity="0.2" d="M631.181 -2.18188H628.909V909.182H631.181V-2.18188Z" fill="white"/>
<path opacity="0.2" d="M676.75 -2.18188H674.477V909.182H676.75V-2.18188Z" fill="white"/>
<path opacity="0.5" d="M721.182 -1.04541H718.909V908.045H721.182V-1.04541Z" fill="white"/>
<path opacity="0.5" d="M720.045 -2.18188H-189.045V0.0908422H720.045V-2.18188Z" fill="white"/>
<path opacity="0.2" d="M721.182 42.25H-190.182V44.5227H721.182V42.25Z" fill="white"/>
<path opacity="0.2" d="M721.182 87.8181H-190.182V90.0908H721.182V87.8181Z" fill="white"/>
<path opacity="0.2" d="M721.182 133.386H-190.182V135.659H721.182V133.386Z" fill="white"/>
<path opacity="0.2" d="M721.182 178.955H-190.182V181.227H721.182V178.955Z" fill="white"/>
<path opacity="0.5" d="M721.182 224.523H-190.182V226.795H721.182V224.523Z" fill="white"/>
<path opacity="0.2" d="M721.182 270.091H-190.182V272.364H721.182V270.091Z" fill="white"/>
<path opacity="0.2" d="M721.182 315.659H-190.182V317.932H721.182V315.659Z" fill="white"/>
<path opacity="0.2" d="M721.182 361.228H-190.182V363.5H721.182V361.228Z" fill="white"/>
<path opacity="0.2" d="M721.182 406.795H-190.182V409.068H721.182V406.795Z" fill="white"/>
<path opacity="0.5" d="M721.182 452.364H-190.182V454.636H721.182V452.364Z" fill="white"/>
<path opacity="0.2" d="M721.182 497.932H-190.182V500.205H721.182V497.932Z" fill="white"/>
<path opacity="0.2" d="M721.182 543.5H-190.182V545.772H721.182V543.5Z" fill="white"/>
<path opacity="0.2" d="M721.182 589.068H-190.182V591.341H721.182V589.068Z" fill="white"/>
<path opacity="0.2" d="M721.182 634.636H-190.182V636.909H721.182V634.636Z" fill="white"/>
<path opacity="0.5" d="M721.182 680.205H-190.182V682.478H721.182V680.205Z" fill="white"/>
<path opacity="0.2" d="M721.182 725.773H-190.182V728.046H721.182V725.773Z" fill="white"/>
<path opacity="0.2" d="M721.182 771.341H-190.182V773.614H721.182V771.341Z" fill="white"/>
<path opacity="0.2" d="M721.182 816.909H-190.182V819.182H721.182V816.909Z" fill="white"/>
<path d="M721.182 -9H718.909V6.90909H721.182V-9Z" fill="white"/>
<path d="M728 -2.18188H712.091V0.0908422H728V-2.18188Z" fill="white"/>
<path d="M721.182 218.273H718.909V234.182H721.182V218.273Z" fill="white"/>
<path d="M728 225.091H712.091V227.364H728V225.091Z" fill="white"/>
<path d="M721.182 445.545H718.909V461.455H721.182V445.545Z" fill="white"/>
<path d="M728 452.364H712.091V454.636H728V452.364Z" fill="white"/>
<path d="M721.182 672.818H718.909V688.727H721.182V672.818Z" fill="white"/>
<path d="M728 679.637H712.091V681.909H728V679.637Z" fill="white"/>
<path d="M39.3635 -9H37.0908V6.90909H39.3635V-9Z" fill="white"/>
<path d="M46.182 -2.18188H30.2729V0.0908422H46.182V-2.18188Z" fill="white"/>
<path d="M39.3635 218.273H37.0908V234.182H39.3635V218.273Z" fill="white"/>
<path d="M46.182 225.091H30.2729V227.364H46.182V225.091Z" fill="white"/>
<path d="M39.3635 445.545H37.0908V461.455H39.3635V445.545Z" fill="white"/>
<path d="M46.182 452.364H30.2729V454.636H46.182V452.364Z" fill="white"/>
<path d="M39.3635 672.818H37.0908V688.727H39.3635V672.818Z" fill="white"/>
<path d="M46.182 679.637H30.2729V681.909H46.182V679.637Z" fill="white"/>
<path d="M266.636 -9H264.364V6.90909H266.636V-9Z" fill="white"/>
<path d="M273.455 -2.18188H257.545V0.0908422H273.455V-2.18188Z" fill="white"/>
<path d="M266.636 218.273H264.364V234.182H266.636V218.273Z" fill="white"/>
<path d="M273.455 225.091H257.545V227.364H273.455V225.091Z" fill="white"/>
<path d="M266.636 445.545H264.364V461.455H266.636V445.545Z" fill="white"/>
<path d="M273.455 452.364H257.545V454.636H273.455V452.364Z" fill="white"/>
<path d="M266.636 672.818H264.364V688.727H266.636V672.818Z" fill="white"/>
<path d="M273.455 679.637H257.545V681.909H273.455V679.637Z" fill="white"/>
<path d="M493.909 -9H491.636V6.90909H493.909V-9Z" fill="white"/>
<path d="M500.727 -2.18188H484.818V0.0908422H500.727V-2.18188Z" fill="white"/>
<path d="M493.909 218.273H491.636V234.182H493.909V218.273Z" fill="white"/>
<path d="M500.727 225.091H484.818V227.364H500.727V225.091Z" fill="white"/>
<path d="M493.909 445.545H491.636V461.455H493.909V445.545Z" fill="white"/>
<path d="M500.727 452.364H484.818V454.636H500.727V452.364Z" fill="white"/>
<path d="M493.909 672.818H491.636V688.727H493.909V672.818Z" fill="white"/>
<path d="M500.727 679.637H484.818V681.909H500.727V679.637Z" fill="white"/>
<path d="M153 111.455H150.728V113.727H153V111.455Z" fill="white"/>
<path d="M380.273 111.455H378V113.727H380.273V111.455Z" fill="white"/>
<path d="M607.545 111.455H605.273V113.727H607.545V111.455Z" fill="white"/>
<path d="M153 338.728H150.728V341H153V338.728Z" fill="white"/>
<path d="M380.273 338.728H378V341H380.273V338.728Z" fill="white"/>
<path d="M607.545 338.728H605.273V341H607.545V338.728Z" fill="white"/>
<path d="M153 566H150.728V568.273H153V566Z" fill="white"/>
<path d="M380.273 566H378V568.273H380.273V566Z" fill="white"/>
<path d="M607.545 566H605.273V568.273H607.545V566Z" fill="white"/>
<path d="M153 793.273H150.728V795.546H153V793.273Z" fill="white"/>
<path d="M380.273 793.273H378V795.546H380.273V793.273Z" fill="white"/>
<path d="M607.545 793.273H605.273V795.546H607.545V793.273Z" fill="white"/>
</g>
</g>
<path d="M1354.91 90H1330.09L1342.5 101.945L1354.91 90Z" fill="#37FFD7"/>
<path d="M1354.91 161.599H1330.09L1342.5 174.419L1354.91 161.599Z" fill="#37FFD7"/>
<path d="M1354.91 198H1330.09L1342.5 210.819L1354.91 198Z" fill="#37FFD7"/>
<path d="M1354.91 125.945H1330.09L1342.5 137.599L1354.91 125.945Z" fill="#37FFD7"/>
<path opacity="0.7" d="M32 649H-32L-1.90735e-06 679.72L32 649Z" fill="#37FFD7"/>
<path opacity="0.7" d="M32 703.72H-32L-1.90735e-06 733.587L32 703.72Z" fill="#37FFD7"/>
<path opacity="0.7" d="M32 757.587H-32L-1.90735e-06 788.307L32 757.587Z" fill="#37FFD7"/>
<defs>
<clipPath id="clip0_7021_485">
<rect width="916" height="925" fill="white" transform="translate(-197 -9)"/>
</clipPath>
</defs>
</svg>
