<svg width="32" height="33" viewBox="0 0 32 33" fill="none" xmlns="http://www.w3.org/2000/svg">
<path d="M15.0621 6.60287C15.3843 5.73225 16.6157 5.73225 16.9379 6.60287L19.0815 12.396C19.1828 12.6697 19.3986 12.8856 19.6723 12.9868L25.4655 15.1305C26.3361 15.4527 26.3361 16.6841 25.4655 17.0062L19.6723 19.1499C19.3986 19.2512 19.1828 19.467 19.0815 19.7407L16.9379 25.5339C16.6157 26.4045 15.3843 26.4045 15.0621 25.5339L12.9185 19.7407C12.8172 19.467 12.6014 19.2512 12.3277 19.1499L6.53451 17.0062C5.66389 16.6841 5.66389 15.4527 6.53451 15.1305L12.3277 12.9868C12.6014 12.8856 12.8172 12.6697 12.9185 12.396L15.0621 6.60287Z" fill="#FAD246"/>
</svg>
