<svg width="16" height="17" viewBox="0 0 16 17" fill="none" xmlns="http://www.w3.org/2000/svg">
<path d="M7.06215 3.10286C7.38431 2.23225 8.61569 2.23225 8.93785 3.10286L10.0012 5.97639C10.1024 6.25011 10.3182 6.46592 10.592 6.56721L13.4655 7.63051C14.3361 7.95267 14.3361 9.18405 13.4655 9.50621L10.592 10.5695C10.3182 10.6708 10.1024 10.8866 10.0012 11.1603L8.93785 14.0339C8.61569 14.9045 7.38431 14.9045 7.06215 14.0339L5.99885 11.1603C5.89756 10.8866 5.68175 10.6708 5.40803 10.5695L2.5345 9.50621C1.66389 9.18405 1.66389 7.95267 2.53451 7.63051L5.40803 6.56721C5.68175 6.46592 5.89756 6.25011 5.99885 5.97639L7.06215 3.10286Z" fill="#888EF1"/>
</svg>
