<svg width="151" height="20" viewBox="0 0 151 20" fill="none" xmlns="http://www.w3.org/2000/svg">
<path opacity="0.6" fill-rule="evenodd" clip-rule="evenodd" d="M139.114 14.5487C130.245 14.538 121.777 14.5278 113.17 15.0485C112.876 15.0663 112.578 15.0846 112.277 15.1031C107.302 15.4084 101.37 15.7724 95.5098 14.9946C92.8971 14.6479 90.5805 14.7256 87.682 15.1909C84.8484 15.6457 81.9229 16.2368 78.7568 16.8764C78.2348 16.9819 77.7063 17.0887 77.1705 17.1964C73.4668 17.941 69.4879 18.7148 65.448 19.2563C57.4146 20.333 48.4395 20.6013 39.704 17.5513C35.8892 16.2194 33.9661 15.7923 30.0216 16.0411C24.2403 16.4057 18.4924 16.9655 12.5993 17.5396C11.5803 17.6389 10.5569 17.7385 9.52829 17.8377L2.00727 18.5628L0.5 4.09022L8.02102 3.36512C9.0186 3.26894 10.0218 3.17117 11.0298 3.07292C16.9125 2.49957 22.961 1.91007 29.0329 1.52717C35.6458 1.11016 39.7137 2.08161 44.8607 3.87865C50.2224 5.75065 56.3364 5.792 63.3622 4.85034C66.8519 4.38263 70.395 3.6994 74.0783 2.95887C74.5828 2.85743 75.0917 2.75453 75.6041 2.65094C78.7492 2.01503 82.0229 1.35313 85.1944 0.844074C89.3051 0.184236 93.1814 0.00287764 97.5753 0.585977C101.888 1.15823 106.436 0.882642 111.842 0.555118L112.222 0.532111C121.348 -0.020091 130.336 -0.00826664 139.163 0.00334446C140.426 0.00500555 141.685 0.00666273 142.941 0.00666273H150.5V14.5517H142.941C141.656 14.5517 140.381 14.5502 139.114 14.5487Z" fill="#FAD246"/>
</svg>
