<svg width="161" height="48" viewBox="0 0 161 48" fill="none" xmlns="http://www.w3.org/2000/svg">
<path fill-rule="evenodd" clip-rule="evenodd" d="M25.3276 48C30.4314 48 35.1756 46.5113 39.1207 43.9585C43.0658 46.5113 47.8099 48 52.9138 48C58.0177 48 62.7618 46.5113 66.7069 43.9585C70.652 46.5113 75.3961 48 80.5 48C85.6039 48 90.348 46.5113 94.2931 43.9585C98.2382 46.5113 102.982 48 108.086 48C113.19 48 117.934 46.5113 121.879 43.9585C125.824 46.5113 130.569 48 135.672 48C149.384 48 160.5 37.2548 160.5 24C160.5 10.7452 149.384 0 135.672 0C130.569 0 125.824 1.48872 121.879 4.04147C117.934 1.48872 113.19 0 108.086 0C102.982 0 98.2382 1.48872 94.2931 4.04147C90.348 1.48872 85.6039 0 80.5 0C75.3961 0 70.652 1.48872 66.7069 4.04146C62.7618 1.48872 58.0177 0 52.9138 0C47.8099 0 43.0658 1.48873 39.1207 4.04147C35.1756 1.48873 30.4314 0 25.3276 0C11.6157 0 0.5 10.7452 0.5 24C0.5 37.2548 11.6157 48 25.3276 48Z" fill="#FF73B9"/>
</svg>
