<svg width="180" height="56" viewBox="0 0 180 56" fill="none" xmlns="http://www.w3.org/2000/svg">
<path fill-rule="evenodd" clip-rule="evenodd" d="M27.931 56C33.6729 56 39.01 54.2632 43.4483 51.285C47.8865 54.2632 53.2237 56 58.9655 56C64.7074 56 70.0445 54.2632 74.4828 51.285C78.921 54.2632 84.2582 56 90 56C95.7418 56 101.079 54.2632 105.517 51.285C109.955 54.2632 115.293 56 121.034 56C126.776 56 132.113 54.2632 136.552 51.285C140.99 54.2632 146.327 56 152.069 56C167.495 56 180 43.464 180 28C180 12.536 167.495 0 152.069 0C146.327 0 140.99 1.73685 136.552 4.71504C132.113 1.73685 126.776 0 121.034 0C115.293 0 109.955 1.73685 105.517 4.71504C101.079 1.73685 95.7418 0 90 0C84.2582 0 78.921 1.73685 74.4828 4.71504C70.0445 1.73685 64.7074 0 58.9655 0C53.2237 0 47.8865 1.73685 43.4483 4.71504C39.01 1.73685 33.6729 0 27.931 0C12.5051 0 0 12.536 0 28C0 43.464 12.5051 56 27.931 56Z" fill="#FF73B9"/>
</svg>
