<svg width="14" height="21" viewBox="0 0 14 21" fill="none" xmlns="http://www.w3.org/2000/svg">
<g clip-path="url(#clip0_2033_393)">
<path d="M6.75283 3.93141C7.37486 4.99657 8.39325 5.61413 9.46951 6.26852C10.1928 6.70762 10.9421 7.16371 11.5989 7.77561L12.1949 8.33085L11.6394 8.92291C11.4629 9.10988 11.2806 9.28835 11.0955 9.46966C10.728 9.8266 10.3837 10.1609 10.161 10.5235C9.74146 11.2119 9.50133 11.8578 9.46951 12.3875C9.429 13.0731 9.23227 13.6821 9.04421 14.2685C8.92559 14.6368 8.80408 15.0164 8.7115 15.4328L8.34696 17.0986L7.24756 15.7784C6.96692 15.4413 6.70365 15.1127 6.44905 14.7983C5.9196 14.1382 5.41908 13.515 4.88095 12.9626C4.32836 12.3903 3.70633 11.8521 3.04669 11.2827C2.73423 11.0136 2.41598 10.7359 2.08616 10.4413L1.5625 9.97391L1.95018 9.39034C2.3234 8.82943 2.7458 8.30535 3.15084 7.79827C4.06219 6.66512 4.92435 5.59147 5.21077 4.18354L5.64764 2.03906L6.75572 3.93708L6.75283 3.93141Z" fill="#FCDE56"/>
<path d="M4.02442 13.2315C5.49993 14.9624 6.96387 16.6762 7.21847 19.07C7.28212 19.6678 7.42967 20.4156 8.37863 20.7499C8.53775 20.07 8.78656 19.4411 8.81839 18.8037C8.8994 17.0813 9.21186 15.4213 9.61979 13.7386C10.1637 11.4893 11.4425 9.90571 13.3606 8.73007C13.7223 8.50911 14.1042 8.29948 13.9798 7.91421C13.8901 7.63659 13.4966 7.31364 13.19 7.25982C11.6855 6.99636 10.4009 6.3788 9.31312 5.31931C8.41913 4.44962 7.35734 3.74707 7.19243 2.33914C7.12878 1.80656 6.68324 1.31648 6.38235 0.74707C5.81818 0.871716 5.33502 0.979365 4.86054 1.08418C4.29349 4.61109 2.64728 7.48928 0.00292969 10.0275C0.364575 10.359 0.538164 10.6309 0.784083 10.7244C2.1294 11.2428 3.12176 12.1663 4.02442 13.2287V13.2315ZM6.02938 4.33631C7.2069 6.3533 9.47513 6.92554 11.023 8.36747C10.4791 8.9482 9.83678 9.45245 9.44331 10.1012C9.03537 10.7726 8.68241 11.5714 8.63323 12.3335C8.57247 13.3108 8.13849 14.1295 7.89258 15.2542C7.01016 14.1947 6.30712 13.24 5.48547 12.3901C4.64356 11.5204 3.68592 10.7556 2.64728 9.82639C3.82479 8.05302 5.56358 6.61676 6.02938 4.33347V4.33631Z" fill="black"/>
</g>
<defs>
<clipPath id="clip0_2033_393">
<rect width="14" height="20" fill="white" transform="translate(0 0.75)"/>
</clipPath>
</defs>
</svg>
